G75*
%MOIN*%
%OFA0B0*%
%FSLAX24Y24*%
%IPPOS*%
%LPD*%
%AMOC8*
5,1,8,0,0,1.08239X$1,22.5*
%
%ADD10C,0.0100*%
%ADD11C,0.0040*%
%ADD12C,0.0060*%
%ADD13C,0.0090*%
%ADD14C,0.0030*%
%ADD15C,0.0020*%
%ADD16C,0.0050*%
%ADD17C,0.0080*%
%ADD18R,0.0591X0.0591*%
%ADD19C,0.0079*%
%ADD20C,0.0010*%
D10*
X033384Y003126D02*
X033650Y003393D01*
X033517Y003393D02*
X033517Y003126D01*
X033650Y003126D02*
X033384Y003393D01*
X033384Y003259D02*
X033650Y003259D01*
X033844Y003259D02*
X034111Y003259D01*
X034111Y003126D02*
X033844Y003393D01*
X033977Y003393D02*
X033977Y003126D01*
X033844Y003126D02*
X034111Y003393D01*
X034304Y003393D02*
X034571Y003126D01*
X034438Y003126D02*
X034438Y003393D01*
X034571Y003393D02*
X034304Y003126D01*
X034304Y003259D02*
X034571Y003259D01*
X035225Y003193D02*
X035425Y003193D01*
X035492Y003259D01*
X035492Y003393D01*
X035425Y003459D01*
X035225Y003459D01*
X035225Y003059D01*
X035359Y003193D02*
X035492Y003059D01*
X035686Y003126D02*
X035752Y003059D01*
X035886Y003059D01*
X035952Y003126D01*
X035952Y003393D01*
X035886Y003459D01*
X035752Y003459D01*
X035686Y003393D01*
X035686Y003126D01*
X036146Y003059D02*
X036146Y003459D01*
X036346Y003459D01*
X036413Y003393D01*
X036413Y003326D01*
X036346Y003259D01*
X036146Y003259D01*
X036146Y003059D02*
X036346Y003059D01*
X036413Y003126D01*
X036413Y003193D01*
X036346Y003259D01*
X036606Y003259D02*
X036806Y003259D01*
X036873Y003193D01*
X036873Y003126D01*
X036806Y003059D01*
X036606Y003059D01*
X036606Y003459D01*
X036806Y003459D01*
X036873Y003393D01*
X036873Y003326D01*
X036806Y003259D01*
X037067Y003126D02*
X037133Y003059D01*
X037267Y003059D01*
X037334Y003126D01*
X037334Y003393D01*
X037267Y003459D01*
X037133Y003459D01*
X037067Y003393D01*
X037067Y003126D01*
X037987Y003059D02*
X038254Y003059D01*
X038448Y003059D02*
X038448Y003326D01*
X038581Y003459D01*
X038715Y003326D01*
X038715Y003059D01*
X038908Y003059D02*
X039108Y003059D01*
X039175Y003126D01*
X039175Y003193D01*
X039108Y003259D01*
X038908Y003259D01*
X038715Y003259D02*
X038448Y003259D01*
X038908Y003059D02*
X038908Y003459D01*
X039108Y003459D01*
X039175Y003393D01*
X039175Y003326D01*
X039108Y003259D01*
X039829Y003326D02*
X039962Y003059D01*
X040096Y003326D01*
X040289Y003393D02*
X040356Y003459D01*
X040490Y003459D01*
X040556Y003393D01*
X040556Y003326D01*
X040289Y003059D01*
X040556Y003059D01*
X040750Y003059D02*
X040817Y003059D01*
X040817Y003126D01*
X040750Y003126D01*
X040750Y003059D01*
X040980Y003126D02*
X041247Y003393D01*
X041247Y003126D01*
X041180Y003059D01*
X041047Y003059D01*
X040980Y003126D01*
X040980Y003393D01*
X041047Y003459D01*
X041180Y003459D01*
X041247Y003393D01*
X041901Y003393D02*
X042168Y003126D01*
X042168Y003259D02*
X041901Y003259D01*
X041901Y003126D02*
X042168Y003393D01*
X042034Y003393D02*
X042034Y003126D01*
X042361Y003126D02*
X042628Y003393D01*
X042495Y003393D02*
X042495Y003126D01*
X042628Y003126D02*
X042361Y003393D01*
X042361Y003259D02*
X042628Y003259D01*
X042822Y003259D02*
X043088Y003259D01*
X043088Y003126D02*
X042822Y003393D01*
X042955Y003393D02*
X042955Y003126D01*
X042822Y003126D02*
X043088Y003393D01*
X037987Y003459D02*
X037987Y003059D01*
D11*
X033518Y007430D02*
X033058Y007430D01*
X033058Y007661D01*
X033135Y007737D01*
X033288Y007737D01*
X033365Y007661D01*
X033365Y007430D01*
X033365Y007584D02*
X033518Y007737D01*
X033442Y007891D02*
X033518Y007967D01*
X033518Y008121D01*
X033442Y008198D01*
X033135Y008198D01*
X033058Y008121D01*
X033058Y007967D01*
X033135Y007891D01*
X033211Y007891D01*
X033288Y007967D01*
X033288Y008198D01*
X031820Y008257D02*
X031743Y008180D01*
X031589Y008180D01*
X031513Y008257D01*
X031513Y008411D02*
X031666Y008487D01*
X031743Y008487D01*
X031820Y008411D01*
X031820Y008257D01*
X031513Y008411D02*
X031513Y008641D01*
X031820Y008641D01*
X031359Y008564D02*
X031359Y008411D01*
X031283Y008334D01*
X031052Y008334D01*
X031052Y008180D02*
X031052Y008641D01*
X031283Y008641D01*
X031359Y008564D01*
X031206Y008334D02*
X031359Y008180D01*
X029330Y008375D02*
X029253Y008298D01*
X029099Y008298D01*
X029023Y008375D01*
X029023Y008529D02*
X029176Y008605D01*
X029253Y008605D01*
X029330Y008529D01*
X029330Y008375D01*
X029023Y008529D02*
X029023Y008759D01*
X029330Y008759D01*
X028869Y008682D02*
X028869Y008375D01*
X028792Y008298D01*
X028562Y008298D01*
X028562Y008759D01*
X028792Y008759D01*
X028869Y008682D01*
X028792Y009298D02*
X028562Y009298D01*
X028562Y009759D01*
X028792Y009759D01*
X028869Y009682D01*
X028869Y009375D01*
X028792Y009298D01*
X029023Y009375D02*
X029099Y009298D01*
X029253Y009298D01*
X029330Y009375D01*
X029330Y009452D01*
X029253Y009529D01*
X029023Y009529D01*
X029023Y009375D01*
X029023Y009529D02*
X029176Y009682D01*
X029330Y009759D01*
X029023Y010298D02*
X029023Y010375D01*
X029330Y010682D01*
X029330Y010759D01*
X029023Y010759D01*
X028869Y010682D02*
X028792Y010759D01*
X028562Y010759D01*
X028562Y010298D01*
X028792Y010298D01*
X028869Y010375D01*
X028869Y010682D01*
X028792Y011960D02*
X028562Y011960D01*
X028562Y012420D01*
X028792Y012420D01*
X028869Y012344D01*
X028869Y012037D01*
X028792Y011960D01*
X029023Y012037D02*
X029023Y012113D01*
X029099Y012190D01*
X029253Y012190D01*
X029330Y012113D01*
X029330Y012037D01*
X029253Y011960D01*
X029099Y011960D01*
X029023Y012037D01*
X029099Y012190D02*
X029023Y012267D01*
X029023Y012344D01*
X029099Y012420D01*
X029253Y012420D01*
X029330Y012344D01*
X029330Y012267D01*
X029253Y012190D01*
X029253Y012960D02*
X029330Y013037D01*
X029330Y013344D01*
X029253Y013420D01*
X029099Y013420D01*
X029023Y013344D01*
X029023Y013267D01*
X029099Y013190D01*
X029330Y013190D01*
X029253Y012960D02*
X029099Y012960D01*
X029023Y013037D01*
X028869Y013037D02*
X028869Y013344D01*
X028792Y013420D01*
X028562Y013420D01*
X028562Y012960D01*
X028792Y012960D01*
X028869Y013037D01*
X028792Y013960D02*
X028562Y013960D01*
X028562Y014420D01*
X028792Y014420D01*
X028869Y014344D01*
X028869Y014037D01*
X028792Y013960D01*
X029023Y013960D02*
X029330Y013960D01*
X029176Y013960D02*
X029176Y014420D01*
X029023Y014267D01*
X029483Y014344D02*
X029560Y014420D01*
X029713Y014420D01*
X029790Y014344D01*
X029483Y014037D01*
X029560Y013960D01*
X029713Y013960D01*
X029790Y014037D01*
X029790Y014344D01*
X029483Y014344D02*
X029483Y014037D01*
X029483Y014960D02*
X029790Y014960D01*
X029636Y014960D02*
X029636Y015420D01*
X029483Y015267D01*
X029176Y015420D02*
X029176Y014960D01*
X029023Y014960D02*
X029330Y014960D01*
X029023Y015267D02*
X029176Y015420D01*
X028869Y015344D02*
X028792Y015420D01*
X028562Y015420D01*
X028562Y014960D01*
X028792Y014960D01*
X028869Y015037D01*
X028869Y015344D01*
X028792Y015960D02*
X028562Y015960D01*
X028562Y016420D01*
X028792Y016420D01*
X028869Y016344D01*
X028869Y016037D01*
X028792Y015960D01*
X029023Y015960D02*
X029330Y015960D01*
X029483Y015960D02*
X029790Y016267D01*
X029790Y016344D01*
X029713Y016420D01*
X029560Y016420D01*
X029483Y016344D01*
X029176Y016420D02*
X029176Y015960D01*
X029483Y015960D02*
X029790Y015960D01*
X029176Y016420D02*
X029023Y016267D01*
X029023Y016960D02*
X029330Y016960D01*
X029176Y016960D02*
X029176Y017420D01*
X029023Y017267D01*
X028869Y017344D02*
X028792Y017420D01*
X028562Y017420D01*
X028562Y016960D01*
X028792Y016960D01*
X028869Y017037D01*
X028869Y017344D01*
X029483Y017344D02*
X029560Y017420D01*
X029713Y017420D01*
X029790Y017344D01*
X029790Y017267D01*
X029713Y017190D01*
X029790Y017113D01*
X029790Y017037D01*
X029713Y016960D01*
X029560Y016960D01*
X029483Y017037D01*
X029636Y017190D02*
X029713Y017190D01*
X029713Y017960D02*
X029483Y017960D01*
X029483Y018420D01*
X029713Y018420D01*
X029790Y018344D01*
X029790Y018037D01*
X029713Y017960D01*
X029330Y017960D02*
X029330Y018420D01*
X029023Y018420D02*
X029023Y017960D01*
X028869Y018037D02*
X028869Y018190D01*
X028716Y018190D01*
X028869Y018037D02*
X028792Y017960D01*
X028639Y017960D01*
X028562Y018037D01*
X028562Y018344D01*
X028639Y018420D01*
X028792Y018420D01*
X028869Y018344D01*
X029023Y018420D02*
X029330Y017960D01*
X029330Y018960D02*
X029176Y019113D01*
X029253Y019113D02*
X029023Y019113D01*
X029023Y018960D02*
X029023Y019420D01*
X029253Y019420D01*
X029330Y019344D01*
X029330Y019190D01*
X029253Y019113D01*
X029483Y019190D02*
X029636Y019190D01*
X029483Y018960D02*
X029790Y018960D01*
X029943Y018960D02*
X029943Y019420D01*
X030250Y019420D01*
X030196Y019567D02*
X030350Y019567D01*
X030427Y019644D01*
X030580Y019567D02*
X030887Y019567D01*
X030734Y019567D02*
X030734Y020027D01*
X030580Y019874D01*
X030427Y019951D02*
X030350Y020027D01*
X030196Y020027D01*
X030120Y019951D01*
X030120Y019644D01*
X030196Y019567D01*
X030097Y019190D02*
X029943Y019190D01*
X029790Y019420D02*
X029483Y019420D01*
X029483Y018960D01*
X028869Y018960D02*
X028869Y019267D01*
X028716Y019420D01*
X028562Y019267D01*
X028562Y018960D01*
X028562Y019190D02*
X028869Y019190D01*
X028792Y019960D02*
X028639Y019960D01*
X028562Y020037D01*
X028639Y020190D02*
X028562Y020267D01*
X028562Y020344D01*
X028639Y020420D01*
X028792Y020420D01*
X028869Y020344D01*
X029023Y020420D02*
X029023Y019960D01*
X029253Y019960D01*
X029330Y020037D01*
X029330Y020344D01*
X029253Y020420D01*
X029023Y020420D01*
X028792Y020190D02*
X028869Y020113D01*
X028869Y020037D01*
X028792Y019960D01*
X028792Y020190D02*
X028639Y020190D01*
X029483Y020190D02*
X029790Y020190D01*
X029790Y020267D02*
X029790Y019960D01*
X029790Y020267D02*
X029636Y020420D01*
X029483Y020267D01*
X029483Y019960D01*
X029483Y020960D02*
X029790Y020960D01*
X029483Y020960D02*
X029483Y021420D01*
X029330Y021344D02*
X029253Y021420D01*
X029099Y021420D01*
X029023Y021344D01*
X029023Y021037D01*
X029099Y020960D01*
X029253Y020960D01*
X029330Y021037D01*
X028869Y021037D02*
X028792Y020960D01*
X028639Y020960D01*
X028562Y021037D01*
X028639Y021190D02*
X028562Y021267D01*
X028562Y021344D01*
X028639Y021420D01*
X028792Y021420D01*
X028869Y021344D01*
X028792Y021190D02*
X028869Y021113D01*
X028869Y021037D01*
X028792Y021190D02*
X028639Y021190D01*
X031041Y019951D02*
X031117Y020027D01*
X031271Y020027D01*
X031347Y019951D01*
X031041Y019644D01*
X031117Y019567D01*
X031271Y019567D01*
X031347Y019644D01*
X031347Y019951D01*
X031041Y019951D02*
X031041Y019644D01*
X031324Y017830D02*
X031555Y017830D01*
X031631Y017753D01*
X031631Y017600D01*
X031555Y017523D01*
X031324Y017523D01*
X031324Y017370D02*
X031324Y017830D01*
X031478Y017523D02*
X031631Y017370D01*
X031785Y017370D02*
X032092Y017677D01*
X032092Y017753D01*
X032015Y017830D01*
X031861Y017830D01*
X031785Y017753D01*
X031785Y017370D02*
X032092Y017370D01*
X032245Y017446D02*
X032245Y017523D01*
X032322Y017600D01*
X032475Y017600D01*
X032552Y017523D01*
X032552Y017446D01*
X032475Y017370D01*
X032322Y017370D01*
X032245Y017446D01*
X032322Y017600D02*
X032245Y017677D01*
X032245Y017753D01*
X032322Y017830D01*
X032475Y017830D01*
X032552Y017753D01*
X032552Y017677D01*
X032475Y017600D01*
X033395Y015755D02*
X033625Y015755D01*
X033702Y015678D01*
X033702Y015525D01*
X033625Y015448D01*
X033395Y015448D01*
X033548Y015448D02*
X033702Y015294D01*
X033855Y015525D02*
X034162Y015525D01*
X034085Y015755D02*
X033855Y015525D01*
X034085Y015294D02*
X034085Y015755D01*
X033395Y015755D02*
X033395Y015294D01*
X032181Y014423D02*
X032181Y014116D01*
X032104Y014039D01*
X031951Y014039D01*
X031874Y014116D01*
X031951Y014270D02*
X032181Y014270D01*
X032181Y014423D02*
X032104Y014500D01*
X031951Y014500D01*
X031874Y014423D01*
X031874Y014346D01*
X031951Y014270D01*
X031720Y014346D02*
X031720Y014423D01*
X031644Y014500D01*
X031490Y014500D01*
X031413Y014423D01*
X031260Y014423D02*
X031260Y014270D01*
X031183Y014193D01*
X030953Y014193D01*
X031107Y014193D02*
X031260Y014039D01*
X031413Y014039D02*
X031720Y014346D01*
X031720Y014039D02*
X031413Y014039D01*
X031260Y014423D02*
X031183Y014500D01*
X030953Y014500D01*
X030953Y014039D01*
X031003Y012922D02*
X031079Y012922D01*
X031156Y012845D01*
X031156Y012692D01*
X031079Y012615D01*
X031156Y012462D02*
X031003Y012308D01*
X031003Y012385D02*
X031003Y012155D01*
X031156Y012155D02*
X030696Y012155D01*
X030696Y012385D01*
X030772Y012462D01*
X030926Y012462D01*
X031003Y012385D01*
X030772Y012615D02*
X030696Y012692D01*
X030696Y012845D01*
X030772Y012922D01*
X030849Y012922D01*
X030926Y012845D01*
X031003Y012922D01*
X030926Y012845D02*
X030926Y012769D01*
X034877Y016460D02*
X034877Y016920D01*
X035107Y016920D01*
X035184Y016844D01*
X035184Y016690D01*
X035107Y016613D01*
X034877Y016613D01*
X035337Y016690D02*
X035644Y016690D01*
X035797Y016537D02*
X035874Y016460D01*
X036028Y016460D01*
X036104Y016537D01*
X036104Y016844D01*
X036028Y016920D01*
X035874Y016920D01*
X035797Y016844D01*
X035797Y016537D01*
X035644Y016460D02*
X035644Y016920D01*
X035337Y016920D02*
X035337Y016460D01*
X036258Y016920D02*
X036565Y016920D01*
X036411Y016920D02*
X036411Y016460D01*
X036718Y016537D02*
X036795Y016460D01*
X036948Y016460D01*
X037025Y016537D01*
X037025Y016844D01*
X036948Y016920D01*
X036795Y016920D01*
X036718Y016844D01*
X036718Y016537D01*
X037179Y016920D02*
X037486Y016920D01*
X037639Y016920D02*
X037869Y016920D01*
X037946Y016844D01*
X037946Y016690D01*
X037869Y016613D01*
X037639Y016613D01*
X037639Y016460D02*
X037639Y016920D01*
X037332Y016920D02*
X037332Y016460D01*
X037793Y016613D02*
X037946Y016460D01*
X038099Y016460D02*
X038099Y016767D01*
X038253Y016920D01*
X038406Y016767D01*
X038406Y016460D01*
X038560Y016460D02*
X038560Y016920D01*
X038867Y016460D01*
X038867Y016920D01*
X039020Y016844D02*
X039020Y016767D01*
X039097Y016690D01*
X039250Y016690D01*
X039327Y016613D01*
X039327Y016537D01*
X039250Y016460D01*
X039097Y016460D01*
X039020Y016537D01*
X039020Y016844D02*
X039097Y016920D01*
X039250Y016920D01*
X039327Y016844D01*
X039481Y016920D02*
X039634Y016920D01*
X039557Y016920D02*
X039557Y016460D01*
X039481Y016460D02*
X039634Y016460D01*
X039788Y016537D02*
X039864Y016460D01*
X040018Y016460D01*
X040094Y016537D01*
X040094Y016613D01*
X040018Y016690D01*
X039864Y016690D01*
X039788Y016767D01*
X039788Y016844D01*
X039864Y016920D01*
X040018Y016920D01*
X040094Y016844D01*
X040248Y016920D02*
X040555Y016920D01*
X040401Y016920D02*
X040401Y016460D01*
X040708Y016537D02*
X040785Y016460D01*
X040939Y016460D01*
X041015Y016537D01*
X041015Y016844D01*
X040939Y016920D01*
X040785Y016920D01*
X040708Y016844D01*
X040708Y016537D01*
X041169Y016613D02*
X041399Y016613D01*
X041476Y016690D01*
X041476Y016844D01*
X041399Y016920D01*
X041169Y016920D01*
X041169Y016460D01*
X041322Y016613D02*
X041476Y016460D01*
X042999Y016566D02*
X042999Y016796D01*
X043076Y016873D01*
X043229Y016873D01*
X043306Y016796D01*
X043306Y016566D01*
X043459Y016566D02*
X042999Y016566D01*
X043306Y016720D02*
X043459Y016873D01*
X043382Y017027D02*
X043459Y017103D01*
X043459Y017257D01*
X043382Y017333D01*
X043306Y017333D01*
X043229Y017257D01*
X043229Y017180D01*
X043229Y017257D02*
X043152Y017333D01*
X043076Y017333D01*
X042999Y017257D01*
X042999Y017103D01*
X043076Y017027D01*
X043229Y017487D02*
X043229Y017794D01*
X043459Y017717D02*
X042999Y017717D01*
X043229Y017487D01*
X041836Y014227D02*
X041682Y014227D01*
X041606Y014151D01*
X041452Y014227D02*
X041145Y014227D01*
X041145Y013767D01*
X041145Y013997D02*
X041299Y013997D01*
X041606Y013767D02*
X041913Y014074D01*
X041913Y014151D01*
X041836Y014227D01*
X041913Y013767D02*
X041606Y013767D01*
X039817Y012845D02*
X039817Y012692D01*
X039741Y012615D01*
X039664Y012615D01*
X039587Y012692D01*
X039587Y012845D01*
X039664Y012922D01*
X039741Y012922D01*
X039817Y012845D01*
X039587Y012845D02*
X039511Y012922D01*
X039434Y012922D01*
X039357Y012845D01*
X039357Y012692D01*
X039434Y012615D01*
X039511Y012615D01*
X039587Y012692D01*
X039587Y012462D02*
X039434Y012462D01*
X039357Y012385D01*
X039357Y012155D01*
X039817Y012155D01*
X039664Y012155D02*
X039664Y012385D01*
X039587Y012462D01*
X039664Y012308D02*
X039817Y012462D01*
X044832Y012905D02*
X044832Y013365D01*
X045062Y013365D01*
X045139Y013288D01*
X045139Y013135D01*
X045062Y013058D01*
X044832Y013058D01*
X044985Y013058D02*
X045139Y012905D01*
X045292Y012905D02*
X045599Y012905D01*
X045446Y012905D02*
X045446Y013365D01*
X045292Y013212D01*
X045753Y013288D02*
X045829Y013365D01*
X045983Y013365D01*
X046060Y013288D01*
X045753Y012981D01*
X045829Y012905D01*
X045983Y012905D01*
X046060Y012981D01*
X046060Y013288D01*
X045753Y013288D02*
X045753Y012981D01*
X038406Y016690D02*
X038099Y016690D01*
X045503Y020814D02*
X045503Y021275D01*
X045733Y021275D01*
X045810Y021198D01*
X045810Y021044D01*
X045733Y020968D01*
X045503Y020968D01*
X045657Y020968D02*
X045810Y020814D01*
X045964Y020891D02*
X046040Y020814D01*
X046194Y020814D01*
X046270Y020891D01*
X046270Y020968D01*
X046194Y021044D01*
X046117Y021044D01*
X046194Y021044D02*
X046270Y021121D01*
X046270Y021198D01*
X046194Y021275D01*
X046040Y021275D01*
X045964Y021198D01*
X046424Y021275D02*
X046424Y021044D01*
X046577Y021121D01*
X046654Y021121D01*
X046731Y021044D01*
X046731Y020891D01*
X046654Y020814D01*
X046501Y020814D01*
X046424Y020891D01*
X046424Y021275D02*
X046731Y021275D01*
X042487Y023954D02*
X042027Y023954D01*
X042027Y024184D01*
X042103Y024261D01*
X042257Y024261D01*
X042334Y024184D01*
X042334Y023954D01*
X042334Y024107D02*
X042487Y024261D01*
X042487Y024414D02*
X042180Y024721D01*
X042103Y024721D01*
X042027Y024644D01*
X042027Y024491D01*
X042103Y024414D01*
X042487Y024414D02*
X042487Y024721D01*
X042487Y024875D02*
X042180Y025181D01*
X042103Y025181D01*
X042027Y025105D01*
X042027Y024951D01*
X042103Y024875D01*
X042487Y024875D02*
X042487Y025181D01*
X040697Y025158D02*
X040237Y025158D01*
X040390Y025005D01*
X040390Y024851D02*
X040313Y024851D01*
X040237Y024774D01*
X040237Y024621D01*
X040313Y024544D01*
X040313Y024391D02*
X040467Y024391D01*
X040544Y024314D01*
X040544Y024084D01*
X040697Y024084D02*
X040237Y024084D01*
X040237Y024314D01*
X040313Y024391D01*
X040544Y024237D02*
X040697Y024391D01*
X040697Y024544D02*
X040390Y024851D01*
X040697Y024851D02*
X040697Y024544D01*
X040697Y025005D02*
X040697Y025311D01*
X039167Y025135D02*
X039167Y024981D01*
X039090Y024905D01*
X038783Y025211D01*
X039090Y025211D01*
X039167Y025135D01*
X039090Y024905D02*
X038783Y024905D01*
X038707Y024981D01*
X038707Y025135D01*
X038783Y025211D01*
X038783Y024751D02*
X038707Y024674D01*
X038707Y024521D01*
X038783Y024444D01*
X038783Y024291D02*
X038937Y024291D01*
X039014Y024214D01*
X039014Y023984D01*
X039167Y023984D02*
X038707Y023984D01*
X038707Y024214D01*
X038783Y024291D01*
X039014Y024137D02*
X039167Y024291D01*
X039167Y024444D02*
X038860Y024751D01*
X038783Y024751D01*
X039167Y024751D02*
X039167Y024444D01*
X037537Y024488D02*
X037077Y024488D01*
X037230Y024334D01*
X037153Y024181D02*
X037307Y024181D01*
X037384Y024104D01*
X037384Y023874D01*
X037537Y023874D02*
X037077Y023874D01*
X037077Y024104D01*
X037153Y024181D01*
X037384Y024027D02*
X037537Y024181D01*
X037537Y024334D02*
X037537Y024641D01*
X037460Y024795D02*
X037537Y024871D01*
X037537Y025025D01*
X037460Y025101D01*
X037153Y025101D01*
X037077Y025025D01*
X037077Y024871D01*
X037153Y024795D01*
X037230Y024795D01*
X037307Y024871D01*
X037307Y025101D01*
X035977Y025135D02*
X035977Y024981D01*
X035900Y024905D01*
X035824Y024905D01*
X035747Y024981D01*
X035747Y025135D01*
X035824Y025211D01*
X035900Y025211D01*
X035977Y025135D01*
X035747Y025135D02*
X035670Y025211D01*
X035593Y025211D01*
X035517Y025135D01*
X035517Y024981D01*
X035593Y024905D01*
X035670Y024905D01*
X035747Y024981D01*
X035977Y024751D02*
X035977Y024444D01*
X035977Y024291D02*
X035824Y024137D01*
X035824Y024214D02*
X035824Y023984D01*
X035977Y023984D02*
X035517Y023984D01*
X035517Y024214D01*
X035593Y024291D01*
X035747Y024291D01*
X035824Y024214D01*
X035670Y024444D02*
X035517Y024598D01*
X035977Y024598D01*
X034327Y024548D02*
X033867Y024548D01*
X034020Y024394D01*
X033943Y024241D02*
X034097Y024241D01*
X034174Y024164D01*
X034174Y023934D01*
X034327Y023934D02*
X033867Y023934D01*
X033867Y024164D01*
X033943Y024241D01*
X034174Y024087D02*
X034327Y024241D01*
X034327Y024394D02*
X034327Y024701D01*
X034327Y024855D02*
X034250Y024855D01*
X033943Y025161D01*
X033867Y025161D01*
X033867Y024855D01*
X032747Y024951D02*
X032747Y025105D01*
X032670Y025181D01*
X032594Y025181D01*
X032517Y025105D01*
X032517Y024875D01*
X032670Y024875D01*
X032747Y024951D01*
X032747Y024721D02*
X032747Y024414D01*
X032747Y024261D02*
X032594Y024107D01*
X032594Y024184D02*
X032594Y023954D01*
X032747Y023954D02*
X032287Y023954D01*
X032287Y024184D01*
X032363Y024261D01*
X032517Y024261D01*
X032594Y024184D01*
X032440Y024414D02*
X032287Y024568D01*
X032747Y024568D01*
X032517Y024875D02*
X032363Y025028D01*
X032287Y025181D01*
X030977Y025105D02*
X030977Y024951D01*
X030900Y024875D01*
X030747Y024875D02*
X030670Y025028D01*
X030670Y025105D01*
X030747Y025181D01*
X030900Y025181D01*
X030977Y025105D01*
X030747Y024875D02*
X030517Y024875D01*
X030517Y025181D01*
X030977Y024721D02*
X030977Y024414D01*
X030977Y024261D02*
X030824Y024107D01*
X030824Y024184D02*
X030824Y023954D01*
X030977Y023954D02*
X030517Y023954D01*
X030517Y024184D01*
X030593Y024261D01*
X030747Y024261D01*
X030824Y024184D01*
X030670Y024414D02*
X030517Y024568D01*
X030977Y024568D01*
X029850Y024290D02*
X029543Y024290D01*
X029773Y024520D01*
X029773Y024060D01*
X029390Y024060D02*
X029083Y024060D01*
X029236Y024060D02*
X029236Y024520D01*
X029083Y024367D01*
X028929Y024444D02*
X028929Y024290D01*
X028853Y024213D01*
X028622Y024213D01*
X028622Y024060D02*
X028622Y024520D01*
X028853Y024520D01*
X028929Y024444D01*
X028776Y024213D02*
X028929Y024060D01*
X028134Y024067D02*
X028057Y023990D01*
X027904Y023990D01*
X027827Y024067D01*
X027673Y023990D02*
X027367Y023990D01*
X027520Y023990D02*
X027520Y024451D01*
X027367Y024297D01*
X027213Y024221D02*
X027136Y024144D01*
X026906Y024144D01*
X026924Y024130D02*
X026617Y024130D01*
X026924Y024437D01*
X026924Y024514D01*
X026847Y024591D01*
X026694Y024591D01*
X026617Y024514D01*
X026906Y024451D02*
X027136Y024451D01*
X027213Y024374D01*
X027213Y024221D01*
X027060Y024144D02*
X027213Y023990D01*
X026906Y023990D02*
X026906Y024451D01*
X026463Y024130D02*
X026156Y024130D01*
X026003Y024130D02*
X025850Y024284D01*
X025926Y024284D02*
X025696Y024284D01*
X025696Y024130D02*
X025696Y024591D01*
X025926Y024591D01*
X026003Y024514D01*
X026003Y024361D01*
X025926Y024284D01*
X026156Y024437D02*
X026310Y024591D01*
X026310Y024130D01*
X025508Y024036D02*
X025508Y023729D01*
X025432Y023653D01*
X025278Y023653D01*
X025201Y023729D01*
X025508Y024036D01*
X025432Y024113D01*
X025278Y024113D01*
X025201Y024036D01*
X025201Y023729D01*
X025048Y023729D02*
X024971Y023653D01*
X024818Y023653D01*
X024741Y023729D01*
X024588Y023653D02*
X024434Y023806D01*
X024511Y023806D02*
X024281Y023806D01*
X024281Y023653D02*
X024281Y024113D01*
X024511Y024113D01*
X024588Y024036D01*
X024588Y023883D01*
X024511Y023806D01*
X024741Y024036D02*
X024818Y024113D01*
X024971Y024113D01*
X025048Y024036D01*
X025048Y023960D01*
X024971Y023883D01*
X025048Y023806D01*
X025048Y023729D01*
X024971Y023883D02*
X024895Y023883D01*
X022989Y023653D02*
X022682Y023653D01*
X022835Y023653D02*
X022835Y024113D01*
X022682Y023960D01*
X022528Y023960D02*
X022452Y023883D01*
X022528Y023806D01*
X022528Y023729D01*
X022452Y023653D01*
X022298Y023653D01*
X022221Y023729D01*
X022068Y023653D02*
X021914Y023806D01*
X021991Y023806D02*
X021761Y023806D01*
X021761Y023653D02*
X021761Y024113D01*
X021991Y024113D01*
X022068Y024036D01*
X022068Y023883D01*
X021991Y023806D01*
X022221Y024036D02*
X022298Y024113D01*
X022452Y024113D01*
X022528Y024036D01*
X022528Y023960D01*
X022452Y023883D02*
X022375Y023883D01*
X021962Y021873D02*
X021808Y021873D01*
X021732Y021796D01*
X021578Y021796D02*
X021501Y021873D01*
X021348Y021873D01*
X021271Y021796D01*
X021271Y021489D01*
X021348Y021413D01*
X021501Y021413D01*
X021578Y021489D01*
X021732Y021489D02*
X021808Y021413D01*
X021962Y021413D01*
X022039Y021489D01*
X022039Y021566D01*
X021962Y021643D01*
X021885Y021643D01*
X021962Y021643D02*
X022039Y021720D01*
X022039Y021796D01*
X021962Y021873D01*
X021118Y021873D02*
X020964Y021873D01*
X021041Y021873D02*
X021041Y021413D01*
X020964Y021413D02*
X021118Y021413D01*
X018389Y021786D02*
X018389Y021940D01*
X018313Y022016D01*
X018389Y022170D02*
X018389Y022477D01*
X018389Y022323D02*
X017929Y022323D01*
X018082Y022170D01*
X018006Y022016D02*
X017929Y021940D01*
X017929Y021786D01*
X018006Y021709D01*
X018313Y021709D01*
X018389Y021786D01*
X018313Y022630D02*
X018389Y022707D01*
X018389Y022860D01*
X018313Y022937D01*
X018159Y022937D01*
X018082Y022860D01*
X018082Y022784D01*
X018159Y022630D01*
X017929Y022630D01*
X017929Y022937D01*
X018704Y024302D02*
X018858Y024302D01*
X018934Y024379D01*
X019088Y024302D02*
X019395Y024302D01*
X019241Y024302D02*
X019241Y024763D01*
X019088Y024609D01*
X018934Y024686D02*
X018858Y024763D01*
X018704Y024763D01*
X018628Y024686D01*
X018628Y024379D01*
X018704Y024302D01*
X019548Y024533D02*
X019855Y024533D01*
X019779Y024763D02*
X019779Y024302D01*
X019548Y024533D02*
X019779Y024763D01*
X019735Y027023D02*
X019735Y027100D01*
X020042Y027406D01*
X020042Y027483D01*
X019735Y027483D01*
X019428Y027483D02*
X019428Y027023D01*
X019275Y027023D02*
X019581Y027023D01*
X019275Y027330D02*
X019428Y027483D01*
X019121Y027406D02*
X019044Y027483D01*
X018891Y027483D01*
X018814Y027406D01*
X018814Y027100D01*
X018891Y027023D01*
X019044Y027023D01*
X019121Y027100D01*
X020853Y027509D02*
X020853Y027739D01*
X020930Y027816D01*
X021083Y027816D01*
X021160Y027739D01*
X021160Y027509D01*
X021160Y027663D02*
X021314Y027816D01*
X021237Y027969D02*
X021314Y028046D01*
X021314Y028200D01*
X021237Y028276D01*
X021160Y028276D01*
X021083Y028200D01*
X021083Y028123D01*
X021083Y028200D02*
X021007Y028276D01*
X020930Y028276D01*
X020853Y028200D01*
X020853Y028046D01*
X020930Y027969D01*
X020930Y028430D02*
X021007Y028430D01*
X021083Y028507D01*
X021083Y028660D01*
X021160Y028737D01*
X021237Y028737D01*
X021314Y028660D01*
X021314Y028507D01*
X021237Y028430D01*
X021160Y028430D01*
X021083Y028507D01*
X021083Y028660D02*
X021007Y028737D01*
X020930Y028737D01*
X020853Y028660D01*
X020853Y028507D01*
X020930Y028430D01*
X020853Y027509D02*
X021314Y027509D01*
X022428Y027903D02*
X022428Y028133D01*
X022505Y028210D01*
X022658Y028210D01*
X022735Y028133D01*
X022735Y027903D01*
X022735Y028056D02*
X022888Y028210D01*
X022812Y028363D02*
X022888Y028440D01*
X022888Y028593D01*
X022812Y028670D01*
X022735Y028670D01*
X022658Y028593D01*
X022658Y028517D01*
X022658Y028593D02*
X022581Y028670D01*
X022505Y028670D01*
X022428Y028593D01*
X022428Y028440D01*
X022505Y028363D01*
X022428Y028824D02*
X022428Y029130D01*
X022505Y029130D01*
X022812Y028824D01*
X022888Y028824D01*
X022888Y027903D02*
X022428Y027903D01*
X027827Y024374D02*
X027904Y024451D01*
X028057Y024451D01*
X028134Y024374D01*
X028134Y024297D01*
X028057Y024221D01*
X028134Y024144D01*
X028134Y024067D01*
X028057Y024221D02*
X027980Y024221D01*
X031131Y023063D02*
X031131Y022603D01*
X031131Y022756D02*
X031361Y022756D01*
X031438Y022833D01*
X031438Y022986D01*
X031361Y023063D01*
X031131Y023063D01*
X031284Y022756D02*
X031438Y022603D01*
X031591Y022679D02*
X031668Y022603D01*
X031821Y022603D01*
X031898Y022679D01*
X031898Y022756D01*
X031821Y022833D01*
X031745Y022833D01*
X031821Y022833D02*
X031898Y022909D01*
X031898Y022986D01*
X031821Y023063D01*
X031668Y023063D01*
X031591Y022986D01*
X032052Y022986D02*
X032128Y023063D01*
X032282Y023063D01*
X032359Y022986D01*
X032359Y022909D01*
X032052Y022603D01*
X032359Y022603D01*
X038783Y022641D02*
X038783Y023161D01*
X039043Y023161D01*
X039130Y023075D01*
X039130Y022901D01*
X039043Y022814D01*
X038783Y022814D01*
X038956Y022814D02*
X039130Y022641D01*
X039298Y022641D02*
X039645Y022641D01*
X039814Y022728D02*
X039901Y022641D01*
X040074Y022641D01*
X040161Y022728D01*
X040161Y022814D01*
X040074Y022901D01*
X039901Y022901D01*
X039814Y022988D01*
X039814Y023075D01*
X039901Y023161D01*
X040074Y023161D01*
X040161Y023075D01*
X040330Y023161D02*
X040330Y022641D01*
X040677Y022641D01*
X040503Y022901D02*
X040330Y022901D01*
X040330Y023161D02*
X040677Y023161D01*
X040845Y023161D02*
X041192Y023161D01*
X041019Y023161D02*
X041019Y022641D01*
X039645Y023161D02*
X039298Y023161D01*
X039298Y022641D01*
X039298Y022901D02*
X039472Y022901D01*
X045763Y026291D02*
X045763Y026751D01*
X045993Y026751D01*
X046070Y026674D01*
X046070Y026521D01*
X045993Y026444D01*
X045763Y026444D01*
X045916Y026444D02*
X046070Y026291D01*
X046223Y026367D02*
X046300Y026291D01*
X046454Y026291D01*
X046530Y026367D01*
X046530Y026444D01*
X046454Y026521D01*
X046377Y026521D01*
X046454Y026521D02*
X046530Y026597D01*
X046530Y026674D01*
X046454Y026751D01*
X046300Y026751D01*
X046223Y026674D01*
X046684Y026521D02*
X046914Y026521D01*
X046991Y026444D01*
X046991Y026367D01*
X046914Y026291D01*
X046761Y026291D01*
X046684Y026367D01*
X046684Y026521D01*
X046837Y026674D01*
X046991Y026751D01*
X043169Y030368D02*
X042709Y030368D01*
X042709Y030598D01*
X042786Y030675D01*
X042939Y030675D01*
X043016Y030598D01*
X043016Y030368D01*
X043016Y030522D02*
X043169Y030675D01*
X043169Y030829D02*
X042862Y031135D01*
X042786Y031135D01*
X042709Y031059D01*
X042709Y030905D01*
X042786Y030829D01*
X043169Y030829D02*
X043169Y031135D01*
X043169Y031289D02*
X043093Y031289D01*
X042786Y031596D01*
X042709Y031596D01*
X042709Y031289D01*
X041865Y032177D02*
X041865Y032523D01*
X041692Y032350D02*
X042039Y032350D01*
X042095Y033086D02*
X041921Y033086D01*
X041834Y033173D01*
X041834Y033520D01*
X041921Y033606D01*
X042095Y033606D01*
X042181Y033520D01*
X042181Y033173D01*
X042095Y033086D01*
X042350Y033086D02*
X042350Y033606D01*
X042697Y033086D01*
X042697Y033606D01*
X042866Y033606D02*
X042866Y033086D01*
X043213Y033086D01*
X043039Y033346D02*
X042866Y033346D01*
X042866Y033606D02*
X043213Y033606D01*
X041666Y033606D02*
X041666Y033086D01*
X041666Y033346D02*
X041319Y033346D01*
X041150Y033346D02*
X041063Y033259D01*
X040803Y033259D01*
X040803Y033086D02*
X040803Y033606D01*
X041063Y033606D01*
X041150Y033520D01*
X041150Y033346D01*
X041319Y033086D02*
X041319Y033606D01*
X040634Y033520D02*
X040634Y033173D01*
X040548Y033086D01*
X040374Y033086D01*
X040288Y033173D01*
X040288Y033520D01*
X040374Y033606D01*
X040548Y033606D01*
X040634Y033520D01*
X040119Y033520D02*
X040119Y033346D01*
X040032Y033259D01*
X039772Y033259D01*
X039772Y033086D02*
X039772Y033606D01*
X040032Y033606D01*
X040119Y033520D01*
X039945Y033259D02*
X040119Y033086D01*
X039603Y033173D02*
X039516Y033086D01*
X039343Y033086D01*
X039256Y033173D01*
X039256Y033520D01*
X039343Y033606D01*
X039516Y033606D01*
X039603Y033520D01*
X039086Y033606D02*
X038912Y033606D01*
X038999Y033606D02*
X038999Y033086D01*
X038912Y033086D02*
X039086Y033086D01*
X038744Y033086D02*
X038744Y033606D01*
X038570Y033433D01*
X038397Y033606D01*
X038397Y033086D01*
X036773Y032361D02*
X036773Y032284D01*
X036697Y032207D01*
X036773Y032130D01*
X036773Y032054D01*
X036697Y031977D01*
X036543Y031977D01*
X036467Y032054D01*
X036313Y031977D02*
X036006Y031977D01*
X036160Y031977D02*
X036160Y032437D01*
X036006Y032284D01*
X035853Y032361D02*
X035776Y032437D01*
X035622Y032437D01*
X035546Y032361D01*
X035546Y032054D01*
X035622Y031977D01*
X035776Y031977D01*
X035853Y032054D01*
X036467Y032361D02*
X036543Y032437D01*
X036697Y032437D01*
X036773Y032361D01*
X036697Y032207D02*
X036620Y032207D01*
X040145Y032350D02*
X040492Y032350D01*
X026899Y033275D02*
X026725Y033448D01*
X026812Y033448D02*
X026552Y033448D01*
X026552Y033275D02*
X026552Y033795D01*
X026812Y033795D01*
X026899Y033709D01*
X026899Y033535D01*
X026812Y033448D01*
X026383Y033362D02*
X026296Y033275D01*
X026123Y033275D01*
X026036Y033362D01*
X026036Y033709D01*
X026123Y033795D01*
X026296Y033795D01*
X026383Y033709D01*
X026383Y033362D01*
X025867Y033795D02*
X025520Y033795D01*
X025694Y033795D02*
X025694Y033275D01*
X025352Y033362D02*
X025265Y033275D01*
X025091Y033275D01*
X025005Y033362D01*
X024834Y033275D02*
X024661Y033275D01*
X024748Y033275D02*
X024748Y033795D01*
X024834Y033795D02*
X024661Y033795D01*
X024492Y033709D02*
X024405Y033795D01*
X024232Y033795D01*
X024145Y033709D01*
X024145Y033622D01*
X024232Y033535D01*
X024405Y033535D01*
X024492Y033448D01*
X024492Y033362D01*
X024405Y033275D01*
X024232Y033275D01*
X024145Y033362D01*
X023977Y033275D02*
X023630Y033275D01*
X023630Y033795D01*
X023977Y033795D01*
X023803Y033535D02*
X023630Y033535D01*
X023461Y033535D02*
X023374Y033448D01*
X023114Y033448D01*
X023114Y033275D02*
X023114Y033795D01*
X023374Y033795D01*
X023461Y033709D01*
X023461Y033535D01*
X023287Y033448D02*
X023461Y033275D01*
X022430Y033275D02*
X022256Y033448D01*
X022343Y033448D02*
X022083Y033448D01*
X022083Y033275D02*
X022083Y033795D01*
X022343Y033795D01*
X022430Y033709D01*
X022430Y033535D01*
X022343Y033448D01*
X021914Y033275D02*
X021567Y033275D01*
X021567Y033795D01*
X021914Y033795D01*
X021741Y033535D02*
X021567Y033535D01*
X021398Y033362D02*
X021398Y033709D01*
X021312Y033795D01*
X021051Y033795D01*
X021051Y033275D01*
X021312Y033275D01*
X021398Y033362D01*
X020881Y033275D02*
X020708Y033275D01*
X020794Y033275D02*
X020794Y033795D01*
X020708Y033795D02*
X020881Y033795D01*
X020539Y033275D02*
X020192Y033275D01*
X020192Y033795D01*
X020023Y033709D02*
X019937Y033795D01*
X019763Y033795D01*
X019676Y033709D01*
X019676Y033622D01*
X019763Y033535D01*
X019937Y033535D01*
X020023Y033448D01*
X020023Y033362D01*
X019937Y033275D01*
X019763Y033275D01*
X019676Y033362D01*
X025005Y033622D02*
X025091Y033535D01*
X025265Y033535D01*
X025352Y033448D01*
X025352Y033362D01*
X025352Y033709D02*
X025265Y033795D01*
X025091Y033795D01*
X025005Y033709D01*
X025005Y033622D01*
X010585Y028653D02*
X010279Y028653D01*
X010432Y028653D02*
X010432Y029113D01*
X010279Y028960D01*
X010125Y029036D02*
X010048Y029113D01*
X009895Y029113D01*
X009818Y029036D01*
X009818Y028729D01*
X009895Y028653D01*
X010048Y028653D01*
X010125Y028729D01*
X008347Y028769D02*
X008347Y029076D01*
X008347Y028922D02*
X007887Y028922D01*
X008040Y028769D01*
X007963Y028615D02*
X007887Y028538D01*
X007887Y028308D01*
X008347Y028308D01*
X008347Y028538D01*
X008270Y028615D01*
X007963Y028615D01*
X006983Y028743D02*
X006983Y029050D01*
X006983Y028897D02*
X006522Y028897D01*
X006676Y028743D01*
X006522Y028590D02*
X006522Y028283D01*
X006983Y028283D01*
X006753Y028283D02*
X006753Y028436D01*
X005684Y028832D02*
X005684Y028985D01*
X005607Y029062D01*
X005607Y029216D02*
X005684Y029292D01*
X005684Y029446D01*
X005607Y029522D01*
X005453Y029522D01*
X005377Y029446D01*
X005377Y029369D01*
X005453Y029216D01*
X005223Y029216D01*
X005223Y029522D01*
X005300Y029062D02*
X005223Y028985D01*
X005223Y028832D01*
X005300Y028755D01*
X005607Y028755D01*
X005684Y028832D01*
X004699Y028950D02*
X004699Y029103D01*
X004623Y029180D01*
X004469Y029334D02*
X004469Y029641D01*
X004239Y029564D02*
X004469Y029334D01*
X004316Y029180D02*
X004239Y029103D01*
X004239Y028950D01*
X004316Y028873D01*
X004623Y028873D01*
X004699Y028950D01*
X004699Y029564D02*
X004239Y029564D01*
X006404Y026538D02*
X006404Y026231D01*
X006404Y026078D02*
X006404Y025771D01*
X005943Y025771D01*
X006097Y026231D02*
X005943Y026385D01*
X006404Y026385D01*
X005172Y026269D02*
X005172Y025962D01*
X005172Y026115D02*
X004711Y026115D01*
X004865Y025962D01*
X004942Y025808D02*
X005018Y025731D01*
X005018Y025501D01*
X005018Y025655D02*
X005172Y025808D01*
X004942Y025808D02*
X004788Y025808D01*
X004711Y025731D01*
X004711Y025501D01*
X005172Y025501D01*
X007196Y025312D02*
X007272Y025389D01*
X007349Y025389D01*
X007426Y025312D01*
X007503Y025389D01*
X007579Y025389D01*
X007656Y025312D01*
X007656Y025159D01*
X007579Y025082D01*
X007579Y024929D02*
X007656Y024852D01*
X007656Y024698D01*
X007579Y024622D01*
X007272Y024622D01*
X007196Y024698D01*
X007196Y024852D01*
X007272Y024929D01*
X007272Y025082D02*
X007196Y025159D01*
X007196Y025312D01*
X007426Y025312D02*
X007426Y025236D01*
X008064Y024694D02*
X008141Y024694D01*
X008447Y024387D01*
X008524Y024387D01*
X008447Y024234D02*
X008141Y024234D01*
X008064Y024157D01*
X008064Y023927D01*
X008524Y023927D01*
X008524Y024157D01*
X008447Y024234D01*
X008064Y024387D02*
X008064Y024694D01*
X009397Y024206D02*
X009397Y023899D01*
X009474Y023822D01*
X009627Y023822D01*
X009704Y023899D01*
X009857Y023822D02*
X010164Y024129D01*
X010164Y024206D01*
X010087Y024282D01*
X009934Y024282D01*
X009857Y024206D01*
X009704Y024206D02*
X009627Y024282D01*
X009474Y024282D01*
X009397Y024206D01*
X009857Y023822D02*
X010164Y023822D01*
X008137Y020172D02*
X008214Y020095D01*
X008214Y019942D01*
X008137Y019865D01*
X008060Y019865D01*
X007983Y019942D01*
X007983Y020095D01*
X008060Y020172D01*
X008137Y020172D01*
X007983Y020095D02*
X007907Y020172D01*
X007830Y020172D01*
X007753Y020095D01*
X007753Y019942D01*
X007830Y019865D01*
X007907Y019865D01*
X007983Y019942D01*
X007830Y019712D02*
X007753Y019635D01*
X007753Y019481D01*
X007830Y019405D01*
X008137Y019405D01*
X008214Y019481D01*
X008214Y019635D01*
X008137Y019712D01*
X007606Y019178D02*
X007606Y019025D01*
X007529Y018948D01*
X007299Y018948D01*
X007452Y018948D02*
X007606Y018794D01*
X007299Y018794D02*
X007299Y019255D01*
X007529Y019255D01*
X007606Y019178D01*
X007145Y019255D02*
X006838Y019255D01*
X006838Y018794D01*
X007145Y018794D01*
X006992Y019025D02*
X006838Y019025D01*
X006685Y019255D02*
X006685Y018794D01*
X006531Y018948D01*
X006378Y018794D01*
X006378Y019255D01*
X006224Y019178D02*
X006224Y018871D01*
X006148Y018794D01*
X005994Y018794D01*
X005917Y018871D01*
X005917Y019178D01*
X005994Y019255D01*
X006148Y019255D01*
X006224Y019178D01*
X005764Y019178D02*
X005764Y019025D01*
X005687Y018948D01*
X005457Y018948D01*
X005457Y018794D02*
X005457Y019255D01*
X005687Y019255D01*
X005764Y019178D01*
X004477Y017387D02*
X004477Y017080D01*
X004170Y017387D01*
X004093Y017387D01*
X004017Y017310D01*
X004017Y017157D01*
X004093Y017080D01*
X004093Y016927D02*
X004017Y016850D01*
X004017Y016620D01*
X004477Y016620D01*
X004477Y016850D01*
X004400Y016927D01*
X004093Y016927D01*
X006222Y014227D02*
X006452Y014227D01*
X006529Y014151D01*
X006529Y013997D01*
X006452Y013920D01*
X006222Y013920D01*
X006222Y013767D02*
X006222Y014227D01*
X006376Y013920D02*
X006529Y013767D01*
X006683Y013767D02*
X006989Y014074D01*
X006989Y014151D01*
X006913Y014227D01*
X006759Y014227D01*
X006683Y014151D01*
X006683Y013767D02*
X006989Y013767D01*
X009606Y013719D02*
X009606Y013489D01*
X009759Y013566D01*
X009836Y013566D01*
X009912Y013489D01*
X009912Y013336D01*
X009836Y013259D01*
X009682Y013259D01*
X009606Y013336D01*
X009606Y013719D02*
X009912Y013719D01*
X010066Y013719D02*
X010066Y013413D01*
X010219Y013259D01*
X010373Y013413D01*
X010373Y013719D01*
X010373Y014259D02*
X010296Y014336D01*
X010373Y014259D02*
X010526Y014259D01*
X010603Y014336D01*
X010603Y014413D01*
X010526Y014489D01*
X010450Y014489D01*
X010526Y014489D02*
X010603Y014566D01*
X010603Y014643D01*
X010526Y014719D01*
X010373Y014719D01*
X010296Y014643D01*
X010143Y014336D02*
X010143Y014259D01*
X010066Y014259D01*
X010066Y014336D01*
X010143Y014336D01*
X009912Y014336D02*
X009836Y014259D01*
X009682Y014259D01*
X009606Y014336D01*
X009759Y014489D02*
X009836Y014489D01*
X009912Y014413D01*
X009912Y014336D01*
X009836Y014489D02*
X009912Y014566D01*
X009912Y014643D01*
X009836Y014719D01*
X009682Y014719D01*
X009606Y014643D01*
X009606Y015259D02*
X009606Y015719D01*
X009836Y015719D01*
X009912Y015643D01*
X009912Y015489D01*
X009836Y015413D01*
X009606Y015413D01*
X009759Y015413D02*
X009912Y015259D01*
X010066Y015259D02*
X010373Y015259D01*
X010526Y015336D02*
X010603Y015259D01*
X010756Y015259D01*
X010833Y015336D01*
X010833Y015413D01*
X010756Y015489D01*
X010603Y015489D01*
X010526Y015566D01*
X010526Y015643D01*
X010603Y015719D01*
X010756Y015719D01*
X010833Y015643D01*
X010987Y015719D02*
X010987Y015259D01*
X011294Y015259D01*
X011140Y015489D02*
X010987Y015489D01*
X010987Y015719D02*
X011294Y015719D01*
X011447Y015719D02*
X011754Y015719D01*
X011601Y015719D02*
X011601Y015259D01*
X011063Y014719D02*
X011063Y014413D01*
X010910Y014259D01*
X010756Y014413D01*
X010756Y014719D01*
X010066Y015259D02*
X010066Y015719D01*
X010373Y015719D01*
X010219Y015489D02*
X010066Y015489D01*
X010143Y016259D02*
X010219Y016336D01*
X010219Y016643D01*
X010143Y016719D01*
X009989Y016719D01*
X009912Y016643D01*
X009912Y016336D01*
X009989Y016259D01*
X010143Y016259D01*
X010373Y016259D02*
X010373Y016719D01*
X010603Y016719D01*
X010680Y016643D01*
X010680Y016489D01*
X010603Y016413D01*
X010373Y016413D01*
X010526Y016413D02*
X010680Y016259D01*
X010833Y016259D02*
X011140Y016259D01*
X011294Y016259D02*
X011294Y016719D01*
X011601Y016719D01*
X011447Y016489D02*
X011294Y016489D01*
X011140Y016719D02*
X010833Y016719D01*
X010833Y016259D01*
X010833Y016489D02*
X010987Y016489D01*
X009759Y016259D02*
X009606Y016259D01*
X009682Y016259D02*
X009682Y016719D01*
X009606Y016719D02*
X009759Y016719D01*
X012759Y016251D02*
X012759Y015791D01*
X013066Y015791D01*
X013219Y015791D02*
X013526Y015791D01*
X013680Y015791D02*
X013910Y015791D01*
X013987Y015867D01*
X013987Y016174D01*
X013910Y016251D01*
X013680Y016251D01*
X013680Y015791D01*
X013373Y016021D02*
X013219Y016021D01*
X013219Y016251D02*
X013219Y015791D01*
X013219Y016251D02*
X013526Y016251D01*
X014140Y015714D02*
X014447Y015714D01*
X014601Y015791D02*
X014601Y016251D01*
X014831Y016251D01*
X014908Y016174D01*
X014908Y016021D01*
X014831Y015944D01*
X014601Y015944D01*
X014754Y015944D02*
X014908Y015791D01*
X015061Y015791D02*
X015368Y016251D01*
X015061Y016251D02*
X015368Y015791D01*
X014542Y017396D02*
X014235Y017396D01*
X014159Y017473D01*
X014159Y017626D01*
X014235Y017703D01*
X014159Y017856D02*
X014159Y018163D01*
X014235Y018163D01*
X014542Y017856D01*
X014619Y017856D01*
X014542Y017703D02*
X014619Y017626D01*
X014619Y017473D01*
X014542Y017396D01*
X017826Y017349D02*
X017903Y017272D01*
X018210Y017272D01*
X018287Y017349D01*
X018287Y017503D01*
X018210Y017579D01*
X018287Y017733D02*
X018287Y018040D01*
X018287Y018193D02*
X018287Y018500D01*
X018287Y018347D02*
X017826Y018347D01*
X017980Y018193D01*
X017826Y017886D02*
X018287Y017886D01*
X017980Y017733D02*
X017826Y017886D01*
X017903Y017579D02*
X017826Y017503D01*
X017826Y017349D01*
X017909Y019198D02*
X018216Y019198D01*
X018292Y019275D01*
X018292Y019429D01*
X018216Y019505D01*
X018216Y019659D02*
X018292Y019736D01*
X018292Y019889D01*
X018216Y019966D01*
X017909Y019966D01*
X017832Y019889D01*
X017832Y019736D01*
X017909Y019659D01*
X017985Y019659D01*
X018062Y019736D01*
X018062Y019966D01*
X017909Y019505D02*
X017832Y019429D01*
X017832Y019275D01*
X017909Y019198D01*
X021210Y016515D02*
X021440Y016515D01*
X021517Y016438D01*
X021517Y016285D01*
X021440Y016208D01*
X021210Y016208D01*
X021363Y016208D02*
X021517Y016054D01*
X021670Y016131D02*
X021747Y016054D01*
X021900Y016054D01*
X021977Y016131D01*
X021977Y016208D01*
X021900Y016285D01*
X021670Y016285D01*
X021670Y016131D01*
X021670Y016285D02*
X021824Y016438D01*
X021977Y016515D01*
X021210Y016515D02*
X021210Y016054D01*
X021210Y014940D02*
X021440Y014940D01*
X021517Y014863D01*
X021517Y014710D01*
X021440Y014633D01*
X021210Y014633D01*
X021363Y014633D02*
X021517Y014480D01*
X021670Y014480D02*
X021977Y014786D01*
X021977Y014863D01*
X021900Y014940D01*
X021747Y014940D01*
X021670Y014863D01*
X021670Y014480D02*
X021977Y014480D01*
X022131Y014556D02*
X022207Y014480D01*
X022361Y014480D01*
X022438Y014556D01*
X022438Y014710D01*
X022361Y014786D01*
X022284Y014786D01*
X022131Y014710D01*
X022131Y014940D01*
X022438Y014940D01*
X021210Y014940D02*
X021210Y014480D01*
X021210Y013365D02*
X021440Y013365D01*
X021517Y013288D01*
X021517Y013135D01*
X021440Y013058D01*
X021210Y013058D01*
X021210Y012905D02*
X021210Y013365D01*
X021363Y013058D02*
X021517Y012905D01*
X021670Y012905D02*
X021977Y013212D01*
X021977Y013288D01*
X021900Y013365D01*
X021747Y013365D01*
X021670Y013288D01*
X021670Y012905D02*
X021977Y012905D01*
X022131Y013135D02*
X022438Y013135D01*
X022361Y012905D02*
X022361Y013365D01*
X022131Y013135D01*
X024359Y014086D02*
X024359Y014546D01*
X024590Y014546D01*
X024666Y014469D01*
X024666Y014316D01*
X024590Y014239D01*
X024359Y014239D01*
X024513Y014239D02*
X024666Y014086D01*
X024820Y014086D02*
X025127Y014393D01*
X025127Y014469D01*
X025050Y014546D01*
X024897Y014546D01*
X024820Y014469D01*
X024820Y014086D02*
X025127Y014086D01*
X025280Y014163D02*
X025357Y014086D01*
X025510Y014086D01*
X025587Y014163D01*
X025587Y014239D01*
X025510Y014316D01*
X025434Y014316D01*
X025510Y014316D02*
X025587Y014393D01*
X025587Y014469D01*
X025510Y014546D01*
X025357Y014546D01*
X025280Y014469D01*
X025739Y016465D02*
X026046Y016465D01*
X026123Y016542D01*
X026123Y016695D01*
X026046Y016772D01*
X026123Y016925D02*
X026123Y017232D01*
X026123Y017079D02*
X025662Y017079D01*
X025816Y016925D01*
X025739Y016772D02*
X025662Y016695D01*
X025662Y016542D01*
X025739Y016465D01*
X025410Y016865D02*
X025487Y016942D01*
X025487Y017096D01*
X025410Y017172D01*
X025410Y017326D02*
X025487Y017402D01*
X025487Y017556D01*
X025410Y017633D01*
X025333Y017633D01*
X025257Y017556D01*
X025257Y017326D01*
X025410Y017326D01*
X025257Y017326D02*
X025103Y017479D01*
X025026Y017633D01*
X025662Y017616D02*
X025662Y017462D01*
X025739Y017386D01*
X025662Y017616D02*
X025739Y017693D01*
X025816Y017693D01*
X026123Y017386D01*
X026123Y017693D01*
X025410Y016865D02*
X025103Y016865D01*
X025026Y016942D01*
X025026Y017096D01*
X025103Y017172D01*
X017619Y014621D02*
X017619Y014544D01*
X017312Y014237D01*
X017312Y014161D01*
X017159Y014161D02*
X017006Y014314D01*
X017082Y014314D02*
X016852Y014314D01*
X016852Y014161D02*
X016852Y014621D01*
X017082Y014621D01*
X017159Y014544D01*
X017159Y014391D01*
X017082Y014314D01*
X017312Y014621D02*
X017619Y014621D01*
X017466Y013046D02*
X017466Y012586D01*
X017619Y012586D02*
X017312Y012586D01*
X017159Y012586D02*
X016852Y012586D01*
X016699Y012586D02*
X016545Y012739D01*
X016622Y012739D02*
X016392Y012739D01*
X016392Y012586D02*
X016392Y013046D01*
X016622Y013046D01*
X016699Y012969D01*
X016699Y012816D01*
X016622Y012739D01*
X016852Y012893D02*
X017006Y013046D01*
X017006Y012586D01*
X017312Y012893D02*
X017466Y013046D01*
X015644Y013219D02*
X015337Y012759D01*
X015644Y012759D02*
X015337Y013219D01*
X015183Y013219D02*
X014876Y013219D01*
X015030Y013219D02*
X015030Y012759D01*
X014723Y012682D02*
X014416Y012682D01*
X014262Y012836D02*
X014262Y013143D01*
X014186Y013219D01*
X013955Y013219D01*
X013955Y012759D01*
X014186Y012759D01*
X014262Y012836D01*
X013802Y012759D02*
X013495Y012759D01*
X013495Y013219D01*
X013802Y013219D01*
X013649Y012989D02*
X013495Y012989D01*
X013342Y012759D02*
X013035Y012759D01*
X013035Y013219D01*
X010833Y012643D02*
X010833Y012336D01*
X010756Y012259D01*
X010526Y012259D01*
X010526Y012719D01*
X010756Y012719D01*
X010833Y012643D01*
X010373Y012719D02*
X010373Y012259D01*
X010066Y012719D01*
X010066Y012259D01*
X009912Y012336D02*
X009912Y012489D01*
X009759Y012489D01*
X009912Y012336D02*
X009836Y012259D01*
X009682Y012259D01*
X009606Y012336D01*
X009606Y012643D01*
X009682Y012719D01*
X009836Y012719D01*
X009912Y012643D01*
X009836Y011719D02*
X009682Y011719D01*
X009606Y011643D01*
X009606Y011336D01*
X009682Y011259D01*
X009836Y011259D01*
X009912Y011336D01*
X009912Y011489D01*
X009759Y011489D01*
X009912Y011643D02*
X009836Y011719D01*
X010066Y011719D02*
X010373Y011259D01*
X010373Y011719D01*
X010526Y011719D02*
X010526Y011259D01*
X010756Y011259D01*
X010833Y011336D01*
X010833Y011643D01*
X010756Y011719D01*
X010526Y011719D01*
X010066Y011719D02*
X010066Y011259D01*
X010066Y010719D02*
X010219Y010719D01*
X010143Y010719D02*
X010143Y010259D01*
X010219Y010259D02*
X010066Y010259D01*
X009912Y010413D02*
X009912Y010719D01*
X009912Y010413D02*
X009759Y010259D01*
X009606Y010413D01*
X009606Y010719D01*
X010373Y010719D02*
X010373Y010259D01*
X010680Y010259D02*
X010373Y010719D01*
X010680Y010719D02*
X010680Y010259D01*
X010265Y008857D02*
X010342Y008781D01*
X010035Y008474D01*
X010112Y008397D01*
X010265Y008397D01*
X010342Y008474D01*
X010342Y008781D01*
X010265Y008857D02*
X010112Y008857D01*
X010035Y008781D01*
X010035Y008474D01*
X009881Y008397D02*
X009881Y008704D01*
X009728Y008857D01*
X009574Y008704D01*
X009574Y008397D01*
X009574Y008627D02*
X009881Y008627D01*
X009728Y007857D02*
X009881Y007704D01*
X009881Y007397D01*
X010035Y007397D02*
X010342Y007397D01*
X010188Y007397D02*
X010188Y007857D01*
X010035Y007704D01*
X009881Y007627D02*
X009574Y007627D01*
X009574Y007704D02*
X009728Y007857D01*
X009574Y007704D02*
X009574Y007397D01*
X009728Y006857D02*
X009881Y006704D01*
X009881Y006397D01*
X010035Y006397D02*
X010342Y006704D01*
X010342Y006781D01*
X010265Y006857D01*
X010112Y006857D01*
X010035Y006781D01*
X009881Y006627D02*
X009574Y006627D01*
X009574Y006704D02*
X009728Y006857D01*
X009574Y006704D02*
X009574Y006397D01*
X010035Y006397D02*
X010342Y006397D01*
X010265Y005857D02*
X010342Y005781D01*
X010342Y005704D01*
X010265Y005627D01*
X010342Y005550D01*
X010342Y005474D01*
X010265Y005397D01*
X010112Y005397D01*
X010035Y005474D01*
X009881Y005397D02*
X009881Y005704D01*
X009728Y005857D01*
X009574Y005704D01*
X009574Y005397D01*
X009574Y005627D02*
X009881Y005627D01*
X010035Y005781D02*
X010112Y005857D01*
X010265Y005857D01*
X010265Y005627D02*
X010188Y005627D01*
X010265Y004857D02*
X010035Y004627D01*
X010342Y004627D01*
X010265Y004397D02*
X010265Y004857D01*
X009881Y004704D02*
X009881Y004397D01*
X009881Y004627D02*
X009574Y004627D01*
X009574Y004704D02*
X009574Y004397D01*
X009574Y004704D02*
X009728Y004857D01*
X009881Y004704D01*
X009728Y003857D02*
X009881Y003704D01*
X009881Y003397D01*
X010035Y003474D02*
X010112Y003397D01*
X010265Y003397D01*
X010342Y003474D01*
X010342Y003627D01*
X010265Y003704D01*
X010188Y003704D01*
X010035Y003627D01*
X010035Y003857D01*
X010342Y003857D01*
X009881Y003627D02*
X009574Y003627D01*
X009574Y003704D02*
X009728Y003857D01*
X009574Y003704D02*
X009574Y003397D01*
X007178Y005560D02*
X007178Y005867D01*
X007102Y005944D01*
X006948Y005944D01*
X006871Y005867D01*
X006871Y005790D01*
X006948Y005714D01*
X007178Y005714D01*
X007178Y005560D02*
X007102Y005483D01*
X006948Y005483D01*
X006871Y005560D01*
X006718Y005560D02*
X006641Y005483D01*
X006488Y005483D01*
X006411Y005560D01*
X006258Y005483D02*
X006104Y005637D01*
X006181Y005637D02*
X005951Y005637D01*
X005863Y005579D02*
X005863Y005503D01*
X005786Y005426D01*
X005633Y005426D01*
X005556Y005503D01*
X005402Y005503D02*
X005326Y005426D01*
X005172Y005426D01*
X005095Y005503D01*
X004942Y005426D02*
X004789Y005579D01*
X004865Y005579D02*
X004635Y005579D01*
X004635Y005426D02*
X004635Y005886D01*
X004865Y005886D01*
X004942Y005810D01*
X004942Y005656D01*
X004865Y005579D01*
X005095Y005810D02*
X005172Y005886D01*
X005326Y005886D01*
X005402Y005810D01*
X005402Y005733D01*
X005326Y005656D01*
X005402Y005579D01*
X005402Y005503D01*
X005326Y005656D02*
X005249Y005656D01*
X005556Y005810D02*
X005633Y005886D01*
X005786Y005886D01*
X005863Y005810D01*
X005863Y005733D01*
X005786Y005656D01*
X005863Y005579D01*
X005786Y005656D02*
X005709Y005656D01*
X005951Y005483D02*
X005951Y005944D01*
X006181Y005944D01*
X006258Y005867D01*
X006258Y005714D01*
X006181Y005637D01*
X006411Y005867D02*
X006488Y005944D01*
X006641Y005944D01*
X006718Y005867D01*
X006718Y005790D01*
X006641Y005714D01*
X006718Y005637D01*
X006718Y005560D01*
X006641Y005714D02*
X006565Y005714D01*
X011589Y007528D02*
X011665Y007451D01*
X011972Y007451D01*
X012049Y007528D01*
X012049Y007681D01*
X011972Y007758D01*
X012049Y007912D02*
X012049Y008219D01*
X012049Y008065D02*
X011589Y008065D01*
X011742Y007912D01*
X011665Y007758D02*
X011589Y007681D01*
X011589Y007528D01*
X011819Y008372D02*
X011819Y008602D01*
X011896Y008679D01*
X011972Y008679D01*
X012049Y008602D01*
X012049Y008449D01*
X011972Y008372D01*
X011819Y008372D01*
X011665Y008525D01*
X011589Y008679D01*
X015893Y007506D02*
X015969Y007583D01*
X016276Y007276D01*
X016353Y007353D01*
X016353Y007506D01*
X016276Y007583D01*
X015969Y007583D01*
X015893Y007506D02*
X015893Y007353D01*
X015969Y007276D01*
X016276Y007276D01*
X016123Y007123D02*
X016123Y006816D01*
X015893Y007046D01*
X016353Y007046D01*
X016353Y006662D02*
X016199Y006509D01*
X016199Y006586D02*
X016199Y006356D01*
X016353Y006356D02*
X015893Y006356D01*
X015893Y006586D01*
X015969Y006662D01*
X016123Y006662D01*
X016199Y006586D01*
X016630Y010289D02*
X016630Y010749D01*
X016860Y010749D01*
X016937Y010673D01*
X016937Y010519D01*
X016860Y010442D01*
X016630Y010442D01*
X016784Y010442D02*
X016937Y010289D01*
X017091Y010289D02*
X017398Y010596D01*
X017398Y010673D01*
X017321Y010749D01*
X017167Y010749D01*
X017091Y010673D01*
X017091Y010289D02*
X017398Y010289D01*
X017551Y010366D02*
X017628Y010289D01*
X017781Y010289D01*
X017858Y010366D01*
X017858Y010442D01*
X017781Y010519D01*
X017551Y010519D01*
X017551Y010366D01*
X017551Y010519D02*
X017704Y010673D01*
X017858Y010749D01*
X028562Y007759D02*
X028562Y007298D01*
X028792Y007298D01*
X028869Y007375D01*
X028869Y007682D01*
X028792Y007759D01*
X028562Y007759D01*
X029023Y007529D02*
X029330Y007529D01*
X029253Y007759D02*
X029023Y007529D01*
X029253Y007298D02*
X029253Y007759D01*
X029253Y006759D02*
X029330Y006682D01*
X029330Y006605D01*
X029253Y006529D01*
X029330Y006452D01*
X029330Y006375D01*
X029253Y006298D01*
X029099Y006298D01*
X029023Y006375D01*
X028869Y006375D02*
X028869Y006682D01*
X028792Y006759D01*
X028562Y006759D01*
X028562Y006298D01*
X028792Y006298D01*
X028869Y006375D01*
X029176Y006529D02*
X029253Y006529D01*
X029253Y006759D02*
X029099Y006759D01*
X029023Y006682D01*
X029099Y005759D02*
X029023Y005682D01*
X029099Y005759D02*
X029253Y005759D01*
X029330Y005682D01*
X029330Y005605D01*
X029023Y005298D01*
X029330Y005298D01*
X028869Y005375D02*
X028869Y005682D01*
X028792Y005759D01*
X028562Y005759D01*
X028562Y005298D01*
X028792Y005298D01*
X028869Y005375D01*
X028792Y004759D02*
X028562Y004759D01*
X028562Y004298D01*
X028792Y004298D01*
X028869Y004375D01*
X028869Y004682D01*
X028792Y004759D01*
X029023Y004605D02*
X029176Y004759D01*
X029176Y004298D01*
X029023Y004298D02*
X029330Y004298D01*
X029483Y004298D02*
X029790Y004759D01*
X029943Y004759D02*
X030250Y004759D01*
X030097Y004759D02*
X030097Y004298D01*
X030404Y004298D02*
X030711Y004759D01*
X030404Y004759D02*
X030711Y004298D01*
X030711Y003759D02*
X030404Y003298D01*
X030250Y003298D02*
X030097Y003452D01*
X030174Y003452D02*
X029943Y003452D01*
X029943Y003298D02*
X029943Y003759D01*
X030174Y003759D01*
X030250Y003682D01*
X030250Y003529D01*
X030174Y003452D01*
X030404Y003759D02*
X030711Y003298D01*
X029790Y003759D02*
X029483Y003298D01*
X029330Y003375D02*
X029253Y003298D01*
X029099Y003298D01*
X029023Y003375D01*
X029330Y003682D01*
X029330Y003375D01*
X029330Y003682D02*
X029253Y003759D01*
X029099Y003759D01*
X029023Y003682D01*
X029023Y003375D01*
X028869Y003375D02*
X028869Y003682D01*
X028792Y003759D01*
X028562Y003759D01*
X028562Y003298D01*
X028792Y003298D01*
X028869Y003375D01*
X007262Y010036D02*
X007176Y009950D01*
X007262Y010036D02*
X007262Y010210D01*
X007176Y010297D01*
X007089Y010297D01*
X007002Y010210D01*
X007002Y010036D01*
X006915Y009950D01*
X006829Y009950D01*
X006742Y010036D01*
X006742Y010210D01*
X006829Y010297D01*
X006915Y010465D02*
X006742Y010639D01*
X007262Y010639D01*
X007262Y010812D02*
X007262Y010465D01*
D12*
X008343Y010082D02*
X008343Y010982D01*
X008443Y011082D01*
X008343Y011182D01*
X008343Y011982D01*
X008443Y012082D01*
X008343Y012182D01*
X008343Y012982D01*
X008443Y013082D01*
X008343Y013182D01*
X008343Y013982D01*
X008443Y014082D01*
X008343Y014182D01*
X008343Y014982D01*
X008443Y015082D01*
X008343Y015182D01*
X008343Y015982D01*
X008443Y016082D01*
X008343Y016182D01*
X008343Y016982D01*
X008443Y017082D01*
X008343Y017182D01*
X008343Y018082D01*
X009343Y018082D01*
X009343Y017182D01*
X009243Y017082D01*
X009343Y016982D01*
X009343Y016182D01*
X009243Y016082D01*
X009343Y015982D01*
X009343Y015182D01*
X009243Y015082D01*
X009343Y014982D01*
X009343Y014182D01*
X009243Y014082D01*
X009343Y013982D01*
X009343Y013182D01*
X009243Y013082D01*
X009343Y012982D01*
X009343Y012182D01*
X009243Y012082D01*
X009343Y011982D01*
X009343Y011182D01*
X009243Y011082D01*
X009343Y010982D01*
X009343Y010082D01*
X008343Y010082D01*
X008343Y009082D02*
X008343Y008182D01*
X008443Y008082D01*
X008343Y007982D01*
X008343Y007182D01*
X008443Y007082D01*
X008343Y006982D01*
X008343Y006182D01*
X008443Y006082D01*
X008343Y005982D01*
X008343Y005182D01*
X008443Y005082D01*
X008343Y004982D01*
X008343Y004182D01*
X008443Y004082D01*
X008343Y003982D01*
X008343Y003082D01*
X009343Y003082D01*
X009343Y003982D01*
X009243Y004082D01*
X009343Y004182D01*
X009343Y004982D01*
X009243Y005082D01*
X009343Y005182D01*
X009343Y005982D01*
X009243Y006082D01*
X009343Y006182D01*
X009343Y006982D01*
X009243Y007082D01*
X009343Y007182D01*
X009343Y007982D01*
X009243Y008082D01*
X009343Y008182D01*
X009343Y009082D01*
X008343Y009082D01*
X011461Y006176D02*
X011461Y005756D01*
X011461Y005356D01*
X011461Y004936D01*
X011463Y004913D01*
X011468Y004890D01*
X011477Y004868D01*
X011490Y004848D01*
X011505Y004830D01*
X011523Y004815D01*
X011543Y004802D01*
X011565Y004793D01*
X011588Y004788D01*
X011611Y004786D01*
X011461Y005356D02*
X011488Y005358D01*
X011515Y005363D01*
X011541Y005373D01*
X011565Y005385D01*
X011587Y005401D01*
X011607Y005419D01*
X011624Y005441D01*
X011639Y005464D01*
X011649Y005489D01*
X011657Y005515D01*
X011661Y005542D01*
X011661Y005570D01*
X011657Y005597D01*
X011649Y005623D01*
X011639Y005648D01*
X011624Y005671D01*
X011607Y005693D01*
X011587Y005711D01*
X011565Y005727D01*
X011541Y005739D01*
X011515Y005749D01*
X011488Y005754D01*
X011461Y005756D01*
X011461Y006176D02*
X011463Y006199D01*
X011468Y006222D01*
X011477Y006244D01*
X011490Y006264D01*
X011505Y006282D01*
X011523Y006297D01*
X011543Y006310D01*
X011565Y006319D01*
X011588Y006324D01*
X011611Y006326D01*
X015311Y006326D02*
X015334Y006324D01*
X015357Y006319D01*
X015379Y006310D01*
X015399Y006297D01*
X015417Y006282D01*
X015432Y006264D01*
X015445Y006244D01*
X015454Y006222D01*
X015459Y006199D01*
X015461Y006176D01*
X015461Y004936D01*
X015459Y004913D01*
X015454Y004890D01*
X015445Y004868D01*
X015432Y004848D01*
X015417Y004830D01*
X015399Y004815D01*
X015379Y004802D01*
X015357Y004793D01*
X015334Y004788D01*
X015311Y004786D01*
X027343Y004982D02*
X027343Y004182D01*
X027443Y004082D01*
X027343Y003982D01*
X027343Y003082D01*
X028343Y003082D01*
X028343Y003982D01*
X028243Y004082D01*
X028343Y004182D01*
X028343Y004982D01*
X028243Y005082D01*
X028343Y005182D01*
X028343Y005982D01*
X028243Y006082D01*
X028343Y006182D01*
X028343Y006982D01*
X028243Y007082D01*
X028343Y007182D01*
X028343Y007982D01*
X028243Y008082D01*
X028343Y008182D01*
X028343Y008982D01*
X028243Y009082D01*
X028343Y009182D01*
X028343Y009982D01*
X028243Y010082D01*
X028343Y010182D01*
X028343Y011082D01*
X027343Y011082D01*
X027343Y010182D01*
X027443Y010082D01*
X027343Y009982D01*
X027343Y009182D01*
X027443Y009082D01*
X027343Y008982D01*
X027343Y008182D01*
X027443Y008082D01*
X027343Y007982D01*
X027343Y007182D01*
X027443Y007082D01*
X027343Y006982D01*
X027343Y006182D01*
X027443Y006082D01*
X027343Y005982D01*
X027343Y005182D01*
X027443Y005082D01*
X027343Y004982D01*
X027343Y011682D02*
X027343Y012582D01*
X027443Y012682D01*
X027343Y012782D01*
X027343Y013582D01*
X027443Y013682D01*
X027343Y013782D01*
X027343Y014582D01*
X027443Y014682D01*
X027343Y014782D01*
X027343Y015582D01*
X027443Y015682D01*
X027343Y015782D01*
X027343Y016582D01*
X027443Y016682D01*
X027343Y016782D01*
X027343Y017582D01*
X027443Y017682D01*
X027343Y017782D01*
X027343Y018582D01*
X027443Y018682D01*
X027343Y018782D01*
X027343Y019582D01*
X027443Y019682D01*
X027343Y019782D01*
X027343Y020582D01*
X027443Y020682D01*
X027343Y020782D01*
X027343Y021682D01*
X028343Y021682D01*
X028343Y020782D01*
X028243Y020682D01*
X028343Y020582D01*
X028343Y019782D01*
X028243Y019682D01*
X028343Y019582D01*
X028343Y018782D01*
X028243Y018682D01*
X028343Y018582D01*
X028343Y017782D01*
X028243Y017682D01*
X028343Y017582D01*
X028343Y016782D01*
X028243Y016682D01*
X028343Y016582D01*
X028343Y015782D01*
X028243Y015682D01*
X028343Y015582D01*
X028343Y014782D01*
X028243Y014682D01*
X028343Y014582D01*
X028343Y013782D01*
X028243Y013682D01*
X028343Y013582D01*
X028343Y012782D01*
X028243Y012682D01*
X028343Y012582D01*
X028343Y011682D01*
X027343Y011682D01*
X024608Y017813D02*
X021848Y017813D01*
X021848Y020433D01*
X021988Y020573D01*
X024608Y020573D01*
X024608Y017813D01*
X022007Y020273D02*
X022009Y020296D01*
X022015Y020319D01*
X022024Y020340D01*
X022037Y020360D01*
X022053Y020377D01*
X022071Y020391D01*
X022091Y020402D01*
X022113Y020410D01*
X022136Y020414D01*
X022160Y020414D01*
X022183Y020410D01*
X022205Y020402D01*
X022225Y020391D01*
X022243Y020377D01*
X022259Y020360D01*
X022272Y020340D01*
X022281Y020319D01*
X022287Y020296D01*
X022289Y020273D01*
X022287Y020250D01*
X022281Y020227D01*
X022272Y020206D01*
X022259Y020186D01*
X022243Y020169D01*
X022225Y020155D01*
X022205Y020144D01*
X022183Y020136D01*
X022160Y020132D01*
X022136Y020132D01*
X022113Y020136D01*
X022091Y020144D01*
X022071Y020155D01*
X022053Y020169D01*
X022037Y020186D01*
X022024Y020206D01*
X022015Y020227D01*
X022009Y020250D01*
X022007Y020273D01*
X016853Y018208D02*
X016853Y022508D01*
X016851Y022525D01*
X016847Y022542D01*
X016840Y022558D01*
X016830Y022572D01*
X016817Y022585D01*
X016803Y022595D01*
X016787Y022602D01*
X016770Y022606D01*
X016753Y022608D01*
X016353Y022608D01*
X015453Y022608D02*
X015053Y022608D01*
X015036Y022606D01*
X015019Y022602D01*
X015003Y022595D01*
X014989Y022585D01*
X014976Y022572D01*
X014966Y022558D01*
X014959Y022542D01*
X014955Y022525D01*
X014953Y022508D01*
X014953Y018208D01*
X014955Y018191D01*
X014959Y018174D01*
X014966Y018158D01*
X014976Y018144D01*
X014989Y018131D01*
X015003Y018121D01*
X015019Y018114D01*
X015036Y018110D01*
X015053Y018108D01*
X015453Y018108D01*
X016353Y018108D02*
X016753Y018108D01*
X016770Y018110D01*
X016787Y018114D01*
X016803Y018121D01*
X016817Y018131D01*
X016830Y018144D01*
X016840Y018158D01*
X016847Y018174D01*
X016851Y018191D01*
X016853Y018208D01*
X016153Y020108D02*
X015903Y020108D01*
X015653Y020108D01*
X015653Y020258D02*
X016153Y020258D01*
X016153Y020458D01*
X015653Y020458D01*
X015653Y020258D01*
X015653Y020608D02*
X015903Y020608D01*
X016153Y020608D01*
X011934Y024844D02*
X010474Y024844D01*
X010474Y027484D01*
X011934Y027484D01*
X011934Y024844D01*
X014003Y025765D02*
X014003Y026185D01*
X014003Y026585D01*
X014003Y027005D01*
X014005Y027028D01*
X014010Y027051D01*
X014019Y027073D01*
X014032Y027093D01*
X014047Y027111D01*
X014065Y027126D01*
X014085Y027139D01*
X014107Y027148D01*
X014130Y027153D01*
X014153Y027155D01*
X014003Y026585D02*
X014030Y026583D01*
X014057Y026578D01*
X014083Y026568D01*
X014107Y026556D01*
X014129Y026540D01*
X014149Y026522D01*
X014166Y026500D01*
X014181Y026477D01*
X014191Y026452D01*
X014199Y026426D01*
X014203Y026399D01*
X014203Y026371D01*
X014199Y026344D01*
X014191Y026318D01*
X014181Y026293D01*
X014166Y026270D01*
X014149Y026248D01*
X014129Y026230D01*
X014107Y026214D01*
X014083Y026202D01*
X014057Y026192D01*
X014030Y026187D01*
X014003Y026185D01*
X014003Y025765D02*
X014005Y025742D01*
X014010Y025719D01*
X014019Y025697D01*
X014032Y025677D01*
X014047Y025659D01*
X014065Y025644D01*
X014085Y025631D01*
X014107Y025622D01*
X014130Y025617D01*
X014153Y025615D01*
X017853Y025615D02*
X017876Y025617D01*
X017899Y025622D01*
X017921Y025631D01*
X017941Y025644D01*
X017959Y025659D01*
X017974Y025677D01*
X017987Y025697D01*
X017996Y025719D01*
X018001Y025742D01*
X018003Y025765D01*
X018003Y027005D01*
X018001Y027028D01*
X017996Y027051D01*
X017987Y027073D01*
X017974Y027093D01*
X017959Y027111D01*
X017941Y027126D01*
X017921Y027139D01*
X017899Y027148D01*
X017876Y027153D01*
X017853Y027155D01*
X034025Y023102D02*
X035265Y023102D01*
X035288Y023100D01*
X035311Y023095D01*
X035333Y023086D01*
X035353Y023073D01*
X035371Y023058D01*
X035386Y023040D01*
X035399Y023020D01*
X035408Y022998D01*
X035413Y022975D01*
X035415Y022952D01*
X034025Y023102D02*
X034002Y023100D01*
X033979Y023095D01*
X033957Y023086D01*
X033937Y023073D01*
X033919Y023058D01*
X033904Y023040D01*
X033891Y023020D01*
X033882Y022998D01*
X033877Y022975D01*
X033875Y022952D01*
X033875Y019752D02*
X033877Y019729D01*
X033882Y019706D01*
X033891Y019684D01*
X033904Y019664D01*
X033919Y019646D01*
X033937Y019631D01*
X033957Y019618D01*
X033979Y019609D01*
X034002Y019604D01*
X034025Y019602D01*
X034445Y019602D01*
X034845Y019602D01*
X035265Y019602D01*
X035288Y019604D01*
X035311Y019609D01*
X035333Y019618D01*
X035353Y019631D01*
X035371Y019646D01*
X035386Y019664D01*
X035399Y019684D01*
X035408Y019706D01*
X035413Y019729D01*
X035415Y019752D01*
X034845Y019602D02*
X034843Y019629D01*
X034838Y019656D01*
X034828Y019682D01*
X034816Y019706D01*
X034800Y019728D01*
X034782Y019748D01*
X034760Y019765D01*
X034737Y019780D01*
X034712Y019790D01*
X034686Y019798D01*
X034659Y019802D01*
X034631Y019802D01*
X034604Y019798D01*
X034578Y019790D01*
X034553Y019780D01*
X034530Y019765D01*
X034508Y019748D01*
X034490Y019728D01*
X034474Y019706D01*
X034462Y019682D01*
X034452Y019656D01*
X034447Y019629D01*
X034445Y019602D01*
X048087Y019961D02*
X048330Y020203D01*
X048815Y020203D01*
X048815Y020443D02*
X048815Y020928D01*
X048815Y020686D02*
X048087Y020686D01*
X048330Y020443D01*
X048451Y020203D02*
X048451Y019718D01*
X048330Y019718D02*
X048087Y019961D01*
X048330Y019718D02*
X048815Y019718D01*
X048847Y024616D02*
X048119Y024616D01*
X048119Y024980D01*
X048240Y025101D01*
X048726Y025101D01*
X048847Y024980D01*
X048847Y024616D01*
X048847Y025341D02*
X048847Y025826D01*
X048847Y025583D02*
X048119Y025583D01*
X048362Y025341D01*
X048240Y026066D02*
X048119Y026187D01*
X048119Y026430D01*
X048240Y026551D01*
X048362Y026551D01*
X048483Y026430D01*
X048604Y026551D01*
X048726Y026551D01*
X048847Y026430D01*
X048847Y026187D01*
X048726Y026066D01*
X048483Y026308D02*
X048483Y026430D01*
X048228Y015023D02*
X048714Y015023D01*
X048835Y014901D01*
X048835Y014659D01*
X048714Y014537D01*
X048228Y015023D01*
X048107Y014901D01*
X048107Y014659D01*
X048228Y014537D01*
X048714Y014537D01*
X048835Y014298D02*
X048350Y014298D01*
X048107Y014055D01*
X048350Y013812D01*
X048835Y013812D01*
X048471Y013812D02*
X048471Y014298D01*
D13*
X047410Y012734D02*
X046682Y012734D01*
X046682Y012188D01*
X047046Y012370D01*
X047228Y012370D01*
X047410Y012188D01*
X047410Y011824D01*
X047228Y011642D01*
X046864Y011642D01*
X046682Y011824D01*
X041898Y011824D02*
X041716Y011642D01*
X041352Y011642D01*
X041170Y011824D01*
X041534Y012188D02*
X041716Y012188D01*
X041898Y012006D01*
X041898Y011824D01*
X041716Y012188D02*
X041898Y012370D01*
X041898Y012552D01*
X041716Y012734D01*
X041352Y012734D01*
X041170Y012552D01*
X037567Y014792D02*
X036839Y014792D01*
X037567Y015520D01*
X037567Y015702D01*
X037385Y015884D01*
X037021Y015884D01*
X036839Y015702D01*
X032872Y012734D02*
X032872Y011642D01*
X032508Y011642D02*
X033236Y011642D01*
X032508Y012370D02*
X032872Y012734D01*
X036839Y009039D02*
X037385Y009585D01*
X037385Y008493D01*
X037567Y009039D02*
X036839Y009039D01*
D14*
X012640Y023286D02*
X012393Y023286D01*
X012516Y023286D02*
X012516Y023657D01*
X012393Y023533D01*
X012271Y023595D02*
X012210Y023657D01*
X012086Y023657D01*
X012024Y023595D01*
X012024Y023348D01*
X012086Y023286D01*
X012210Y023286D01*
X012271Y023348D01*
X011902Y023286D02*
X011779Y023286D01*
X011841Y023286D02*
X011841Y023657D01*
X011902Y023657D02*
X011779Y023657D01*
X009952Y027198D02*
X009639Y027511D01*
X009952Y027198D01*
X009952Y027354D02*
X009639Y027354D01*
X009952Y027354D01*
X009952Y027511D02*
X009639Y027198D01*
X009952Y027511D01*
X009795Y027511D02*
X009795Y027198D01*
X009795Y027511D01*
X025141Y027310D02*
X025265Y027187D01*
X025203Y027065D02*
X025141Y027003D01*
X025141Y026818D01*
X025511Y026818D01*
X025511Y027003D01*
X025450Y027065D01*
X025203Y027065D01*
X025141Y027310D02*
X025511Y027310D01*
X025511Y027187D02*
X025511Y027433D01*
X025511Y026697D02*
X025511Y026450D01*
X025141Y026450D01*
X025141Y026697D01*
X025326Y026573D02*
X025326Y026450D01*
X025511Y026328D02*
X025511Y026082D01*
X025141Y026082D01*
X026729Y026087D02*
X027100Y026087D01*
X027100Y026334D01*
X027100Y026455D02*
X027100Y026702D01*
X027100Y026824D02*
X027100Y027009D01*
X027038Y027071D01*
X026791Y027071D01*
X026729Y027009D01*
X026729Y026824D01*
X027100Y026824D01*
X026914Y026579D02*
X026914Y026455D01*
X026729Y026455D02*
X027100Y026455D01*
X026729Y026455D02*
X026729Y026702D01*
X026791Y027192D02*
X026729Y027254D01*
X026729Y027377D01*
X026791Y027439D01*
X026853Y027439D01*
X027100Y027192D01*
X027100Y027439D01*
X028337Y027391D02*
X028399Y027452D01*
X028461Y027452D01*
X028522Y027391D01*
X028584Y027452D01*
X028646Y027452D01*
X028708Y027391D01*
X028708Y027267D01*
X028646Y027205D01*
X028646Y027084D02*
X028399Y027084D01*
X028337Y027022D01*
X028337Y026837D01*
X028708Y026837D01*
X028708Y027022D01*
X028646Y027084D01*
X028522Y027329D02*
X028522Y027391D01*
X028337Y027391D02*
X028337Y027267D01*
X028399Y027205D01*
X028337Y026716D02*
X028337Y026469D01*
X028708Y026469D01*
X028708Y026716D01*
X028522Y026592D02*
X028522Y026469D01*
X028708Y026347D02*
X028708Y026101D01*
X028337Y026101D01*
X030637Y026001D02*
X031008Y026001D01*
X031008Y026247D01*
X031008Y026369D02*
X031008Y026616D01*
X031008Y026737D02*
X031008Y026922D01*
X030946Y026984D01*
X030699Y026984D01*
X030637Y026922D01*
X030637Y026737D01*
X031008Y026737D01*
X030822Y026492D02*
X030822Y026369D01*
X030637Y026369D02*
X031008Y026369D01*
X030637Y026369D02*
X030637Y026616D01*
X030822Y027105D02*
X030822Y027352D01*
X030637Y027291D02*
X031008Y027291D01*
X030822Y027105D02*
X030637Y027291D01*
X032237Y027352D02*
X032237Y027105D01*
X032422Y027105D01*
X032361Y027229D01*
X032361Y027291D01*
X032422Y027352D01*
X032546Y027352D01*
X032608Y027291D01*
X032608Y027167D01*
X032546Y027105D01*
X032546Y026984D02*
X032299Y026984D01*
X032237Y026922D01*
X032237Y026737D01*
X032608Y026737D01*
X032608Y026922D01*
X032546Y026984D01*
X032608Y026616D02*
X032608Y026369D01*
X032237Y026369D01*
X032237Y026616D01*
X032422Y026492D02*
X032422Y026369D01*
X032608Y026247D02*
X032608Y026001D01*
X032237Y026001D01*
X033837Y026001D02*
X034208Y026001D01*
X034208Y026247D01*
X034208Y026369D02*
X034208Y026616D01*
X034208Y026737D02*
X034208Y026922D01*
X034146Y026984D01*
X033899Y026984D01*
X033837Y026922D01*
X033837Y026737D01*
X034208Y026737D01*
X034022Y026492D02*
X034022Y026369D01*
X033837Y026369D02*
X034208Y026369D01*
X033837Y026369D02*
X033837Y026616D01*
X034022Y027105D02*
X034022Y027291D01*
X034084Y027352D01*
X034146Y027352D01*
X034208Y027291D01*
X034208Y027167D01*
X034146Y027105D01*
X034022Y027105D01*
X033899Y027229D01*
X033837Y027352D01*
X035437Y027352D02*
X035437Y027105D01*
X035499Y026984D02*
X035437Y026922D01*
X035437Y026737D01*
X035808Y026737D01*
X035808Y026922D01*
X035746Y026984D01*
X035499Y026984D01*
X035746Y027105D02*
X035808Y027105D01*
X035746Y027105D02*
X035499Y027352D01*
X035437Y027352D01*
X035437Y026616D02*
X035437Y026369D01*
X035808Y026369D01*
X035808Y026616D01*
X035622Y026492D02*
X035622Y026369D01*
X035808Y026247D02*
X035808Y026001D01*
X035437Y026001D01*
X037037Y025901D02*
X037408Y025901D01*
X037408Y026147D01*
X037408Y026269D02*
X037408Y026516D01*
X037408Y026637D02*
X037408Y026822D01*
X037346Y026884D01*
X037099Y026884D01*
X037037Y026822D01*
X037037Y026637D01*
X037408Y026637D01*
X037222Y026392D02*
X037222Y026269D01*
X037037Y026269D02*
X037408Y026269D01*
X037037Y026269D02*
X037037Y026516D01*
X037099Y027005D02*
X037161Y027005D01*
X037222Y027067D01*
X037222Y027191D01*
X037284Y027252D01*
X037346Y027252D01*
X037408Y027191D01*
X037408Y027067D01*
X037346Y027005D01*
X037284Y027005D01*
X037222Y027067D01*
X037222Y027191D02*
X037161Y027252D01*
X037099Y027252D01*
X037037Y027191D01*
X037037Y027067D01*
X037099Y027005D01*
X038637Y027067D02*
X038699Y027005D01*
X038761Y027005D01*
X038822Y027067D01*
X038822Y027252D01*
X038699Y027252D02*
X038637Y027191D01*
X038637Y027067D01*
X038699Y026884D02*
X038637Y026822D01*
X038637Y026637D01*
X039008Y026637D01*
X039008Y026822D01*
X038946Y026884D01*
X038699Y026884D01*
X038946Y027005D02*
X039008Y027067D01*
X039008Y027191D01*
X038946Y027252D01*
X038699Y027252D01*
X038637Y026516D02*
X038637Y026269D01*
X039008Y026269D01*
X039008Y026516D01*
X038822Y026392D02*
X038822Y026269D01*
X039008Y026147D02*
X039008Y025901D01*
X038637Y025901D01*
X040237Y025901D02*
X040608Y025901D01*
X040608Y026147D01*
X040608Y026269D02*
X040608Y026516D01*
X040608Y026637D02*
X040608Y026822D01*
X040546Y026884D01*
X040299Y026884D01*
X040237Y026822D01*
X040237Y026637D01*
X040608Y026637D01*
X040422Y026392D02*
X040422Y026269D01*
X040237Y026269D02*
X040608Y026269D01*
X040237Y026269D02*
X040237Y026516D01*
X040361Y027005D02*
X040237Y027129D01*
X040608Y027129D01*
X040608Y027252D02*
X040608Y027005D01*
X040546Y027374D02*
X040299Y027374D01*
X040237Y027435D01*
X040237Y027559D01*
X040299Y027621D01*
X040546Y027374D01*
X040608Y027435D01*
X040608Y027559D01*
X040546Y027621D01*
X040299Y027621D01*
X041880Y027497D02*
X042250Y027497D01*
X042250Y027374D02*
X042250Y027621D01*
X042003Y027374D02*
X041880Y027497D01*
X041880Y027129D02*
X042250Y027129D01*
X042250Y027252D02*
X042250Y027005D01*
X042188Y026884D02*
X041941Y026884D01*
X041880Y026822D01*
X041880Y026637D01*
X042250Y026637D01*
X042250Y026822D01*
X042188Y026884D01*
X042003Y027005D02*
X041880Y027129D01*
X041880Y026516D02*
X041880Y026269D01*
X042250Y026269D01*
X042250Y026516D01*
X042065Y026392D02*
X042065Y026269D01*
X042250Y026147D02*
X042250Y025901D01*
X041880Y025901D01*
X037854Y033179D02*
X037607Y033179D01*
X037854Y033426D01*
X037854Y033487D01*
X037792Y033549D01*
X037669Y033549D01*
X037607Y033487D01*
X037486Y033487D02*
X037486Y033241D01*
X037424Y033179D01*
X037300Y033179D01*
X037239Y033241D01*
X037239Y033487D01*
X037300Y033549D01*
X037424Y033549D01*
X037486Y033487D01*
X037362Y033302D02*
X037486Y033179D01*
X007476Y008028D02*
X007230Y008028D01*
X007230Y007657D01*
X007476Y007657D01*
X007353Y007842D02*
X007230Y007842D01*
X007108Y007657D02*
X006861Y007657D01*
X006861Y008028D01*
X006740Y007966D02*
X006740Y007904D01*
X006678Y007842D01*
X006493Y007842D01*
X006372Y007842D02*
X006125Y007842D01*
X006125Y007904D02*
X006125Y007657D01*
X006003Y007719D02*
X005941Y007657D01*
X005818Y007657D01*
X005756Y007719D01*
X005634Y007657D02*
X005511Y007657D01*
X005572Y007657D02*
X005572Y008028D01*
X005511Y008028D02*
X005634Y008028D01*
X005756Y007966D02*
X005756Y007904D01*
X005818Y007842D01*
X005941Y007842D01*
X006003Y007781D01*
X006003Y007719D01*
X006125Y007904D02*
X006248Y008028D01*
X006372Y007904D01*
X006372Y007657D01*
X006493Y007657D02*
X006678Y007657D01*
X006740Y007719D01*
X006740Y007781D01*
X006678Y007842D01*
X006740Y007966D02*
X006678Y008028D01*
X006493Y008028D01*
X006493Y007657D01*
X006433Y007428D02*
X006494Y007366D01*
X006494Y007304D01*
X006433Y007242D01*
X006247Y007242D01*
X006247Y007057D02*
X006247Y007428D01*
X006433Y007428D01*
X006433Y007242D02*
X006494Y007181D01*
X006494Y007119D01*
X006433Y007057D01*
X006247Y007057D01*
X006616Y007119D02*
X006677Y007057D01*
X006801Y007057D01*
X006863Y007119D01*
X006863Y007366D01*
X006801Y007428D01*
X006677Y007428D01*
X006616Y007366D01*
X006616Y007119D01*
X006984Y007057D02*
X006984Y007304D01*
X007107Y007428D01*
X007231Y007304D01*
X007231Y007057D01*
X007352Y007057D02*
X007352Y007428D01*
X007538Y007428D01*
X007599Y007366D01*
X007599Y007242D01*
X007538Y007181D01*
X007352Y007181D01*
X007476Y007181D02*
X007599Y007057D01*
X007721Y007057D02*
X007906Y007057D01*
X007968Y007119D01*
X007968Y007366D01*
X007906Y007428D01*
X007721Y007428D01*
X007721Y007057D01*
X007231Y007242D02*
X006984Y007242D01*
X006003Y007966D02*
X005941Y008028D01*
X005818Y008028D01*
X005756Y007966D01*
X005389Y007966D02*
X005389Y007719D01*
X005328Y007657D01*
X005142Y007657D01*
X005142Y008028D01*
X005328Y008028D01*
X005389Y007966D01*
X005266Y007428D02*
X005142Y007428D01*
X005204Y007428D02*
X005204Y007057D01*
X005142Y007057D02*
X005266Y007057D01*
X005021Y007119D02*
X005021Y007366D01*
X004959Y007428D01*
X004774Y007428D01*
X004774Y007057D01*
X004959Y007057D01*
X005021Y007119D01*
X004653Y007428D02*
X004406Y007428D01*
X004284Y007428D02*
X004038Y007428D01*
X004038Y007057D01*
X004038Y007242D02*
X004161Y007242D01*
X004529Y007057D02*
X004529Y007428D01*
X005756Y007428D02*
X005756Y007057D01*
D15*
X005702Y009267D02*
X005739Y009304D01*
X005739Y009450D01*
X005702Y009487D01*
X005629Y009487D01*
X005592Y009450D01*
X005592Y009304D01*
X005629Y009267D01*
X005702Y009267D01*
X005813Y009267D02*
X005813Y009487D01*
X005960Y009267D01*
X005960Y009487D01*
X005842Y011285D02*
X005695Y011285D01*
X005768Y011285D02*
X005768Y011505D01*
X005695Y011431D01*
X004842Y011431D02*
X004842Y011468D01*
X004805Y011505D01*
X004732Y011505D01*
X004695Y011468D01*
X004842Y011431D02*
X004695Y011285D01*
X004842Y011285D01*
X011461Y004926D02*
X015461Y004926D01*
X015403Y019008D02*
X015403Y021708D01*
X015103Y021708D02*
X015103Y019008D01*
X015403Y019008D02*
X015404Y018970D01*
X015409Y018933D01*
X015416Y018896D01*
X015425Y018860D01*
X015438Y018824D01*
X015453Y018790D01*
X016353Y018347D02*
X016398Y018379D01*
X016440Y018415D01*
X016480Y018454D01*
X016517Y018496D01*
X016551Y018539D01*
X016582Y018586D01*
X016610Y018634D01*
X016634Y018684D01*
X016655Y018735D01*
X016672Y018788D01*
X016686Y018842D01*
X016695Y018897D01*
X016701Y018952D01*
X016703Y019008D01*
X016703Y021708D01*
X016403Y021708D02*
X016403Y019008D01*
X016402Y018970D01*
X016397Y018933D01*
X016390Y018896D01*
X016381Y018860D01*
X016368Y018824D01*
X016353Y018790D01*
X015453Y018347D02*
X015408Y018379D01*
X015366Y018415D01*
X015326Y018454D01*
X015289Y018495D01*
X015255Y018539D01*
X015224Y018586D01*
X015196Y018634D01*
X015172Y018684D01*
X015151Y018735D01*
X015134Y018788D01*
X015120Y018842D01*
X015111Y018897D01*
X015105Y018952D01*
X015103Y019008D01*
X015903Y019908D02*
X015903Y020108D01*
X015903Y020608D02*
X015903Y020808D01*
X016703Y021708D02*
X016701Y021764D01*
X016695Y021819D01*
X016686Y021874D01*
X016672Y021928D01*
X016655Y021981D01*
X016634Y022032D01*
X016610Y022082D01*
X016582Y022130D01*
X016551Y022177D01*
X016517Y022221D01*
X016480Y022262D01*
X016440Y022301D01*
X016398Y022337D01*
X016353Y022369D01*
X015453Y022369D02*
X015408Y022337D01*
X015366Y022301D01*
X015326Y022262D01*
X015289Y022220D01*
X015255Y022177D01*
X015224Y022130D01*
X015196Y022082D01*
X015172Y022032D01*
X015151Y021981D01*
X015134Y021928D01*
X015120Y021874D01*
X015111Y021819D01*
X015105Y021764D01*
X015103Y021708D01*
X015403Y021708D02*
X015404Y021746D01*
X015409Y021783D01*
X015416Y021820D01*
X015425Y021856D01*
X015438Y021892D01*
X015453Y021926D01*
X016353Y021926D02*
X016368Y021892D01*
X016381Y021856D01*
X016390Y021820D01*
X016397Y021783D01*
X016402Y021746D01*
X016403Y021708D01*
X018003Y025755D02*
X014003Y025755D01*
X009181Y022381D02*
X009181Y022308D01*
X009144Y022271D01*
X009034Y022271D01*
X009034Y022198D02*
X009034Y022418D01*
X009144Y022418D01*
X009181Y022381D01*
X009108Y022271D02*
X009181Y022198D01*
X008960Y022198D02*
X008813Y022198D01*
X008813Y022418D01*
X008960Y022418D01*
X008887Y022308D02*
X008813Y022308D01*
X008739Y022418D02*
X008592Y022418D01*
X008666Y022418D02*
X008666Y022198D01*
X008518Y022198D02*
X008371Y022198D01*
X008371Y022418D01*
X008297Y022418D02*
X008224Y022418D01*
X008261Y022418D02*
X008261Y022198D01*
X008297Y022198D02*
X008224Y022198D01*
X008076Y022308D02*
X008003Y022308D01*
X008003Y022418D02*
X008150Y022418D01*
X008003Y022418D02*
X008003Y022198D01*
X007929Y022161D02*
X007782Y022161D01*
X007708Y022235D02*
X007671Y022198D01*
X007561Y022198D01*
X007561Y022418D01*
X007671Y022418D01*
X007708Y022381D01*
X007708Y022345D01*
X007671Y022308D01*
X007561Y022308D01*
X007487Y022271D02*
X007487Y022235D01*
X007450Y022198D01*
X007377Y022198D01*
X007340Y022235D01*
X007266Y022235D02*
X007266Y022418D01*
X007340Y022381D02*
X007340Y022345D01*
X007377Y022308D01*
X007450Y022308D01*
X007487Y022271D01*
X007487Y022381D02*
X007450Y022418D01*
X007377Y022418D01*
X007340Y022381D01*
X007266Y022235D02*
X007229Y022198D01*
X007156Y022198D01*
X007119Y022235D01*
X007119Y022418D01*
X007671Y022308D02*
X007708Y022271D01*
X007708Y022235D01*
X035275Y023102D02*
X035275Y019602D01*
D16*
X008218Y003557D02*
X007768Y003557D01*
X007918Y003407D01*
X008218Y003407D02*
X008218Y003707D01*
X010836Y004831D02*
X010836Y004981D01*
X010836Y004906D02*
X011286Y004906D01*
X011286Y004831D02*
X011286Y004981D01*
X011211Y005138D02*
X011286Y005213D01*
X011286Y005363D01*
X011211Y005438D01*
X011211Y005598D02*
X011286Y005673D01*
X011286Y005823D01*
X011211Y005898D01*
X011061Y005898D01*
X010986Y005823D01*
X010986Y005748D01*
X011061Y005598D01*
X010836Y005598D01*
X010836Y005898D01*
X010911Y005438D02*
X010836Y005363D01*
X010836Y005213D01*
X010911Y005138D01*
X011211Y005138D01*
X008143Y008407D02*
X008218Y008482D01*
X008218Y008632D01*
X008143Y008707D01*
X008068Y008707D01*
X007993Y008632D01*
X007993Y008407D01*
X008143Y008407D01*
X007993Y008407D02*
X007843Y008557D01*
X007768Y008707D01*
X007918Y010407D02*
X007768Y010557D01*
X008218Y010557D01*
X008218Y010407D02*
X008218Y010707D01*
X012778Y013526D02*
X012778Y014393D01*
X015180Y014393D01*
X015180Y013526D01*
X012778Y013526D01*
X013660Y013610D02*
X013660Y014310D01*
X014260Y013960D01*
X014260Y013610D01*
X014260Y013960D02*
X014260Y014310D01*
X014260Y013960D02*
X013660Y013610D01*
X013660Y014791D02*
X014260Y015141D01*
X014260Y014791D01*
X014260Y015141D02*
X014260Y015491D01*
X014260Y015141D02*
X013660Y015491D01*
X013660Y014791D01*
X012778Y014708D02*
X012778Y015574D01*
X015180Y015574D01*
X015180Y014708D01*
X012778Y014708D01*
X008218Y017482D02*
X008143Y017407D01*
X008068Y017407D01*
X007993Y017482D01*
X007993Y017632D01*
X008068Y017707D01*
X008143Y017707D01*
X008218Y017632D01*
X008218Y017482D01*
X007993Y017482D02*
X007918Y017407D01*
X007843Y017407D01*
X007768Y017482D01*
X007768Y017632D01*
X007843Y017707D01*
X007918Y017707D01*
X007993Y017632D01*
X006829Y017409D02*
X006479Y017409D01*
X006129Y017409D01*
X006479Y017409D02*
X006829Y016809D01*
X006129Y016809D01*
X006479Y017409D01*
X006046Y018330D02*
X006912Y018330D01*
X006912Y015928D01*
X006046Y015928D01*
X006046Y018330D01*
X010711Y018927D02*
X012211Y018927D01*
X012211Y019427D01*
X012711Y019427D01*
X012711Y018927D02*
X012211Y018927D01*
X014153Y021487D02*
X014077Y021562D01*
X014077Y021712D01*
X014153Y021787D01*
X014453Y021787D01*
X014528Y021712D01*
X014528Y021562D01*
X014453Y021487D01*
X014153Y021487D01*
X014378Y021637D02*
X014528Y021787D01*
X014528Y021947D02*
X014528Y022248D01*
X014528Y022097D02*
X014077Y022097D01*
X014228Y021947D01*
X013428Y025760D02*
X013428Y025910D01*
X013428Y025835D02*
X012977Y025835D01*
X012977Y025760D02*
X012977Y025910D01*
X013053Y026067D02*
X012977Y026142D01*
X012977Y026292D01*
X013053Y026367D01*
X013203Y026527D02*
X012977Y026752D01*
X013428Y026752D01*
X013203Y026827D02*
X013203Y026527D01*
X013353Y026367D02*
X013428Y026292D01*
X013428Y026142D01*
X013353Y026067D01*
X013053Y026067D01*
X011208Y029499D02*
X034830Y029499D01*
X034830Y033042D01*
X011208Y033042D01*
X011208Y029499D01*
X005963Y026262D02*
X005233Y026262D01*
X005233Y025122D01*
X005963Y025122D01*
X005963Y026252D01*
X005810Y023133D02*
X005810Y023093D01*
X005810Y023133D02*
X005771Y023133D01*
X019850Y011311D02*
X020850Y011311D01*
X020850Y010311D01*
X019850Y010311D01*
X019850Y005311D01*
X025850Y005311D01*
X025850Y011311D01*
X020850Y011311D01*
X019850Y011311D02*
X019850Y010311D01*
X026768Y010482D02*
X026768Y010632D01*
X026843Y010707D01*
X026918Y010707D01*
X026993Y010632D01*
X026993Y010482D01*
X026918Y010407D01*
X026843Y010407D01*
X026768Y010482D01*
X026993Y010482D02*
X027068Y010407D01*
X027143Y010407D01*
X027218Y010482D01*
X027218Y010632D01*
X027143Y010707D01*
X027068Y010707D01*
X026993Y010632D01*
X026918Y012007D02*
X026768Y012157D01*
X027218Y012157D01*
X027218Y012007D02*
X027218Y012307D01*
X030889Y011204D02*
X030889Y008841D01*
X034826Y008841D01*
X034826Y011204D01*
X030889Y011204D01*
X035219Y011991D02*
X035219Y014353D01*
X039156Y014353D01*
X039156Y011991D01*
X035219Y011991D01*
X039550Y011204D02*
X039550Y008841D01*
X043487Y008841D01*
X043487Y011204D01*
X039550Y011204D01*
X039156Y008054D02*
X035219Y008054D01*
X035219Y005692D01*
X039156Y005692D01*
X039156Y008054D01*
X045062Y008841D02*
X045062Y011204D01*
X048999Y011204D01*
X048999Y008841D01*
X045062Y008841D01*
X043487Y015613D02*
X048999Y015613D01*
X048999Y018290D01*
X043487Y018290D01*
X043487Y015771D01*
X043487Y015613D01*
X040908Y017326D02*
X040908Y018448D01*
X038192Y018448D01*
X038192Y017326D01*
X040908Y017326D01*
X042306Y019865D02*
X038369Y019865D01*
X038369Y022227D01*
X042306Y022227D01*
X042306Y019865D01*
X043487Y021519D02*
X048999Y021519D01*
X048999Y024196D01*
X043487Y024196D01*
X043487Y021676D01*
X043487Y021519D01*
X043228Y025825D02*
X042362Y025825D01*
X042362Y028226D01*
X043228Y028226D01*
X043228Y025825D01*
X043145Y026706D02*
X042445Y026706D01*
X042795Y027306D01*
X043145Y027306D01*
X042795Y027306D02*
X042445Y027306D01*
X042795Y027306D02*
X043145Y026706D01*
X043487Y027030D02*
X048999Y027030D01*
X048999Y029708D01*
X043487Y029708D01*
X043487Y027188D01*
X043487Y027030D01*
X041586Y028226D02*
X041586Y025825D01*
X040719Y025825D01*
X040719Y028226D01*
X041586Y028226D01*
X041502Y027306D02*
X041152Y027306D01*
X040802Y027306D01*
X041152Y027306D02*
X041502Y026706D01*
X040802Y026706D01*
X041152Y027306D01*
X039902Y027306D02*
X039552Y027306D01*
X039202Y027306D01*
X039552Y027306D02*
X039902Y026706D01*
X039202Y026706D01*
X039552Y027306D01*
X039119Y028226D02*
X039986Y028226D01*
X039986Y025825D01*
X039119Y025825D01*
X039119Y028226D01*
X038386Y028226D02*
X038386Y025825D01*
X037519Y025825D01*
X037519Y028226D01*
X038386Y028226D01*
X038302Y027306D02*
X037952Y027306D01*
X037602Y027306D01*
X037952Y027306D02*
X038302Y026706D01*
X037602Y026706D01*
X037952Y027306D01*
X036702Y027306D02*
X036352Y027306D01*
X036002Y027306D01*
X036352Y027306D02*
X036702Y026706D01*
X036002Y026706D01*
X036352Y027306D01*
X035919Y028226D02*
X036786Y028226D01*
X036786Y025825D01*
X035919Y025825D01*
X035919Y028226D01*
X035186Y028226D02*
X035186Y025825D01*
X034319Y025825D01*
X034319Y028226D01*
X035186Y028226D01*
X035102Y027306D02*
X034752Y027306D01*
X034402Y027306D01*
X034752Y027306D02*
X035102Y026706D01*
X034402Y026706D01*
X034752Y027306D01*
X033502Y027306D02*
X033152Y027306D01*
X032802Y027306D01*
X033152Y027306D02*
X033502Y026706D01*
X032802Y026706D01*
X033152Y027306D01*
X032719Y028226D02*
X033586Y028226D01*
X033586Y025825D01*
X032719Y025825D01*
X032719Y028226D01*
X031986Y028226D02*
X031986Y025825D01*
X031119Y025825D01*
X031119Y028226D01*
X031986Y028226D01*
X031902Y027306D02*
X031552Y027306D01*
X031202Y027306D01*
X031552Y027306D02*
X031902Y026706D01*
X031202Y026706D01*
X031552Y027306D01*
X029686Y028226D02*
X029686Y025825D01*
X028819Y025825D01*
X028819Y028226D01*
X029686Y028226D01*
X029602Y027306D02*
X029252Y027306D01*
X028902Y027306D01*
X029252Y027306D02*
X029602Y026706D01*
X028902Y026706D01*
X029252Y027306D01*
X028078Y028213D02*
X028078Y025811D01*
X027211Y025811D01*
X027211Y028213D01*
X028078Y028213D01*
X027995Y027293D02*
X027645Y027293D01*
X027295Y027293D01*
X027645Y027293D02*
X027995Y026693D01*
X027295Y026693D01*
X027645Y027293D01*
X026489Y028208D02*
X026489Y025806D01*
X025623Y025806D01*
X025623Y028208D01*
X026489Y028208D01*
X026406Y027287D02*
X026056Y027287D01*
X025706Y027287D01*
X026056Y027287D02*
X026406Y026687D01*
X025706Y026687D01*
X026056Y027287D01*
X026843Y021518D02*
X027143Y021218D01*
X027218Y021293D01*
X027218Y021443D01*
X027143Y021518D01*
X026843Y021518D01*
X026768Y021443D01*
X026768Y021293D01*
X026843Y021218D01*
X027143Y021218D01*
X027218Y021057D02*
X027218Y020757D01*
X027218Y020907D02*
X026768Y020907D01*
X026918Y020757D01*
X035382Y023517D02*
X035532Y023517D01*
X035457Y023517D02*
X035457Y023968D01*
X035382Y023968D02*
X035532Y023968D01*
X035689Y023893D02*
X035689Y023593D01*
X035764Y023517D01*
X035914Y023517D01*
X035989Y023593D01*
X036149Y023517D02*
X036449Y023818D01*
X036449Y023893D01*
X036374Y023968D01*
X036224Y023968D01*
X036149Y023893D01*
X035989Y023893D02*
X035914Y023968D01*
X035764Y023968D01*
X035689Y023893D01*
X036149Y023517D02*
X036449Y023517D01*
X038707Y030849D02*
X038709Y030937D01*
X038715Y031025D01*
X038725Y031113D01*
X038739Y031201D01*
X038756Y031287D01*
X038778Y031373D01*
X038803Y031457D01*
X038833Y031541D01*
X038865Y031623D01*
X038902Y031703D01*
X038942Y031782D01*
X038986Y031859D01*
X039033Y031934D01*
X039083Y032006D01*
X039137Y032077D01*
X039193Y032144D01*
X039253Y032210D01*
X039315Y032272D01*
X039381Y032332D01*
X039448Y032388D01*
X039519Y032442D01*
X039591Y032492D01*
X039666Y032539D01*
X039743Y032583D01*
X039822Y032623D01*
X039902Y032660D01*
X039984Y032692D01*
X040068Y032722D01*
X040152Y032747D01*
X040238Y032769D01*
X040324Y032786D01*
X040412Y032800D01*
X040500Y032810D01*
X040588Y032816D01*
X040676Y032818D01*
X040764Y032816D01*
X040852Y032810D01*
X040940Y032800D01*
X041028Y032786D01*
X041114Y032769D01*
X041200Y032747D01*
X041284Y032722D01*
X041368Y032692D01*
X041450Y032660D01*
X041530Y032623D01*
X041609Y032583D01*
X041686Y032539D01*
X041761Y032492D01*
X041833Y032442D01*
X041904Y032388D01*
X041971Y032332D01*
X042037Y032272D01*
X042099Y032210D01*
X042159Y032144D01*
X042215Y032077D01*
X042269Y032006D01*
X042319Y031934D01*
X042366Y031859D01*
X042410Y031782D01*
X042450Y031703D01*
X042487Y031623D01*
X042519Y031541D01*
X042549Y031457D01*
X042574Y031373D01*
X042596Y031287D01*
X042613Y031201D01*
X042627Y031113D01*
X042637Y031025D01*
X042643Y030937D01*
X042645Y030849D01*
X042643Y030761D01*
X042637Y030673D01*
X042627Y030585D01*
X042613Y030497D01*
X042596Y030411D01*
X042574Y030325D01*
X042549Y030241D01*
X042519Y030157D01*
X042487Y030075D01*
X042450Y029995D01*
X042410Y029916D01*
X042366Y029839D01*
X042319Y029764D01*
X042269Y029692D01*
X042215Y029621D01*
X042159Y029554D01*
X042099Y029488D01*
X042037Y029426D01*
X041971Y029366D01*
X041904Y029310D01*
X041833Y029256D01*
X041761Y029206D01*
X041686Y029159D01*
X041609Y029115D01*
X041530Y029075D01*
X041450Y029038D01*
X041368Y029006D01*
X041284Y028976D01*
X041200Y028951D01*
X041114Y028929D01*
X041028Y028912D01*
X040940Y028898D01*
X040852Y028888D01*
X040764Y028882D01*
X040676Y028880D01*
X040588Y028882D01*
X040500Y028888D01*
X040412Y028898D01*
X040324Y028912D01*
X040238Y028929D01*
X040152Y028951D01*
X040068Y028976D01*
X039984Y029006D01*
X039902Y029038D01*
X039822Y029075D01*
X039743Y029115D01*
X039666Y029159D01*
X039591Y029206D01*
X039519Y029256D01*
X039448Y029310D01*
X039381Y029366D01*
X039315Y029426D01*
X039253Y029488D01*
X039193Y029554D01*
X039137Y029621D01*
X039083Y029692D01*
X039033Y029764D01*
X038986Y029839D01*
X038942Y029916D01*
X038902Y029995D01*
X038865Y030075D01*
X038833Y030157D01*
X038803Y030241D01*
X038778Y030325D01*
X038756Y030411D01*
X038739Y030497D01*
X038725Y030585D01*
X038715Y030673D01*
X038709Y030761D01*
X038707Y030849D01*
X038251Y031175D02*
X038251Y031195D01*
X038251Y031205D02*
X038251Y032665D01*
X037001Y032665D01*
X037001Y031745D01*
X037001Y031735D01*
X037001Y031175D01*
X038251Y031175D01*
X023777Y005036D02*
X023878Y004934D01*
X023878Y004731D01*
X023777Y004629D01*
X023471Y004629D01*
X023471Y004426D02*
X023471Y005036D01*
X023777Y005036D01*
X023271Y005036D02*
X022864Y005036D01*
X022864Y004426D01*
X023271Y004426D01*
X023067Y004731D02*
X022864Y004731D01*
X022663Y005036D02*
X022256Y004629D01*
X022358Y004731D02*
X022663Y004426D01*
X022256Y004426D02*
X022256Y005036D01*
X022055Y004833D02*
X021852Y005036D01*
X021648Y004833D01*
X021648Y004426D01*
X021448Y004426D02*
X021041Y004426D01*
X021041Y005036D01*
X021448Y005036D01*
X021648Y004731D02*
X022055Y004731D01*
X022055Y004833D02*
X022055Y004426D01*
X021244Y004731D02*
X021041Y004731D01*
X020840Y004731D02*
X020738Y004629D01*
X020433Y004629D01*
X020232Y004629D02*
X020130Y004731D01*
X019927Y004731D01*
X019825Y004833D01*
X019825Y004934D01*
X019927Y005036D01*
X020130Y005036D01*
X020232Y004934D01*
X020433Y005036D02*
X020433Y004426D01*
X020232Y004527D02*
X020130Y004426D01*
X019927Y004426D01*
X019825Y004527D01*
X020232Y004527D02*
X020232Y004629D01*
X020433Y005036D02*
X020738Y005036D01*
X020840Y004934D01*
X020840Y004731D01*
X023675Y004629D02*
X023878Y004426D01*
X026768Y003557D02*
X027218Y003557D01*
X027218Y003407D02*
X027218Y003707D01*
X026918Y003407D02*
X026768Y003557D01*
D17*
X018546Y008093D02*
X018546Y008251D01*
X018034Y008251D01*
X018034Y008802D01*
X018546Y008802D02*
X018546Y008251D01*
X018034Y008251D02*
X018034Y008093D01*
X006577Y009123D02*
X006577Y011662D01*
X006085Y011662D01*
X006567Y011180D01*
X006123Y011180D02*
X006123Y009605D01*
X005532Y009605D01*
X005532Y011180D01*
X006123Y011180D01*
X006085Y011662D02*
X006359Y011662D01*
X005359Y011662D02*
X005306Y011662D01*
X005123Y011180D02*
X005123Y009605D01*
X004532Y009605D01*
X004532Y011180D01*
X005123Y011180D01*
X004306Y011662D02*
X004087Y011662D01*
X004087Y009123D01*
X004306Y009123D01*
X005306Y009123D02*
X005359Y009123D01*
X006359Y009123D02*
X006577Y009123D01*
X010687Y018919D02*
X010687Y022935D01*
X012734Y022935D01*
X012734Y018919D01*
X006873Y023093D02*
X006873Y023723D01*
X005928Y023723D02*
X005928Y023093D01*
X005715Y023133D02*
X005717Y023147D01*
X005723Y023161D01*
X005731Y023173D01*
X005743Y023181D01*
X005757Y023187D01*
X005771Y023189D01*
X005785Y023187D01*
X005799Y023181D01*
X005811Y023173D01*
X005819Y023161D01*
X005825Y023147D01*
X005827Y023133D01*
X005825Y023119D01*
X005819Y023105D01*
X005811Y023093D01*
X005799Y023085D01*
X005785Y023079D01*
X005771Y023077D01*
X005757Y023079D01*
X005743Y023085D01*
X005731Y023093D01*
X005723Y023105D01*
X005717Y023119D01*
X005715Y023133D01*
X012110Y024578D02*
X012233Y024455D01*
X012480Y024455D01*
X012603Y024578D01*
X012603Y025195D01*
X012865Y024948D02*
X013111Y025195D01*
X013111Y024455D01*
X012865Y024455D02*
X013358Y024455D01*
X012110Y024578D02*
X012110Y025195D01*
X043133Y019798D02*
X043133Y019247D01*
X043645Y019247D01*
X043645Y019798D01*
X043645Y019247D02*
X043645Y019089D01*
X043133Y019089D02*
X043133Y019247D01*
X045889Y019491D02*
X046440Y019491D01*
X046440Y018979D01*
X045889Y018979D01*
X046440Y018979D02*
X046597Y018979D01*
X046597Y019491D02*
X046440Y019491D01*
X046369Y024593D02*
X045818Y024593D01*
X046369Y024593D02*
X046369Y025105D01*
X045818Y025105D01*
X046369Y025105D02*
X046526Y025105D01*
X046526Y024593D02*
X046369Y024593D01*
D18*
X005827Y010885D03*
X004827Y010885D03*
D19*
X032266Y010023D02*
X032268Y010071D01*
X032274Y010119D01*
X032284Y010166D01*
X032297Y010212D01*
X032315Y010257D01*
X032335Y010301D01*
X032360Y010343D01*
X032388Y010382D01*
X032418Y010419D01*
X032452Y010453D01*
X032489Y010485D01*
X032527Y010514D01*
X032568Y010539D01*
X032611Y010561D01*
X032656Y010579D01*
X032702Y010593D01*
X032749Y010604D01*
X032797Y010611D01*
X032845Y010614D01*
X032893Y010613D01*
X032941Y010608D01*
X032989Y010599D01*
X033035Y010587D01*
X033080Y010570D01*
X033124Y010550D01*
X033166Y010527D01*
X033206Y010500D01*
X033244Y010470D01*
X033279Y010437D01*
X033311Y010401D01*
X033341Y010363D01*
X033367Y010322D01*
X033389Y010279D01*
X033409Y010235D01*
X033424Y010190D01*
X033436Y010143D01*
X033444Y010095D01*
X033448Y010047D01*
X033448Y009999D01*
X033444Y009951D01*
X033436Y009903D01*
X033424Y009856D01*
X033409Y009811D01*
X033389Y009767D01*
X033367Y009724D01*
X033341Y009683D01*
X033311Y009645D01*
X033279Y009609D01*
X033244Y009576D01*
X033206Y009546D01*
X033166Y009519D01*
X033124Y009496D01*
X033080Y009476D01*
X033035Y009459D01*
X032989Y009447D01*
X032941Y009438D01*
X032893Y009433D01*
X032845Y009432D01*
X032797Y009435D01*
X032749Y009442D01*
X032702Y009453D01*
X032656Y009467D01*
X032611Y009485D01*
X032568Y009507D01*
X032527Y009532D01*
X032489Y009561D01*
X032452Y009593D01*
X032418Y009627D01*
X032388Y009664D01*
X032360Y009703D01*
X032335Y009745D01*
X032315Y009789D01*
X032297Y009834D01*
X032284Y009880D01*
X032274Y009927D01*
X032268Y009975D01*
X032266Y010023D01*
X036597Y013172D02*
X036599Y013220D01*
X036605Y013268D01*
X036615Y013315D01*
X036628Y013361D01*
X036646Y013406D01*
X036666Y013450D01*
X036691Y013492D01*
X036719Y013531D01*
X036749Y013568D01*
X036783Y013602D01*
X036820Y013634D01*
X036858Y013663D01*
X036899Y013688D01*
X036942Y013710D01*
X036987Y013728D01*
X037033Y013742D01*
X037080Y013753D01*
X037128Y013760D01*
X037176Y013763D01*
X037224Y013762D01*
X037272Y013757D01*
X037320Y013748D01*
X037366Y013736D01*
X037411Y013719D01*
X037455Y013699D01*
X037497Y013676D01*
X037537Y013649D01*
X037575Y013619D01*
X037610Y013586D01*
X037642Y013550D01*
X037672Y013512D01*
X037698Y013471D01*
X037720Y013428D01*
X037740Y013384D01*
X037755Y013339D01*
X037767Y013292D01*
X037775Y013244D01*
X037779Y013196D01*
X037779Y013148D01*
X037775Y013100D01*
X037767Y013052D01*
X037755Y013005D01*
X037740Y012960D01*
X037720Y012916D01*
X037698Y012873D01*
X037672Y012832D01*
X037642Y012794D01*
X037610Y012758D01*
X037575Y012725D01*
X037537Y012695D01*
X037497Y012668D01*
X037455Y012645D01*
X037411Y012625D01*
X037366Y012608D01*
X037320Y012596D01*
X037272Y012587D01*
X037224Y012582D01*
X037176Y012581D01*
X037128Y012584D01*
X037080Y012591D01*
X037033Y012602D01*
X036987Y012616D01*
X036942Y012634D01*
X036899Y012656D01*
X036858Y012681D01*
X036820Y012710D01*
X036783Y012742D01*
X036749Y012776D01*
X036719Y012813D01*
X036691Y012852D01*
X036666Y012894D01*
X036646Y012938D01*
X036628Y012983D01*
X036615Y013029D01*
X036605Y013076D01*
X036599Y013124D01*
X036597Y013172D01*
X040928Y010023D02*
X040930Y010071D01*
X040936Y010119D01*
X040946Y010166D01*
X040959Y010212D01*
X040977Y010257D01*
X040997Y010301D01*
X041022Y010343D01*
X041050Y010382D01*
X041080Y010419D01*
X041114Y010453D01*
X041151Y010485D01*
X041189Y010514D01*
X041230Y010539D01*
X041273Y010561D01*
X041318Y010579D01*
X041364Y010593D01*
X041411Y010604D01*
X041459Y010611D01*
X041507Y010614D01*
X041555Y010613D01*
X041603Y010608D01*
X041651Y010599D01*
X041697Y010587D01*
X041742Y010570D01*
X041786Y010550D01*
X041828Y010527D01*
X041868Y010500D01*
X041906Y010470D01*
X041941Y010437D01*
X041973Y010401D01*
X042003Y010363D01*
X042029Y010322D01*
X042051Y010279D01*
X042071Y010235D01*
X042086Y010190D01*
X042098Y010143D01*
X042106Y010095D01*
X042110Y010047D01*
X042110Y009999D01*
X042106Y009951D01*
X042098Y009903D01*
X042086Y009856D01*
X042071Y009811D01*
X042051Y009767D01*
X042029Y009724D01*
X042003Y009683D01*
X041973Y009645D01*
X041941Y009609D01*
X041906Y009576D01*
X041868Y009546D01*
X041828Y009519D01*
X041786Y009496D01*
X041742Y009476D01*
X041697Y009459D01*
X041651Y009447D01*
X041603Y009438D01*
X041555Y009433D01*
X041507Y009432D01*
X041459Y009435D01*
X041411Y009442D01*
X041364Y009453D01*
X041318Y009467D01*
X041273Y009485D01*
X041230Y009507D01*
X041189Y009532D01*
X041151Y009561D01*
X041114Y009593D01*
X041080Y009627D01*
X041050Y009664D01*
X041022Y009703D01*
X040997Y009745D01*
X040977Y009789D01*
X040959Y009834D01*
X040946Y009880D01*
X040936Y009927D01*
X040930Y009975D01*
X040928Y010023D01*
X036597Y006873D02*
X036599Y006921D01*
X036605Y006969D01*
X036615Y007016D01*
X036628Y007062D01*
X036646Y007107D01*
X036666Y007151D01*
X036691Y007193D01*
X036719Y007232D01*
X036749Y007269D01*
X036783Y007303D01*
X036820Y007335D01*
X036858Y007364D01*
X036899Y007389D01*
X036942Y007411D01*
X036987Y007429D01*
X037033Y007443D01*
X037080Y007454D01*
X037128Y007461D01*
X037176Y007464D01*
X037224Y007463D01*
X037272Y007458D01*
X037320Y007449D01*
X037366Y007437D01*
X037411Y007420D01*
X037455Y007400D01*
X037497Y007377D01*
X037537Y007350D01*
X037575Y007320D01*
X037610Y007287D01*
X037642Y007251D01*
X037672Y007213D01*
X037698Y007172D01*
X037720Y007129D01*
X037740Y007085D01*
X037755Y007040D01*
X037767Y006993D01*
X037775Y006945D01*
X037779Y006897D01*
X037779Y006849D01*
X037775Y006801D01*
X037767Y006753D01*
X037755Y006706D01*
X037740Y006661D01*
X037720Y006617D01*
X037698Y006574D01*
X037672Y006533D01*
X037642Y006495D01*
X037610Y006459D01*
X037575Y006426D01*
X037537Y006396D01*
X037497Y006369D01*
X037455Y006346D01*
X037411Y006326D01*
X037366Y006309D01*
X037320Y006297D01*
X037272Y006288D01*
X037224Y006283D01*
X037176Y006282D01*
X037128Y006285D01*
X037080Y006292D01*
X037033Y006303D01*
X036987Y006317D01*
X036942Y006335D01*
X036899Y006357D01*
X036858Y006382D01*
X036820Y006411D01*
X036783Y006443D01*
X036749Y006477D01*
X036719Y006514D01*
X036691Y006553D01*
X036666Y006595D01*
X036646Y006639D01*
X036628Y006684D01*
X036615Y006730D01*
X036605Y006777D01*
X036599Y006825D01*
X036597Y006873D01*
X046439Y010023D02*
X046441Y010071D01*
X046447Y010119D01*
X046457Y010166D01*
X046470Y010212D01*
X046488Y010257D01*
X046508Y010301D01*
X046533Y010343D01*
X046561Y010382D01*
X046591Y010419D01*
X046625Y010453D01*
X046662Y010485D01*
X046700Y010514D01*
X046741Y010539D01*
X046784Y010561D01*
X046829Y010579D01*
X046875Y010593D01*
X046922Y010604D01*
X046970Y010611D01*
X047018Y010614D01*
X047066Y010613D01*
X047114Y010608D01*
X047162Y010599D01*
X047208Y010587D01*
X047253Y010570D01*
X047297Y010550D01*
X047339Y010527D01*
X047379Y010500D01*
X047417Y010470D01*
X047452Y010437D01*
X047484Y010401D01*
X047514Y010363D01*
X047540Y010322D01*
X047562Y010279D01*
X047582Y010235D01*
X047597Y010190D01*
X047609Y010143D01*
X047617Y010095D01*
X047621Y010047D01*
X047621Y009999D01*
X047617Y009951D01*
X047609Y009903D01*
X047597Y009856D01*
X047582Y009811D01*
X047562Y009767D01*
X047540Y009724D01*
X047514Y009683D01*
X047484Y009645D01*
X047452Y009609D01*
X047417Y009576D01*
X047379Y009546D01*
X047339Y009519D01*
X047297Y009496D01*
X047253Y009476D01*
X047208Y009459D01*
X047162Y009447D01*
X047114Y009438D01*
X047066Y009433D01*
X047018Y009432D01*
X046970Y009435D01*
X046922Y009442D01*
X046875Y009453D01*
X046829Y009467D01*
X046784Y009485D01*
X046741Y009507D01*
X046700Y009532D01*
X046662Y009561D01*
X046625Y009593D01*
X046591Y009627D01*
X046561Y009664D01*
X046533Y009703D01*
X046508Y009745D01*
X046488Y009789D01*
X046470Y009834D01*
X046457Y009880D01*
X046447Y009927D01*
X046441Y009975D01*
X046439Y010023D01*
X039746Y021046D02*
X039748Y021094D01*
X039754Y021142D01*
X039764Y021189D01*
X039777Y021235D01*
X039795Y021280D01*
X039815Y021324D01*
X039840Y021366D01*
X039868Y021405D01*
X039898Y021442D01*
X039932Y021476D01*
X039969Y021508D01*
X040007Y021537D01*
X040048Y021562D01*
X040091Y021584D01*
X040136Y021602D01*
X040182Y021616D01*
X040229Y021627D01*
X040277Y021634D01*
X040325Y021637D01*
X040373Y021636D01*
X040421Y021631D01*
X040469Y021622D01*
X040515Y021610D01*
X040560Y021593D01*
X040604Y021573D01*
X040646Y021550D01*
X040686Y021523D01*
X040724Y021493D01*
X040759Y021460D01*
X040791Y021424D01*
X040821Y021386D01*
X040847Y021345D01*
X040869Y021302D01*
X040889Y021258D01*
X040904Y021213D01*
X040916Y021166D01*
X040924Y021118D01*
X040928Y021070D01*
X040928Y021022D01*
X040924Y020974D01*
X040916Y020926D01*
X040904Y020879D01*
X040889Y020834D01*
X040869Y020790D01*
X040847Y020747D01*
X040821Y020706D01*
X040791Y020668D01*
X040759Y020632D01*
X040724Y020599D01*
X040686Y020569D01*
X040646Y020542D01*
X040604Y020519D01*
X040560Y020499D01*
X040515Y020482D01*
X040469Y020470D01*
X040421Y020461D01*
X040373Y020456D01*
X040325Y020455D01*
X040277Y020458D01*
X040229Y020465D01*
X040182Y020476D01*
X040136Y020490D01*
X040091Y020508D01*
X040048Y020530D01*
X040007Y020555D01*
X039969Y020584D01*
X039932Y020616D01*
X039898Y020650D01*
X039868Y020687D01*
X039840Y020726D01*
X039815Y020768D01*
X039795Y020812D01*
X039777Y020857D01*
X039764Y020903D01*
X039754Y020950D01*
X039748Y020998D01*
X039746Y021046D01*
D20*
X042834Y019321D02*
X042909Y019246D01*
X042909Y019346D01*
X042984Y019321D02*
X042834Y019321D01*
X042859Y019199D02*
X042834Y019174D01*
X042834Y019099D01*
X042984Y019099D01*
X042984Y019174D01*
X042959Y019199D01*
X042859Y019199D01*
X046303Y018830D02*
X046378Y018830D01*
X046403Y018805D01*
X046403Y018705D01*
X046378Y018680D01*
X046303Y018680D01*
X046303Y018830D01*
X046451Y018830D02*
X046451Y018755D01*
X046501Y018780D01*
X046526Y018780D01*
X046551Y018755D01*
X046551Y018705D01*
X046526Y018680D01*
X046476Y018680D01*
X046451Y018705D01*
X046451Y018830D02*
X046551Y018830D01*
X046455Y024294D02*
X046480Y024319D01*
X046480Y024344D01*
X046455Y024369D01*
X046380Y024369D01*
X046380Y024319D01*
X046405Y024294D01*
X046455Y024294D01*
X046380Y024369D02*
X046430Y024419D01*
X046480Y024444D01*
X046333Y024419D02*
X046308Y024444D01*
X046232Y024444D01*
X046232Y024294D01*
X046308Y024294D01*
X046333Y024319D01*
X046333Y024419D01*
X017885Y008325D02*
X017885Y008275D01*
X017860Y008250D01*
X017860Y008203D02*
X017760Y008203D01*
X017735Y008178D01*
X017735Y008103D01*
X017885Y008103D01*
X017885Y008178D01*
X017860Y008203D01*
X017810Y008300D02*
X017810Y008325D01*
X017835Y008350D01*
X017860Y008350D01*
X017885Y008325D01*
X017810Y008325D02*
X017785Y008350D01*
X017760Y008350D01*
X017735Y008325D01*
X017735Y008275D01*
X017760Y008250D01*
M02*
