%
M48
M72
T01C0.0190
T02C0.0197
T03C0.0320
T04C0.0335
T05C0.0394
T06C0.0512
T07C0.0551
T08C0.0630
T09C0.0787
T10C0.1181
T11C0.1260
%
T01
X8456Y21318
X9255Y20991
X10963Y20058
X11991Y19314
X12503Y19747
X13330Y18920
X13054Y18566
X12897Y16873
X12463Y16873
X10416Y18133
X10404Y18818
X9196Y18723
X15298Y15180
X16125Y15141
X16125Y14708
X15298Y13605
X16125Y13566
X16125Y11873
X15495Y10849
X16204Y10574
X17778Y8566
X20771Y9353
X23448Y12385
X24078Y12385
X23448Y13763
X23763Y14511
X24589Y14117
X25141Y14314
X26873Y14944
X26873Y15574
X25416Y16204
X24393Y16794
X25062Y17463
X24393Y18093
X23645Y18408
X23330Y18723
X23763Y19156
X23448Y19786
X23960Y20101
X25023Y20692
X25456Y19353
X25456Y18684
X25889Y18251
X23054Y16991
X22641Y15845
X20613Y18408
X20731Y18841
X20101Y19944
X20416Y20259
X19790Y20345
X19928Y21054
X21243Y20849
X22070Y19983
X23290Y21834
X25692Y23723
X27420Y21963
X29038Y22621
X28211Y23448
X28999Y21164
X31715Y19511
X32778Y20534
X32778Y20967
X32778Y21440
X32778Y22306
X32385Y22542
X33251Y23408
X36794Y21479
X37700Y20889
X37188Y20377
X36912Y19668
X36794Y18999
X36125Y19196
X36125Y18763
X34314Y18684
X35574Y16692
X36086Y14708
X33369Y14196
X33054Y14511
X32621Y14511
X30534Y14511
X30534Y15180
X29826Y18960
X36912Y23408
X29278Y28841
X28133Y29471
X27857Y28330
X26637Y27542
X25456Y26361
X22660Y26519
X22660Y27149
X18330Y26125
X17700Y26164
X17385Y25849
X17818Y26912
X14956Y26349
X14550Y28251
X17503Y29471
X14038Y24511
X15180Y24274
X19156Y22660
X17188Y21086
X17192Y19593
X17656Y18999
X18211Y18093
X19156Y19038
X15731Y17188
X10416Y13605
X7897Y13605
X6952Y12188
X5141Y11361
X7030Y9471
X9668Y5967
X25849Y3802
X26440Y3330
X30967Y6873
X32070Y8763
X32897Y9235
X26873Y7582
X40692Y17385
X38192Y30696
X36794Y30692
T02
X36074Y29050
X38727Y28881
X42538Y29089
X44286Y25727
X42168Y22782
X38759Y21282
X44393Y19987
X30987Y28546
X30050Y28357
X26593Y28723
X24369Y25231
X19806Y27015
X17759Y23570
X17731Y22011
X13463Y23152
X9601Y20542
X7680Y21676
X6038Y22326
X8054Y25247
X9330Y28129
X8920Y28763
X12845Y27247
X13853Y27786
X14475Y26672
X22684Y20109
X24282Y19334
X26802Y19806
X26841Y20570
X26826Y18436
X26814Y16869
X24444Y16054
X21078Y16987
X18802Y16786
X20613Y13172
X23267Y13058
X23408Y9629
X19038Y8841
X18645Y6873
X16676Y4117
X12739Y8841
X10983Y9771
X13711Y16723
X8054Y18684
X29460Y23676
X30589Y18192
X30727Y8463
T03
X27843Y8582
X27843Y7582
X27843Y6582
X27843Y5582
X27843Y4582
X27843Y3582
X27843Y9582
X27843Y10582
X27843Y12182
X27843Y13182
X27843Y14182
X27843Y15182
X27843Y16182
X27843Y17182
X27843Y18182
X27843Y19182
X27843Y20182
X27843Y21182
X8843Y17582
X8843Y16582
X8843Y15582
X8843Y14582
X8843Y13582
X8843Y12582
X8843Y11582
X8843Y10582
X8843Y8582
X8843Y7582
X8843Y6582
X8843Y5582
X8843Y4582
X8843Y3582
T04
X5337Y24235
X5337Y22267
T05
X40184Y31637
X41168Y31637
T06
X45456Y28369
X48211Y28369
X48211Y22857
X45456Y22857
X45456Y16952
X48211Y16952
T07
X11503Y30582
X11503Y31960
X34534Y31960
T08
X44117Y28369
X44471Y29511
X44471Y27227
X47660Y27030
X47660Y29708
X47660Y24196
X44471Y23999
X44117Y22857
X44471Y21715
X47660Y21519
X47660Y18290
X44471Y18093
X44117Y16952
X44471Y15810
X47660Y15613
T09
X13137Y29617
X13609Y32924
X32428Y32924
X32900Y29617
T10
X40680Y29774
T11
X5298Y4117
X5298Y32463
X47424Y32463
X47424Y4117
M30
