G75*
%MOIN*%
%OFA0B0*%
%FSLAX24Y24*%
%IPPOS*%
%LPD*%
%AMOC8*
5,1,8,0,0,1.08239X$1,22.5*
%
%ADD10C,0.0520*%
%ADD11C,0.0571*%
%ADD12C,0.0000*%
%ADD13C,0.0001*%
%ADD14C,0.1181*%
%ADD15C,0.0984*%
%ADD16C,0.0827*%
%ADD17C,0.0709*%
%ADD18C,0.0394*%
%ADD19C,0.0100*%
%ADD20C,0.0350*%
%ADD21C,0.0160*%
%ADD22C,0.1660*%
%ADD23C,0.0357*%
D10*
X008583Y003582D02*
X009103Y003582D01*
X009103Y004582D02*
X008583Y004582D01*
X008583Y005582D02*
X009103Y005582D01*
X009103Y006582D02*
X008583Y006582D01*
X008583Y007582D02*
X009103Y007582D01*
X009103Y008582D02*
X008583Y008582D01*
X008583Y010582D02*
X009103Y010582D01*
X009103Y011582D02*
X008583Y011582D01*
X008583Y012582D02*
X009103Y012582D01*
X009103Y013582D02*
X008583Y013582D01*
X008583Y014582D02*
X009103Y014582D01*
X009103Y015582D02*
X008583Y015582D01*
X008583Y016582D02*
X009103Y016582D01*
X009103Y017582D02*
X008583Y017582D01*
X027583Y017182D02*
X028103Y017182D01*
X028103Y018182D02*
X027583Y018182D01*
X027583Y019182D02*
X028103Y019182D01*
X028103Y020182D02*
X027583Y020182D01*
X027583Y021182D02*
X028103Y021182D01*
X028103Y016182D02*
X027583Y016182D01*
X027583Y015182D02*
X028103Y015182D01*
X028103Y014182D02*
X027583Y014182D01*
X027583Y013182D02*
X028103Y013182D01*
X028103Y012182D02*
X027583Y012182D01*
X027583Y010582D02*
X028103Y010582D01*
X028103Y009582D02*
X027583Y009582D01*
X027583Y008582D02*
X028103Y008582D01*
X028103Y007582D02*
X027583Y007582D01*
X027583Y006582D02*
X028103Y006582D01*
X028103Y005582D02*
X027583Y005582D01*
X027583Y004582D02*
X028103Y004582D01*
X028103Y003582D02*
X027583Y003582D01*
D11*
X005337Y022267D03*
X005337Y024235D03*
D12*
X004649Y024156D02*
X004649Y024668D01*
X004644Y024712D01*
X004629Y024754D01*
X004606Y024791D01*
X004574Y024822D01*
X004537Y024846D01*
X004495Y024860D01*
X004452Y024865D01*
X004097Y024865D01*
X004054Y024860D01*
X004012Y024846D01*
X003975Y024822D01*
X003943Y024791D01*
X003920Y024754D01*
X003905Y024712D01*
X003900Y024668D01*
X003900Y024156D01*
X004649Y024156D01*
X004649Y022345D02*
X003900Y022345D01*
X003900Y021834D01*
X003905Y021790D01*
X003920Y021748D01*
X003943Y021711D01*
X003975Y021680D01*
X004012Y021656D01*
X004054Y021642D01*
X004097Y021637D01*
X004452Y021637D01*
X004495Y021642D01*
X004537Y021656D01*
X004574Y021680D01*
X004606Y021711D01*
X004629Y021748D01*
X004644Y021790D01*
X004649Y021834D01*
X004649Y022345D01*
D13*
X003900Y022345D01*
X003900Y022344D02*
X004649Y022344D01*
X004649Y022343D02*
X003900Y022343D01*
X003900Y022342D02*
X004649Y022342D01*
X004649Y022341D02*
X003900Y022341D01*
X003900Y022340D02*
X004649Y022340D01*
X004649Y022339D02*
X003900Y022339D01*
X003900Y022338D02*
X004649Y022338D01*
X004649Y022337D02*
X003900Y022337D01*
X003900Y022336D02*
X004649Y022336D01*
X004649Y022335D02*
X003900Y022335D01*
X003900Y022334D02*
X004649Y022334D01*
X004649Y022333D02*
X003900Y022333D01*
X003900Y022332D02*
X004649Y022332D01*
X004649Y022331D02*
X003900Y022331D01*
X003900Y022330D02*
X004649Y022330D01*
X004649Y022329D02*
X003900Y022329D01*
X003900Y022328D02*
X004649Y022328D01*
X004649Y022327D02*
X003900Y022327D01*
X003900Y022326D02*
X004649Y022326D01*
X004649Y022325D02*
X003900Y022325D01*
X003900Y022324D02*
X004649Y022324D01*
X004649Y022323D02*
X003900Y022323D01*
X003900Y022322D02*
X004649Y022322D01*
X004649Y022321D02*
X003900Y022321D01*
X003900Y022320D02*
X004649Y022320D01*
X004649Y022319D02*
X003900Y022319D01*
X003900Y022318D02*
X004649Y022318D01*
X004649Y022317D02*
X003900Y022317D01*
X003900Y022316D02*
X004649Y022316D01*
X004649Y022315D02*
X003900Y022315D01*
X003900Y022314D02*
X004649Y022314D01*
X004649Y022313D02*
X003900Y022313D01*
X003900Y022312D02*
X004649Y022312D01*
X004649Y022311D02*
X003900Y022311D01*
X003900Y022310D02*
X004649Y022310D01*
X004649Y022309D02*
X003900Y022309D01*
X003900Y022308D02*
X004649Y022308D01*
X004649Y022307D02*
X003900Y022307D01*
X003900Y022306D02*
X004649Y022306D01*
X004649Y022305D02*
X003900Y022305D01*
X003900Y022304D02*
X004649Y022304D01*
X004649Y022303D02*
X003900Y022303D01*
X003900Y022302D02*
X004649Y022302D01*
X004649Y022301D02*
X003900Y022301D01*
X003900Y022300D02*
X004649Y022300D01*
X004649Y022299D02*
X003900Y022299D01*
X003900Y022298D02*
X004649Y022298D01*
X004649Y022297D02*
X003900Y022297D01*
X003900Y022296D02*
X004649Y022296D01*
X004649Y022295D02*
X003900Y022295D01*
X003900Y022294D02*
X004649Y022294D01*
X004649Y022293D02*
X003900Y022293D01*
X003900Y022292D02*
X004649Y022292D01*
X004649Y022291D02*
X003900Y022291D01*
X003900Y022290D02*
X004649Y022290D01*
X004649Y022289D02*
X003900Y022289D01*
X003900Y022288D02*
X004649Y022288D01*
X004649Y022287D02*
X003900Y022287D01*
X003900Y022286D02*
X004649Y022286D01*
X004649Y022285D02*
X003900Y022285D01*
X003900Y022284D02*
X004649Y022284D01*
X004649Y022283D02*
X003900Y022283D01*
X003900Y022282D02*
X004649Y022282D01*
X004649Y022281D02*
X003900Y022281D01*
X003900Y022280D02*
X004649Y022280D01*
X004649Y022279D02*
X003900Y022279D01*
X003900Y022278D02*
X004649Y022278D01*
X004649Y022277D02*
X003900Y022277D01*
X003900Y022276D02*
X004649Y022276D01*
X004649Y022275D02*
X003900Y022275D01*
X003900Y022274D02*
X004649Y022274D01*
X004649Y022273D02*
X003900Y022273D01*
X003900Y022272D02*
X004649Y022272D01*
X004649Y022271D02*
X003900Y022271D01*
X003900Y022270D02*
X004649Y022270D01*
X004649Y022269D02*
X003900Y022269D01*
X003900Y022268D02*
X004649Y022268D01*
X004649Y022267D02*
X003900Y022267D01*
X003900Y022266D02*
X004649Y022266D01*
X004649Y022265D02*
X003900Y022265D01*
X003900Y022264D02*
X004649Y022264D01*
X004649Y022263D02*
X003900Y022263D01*
X003900Y022262D02*
X004649Y022262D01*
X004649Y022261D02*
X003900Y022261D01*
X003900Y022260D02*
X004649Y022260D01*
X004649Y022259D02*
X003900Y022259D01*
X003900Y022258D02*
X004649Y022258D01*
X004649Y022257D02*
X003900Y022257D01*
X003900Y022256D02*
X004649Y022256D01*
X004649Y022255D02*
X003900Y022255D01*
X003900Y022254D02*
X004649Y022254D01*
X004649Y022253D02*
X003900Y022253D01*
X003900Y022252D02*
X004649Y022252D01*
X004649Y022251D02*
X003900Y022251D01*
X003900Y022250D02*
X004649Y022250D01*
X004649Y022249D02*
X003900Y022249D01*
X003900Y022248D02*
X004649Y022248D01*
X004649Y022247D02*
X003900Y022247D01*
X003900Y022246D02*
X004649Y022246D01*
X004649Y022245D02*
X003900Y022245D01*
X003900Y022244D02*
X004649Y022244D01*
X004649Y022243D02*
X003900Y022243D01*
X003900Y022242D02*
X004649Y022242D01*
X004649Y022241D02*
X003900Y022241D01*
X003900Y022240D02*
X004649Y022240D01*
X004649Y022239D02*
X003900Y022239D01*
X003900Y022238D02*
X004649Y022238D01*
X004649Y022237D02*
X003900Y022237D01*
X003900Y022236D02*
X004649Y022236D01*
X004649Y022235D02*
X003900Y022235D01*
X003900Y022234D02*
X004649Y022234D01*
X004649Y022233D02*
X003900Y022233D01*
X003900Y022232D02*
X004649Y022232D01*
X004649Y022231D02*
X003900Y022231D01*
X003900Y022230D02*
X004649Y022230D01*
X004649Y022229D02*
X003900Y022229D01*
X003900Y022228D02*
X004649Y022228D01*
X004649Y022227D02*
X003900Y022227D01*
X003900Y022226D02*
X004649Y022226D01*
X004649Y022225D02*
X003900Y022225D01*
X003900Y022224D02*
X004649Y022224D01*
X004649Y022223D02*
X003900Y022223D01*
X003900Y022222D02*
X004649Y022222D01*
X004649Y022221D02*
X003900Y022221D01*
X003900Y022220D02*
X004649Y022220D01*
X004649Y022219D02*
X003900Y022219D01*
X003900Y022218D02*
X004649Y022218D01*
X004649Y022217D02*
X003900Y022217D01*
X003900Y022216D02*
X004649Y022216D01*
X004649Y022215D02*
X003900Y022215D01*
X003900Y022214D02*
X004649Y022214D01*
X004649Y022213D02*
X003900Y022213D01*
X003900Y022212D02*
X004649Y022212D01*
X004649Y022211D02*
X003900Y022211D01*
X003900Y022210D02*
X004649Y022210D01*
X004649Y022209D02*
X003900Y022209D01*
X003900Y022208D02*
X004649Y022208D01*
X004649Y022207D02*
X003900Y022207D01*
X003900Y022206D02*
X004649Y022206D01*
X004649Y022205D02*
X003900Y022205D01*
X003900Y022204D02*
X004649Y022204D01*
X004649Y022203D02*
X003900Y022203D01*
X003900Y022202D02*
X004649Y022202D01*
X004649Y022201D02*
X003900Y022201D01*
X003900Y022200D02*
X004649Y022200D01*
X004649Y022199D02*
X003900Y022199D01*
X003900Y022198D02*
X004649Y022198D01*
X004649Y022197D02*
X003900Y022197D01*
X003900Y022196D02*
X004649Y022196D01*
X004649Y022195D02*
X003900Y022195D01*
X003900Y022194D02*
X004649Y022194D01*
X004649Y022193D02*
X003900Y022193D01*
X003900Y022192D02*
X004649Y022192D01*
X004649Y022191D02*
X003900Y022191D01*
X003900Y022190D02*
X004649Y022190D01*
X004649Y022189D02*
X003900Y022189D01*
X003900Y022188D02*
X004649Y022188D01*
X004649Y022187D02*
X003900Y022187D01*
X003900Y022186D02*
X004649Y022186D01*
X004649Y022185D02*
X003900Y022185D01*
X003900Y022184D02*
X004649Y022184D01*
X004649Y022183D02*
X003900Y022183D01*
X003900Y022182D02*
X004649Y022182D01*
X004649Y022181D02*
X003900Y022181D01*
X003900Y022180D02*
X004649Y022180D01*
X004649Y022179D02*
X003900Y022179D01*
X003900Y022178D02*
X004649Y022178D01*
X004649Y022177D02*
X003900Y022177D01*
X003900Y022176D02*
X004649Y022176D01*
X004649Y022175D02*
X003900Y022175D01*
X003900Y022174D02*
X004649Y022174D01*
X004649Y022173D02*
X003900Y022173D01*
X003900Y022172D02*
X004649Y022172D01*
X004649Y022171D02*
X003900Y022171D01*
X003900Y022170D02*
X004649Y022170D01*
X004649Y022169D02*
X003900Y022169D01*
X003900Y022168D02*
X004649Y022168D01*
X004649Y022167D02*
X003900Y022167D01*
X003900Y022166D02*
X004649Y022166D01*
X004649Y022165D02*
X003900Y022165D01*
X003900Y022164D02*
X004649Y022164D01*
X004649Y022163D02*
X003900Y022163D01*
X003900Y022162D02*
X004649Y022162D01*
X004649Y022161D02*
X003900Y022161D01*
X003900Y022160D02*
X004649Y022160D01*
X004649Y022159D02*
X003900Y022159D01*
X003900Y022158D02*
X004649Y022158D01*
X004649Y022157D02*
X003900Y022157D01*
X003900Y022156D02*
X004649Y022156D01*
X004649Y022155D02*
X003900Y022155D01*
X003900Y022154D02*
X004649Y022154D01*
X004649Y022153D02*
X003900Y022153D01*
X003900Y022152D02*
X004649Y022152D01*
X004649Y022151D02*
X003900Y022151D01*
X003900Y022150D02*
X004649Y022150D01*
X004649Y022149D02*
X003900Y022149D01*
X003900Y022148D02*
X004649Y022148D01*
X004649Y022147D02*
X003900Y022147D01*
X003900Y022146D02*
X004649Y022146D01*
X004649Y022145D02*
X003900Y022145D01*
X003900Y022144D02*
X004649Y022144D01*
X004649Y022143D02*
X003900Y022143D01*
X003900Y022142D02*
X004649Y022142D01*
X004649Y022141D02*
X003900Y022141D01*
X003900Y022140D02*
X004649Y022140D01*
X004649Y022139D02*
X003900Y022139D01*
X003900Y022138D02*
X004649Y022138D01*
X004649Y022137D02*
X003900Y022137D01*
X003900Y022136D02*
X004649Y022136D01*
X004649Y022135D02*
X003900Y022135D01*
X003900Y022134D02*
X004649Y022134D01*
X004649Y022133D02*
X003900Y022133D01*
X003900Y022132D02*
X004649Y022132D01*
X004649Y022131D02*
X003900Y022131D01*
X003900Y022130D02*
X004649Y022130D01*
X004649Y022129D02*
X003900Y022129D01*
X003900Y022128D02*
X004649Y022128D01*
X004649Y022127D02*
X003900Y022127D01*
X003900Y022126D02*
X004649Y022126D01*
X004649Y022125D02*
X003900Y022125D01*
X003900Y022124D02*
X004649Y022124D01*
X004649Y022123D02*
X003900Y022123D01*
X003900Y022122D02*
X004649Y022122D01*
X004649Y022121D02*
X003900Y022121D01*
X003900Y022120D02*
X004649Y022120D01*
X004649Y022119D02*
X003900Y022119D01*
X003900Y022118D02*
X004649Y022118D01*
X004649Y022117D02*
X003900Y022117D01*
X003900Y022116D02*
X004649Y022116D01*
X004649Y022115D02*
X003900Y022115D01*
X003900Y022114D02*
X004649Y022114D01*
X004649Y022113D02*
X003900Y022113D01*
X003900Y022112D02*
X004649Y022112D01*
X004649Y022111D02*
X003900Y022111D01*
X003900Y022110D02*
X004649Y022110D01*
X004649Y022109D02*
X003900Y022109D01*
X003900Y022108D02*
X004649Y022108D01*
X004649Y022107D02*
X003900Y022107D01*
X003900Y022106D02*
X004649Y022106D01*
X004649Y022105D02*
X003900Y022105D01*
X003900Y022104D02*
X004649Y022104D01*
X004649Y022103D02*
X003900Y022103D01*
X003900Y022102D02*
X004649Y022102D01*
X004649Y022101D02*
X003900Y022101D01*
X003900Y022100D02*
X004649Y022100D01*
X004649Y022099D02*
X003900Y022099D01*
X003900Y022098D02*
X004649Y022098D01*
X004649Y022097D02*
X003900Y022097D01*
X003900Y022096D02*
X004649Y022096D01*
X004649Y022095D02*
X003900Y022095D01*
X003900Y022094D02*
X004649Y022094D01*
X004649Y022093D02*
X003900Y022093D01*
X003900Y022092D02*
X004649Y022092D01*
X004649Y022091D02*
X003900Y022091D01*
X003900Y022090D02*
X004649Y022090D01*
X004649Y022089D02*
X003900Y022089D01*
X003900Y022088D02*
X004649Y022088D01*
X004649Y022087D02*
X003900Y022087D01*
X003900Y022086D02*
X004649Y022086D01*
X004649Y022085D02*
X003900Y022085D01*
X003900Y022084D02*
X004649Y022084D01*
X004649Y022083D02*
X003900Y022083D01*
X003900Y022082D02*
X004649Y022082D01*
X004649Y022081D02*
X003900Y022081D01*
X003900Y022080D02*
X004649Y022080D01*
X004649Y022079D02*
X003900Y022079D01*
X003900Y022078D02*
X004649Y022078D01*
X004649Y022077D02*
X003900Y022077D01*
X003900Y022076D02*
X004649Y022076D01*
X004649Y022075D02*
X003900Y022075D01*
X003900Y022074D02*
X004649Y022074D01*
X004649Y022073D02*
X003900Y022073D01*
X003900Y022072D02*
X004649Y022072D01*
X004649Y022071D02*
X003900Y022071D01*
X003900Y022070D02*
X004649Y022070D01*
X004649Y022069D02*
X003900Y022069D01*
X003900Y022068D02*
X004649Y022068D01*
X004649Y022067D02*
X003900Y022067D01*
X003900Y022066D02*
X004649Y022066D01*
X004649Y022065D02*
X003900Y022065D01*
X003900Y022064D02*
X004649Y022064D01*
X004649Y022063D02*
X003900Y022063D01*
X003900Y022062D02*
X004649Y022062D01*
X004649Y022061D02*
X003900Y022061D01*
X003900Y022060D02*
X004649Y022060D01*
X004649Y022059D02*
X003900Y022059D01*
X003900Y022058D02*
X004649Y022058D01*
X004649Y022057D02*
X003900Y022057D01*
X003900Y022056D02*
X004649Y022056D01*
X004649Y022055D02*
X003900Y022055D01*
X003900Y022054D02*
X004649Y022054D01*
X004649Y022053D02*
X003900Y022053D01*
X003900Y022052D02*
X004649Y022052D01*
X004649Y022051D02*
X003900Y022051D01*
X003900Y022050D02*
X004649Y022050D01*
X004649Y022049D02*
X003900Y022049D01*
X003900Y022048D02*
X004649Y022048D01*
X004649Y022047D02*
X003900Y022047D01*
X003900Y022046D02*
X004649Y022046D01*
X004649Y022045D02*
X003900Y022045D01*
X003900Y022044D02*
X004649Y022044D01*
X004649Y022043D02*
X003900Y022043D01*
X003900Y022042D02*
X004649Y022042D01*
X004649Y022041D02*
X003900Y022041D01*
X003900Y022040D02*
X004649Y022040D01*
X004649Y022039D02*
X003900Y022039D01*
X003900Y022038D02*
X004649Y022038D01*
X004649Y022037D02*
X003900Y022037D01*
X003900Y022036D02*
X004649Y022036D01*
X004649Y022035D02*
X003900Y022035D01*
X003900Y022034D02*
X004649Y022034D01*
X004649Y022033D02*
X003900Y022033D01*
X003900Y022032D02*
X004649Y022032D01*
X004649Y022031D02*
X003900Y022031D01*
X003900Y022030D02*
X004649Y022030D01*
X004649Y022029D02*
X003900Y022029D01*
X003900Y022028D02*
X004649Y022028D01*
X004649Y022027D02*
X003900Y022027D01*
X003900Y022026D02*
X004649Y022026D01*
X004649Y022025D02*
X003900Y022025D01*
X003900Y022024D02*
X004649Y022024D01*
X004649Y022023D02*
X003900Y022023D01*
X003900Y022022D02*
X004649Y022022D01*
X004649Y022021D02*
X003900Y022021D01*
X003900Y022020D02*
X004649Y022020D01*
X004649Y022019D02*
X003900Y022019D01*
X003900Y022018D02*
X004649Y022018D01*
X004649Y022017D02*
X003900Y022017D01*
X003900Y022016D02*
X004649Y022016D01*
X004649Y022015D02*
X003900Y022015D01*
X003900Y022014D02*
X004649Y022014D01*
X004649Y022013D02*
X003900Y022013D01*
X003900Y022012D02*
X004649Y022012D01*
X004649Y022011D02*
X003900Y022011D01*
X003900Y022010D02*
X004649Y022010D01*
X004649Y022009D02*
X003900Y022009D01*
X003900Y022008D02*
X004649Y022008D01*
X004649Y022007D02*
X003900Y022007D01*
X003900Y022006D02*
X004649Y022006D01*
X004649Y022005D02*
X003900Y022005D01*
X003900Y022004D02*
X004649Y022004D01*
X004649Y022003D02*
X003900Y022003D01*
X003900Y022002D02*
X004649Y022002D01*
X004649Y022001D02*
X003900Y022001D01*
X003900Y022000D02*
X004649Y022000D01*
X004649Y021999D02*
X003900Y021999D01*
X003900Y021998D02*
X004649Y021998D01*
X004649Y021997D02*
X003900Y021997D01*
X003900Y021996D02*
X004649Y021996D01*
X004649Y021995D02*
X003900Y021995D01*
X003900Y021994D02*
X004649Y021994D01*
X004649Y021993D02*
X003900Y021993D01*
X003900Y021992D02*
X004649Y021992D01*
X004649Y021991D02*
X003900Y021991D01*
X003900Y021990D02*
X004649Y021990D01*
X004649Y021989D02*
X003900Y021989D01*
X003900Y021988D02*
X004649Y021988D01*
X004649Y021987D02*
X003900Y021987D01*
X003900Y021986D02*
X004649Y021986D01*
X004649Y021985D02*
X003900Y021985D01*
X003900Y021984D02*
X004649Y021984D01*
X004649Y021983D02*
X003900Y021983D01*
X003900Y021982D02*
X004649Y021982D01*
X004649Y021981D02*
X003900Y021981D01*
X003900Y021980D02*
X004649Y021980D01*
X004649Y021979D02*
X003900Y021979D01*
X003900Y021978D02*
X004649Y021978D01*
X004649Y021977D02*
X003900Y021977D01*
X003900Y021976D02*
X004649Y021976D01*
X004649Y021975D02*
X003900Y021975D01*
X003900Y021974D02*
X004649Y021974D01*
X004649Y021973D02*
X003900Y021973D01*
X003900Y021972D02*
X004649Y021972D01*
X004649Y021971D02*
X003900Y021971D01*
X003900Y021970D02*
X004649Y021970D01*
X004649Y021969D02*
X003900Y021969D01*
X003900Y021968D02*
X004649Y021968D01*
X004649Y021967D02*
X003900Y021967D01*
X003900Y021966D02*
X004649Y021966D01*
X004649Y021965D02*
X003900Y021965D01*
X003900Y021964D02*
X004649Y021964D01*
X004649Y021963D02*
X003900Y021963D01*
X003900Y021962D02*
X004649Y021962D01*
X004649Y021961D02*
X003900Y021961D01*
X003900Y021960D02*
X004649Y021960D01*
X004649Y021959D02*
X003900Y021959D01*
X003900Y021958D02*
X004649Y021958D01*
X004649Y021957D02*
X003900Y021957D01*
X003900Y021956D02*
X004649Y021956D01*
X004649Y021955D02*
X003900Y021955D01*
X003900Y021954D02*
X004649Y021954D01*
X004649Y021953D02*
X003900Y021953D01*
X003900Y021952D02*
X004649Y021952D01*
X004649Y021951D02*
X003900Y021951D01*
X003900Y021950D02*
X004649Y021950D01*
X004649Y021949D02*
X003900Y021949D01*
X003900Y021948D02*
X004649Y021948D01*
X004649Y021947D02*
X003900Y021947D01*
X003900Y021946D02*
X004649Y021946D01*
X004649Y021945D02*
X003900Y021945D01*
X003900Y021944D02*
X004649Y021944D01*
X004649Y021943D02*
X003900Y021943D01*
X003900Y021942D02*
X004649Y021942D01*
X004649Y021941D02*
X003900Y021941D01*
X003900Y021940D02*
X004649Y021940D01*
X004649Y021939D02*
X003900Y021939D01*
X003900Y021938D02*
X004649Y021938D01*
X004649Y021937D02*
X003900Y021937D01*
X003900Y021936D02*
X004649Y021936D01*
X004649Y021935D02*
X003900Y021935D01*
X003900Y021934D02*
X004649Y021934D01*
X004649Y021933D02*
X003900Y021933D01*
X003900Y021932D02*
X004649Y021932D01*
X004649Y021931D02*
X003900Y021931D01*
X003900Y021930D02*
X004649Y021930D01*
X004649Y021929D02*
X003900Y021929D01*
X003900Y021928D02*
X004649Y021928D01*
X004649Y021927D02*
X003900Y021927D01*
X003900Y021926D02*
X004649Y021926D01*
X004649Y021925D02*
X003900Y021925D01*
X003900Y021924D02*
X004649Y021924D01*
X004649Y021923D02*
X003900Y021923D01*
X003900Y021922D02*
X004649Y021922D01*
X004649Y021921D02*
X003900Y021921D01*
X003900Y021920D02*
X004649Y021920D01*
X004649Y021919D02*
X003900Y021919D01*
X003900Y021918D02*
X004649Y021918D01*
X004649Y021917D02*
X003900Y021917D01*
X003900Y021916D02*
X004649Y021916D01*
X004649Y021915D02*
X003900Y021915D01*
X003900Y021914D02*
X004649Y021914D01*
X004649Y021913D02*
X003900Y021913D01*
X003900Y021912D02*
X004649Y021912D01*
X004649Y021911D02*
X003900Y021911D01*
X003900Y021910D02*
X004649Y021910D01*
X004649Y021909D02*
X003900Y021909D01*
X003900Y021908D02*
X004649Y021908D01*
X004649Y021907D02*
X003900Y021907D01*
X003900Y021906D02*
X004649Y021906D01*
X004649Y021905D02*
X003900Y021905D01*
X003900Y021904D02*
X004649Y021904D01*
X004649Y021903D02*
X003900Y021903D01*
X003900Y021902D02*
X004649Y021902D01*
X004649Y021901D02*
X003900Y021901D01*
X003900Y021900D02*
X004649Y021900D01*
X004649Y021899D02*
X003900Y021899D01*
X003900Y021898D02*
X004649Y021898D01*
X004649Y021897D02*
X003900Y021897D01*
X003900Y021896D02*
X004649Y021896D01*
X004649Y021895D02*
X003900Y021895D01*
X003900Y021894D02*
X004649Y021894D01*
X004649Y021893D02*
X003900Y021893D01*
X003900Y021892D02*
X004649Y021892D01*
X004649Y021891D02*
X003900Y021891D01*
X003900Y021890D02*
X004649Y021890D01*
X004649Y021889D02*
X003900Y021889D01*
X003900Y021888D02*
X004649Y021888D01*
X004649Y021887D02*
X003900Y021887D01*
X003900Y021886D02*
X004649Y021886D01*
X004649Y021885D02*
X003900Y021885D01*
X003900Y021884D02*
X004649Y021884D01*
X004649Y021883D02*
X003900Y021883D01*
X003900Y021882D02*
X004649Y021882D01*
X004649Y021881D02*
X003900Y021881D01*
X003900Y021880D02*
X004649Y021880D01*
X004649Y021879D02*
X003900Y021879D01*
X003900Y021878D02*
X004649Y021878D01*
X004649Y021877D02*
X003900Y021877D01*
X003900Y021876D02*
X004649Y021876D01*
X004649Y021875D02*
X003900Y021875D01*
X003900Y021874D02*
X004649Y021874D01*
X004649Y021873D02*
X003900Y021873D01*
X003900Y021872D02*
X004649Y021872D01*
X004649Y021871D02*
X003900Y021871D01*
X003900Y021870D02*
X004649Y021870D01*
X004649Y021869D02*
X003900Y021869D01*
X003900Y021868D02*
X004649Y021868D01*
X004649Y021867D02*
X003900Y021867D01*
X003900Y021866D02*
X004649Y021866D01*
X004649Y021865D02*
X003900Y021865D01*
X003900Y021864D02*
X004649Y021864D01*
X004649Y021863D02*
X003900Y021863D01*
X003900Y021862D02*
X004649Y021862D01*
X004649Y021861D02*
X003900Y021861D01*
X003900Y021860D02*
X004649Y021860D01*
X004649Y021859D02*
X003900Y021859D01*
X003900Y021858D02*
X004649Y021858D01*
X004649Y021857D02*
X003900Y021857D01*
X003900Y021856D02*
X004649Y021856D01*
X004649Y021855D02*
X003900Y021855D01*
X003900Y021854D02*
X004649Y021854D01*
X004649Y021853D02*
X003900Y021853D01*
X003900Y021852D02*
X004649Y021852D01*
X004649Y021851D02*
X003900Y021851D01*
X003900Y021850D02*
X004649Y021850D01*
X004649Y021849D02*
X003900Y021849D01*
X003900Y021848D02*
X004649Y021848D01*
X004649Y021847D02*
X003900Y021847D01*
X003900Y021846D02*
X004649Y021846D01*
X004649Y021845D02*
X003900Y021845D01*
X003900Y021844D02*
X004649Y021844D01*
X004649Y021843D02*
X003900Y021843D01*
X003900Y021842D02*
X004649Y021842D01*
X004649Y021841D02*
X003900Y021841D01*
X003900Y021840D02*
X004649Y021840D01*
X004649Y021839D02*
X003900Y021839D01*
X003900Y021838D02*
X004649Y021838D01*
X004649Y021837D02*
X003900Y021837D01*
X003900Y021836D02*
X004649Y021836D01*
X004649Y021835D02*
X003900Y021835D01*
X003900Y021834D02*
X004649Y021834D01*
X004648Y021833D02*
X003901Y021833D01*
X003901Y021832D02*
X004648Y021832D01*
X004648Y021831D02*
X003901Y021831D01*
X003901Y021830D02*
X004648Y021830D01*
X004648Y021829D02*
X003901Y021829D01*
X003901Y021828D02*
X004648Y021828D01*
X004648Y021827D02*
X003901Y021827D01*
X003901Y021826D02*
X004648Y021826D01*
X004648Y021825D02*
X003901Y021825D01*
X003902Y021824D02*
X004647Y021824D01*
X004647Y021823D02*
X003902Y021823D01*
X003902Y021822D02*
X004647Y021822D01*
X004647Y021821D02*
X003902Y021821D01*
X003902Y021820D02*
X004647Y021820D01*
X004647Y021819D02*
X003902Y021819D01*
X003902Y021818D02*
X004647Y021818D01*
X004647Y021817D02*
X003902Y021817D01*
X003902Y021816D02*
X004647Y021816D01*
X004646Y021815D02*
X003903Y021815D01*
X003903Y021814D02*
X004646Y021814D01*
X004646Y021813D02*
X003903Y021813D01*
X003903Y021812D02*
X004646Y021812D01*
X004646Y021811D02*
X003903Y021811D01*
X003903Y021810D02*
X004646Y021810D01*
X004646Y021809D02*
X003903Y021809D01*
X003903Y021808D02*
X004646Y021808D01*
X004646Y021807D02*
X003903Y021807D01*
X003904Y021806D02*
X004645Y021806D01*
X004645Y021805D02*
X003904Y021805D01*
X003904Y021804D02*
X004645Y021804D01*
X004645Y021803D02*
X003904Y021803D01*
X003904Y021802D02*
X004645Y021802D01*
X004645Y021801D02*
X003904Y021801D01*
X003904Y021800D02*
X004645Y021800D01*
X004645Y021799D02*
X003904Y021799D01*
X003904Y021798D02*
X004645Y021798D01*
X004644Y021797D02*
X003905Y021797D01*
X003905Y021796D02*
X004644Y021796D01*
X004644Y021795D02*
X003905Y021795D01*
X003905Y021794D02*
X004644Y021794D01*
X004644Y021793D02*
X003905Y021793D01*
X003905Y021792D02*
X004644Y021792D01*
X004644Y021791D02*
X003905Y021791D01*
X003905Y021790D02*
X004644Y021790D01*
X004643Y021789D02*
X003906Y021789D01*
X003906Y021788D02*
X004643Y021788D01*
X004643Y021787D02*
X003906Y021787D01*
X003907Y021786D02*
X004642Y021786D01*
X004642Y021785D02*
X003907Y021785D01*
X003907Y021784D02*
X004642Y021784D01*
X004641Y021783D02*
X003908Y021783D01*
X003908Y021782D02*
X004641Y021782D01*
X004641Y021781D02*
X003908Y021781D01*
X003909Y021780D02*
X004640Y021780D01*
X004640Y021779D02*
X003909Y021779D01*
X003909Y021778D02*
X004640Y021778D01*
X004639Y021777D02*
X003910Y021777D01*
X003910Y021776D02*
X004639Y021776D01*
X004639Y021775D02*
X003910Y021775D01*
X003911Y021774D02*
X004638Y021774D01*
X004638Y021773D02*
X003911Y021773D01*
X003912Y021772D02*
X004637Y021772D01*
X004637Y021771D02*
X003912Y021771D01*
X003912Y021770D02*
X004637Y021770D01*
X004636Y021769D02*
X003913Y021769D01*
X003913Y021768D02*
X004636Y021768D01*
X004636Y021767D02*
X003913Y021767D01*
X003914Y021766D02*
X004635Y021766D01*
X004635Y021765D02*
X003914Y021765D01*
X003914Y021764D02*
X004635Y021764D01*
X004634Y021763D02*
X003915Y021763D01*
X003915Y021762D02*
X004634Y021762D01*
X004634Y021761D02*
X003915Y021761D01*
X003916Y021760D02*
X004633Y021760D01*
X004633Y021759D02*
X003916Y021759D01*
X003916Y021758D02*
X004633Y021758D01*
X004632Y021757D02*
X003917Y021757D01*
X003917Y021756D02*
X004632Y021756D01*
X004632Y021755D02*
X003917Y021755D01*
X003918Y021754D02*
X004631Y021754D01*
X004631Y021753D02*
X003918Y021753D01*
X003919Y021752D02*
X004630Y021752D01*
X004630Y021751D02*
X003919Y021751D01*
X003919Y021750D02*
X004630Y021750D01*
X004629Y021749D02*
X003920Y021749D01*
X003920Y021748D02*
X004629Y021748D01*
X004628Y021747D02*
X003921Y021747D01*
X003921Y021746D02*
X004628Y021746D01*
X004627Y021745D02*
X003922Y021745D01*
X003922Y021744D02*
X004627Y021744D01*
X004626Y021743D02*
X003923Y021743D01*
X003924Y021742D02*
X004625Y021742D01*
X004625Y021741D02*
X003924Y021741D01*
X003925Y021740D02*
X004624Y021740D01*
X004623Y021739D02*
X003926Y021739D01*
X003926Y021738D02*
X004623Y021738D01*
X004622Y021737D02*
X003927Y021737D01*
X003927Y021736D02*
X004622Y021736D01*
X004621Y021735D02*
X003928Y021735D01*
X003929Y021734D02*
X004620Y021734D01*
X004620Y021733D02*
X003929Y021733D01*
X003930Y021732D02*
X004619Y021732D01*
X004618Y021731D02*
X003931Y021731D01*
X003931Y021730D02*
X004618Y021730D01*
X004617Y021729D02*
X003932Y021729D01*
X003932Y021728D02*
X004617Y021728D01*
X004616Y021727D02*
X003933Y021727D01*
X003934Y021726D02*
X004615Y021726D01*
X004615Y021725D02*
X003934Y021725D01*
X003935Y021724D02*
X004614Y021724D01*
X004613Y021723D02*
X003936Y021723D01*
X003936Y021722D02*
X004613Y021722D01*
X004612Y021721D02*
X003937Y021721D01*
X003937Y021720D02*
X004612Y021720D01*
X004611Y021719D02*
X003938Y021719D01*
X003939Y021718D02*
X004610Y021718D01*
X004610Y021717D02*
X003939Y021717D01*
X003940Y021716D02*
X004609Y021716D01*
X004608Y021715D02*
X003941Y021715D01*
X003941Y021714D02*
X004608Y021714D01*
X004607Y021713D02*
X003942Y021713D01*
X003942Y021712D02*
X004607Y021712D01*
X004606Y021711D02*
X003943Y021711D01*
X003944Y021710D02*
X004605Y021710D01*
X004604Y021709D02*
X003945Y021709D01*
X003946Y021708D02*
X004603Y021708D01*
X004602Y021707D02*
X003947Y021707D01*
X003948Y021706D02*
X004601Y021706D01*
X004600Y021705D02*
X003949Y021705D01*
X003950Y021704D02*
X004599Y021704D01*
X004598Y021703D02*
X003951Y021703D01*
X003952Y021702D02*
X004597Y021702D01*
X004596Y021701D02*
X003953Y021701D01*
X003954Y021700D02*
X004595Y021700D01*
X004594Y021699D02*
X003955Y021699D01*
X003956Y021698D02*
X004593Y021698D01*
X004592Y021697D02*
X003957Y021697D01*
X003958Y021696D02*
X004591Y021696D01*
X004590Y021695D02*
X003959Y021695D01*
X003960Y021694D02*
X004589Y021694D01*
X004588Y021693D02*
X003961Y021693D01*
X003962Y021692D02*
X004587Y021692D01*
X004586Y021691D02*
X003963Y021691D01*
X003964Y021690D02*
X004585Y021690D01*
X004584Y021689D02*
X003965Y021689D01*
X003966Y021688D02*
X004583Y021688D01*
X004582Y021687D02*
X003967Y021687D01*
X003968Y021686D02*
X004581Y021686D01*
X004580Y021685D02*
X003969Y021685D01*
X003970Y021684D02*
X004579Y021684D01*
X004578Y021683D02*
X003971Y021683D01*
X003972Y021682D02*
X004577Y021682D01*
X004576Y021681D02*
X003973Y021681D01*
X003974Y021680D02*
X004575Y021680D01*
X004574Y021679D02*
X003975Y021679D01*
X003977Y021678D02*
X004572Y021678D01*
X004571Y021677D02*
X003978Y021677D01*
X003980Y021676D02*
X004569Y021676D01*
X004568Y021675D02*
X003981Y021675D01*
X003983Y021674D02*
X004566Y021674D01*
X004564Y021673D02*
X003985Y021673D01*
X003986Y021672D02*
X004563Y021672D01*
X004561Y021671D02*
X003988Y021671D01*
X003989Y021670D02*
X004560Y021670D01*
X004558Y021669D02*
X003991Y021669D01*
X003993Y021668D02*
X004556Y021668D01*
X004555Y021667D02*
X003994Y021667D01*
X003996Y021666D02*
X004553Y021666D01*
X004552Y021665D02*
X003997Y021665D01*
X003999Y021664D02*
X004550Y021664D01*
X004548Y021663D02*
X004000Y021663D01*
X004002Y021662D02*
X004547Y021662D01*
X004545Y021661D02*
X004004Y021661D01*
X004005Y021660D02*
X004544Y021660D01*
X004542Y021659D02*
X004007Y021659D01*
X004008Y021658D02*
X004541Y021658D01*
X004539Y021657D02*
X004010Y021657D01*
X004012Y021656D02*
X004537Y021656D01*
X004535Y021655D02*
X004014Y021655D01*
X004017Y021654D02*
X004532Y021654D01*
X004529Y021653D02*
X004020Y021653D01*
X004023Y021652D02*
X004526Y021652D01*
X004523Y021651D02*
X004026Y021651D01*
X004029Y021650D02*
X004520Y021650D01*
X004518Y021649D02*
X004031Y021649D01*
X004034Y021648D02*
X004515Y021648D01*
X004512Y021647D02*
X004037Y021647D01*
X004040Y021646D02*
X004509Y021646D01*
X004506Y021645D02*
X004043Y021645D01*
X004046Y021644D02*
X004503Y021644D01*
X004500Y021643D02*
X004048Y021643D01*
X004051Y021642D02*
X004498Y021642D01*
X004493Y021641D02*
X004056Y021641D01*
X004065Y021640D02*
X004484Y021640D01*
X004476Y021639D02*
X004073Y021639D01*
X004082Y021638D02*
X004467Y021638D01*
X004458Y021637D02*
X004091Y021637D01*
X003900Y024157D02*
X004649Y024157D01*
X004649Y024158D02*
X003900Y024158D01*
X003900Y024159D02*
X004649Y024159D01*
X004649Y024160D02*
X003900Y024160D01*
X003900Y024161D02*
X004649Y024161D01*
X004649Y024162D02*
X003900Y024162D01*
X003900Y024163D02*
X004649Y024163D01*
X004649Y024164D02*
X003900Y024164D01*
X003900Y024165D02*
X004649Y024165D01*
X004649Y024166D02*
X003900Y024166D01*
X003900Y024167D02*
X004649Y024167D01*
X004649Y024168D02*
X003900Y024168D01*
X003900Y024169D02*
X004649Y024169D01*
X004649Y024170D02*
X003900Y024170D01*
X003900Y024171D02*
X004649Y024171D01*
X004649Y024172D02*
X003900Y024172D01*
X003900Y024173D02*
X004649Y024173D01*
X004649Y024174D02*
X003900Y024174D01*
X003900Y024175D02*
X004649Y024175D01*
X004649Y024176D02*
X003900Y024176D01*
X003900Y024177D02*
X004649Y024177D01*
X004649Y024178D02*
X003900Y024178D01*
X003900Y024179D02*
X004649Y024179D01*
X004649Y024180D02*
X003900Y024180D01*
X003900Y024181D02*
X004649Y024181D01*
X004649Y024182D02*
X003900Y024182D01*
X003900Y024183D02*
X004649Y024183D01*
X004649Y024184D02*
X003900Y024184D01*
X003900Y024185D02*
X004649Y024185D01*
X004649Y024186D02*
X003900Y024186D01*
X003900Y024187D02*
X004649Y024187D01*
X004649Y024188D02*
X003900Y024188D01*
X003900Y024189D02*
X004649Y024189D01*
X004649Y024190D02*
X003900Y024190D01*
X003900Y024191D02*
X004649Y024191D01*
X004649Y024192D02*
X003900Y024192D01*
X003900Y024193D02*
X004649Y024193D01*
X004649Y024194D02*
X003900Y024194D01*
X003900Y024195D02*
X004649Y024195D01*
X004649Y024196D02*
X003900Y024196D01*
X003900Y024197D02*
X004649Y024197D01*
X004649Y024198D02*
X003900Y024198D01*
X003900Y024199D02*
X004649Y024199D01*
X004649Y024200D02*
X003900Y024200D01*
X003900Y024201D02*
X004649Y024201D01*
X004649Y024202D02*
X003900Y024202D01*
X003900Y024203D02*
X004649Y024203D01*
X004649Y024204D02*
X003900Y024204D01*
X003900Y024205D02*
X004649Y024205D01*
X004649Y024206D02*
X003900Y024206D01*
X003900Y024207D02*
X004649Y024207D01*
X004649Y024208D02*
X003900Y024208D01*
X003900Y024209D02*
X004649Y024209D01*
X004649Y024210D02*
X003900Y024210D01*
X003900Y024211D02*
X004649Y024211D01*
X004649Y024212D02*
X003900Y024212D01*
X003900Y024213D02*
X004649Y024213D01*
X004649Y024214D02*
X003900Y024214D01*
X003900Y024215D02*
X004649Y024215D01*
X004649Y024216D02*
X003900Y024216D01*
X003900Y024217D02*
X004649Y024217D01*
X004649Y024218D02*
X003900Y024218D01*
X003900Y024219D02*
X004649Y024219D01*
X004649Y024220D02*
X003900Y024220D01*
X003900Y024221D02*
X004649Y024221D01*
X004649Y024222D02*
X003900Y024222D01*
X003900Y024223D02*
X004649Y024223D01*
X004649Y024224D02*
X003900Y024224D01*
X003900Y024225D02*
X004649Y024225D01*
X004649Y024226D02*
X003900Y024226D01*
X003900Y024227D02*
X004649Y024227D01*
X004649Y024228D02*
X003900Y024228D01*
X003900Y024229D02*
X004649Y024229D01*
X004649Y024230D02*
X003900Y024230D01*
X003900Y024231D02*
X004649Y024231D01*
X004649Y024232D02*
X003900Y024232D01*
X003900Y024233D02*
X004649Y024233D01*
X004649Y024234D02*
X003900Y024234D01*
X003900Y024235D02*
X004649Y024235D01*
X004649Y024236D02*
X003900Y024236D01*
X003900Y024237D02*
X004649Y024237D01*
X004649Y024238D02*
X003900Y024238D01*
X003900Y024239D02*
X004649Y024239D01*
X004649Y024240D02*
X003900Y024240D01*
X003900Y024241D02*
X004649Y024241D01*
X004649Y024242D02*
X003900Y024242D01*
X003900Y024243D02*
X004649Y024243D01*
X004649Y024244D02*
X003900Y024244D01*
X003900Y024245D02*
X004649Y024245D01*
X004649Y024246D02*
X003900Y024246D01*
X003900Y024247D02*
X004649Y024247D01*
X004649Y024248D02*
X003900Y024248D01*
X003900Y024249D02*
X004649Y024249D01*
X004649Y024250D02*
X003900Y024250D01*
X003900Y024251D02*
X004649Y024251D01*
X004649Y024252D02*
X003900Y024252D01*
X003900Y024253D02*
X004649Y024253D01*
X004649Y024254D02*
X003900Y024254D01*
X003900Y024255D02*
X004649Y024255D01*
X004649Y024256D02*
X003900Y024256D01*
X003900Y024257D02*
X004649Y024257D01*
X004649Y024258D02*
X003900Y024258D01*
X003900Y024259D02*
X004649Y024259D01*
X004649Y024260D02*
X003900Y024260D01*
X003900Y024261D02*
X004649Y024261D01*
X004649Y024262D02*
X003900Y024262D01*
X003900Y024263D02*
X004649Y024263D01*
X004649Y024264D02*
X003900Y024264D01*
X003900Y024265D02*
X004649Y024265D01*
X004649Y024266D02*
X003900Y024266D01*
X003900Y024267D02*
X004649Y024267D01*
X004649Y024268D02*
X003900Y024268D01*
X003900Y024269D02*
X004649Y024269D01*
X004649Y024270D02*
X003900Y024270D01*
X003900Y024271D02*
X004649Y024271D01*
X004649Y024272D02*
X003900Y024272D01*
X003900Y024273D02*
X004649Y024273D01*
X004649Y024274D02*
X003900Y024274D01*
X003900Y024275D02*
X004649Y024275D01*
X004649Y024276D02*
X003900Y024276D01*
X003900Y024277D02*
X004649Y024277D01*
X004649Y024278D02*
X003900Y024278D01*
X003900Y024279D02*
X004649Y024279D01*
X004649Y024280D02*
X003900Y024280D01*
X003900Y024281D02*
X004649Y024281D01*
X004649Y024282D02*
X003900Y024282D01*
X003900Y024283D02*
X004649Y024283D01*
X004649Y024284D02*
X003900Y024284D01*
X003900Y024285D02*
X004649Y024285D01*
X004649Y024286D02*
X003900Y024286D01*
X003900Y024287D02*
X004649Y024287D01*
X004649Y024288D02*
X003900Y024288D01*
X003900Y024289D02*
X004649Y024289D01*
X004649Y024290D02*
X003900Y024290D01*
X003900Y024291D02*
X004649Y024291D01*
X004649Y024292D02*
X003900Y024292D01*
X003900Y024293D02*
X004649Y024293D01*
X004649Y024294D02*
X003900Y024294D01*
X003900Y024295D02*
X004649Y024295D01*
X004649Y024296D02*
X003900Y024296D01*
X003900Y024297D02*
X004649Y024297D01*
X004649Y024298D02*
X003900Y024298D01*
X003900Y024299D02*
X004649Y024299D01*
X004649Y024300D02*
X003900Y024300D01*
X003900Y024301D02*
X004649Y024301D01*
X004649Y024302D02*
X003900Y024302D01*
X003900Y024303D02*
X004649Y024303D01*
X004649Y024304D02*
X003900Y024304D01*
X003900Y024305D02*
X004649Y024305D01*
X004649Y024306D02*
X003900Y024306D01*
X003900Y024307D02*
X004649Y024307D01*
X004649Y024308D02*
X003900Y024308D01*
X003900Y024309D02*
X004649Y024309D01*
X004649Y024310D02*
X003900Y024310D01*
X003900Y024311D02*
X004649Y024311D01*
X004649Y024312D02*
X003900Y024312D01*
X003900Y024313D02*
X004649Y024313D01*
X004649Y024314D02*
X003900Y024314D01*
X003900Y024315D02*
X004649Y024315D01*
X004649Y024316D02*
X003900Y024316D01*
X003900Y024317D02*
X004649Y024317D01*
X004649Y024318D02*
X003900Y024318D01*
X003900Y024319D02*
X004649Y024319D01*
X004649Y024320D02*
X003900Y024320D01*
X003900Y024321D02*
X004649Y024321D01*
X004649Y024322D02*
X003900Y024322D01*
X003900Y024323D02*
X004649Y024323D01*
X004649Y024324D02*
X003900Y024324D01*
X003900Y024325D02*
X004649Y024325D01*
X004649Y024326D02*
X003900Y024326D01*
X003900Y024327D02*
X004649Y024327D01*
X004649Y024328D02*
X003900Y024328D01*
X003900Y024329D02*
X004649Y024329D01*
X004649Y024330D02*
X003900Y024330D01*
X003900Y024331D02*
X004649Y024331D01*
X004649Y024332D02*
X003900Y024332D01*
X003900Y024333D02*
X004649Y024333D01*
X004649Y024334D02*
X003900Y024334D01*
X003900Y024335D02*
X004649Y024335D01*
X004649Y024336D02*
X003900Y024336D01*
X003900Y024337D02*
X004649Y024337D01*
X004649Y024338D02*
X003900Y024338D01*
X003900Y024339D02*
X004649Y024339D01*
X004649Y024340D02*
X003900Y024340D01*
X003900Y024341D02*
X004649Y024341D01*
X004649Y024342D02*
X003900Y024342D01*
X003900Y024343D02*
X004649Y024343D01*
X004649Y024344D02*
X003900Y024344D01*
X003900Y024345D02*
X004649Y024345D01*
X004649Y024346D02*
X003900Y024346D01*
X003900Y024347D02*
X004649Y024347D01*
X004649Y024348D02*
X003900Y024348D01*
X003900Y024349D02*
X004649Y024349D01*
X004649Y024350D02*
X003900Y024350D01*
X003900Y024351D02*
X004649Y024351D01*
X004649Y024352D02*
X003900Y024352D01*
X003900Y024353D02*
X004649Y024353D01*
X004649Y024354D02*
X003900Y024354D01*
X003900Y024355D02*
X004649Y024355D01*
X004649Y024356D02*
X003900Y024356D01*
X003900Y024357D02*
X004649Y024357D01*
X004649Y024358D02*
X003900Y024358D01*
X003900Y024359D02*
X004649Y024359D01*
X004649Y024360D02*
X003900Y024360D01*
X003900Y024361D02*
X004649Y024361D01*
X004649Y024362D02*
X003900Y024362D01*
X003900Y024363D02*
X004649Y024363D01*
X004649Y024364D02*
X003900Y024364D01*
X003900Y024365D02*
X004649Y024365D01*
X004649Y024366D02*
X003900Y024366D01*
X003900Y024367D02*
X004649Y024367D01*
X004649Y024368D02*
X003900Y024368D01*
X003900Y024369D02*
X004649Y024369D01*
X004649Y024370D02*
X003900Y024370D01*
X003900Y024371D02*
X004649Y024371D01*
X004649Y024372D02*
X003900Y024372D01*
X003900Y024373D02*
X004649Y024373D01*
X004649Y024374D02*
X003900Y024374D01*
X003900Y024375D02*
X004649Y024375D01*
X004649Y024376D02*
X003900Y024376D01*
X003900Y024377D02*
X004649Y024377D01*
X004649Y024378D02*
X003900Y024378D01*
X003900Y024379D02*
X004649Y024379D01*
X004649Y024380D02*
X003900Y024380D01*
X003900Y024381D02*
X004649Y024381D01*
X004649Y024382D02*
X003900Y024382D01*
X003900Y024383D02*
X004649Y024383D01*
X004649Y024384D02*
X003900Y024384D01*
X003900Y024385D02*
X004649Y024385D01*
X004649Y024386D02*
X003900Y024386D01*
X003900Y024387D02*
X004649Y024387D01*
X004649Y024388D02*
X003900Y024388D01*
X003900Y024389D02*
X004649Y024389D01*
X004649Y024390D02*
X003900Y024390D01*
X003900Y024391D02*
X004649Y024391D01*
X004649Y024392D02*
X003900Y024392D01*
X003900Y024393D02*
X004649Y024393D01*
X004649Y024394D02*
X003900Y024394D01*
X003900Y024395D02*
X004649Y024395D01*
X004649Y024396D02*
X003900Y024396D01*
X003900Y024397D02*
X004649Y024397D01*
X004649Y024398D02*
X003900Y024398D01*
X003900Y024399D02*
X004649Y024399D01*
X004649Y024400D02*
X003900Y024400D01*
X003900Y024401D02*
X004649Y024401D01*
X004649Y024402D02*
X003900Y024402D01*
X003900Y024403D02*
X004649Y024403D01*
X004649Y024404D02*
X003900Y024404D01*
X003900Y024405D02*
X004649Y024405D01*
X004649Y024406D02*
X003900Y024406D01*
X003900Y024407D02*
X004649Y024407D01*
X004649Y024408D02*
X003900Y024408D01*
X003900Y024409D02*
X004649Y024409D01*
X004649Y024410D02*
X003900Y024410D01*
X003900Y024411D02*
X004649Y024411D01*
X004649Y024412D02*
X003900Y024412D01*
X003900Y024413D02*
X004649Y024413D01*
X004649Y024414D02*
X003900Y024414D01*
X003900Y024415D02*
X004649Y024415D01*
X004649Y024416D02*
X003900Y024416D01*
X003900Y024417D02*
X004649Y024417D01*
X004649Y024418D02*
X003900Y024418D01*
X003900Y024419D02*
X004649Y024419D01*
X004649Y024420D02*
X003900Y024420D01*
X003900Y024421D02*
X004649Y024421D01*
X004649Y024422D02*
X003900Y024422D01*
X003900Y024423D02*
X004649Y024423D01*
X004649Y024424D02*
X003900Y024424D01*
X003900Y024425D02*
X004649Y024425D01*
X004649Y024426D02*
X003900Y024426D01*
X003900Y024427D02*
X004649Y024427D01*
X004649Y024428D02*
X003900Y024428D01*
X003900Y024429D02*
X004649Y024429D01*
X004649Y024430D02*
X003900Y024430D01*
X003900Y024431D02*
X004649Y024431D01*
X004649Y024432D02*
X003900Y024432D01*
X003900Y024433D02*
X004649Y024433D01*
X004649Y024434D02*
X003900Y024434D01*
X003900Y024435D02*
X004649Y024435D01*
X004649Y024436D02*
X003900Y024436D01*
X003900Y024437D02*
X004649Y024437D01*
X004649Y024438D02*
X003900Y024438D01*
X003900Y024439D02*
X004649Y024439D01*
X004649Y024440D02*
X003900Y024440D01*
X003900Y024441D02*
X004649Y024441D01*
X004649Y024442D02*
X003900Y024442D01*
X003900Y024443D02*
X004649Y024443D01*
X004649Y024444D02*
X003900Y024444D01*
X003900Y024445D02*
X004649Y024445D01*
X004649Y024446D02*
X003900Y024446D01*
X003900Y024447D02*
X004649Y024447D01*
X004649Y024448D02*
X003900Y024448D01*
X003900Y024449D02*
X004649Y024449D01*
X004649Y024450D02*
X003900Y024450D01*
X003900Y024451D02*
X004649Y024451D01*
X004649Y024452D02*
X003900Y024452D01*
X003900Y024453D02*
X004649Y024453D01*
X004649Y024454D02*
X003900Y024454D01*
X003900Y024455D02*
X004649Y024455D01*
X004649Y024456D02*
X003900Y024456D01*
X003900Y024457D02*
X004649Y024457D01*
X004649Y024458D02*
X003900Y024458D01*
X003900Y024459D02*
X004649Y024459D01*
X004649Y024460D02*
X003900Y024460D01*
X003900Y024461D02*
X004649Y024461D01*
X004649Y024462D02*
X003900Y024462D01*
X003900Y024463D02*
X004649Y024463D01*
X004649Y024464D02*
X003900Y024464D01*
X003900Y024465D02*
X004649Y024465D01*
X004649Y024466D02*
X003900Y024466D01*
X003900Y024467D02*
X004649Y024467D01*
X004649Y024468D02*
X003900Y024468D01*
X003900Y024469D02*
X004649Y024469D01*
X004649Y024470D02*
X003900Y024470D01*
X003900Y024471D02*
X004649Y024471D01*
X004649Y024472D02*
X003900Y024472D01*
X003900Y024473D02*
X004649Y024473D01*
X004649Y024474D02*
X003900Y024474D01*
X003900Y024475D02*
X004649Y024475D01*
X004649Y024476D02*
X003900Y024476D01*
X003900Y024477D02*
X004649Y024477D01*
X004649Y024478D02*
X003900Y024478D01*
X003900Y024479D02*
X004649Y024479D01*
X004649Y024480D02*
X003900Y024480D01*
X003900Y024481D02*
X004649Y024481D01*
X004649Y024482D02*
X003900Y024482D01*
X003900Y024483D02*
X004649Y024483D01*
X004649Y024484D02*
X003900Y024484D01*
X003900Y024485D02*
X004649Y024485D01*
X004649Y024486D02*
X003900Y024486D01*
X003900Y024487D02*
X004649Y024487D01*
X004649Y024488D02*
X003900Y024488D01*
X003900Y024489D02*
X004649Y024489D01*
X004649Y024490D02*
X003900Y024490D01*
X003900Y024491D02*
X004649Y024491D01*
X004649Y024492D02*
X003900Y024492D01*
X003900Y024493D02*
X004649Y024493D01*
X004649Y024494D02*
X003900Y024494D01*
X003900Y024495D02*
X004649Y024495D01*
X004649Y024496D02*
X003900Y024496D01*
X003900Y024497D02*
X004649Y024497D01*
X004649Y024498D02*
X003900Y024498D01*
X003900Y024499D02*
X004649Y024499D01*
X004649Y024500D02*
X003900Y024500D01*
X003900Y024501D02*
X004649Y024501D01*
X004649Y024502D02*
X003900Y024502D01*
X003900Y024503D02*
X004649Y024503D01*
X004649Y024504D02*
X003900Y024504D01*
X003900Y024505D02*
X004649Y024505D01*
X004649Y024506D02*
X003900Y024506D01*
X003900Y024507D02*
X004649Y024507D01*
X004649Y024508D02*
X003900Y024508D01*
X003900Y024509D02*
X004649Y024509D01*
X004649Y024510D02*
X003900Y024510D01*
X003900Y024511D02*
X004649Y024511D01*
X004649Y024512D02*
X003900Y024512D01*
X003900Y024513D02*
X004649Y024513D01*
X004649Y024514D02*
X003900Y024514D01*
X003900Y024515D02*
X004649Y024515D01*
X004649Y024516D02*
X003900Y024516D01*
X003900Y024517D02*
X004649Y024517D01*
X004649Y024518D02*
X003900Y024518D01*
X003900Y024519D02*
X004649Y024519D01*
X004649Y024520D02*
X003900Y024520D01*
X003900Y024521D02*
X004649Y024521D01*
X004649Y024522D02*
X003900Y024522D01*
X003900Y024523D02*
X004649Y024523D01*
X004649Y024524D02*
X003900Y024524D01*
X003900Y024525D02*
X004649Y024525D01*
X004649Y024526D02*
X003900Y024526D01*
X003900Y024527D02*
X004649Y024527D01*
X004649Y024528D02*
X003900Y024528D01*
X003900Y024529D02*
X004649Y024529D01*
X004649Y024530D02*
X003900Y024530D01*
X003900Y024531D02*
X004649Y024531D01*
X004649Y024532D02*
X003900Y024532D01*
X003900Y024533D02*
X004649Y024533D01*
X004649Y024534D02*
X003900Y024534D01*
X003900Y024535D02*
X004649Y024535D01*
X004649Y024536D02*
X003900Y024536D01*
X003900Y024537D02*
X004649Y024537D01*
X004649Y024538D02*
X003900Y024538D01*
X003900Y024539D02*
X004649Y024539D01*
X004649Y024540D02*
X003900Y024540D01*
X003900Y024541D02*
X004649Y024541D01*
X004649Y024542D02*
X003900Y024542D01*
X003900Y024543D02*
X004649Y024543D01*
X004649Y024544D02*
X003900Y024544D01*
X003900Y024545D02*
X004649Y024545D01*
X004649Y024546D02*
X003900Y024546D01*
X003900Y024547D02*
X004649Y024547D01*
X004649Y024548D02*
X003900Y024548D01*
X003900Y024549D02*
X004649Y024549D01*
X004649Y024550D02*
X003900Y024550D01*
X003900Y024551D02*
X004649Y024551D01*
X004649Y024552D02*
X003900Y024552D01*
X003900Y024553D02*
X004649Y024553D01*
X004649Y024554D02*
X003900Y024554D01*
X003900Y024555D02*
X004649Y024555D01*
X004649Y024556D02*
X003900Y024556D01*
X003900Y024557D02*
X004649Y024557D01*
X004649Y024558D02*
X003900Y024558D01*
X003900Y024559D02*
X004649Y024559D01*
X004649Y024560D02*
X003900Y024560D01*
X003900Y024561D02*
X004649Y024561D01*
X004649Y024562D02*
X003900Y024562D01*
X003900Y024563D02*
X004649Y024563D01*
X004649Y024564D02*
X003900Y024564D01*
X003900Y024565D02*
X004649Y024565D01*
X004649Y024566D02*
X003900Y024566D01*
X003900Y024567D02*
X004649Y024567D01*
X004649Y024568D02*
X003900Y024568D01*
X003900Y024569D02*
X004649Y024569D01*
X004649Y024570D02*
X003900Y024570D01*
X003900Y024571D02*
X004649Y024571D01*
X004649Y024572D02*
X003900Y024572D01*
X003900Y024573D02*
X004649Y024573D01*
X003900Y024573D01*
X003900Y024574D02*
X004649Y024574D01*
X004649Y024575D02*
X003900Y024575D01*
X003900Y024576D02*
X004649Y024576D01*
X004649Y024577D02*
X003900Y024577D01*
X003900Y024578D02*
X004649Y024578D01*
X004649Y024579D02*
X003900Y024579D01*
X003900Y024580D02*
X004649Y024580D01*
X004649Y024581D02*
X003900Y024581D01*
X003900Y024582D02*
X004649Y024582D01*
X004649Y024583D02*
X003900Y024583D01*
X003900Y024584D02*
X004649Y024584D01*
X004649Y024585D02*
X003900Y024585D01*
X003900Y024586D02*
X004649Y024586D01*
X004649Y024587D02*
X003900Y024587D01*
X003900Y024588D02*
X004649Y024588D01*
X004649Y024589D02*
X003900Y024589D01*
X003900Y024590D02*
X004649Y024590D01*
X004649Y024591D02*
X003900Y024591D01*
X003900Y024592D02*
X004649Y024592D01*
X004649Y024593D02*
X003900Y024593D01*
X003900Y024594D02*
X004649Y024594D01*
X004649Y024595D02*
X003900Y024595D01*
X003900Y024596D02*
X004649Y024596D01*
X004649Y024597D02*
X003900Y024597D01*
X003900Y024598D02*
X004649Y024598D01*
X004649Y024599D02*
X003900Y024599D01*
X003900Y024600D02*
X004649Y024600D01*
X004649Y024601D02*
X003900Y024601D01*
X003900Y024602D02*
X004649Y024602D01*
X004649Y024603D02*
X003900Y024603D01*
X003900Y024604D02*
X004649Y024604D01*
X004649Y024605D02*
X003900Y024605D01*
X003900Y024606D02*
X004649Y024606D01*
X004649Y024607D02*
X003900Y024607D01*
X003900Y024608D02*
X004649Y024608D01*
X004649Y024609D02*
X003900Y024609D01*
X003900Y024610D02*
X004649Y024610D01*
X004649Y024611D02*
X003900Y024611D01*
X003900Y024612D02*
X004649Y024612D01*
X004649Y024613D02*
X003900Y024613D01*
X003900Y024614D02*
X004649Y024614D01*
X004649Y024615D02*
X003900Y024615D01*
X003900Y024616D02*
X004649Y024616D01*
X004649Y024617D02*
X003900Y024617D01*
X003900Y024618D02*
X004649Y024618D01*
X004649Y024619D02*
X003900Y024619D01*
X003900Y024620D02*
X004649Y024620D01*
X004649Y024621D02*
X003900Y024621D01*
X003900Y024622D02*
X004649Y024622D01*
X004649Y024623D02*
X003900Y024623D01*
X003900Y024624D02*
X004649Y024624D01*
X004649Y024625D02*
X003900Y024625D01*
X003900Y024626D02*
X004649Y024626D01*
X004649Y024627D02*
X003900Y024627D01*
X003900Y024628D02*
X004649Y024628D01*
X004649Y024629D02*
X003900Y024629D01*
X003900Y024630D02*
X004649Y024630D01*
X004649Y024631D02*
X003900Y024631D01*
X003900Y024632D02*
X004649Y024632D01*
X004649Y024633D02*
X003900Y024633D01*
X003900Y024634D02*
X004649Y024634D01*
X004649Y024635D02*
X003900Y024635D01*
X003900Y024636D02*
X004649Y024636D01*
X004649Y024637D02*
X003900Y024637D01*
X003900Y024638D02*
X004649Y024638D01*
X004649Y024639D02*
X003900Y024639D01*
X003900Y024640D02*
X004649Y024640D01*
X004649Y024641D02*
X003900Y024641D01*
X003900Y024642D02*
X004649Y024642D01*
X004649Y024643D02*
X003900Y024643D01*
X003900Y024644D02*
X004649Y024644D01*
X004649Y024645D02*
X003900Y024645D01*
X003900Y024646D02*
X004649Y024646D01*
X004649Y024647D02*
X003900Y024647D01*
X003900Y024648D02*
X004649Y024648D01*
X004649Y024649D02*
X003900Y024649D01*
X003900Y024650D02*
X004649Y024650D01*
X004649Y024651D02*
X003900Y024651D01*
X003900Y024652D02*
X004649Y024652D01*
X004649Y024653D02*
X003900Y024653D01*
X003900Y024654D02*
X004649Y024654D01*
X004649Y024655D02*
X003900Y024655D01*
X003900Y024656D02*
X004649Y024656D01*
X004649Y024657D02*
X003900Y024657D01*
X003900Y024658D02*
X004649Y024658D01*
X004649Y024659D02*
X003900Y024659D01*
X003900Y024660D02*
X004649Y024660D01*
X004649Y024661D02*
X003900Y024661D01*
X003900Y024662D02*
X004649Y024662D01*
X004649Y024663D02*
X003900Y024663D01*
X003900Y024664D02*
X004649Y024664D01*
X004649Y024665D02*
X003900Y024665D01*
X003900Y024666D02*
X004649Y024666D01*
X004649Y024667D02*
X003900Y024667D01*
X003900Y024668D02*
X004648Y024668D01*
X004648Y024669D02*
X003901Y024669D01*
X003901Y024670D02*
X004648Y024670D01*
X004648Y024671D02*
X003901Y024671D01*
X003901Y024672D02*
X004648Y024672D01*
X004648Y024673D02*
X003901Y024673D01*
X003901Y024674D02*
X004648Y024674D01*
X004648Y024675D02*
X003901Y024675D01*
X003901Y024676D02*
X004648Y024676D01*
X004647Y024677D02*
X003902Y024677D01*
X003902Y024678D02*
X004647Y024678D01*
X004647Y024679D02*
X003902Y024679D01*
X003902Y024680D02*
X004647Y024680D01*
X004647Y024681D02*
X003902Y024681D01*
X003902Y024682D02*
X004647Y024682D01*
X004647Y024683D02*
X003902Y024683D01*
X003902Y024684D02*
X004647Y024684D01*
X004647Y024685D02*
X003902Y024685D01*
X003903Y024686D02*
X004646Y024686D01*
X004646Y024687D02*
X003903Y024687D01*
X003903Y024688D02*
X004646Y024688D01*
X004646Y024689D02*
X003903Y024689D01*
X003903Y024690D02*
X004646Y024690D01*
X004646Y024691D02*
X003903Y024691D01*
X003903Y024692D02*
X004646Y024692D01*
X004646Y024693D02*
X003903Y024693D01*
X003903Y024694D02*
X004646Y024694D01*
X004645Y024695D02*
X003904Y024695D01*
X003904Y024696D02*
X004645Y024696D01*
X004645Y024697D02*
X003904Y024697D01*
X003904Y024698D02*
X004645Y024698D01*
X004645Y024699D02*
X003904Y024699D01*
X003904Y024700D02*
X004645Y024700D01*
X004645Y024701D02*
X003904Y024701D01*
X003904Y024702D02*
X004645Y024702D01*
X004645Y024703D02*
X003904Y024703D01*
X003905Y024704D02*
X004644Y024704D01*
X004644Y024705D02*
X003905Y024705D01*
X003905Y024706D02*
X004644Y024706D01*
X004644Y024707D02*
X003905Y024707D01*
X003905Y024708D02*
X004644Y024708D01*
X004644Y024709D02*
X003905Y024709D01*
X003905Y024710D02*
X004644Y024710D01*
X004644Y024711D02*
X003905Y024711D01*
X003906Y024712D02*
X004643Y024712D01*
X004643Y024713D02*
X003906Y024713D01*
X003906Y024714D02*
X004643Y024714D01*
X004642Y024715D02*
X003907Y024715D01*
X003907Y024716D02*
X004642Y024716D01*
X004642Y024717D02*
X003907Y024717D01*
X003908Y024718D02*
X004641Y024718D01*
X004641Y024719D02*
X003908Y024719D01*
X003908Y024720D02*
X004641Y024720D01*
X004640Y024721D02*
X003909Y024721D01*
X003909Y024722D02*
X004640Y024722D01*
X004640Y024723D02*
X003909Y024723D01*
X003910Y024724D02*
X004639Y024724D01*
X004639Y024725D02*
X003910Y024725D01*
X003910Y024726D02*
X004639Y024726D01*
X004638Y024727D02*
X003911Y024727D01*
X003911Y024728D02*
X004638Y024728D01*
X004637Y024729D02*
X003911Y024729D01*
X003912Y024730D02*
X004637Y024730D01*
X004637Y024731D02*
X003912Y024731D01*
X003913Y024732D02*
X004636Y024732D01*
X004636Y024733D02*
X003913Y024733D01*
X003913Y024734D02*
X004636Y024734D01*
X004635Y024735D02*
X003914Y024735D01*
X003914Y024736D02*
X004635Y024736D01*
X004635Y024737D02*
X003914Y024737D01*
X003915Y024738D02*
X004634Y024738D01*
X004634Y024739D02*
X003915Y024739D01*
X003915Y024740D02*
X004634Y024740D01*
X004633Y024741D02*
X003916Y024741D01*
X003916Y024742D02*
X004633Y024742D01*
X004633Y024743D02*
X003916Y024743D01*
X003917Y024744D02*
X004632Y024744D01*
X004632Y024745D02*
X003917Y024745D01*
X003917Y024746D02*
X004632Y024746D01*
X004631Y024747D02*
X003918Y024747D01*
X003918Y024748D02*
X004631Y024748D01*
X004631Y024749D02*
X003918Y024749D01*
X003919Y024750D02*
X004630Y024750D01*
X004630Y024751D02*
X003919Y024751D01*
X003920Y024752D02*
X004629Y024752D01*
X004629Y024753D02*
X003920Y024753D01*
X003920Y024754D02*
X004629Y024754D01*
X004628Y024755D02*
X003921Y024755D01*
X003922Y024756D02*
X004627Y024756D01*
X004627Y024757D02*
X003922Y024757D01*
X003923Y024758D02*
X004626Y024758D01*
X004625Y024759D02*
X003924Y024759D01*
X003924Y024760D02*
X004625Y024760D01*
X004624Y024761D02*
X003925Y024761D01*
X003925Y024762D02*
X004624Y024762D01*
X004623Y024763D02*
X003926Y024763D01*
X003927Y024764D02*
X004622Y024764D01*
X004622Y024765D02*
X003927Y024765D01*
X003928Y024766D02*
X004621Y024766D01*
X004620Y024767D02*
X003929Y024767D01*
X003929Y024768D02*
X004620Y024768D01*
X004619Y024769D02*
X003930Y024769D01*
X003930Y024770D02*
X004619Y024770D01*
X004618Y024771D02*
X003931Y024771D01*
X003932Y024772D02*
X004617Y024772D01*
X004617Y024773D02*
X003932Y024773D01*
X003933Y024774D02*
X004616Y024774D01*
X004615Y024775D02*
X003934Y024775D01*
X003934Y024776D02*
X004615Y024776D01*
X004614Y024777D02*
X003935Y024777D01*
X003935Y024778D02*
X004613Y024778D01*
X004613Y024779D02*
X003936Y024779D01*
X003937Y024780D02*
X004612Y024780D01*
X004612Y024781D02*
X003937Y024781D01*
X003938Y024782D02*
X004611Y024782D01*
X004610Y024783D02*
X003939Y024783D01*
X003939Y024784D02*
X004610Y024784D01*
X004609Y024785D02*
X003940Y024785D01*
X003941Y024786D02*
X004608Y024786D01*
X004608Y024787D02*
X003941Y024787D01*
X003942Y024788D02*
X004607Y024788D01*
X004607Y024789D02*
X003942Y024789D01*
X003943Y024790D02*
X004606Y024790D01*
X004605Y024791D02*
X003944Y024791D01*
X003945Y024792D02*
X004604Y024792D01*
X004603Y024793D02*
X003946Y024793D01*
X003947Y024794D02*
X004602Y024794D01*
X004601Y024795D02*
X003948Y024795D01*
X003949Y024796D02*
X004600Y024796D01*
X004599Y024797D02*
X003950Y024797D01*
X003951Y024798D02*
X004598Y024798D01*
X004597Y024799D02*
X003952Y024799D01*
X003953Y024800D02*
X004596Y024800D01*
X004595Y024801D02*
X003954Y024801D01*
X003955Y024802D02*
X004594Y024802D01*
X004593Y024803D02*
X003956Y024803D01*
X003957Y024804D02*
X004592Y024804D01*
X004591Y024805D02*
X003958Y024805D01*
X003959Y024806D02*
X004590Y024806D01*
X004589Y024807D02*
X003960Y024807D01*
X003961Y024808D02*
X004588Y024808D01*
X004587Y024809D02*
X003962Y024809D01*
X003963Y024810D02*
X004586Y024810D01*
X004585Y024811D02*
X003964Y024811D01*
X003965Y024812D02*
X004584Y024812D01*
X004583Y024813D02*
X003966Y024813D01*
X003967Y024814D02*
X004582Y024814D01*
X004581Y024815D02*
X003968Y024815D01*
X003969Y024816D02*
X004580Y024816D01*
X004579Y024817D02*
X003970Y024817D01*
X003971Y024818D02*
X004578Y024818D01*
X004577Y024819D02*
X003972Y024819D01*
X003973Y024820D02*
X004576Y024820D01*
X004575Y024821D02*
X003974Y024821D01*
X003975Y024822D02*
X004574Y024822D01*
X004573Y024823D02*
X003976Y024823D01*
X003978Y024824D02*
X004571Y024824D01*
X004569Y024825D02*
X003980Y024825D01*
X003981Y024826D02*
X004568Y024826D01*
X004566Y024827D02*
X003983Y024827D01*
X003984Y024828D02*
X004565Y024828D01*
X004563Y024829D02*
X003986Y024829D01*
X003988Y024830D02*
X004561Y024830D01*
X004560Y024831D02*
X003989Y024831D01*
X003991Y024832D02*
X004558Y024832D01*
X004557Y024833D02*
X003992Y024833D01*
X003994Y024834D02*
X004555Y024834D01*
X004553Y024835D02*
X003996Y024835D01*
X003997Y024836D02*
X004552Y024836D01*
X004550Y024837D02*
X003999Y024837D01*
X004000Y024838D02*
X004549Y024838D01*
X004547Y024839D02*
X004002Y024839D01*
X004003Y024840D02*
X004546Y024840D01*
X004544Y024841D02*
X004005Y024841D01*
X004007Y024842D02*
X004542Y024842D01*
X004541Y024843D02*
X004008Y024843D01*
X004010Y024844D02*
X004539Y024844D01*
X004538Y024845D02*
X004011Y024845D01*
X004014Y024846D02*
X004535Y024846D01*
X004532Y024847D02*
X004017Y024847D01*
X004020Y024848D02*
X004529Y024848D01*
X004527Y024849D02*
X004022Y024849D01*
X004025Y024850D02*
X004524Y024850D01*
X004521Y024851D02*
X004028Y024851D01*
X004031Y024852D02*
X004518Y024852D01*
X004515Y024853D02*
X004034Y024853D01*
X004037Y024854D02*
X004512Y024854D01*
X004509Y024855D02*
X004040Y024855D01*
X004042Y024856D02*
X004507Y024856D01*
X004504Y024857D02*
X004045Y024857D01*
X004048Y024858D02*
X004501Y024858D01*
X004498Y024859D02*
X004051Y024859D01*
X004055Y024860D02*
X004494Y024860D01*
X004486Y024861D02*
X004063Y024861D01*
X004072Y024862D02*
X004477Y024862D01*
X004468Y024863D02*
X004081Y024863D01*
X004090Y024864D02*
X004459Y024864D01*
D14*
X013137Y029617D03*
X013609Y032924D03*
X032428Y032924D03*
X032900Y029617D03*
X047660Y029708D03*
X047660Y027030D03*
X047660Y024196D03*
X047660Y021519D03*
X047660Y018290D03*
X047660Y015613D03*
D15*
X044471Y015810D03*
X044117Y016952D03*
X044471Y018093D03*
X044471Y021715D03*
X044117Y022857D03*
X044471Y023999D03*
X044471Y027227D03*
X044117Y028369D03*
X044471Y029511D03*
D16*
X034534Y031960D03*
X011503Y031960D03*
X011503Y030582D03*
D17*
X040184Y031637D03*
X041168Y031637D03*
D18*
X007267Y030889D03*
X043093Y006086D03*
D19*
X036086Y011991D02*
X036086Y014708D01*
X035574Y016692D02*
X034353Y016558D01*
X024589Y016558D01*
X024432Y016400D01*
X022030Y016400D01*
X016204Y010574D01*
X015495Y010849D02*
X017778Y008566D01*
X020771Y009353D02*
X022975Y007149D01*
X027267Y007149D01*
X027818Y006597D01*
X027843Y006582D01*
X027818Y007582D02*
X026873Y007582D01*
X027818Y007582D02*
X027843Y007582D01*
X027843Y009582D02*
X027818Y009589D01*
X027621Y009589D01*
X023448Y013763D01*
X023448Y014078D02*
X024196Y014078D01*
X026952Y011322D01*
X027227Y011322D01*
X027818Y010731D01*
X027818Y010613D01*
X027843Y010582D01*
X027857Y012149D02*
X027843Y012182D01*
X027857Y012149D02*
X028645Y012149D01*
X032030Y008763D01*
X032070Y008763D01*
X032424Y008763D01*
X032897Y009235D01*
X030967Y006873D02*
X036086Y011991D01*
X033369Y014196D02*
X032345Y013172D01*
X027857Y013172D01*
X027843Y013182D01*
X027818Y013211D01*
X027660Y013369D01*
X027424Y013369D01*
X026794Y013999D01*
X024708Y013999D01*
X024589Y014117D01*
X025141Y014314D02*
X027700Y014314D01*
X027818Y014196D01*
X027843Y014182D01*
X027857Y014196D01*
X032739Y014196D01*
X033054Y014511D01*
X032621Y014511D02*
X030967Y016164D01*
X027857Y016164D01*
X027843Y016182D01*
X027818Y016204D01*
X025416Y016204D01*
X025416Y016164D01*
X023763Y014511D01*
X023448Y014786D02*
X023448Y014078D01*
X023448Y014786D02*
X022641Y015845D01*
X023251Y016794D02*
X024393Y016794D01*
X025062Y017463D02*
X025101Y017424D01*
X027149Y017424D01*
X027385Y017188D01*
X027818Y017188D01*
X027843Y017182D01*
X027857Y017188D01*
X034550Y017188D01*
X036125Y018763D01*
X036125Y019196D02*
X035613Y018684D01*
X034314Y018684D01*
X032857Y020023D02*
X038054Y020023D01*
X040692Y017385D01*
X036912Y019668D02*
X036755Y019826D01*
X028605Y019826D01*
X028566Y019786D01*
X027345Y019786D01*
X026243Y018684D01*
X025456Y018684D01*
X024983Y018684D01*
X024393Y018093D01*
X018211Y018093D01*
X018960Y018723D02*
X017656Y018999D01*
X018211Y019353D02*
X017192Y019593D01*
X018211Y019353D02*
X023211Y019353D01*
X023330Y019471D01*
X023841Y019471D01*
X025023Y020652D01*
X025023Y020692D01*
X025534Y020180D01*
X027818Y020180D01*
X027843Y020182D01*
X027345Y021046D02*
X027463Y021164D01*
X027818Y021164D01*
X027843Y021182D01*
X027345Y021046D02*
X024904Y021046D01*
X023960Y020101D01*
X023920Y020101D01*
X022341Y021759D01*
X010692Y021400D01*
X009196Y018723D01*
X010404Y018818D02*
X010885Y018932D01*
X011381Y019637D01*
X012385Y020259D01*
X013932Y020259D01*
X014853Y020251D01*
X019078Y020259D01*
X019078Y019629D01*
X023251Y019629D01*
X023408Y019786D01*
X023448Y019786D01*
X023763Y019156D02*
X023330Y018723D01*
X023645Y018408D02*
X024637Y018960D01*
X025456Y019353D01*
X025889Y018251D02*
X025416Y017778D01*
X013841Y017778D01*
X013054Y018566D01*
X013330Y018920D02*
X012503Y019747D01*
X011991Y019314D02*
X011204Y018133D01*
X010416Y018133D01*
X012463Y016873D02*
X012778Y017188D01*
X015731Y017188D01*
X016086Y015180D02*
X015298Y015180D01*
X015062Y014708D02*
X016125Y014708D01*
X016125Y015141D02*
X016086Y015180D01*
X015062Y014708D02*
X012897Y016873D01*
X012385Y015613D02*
X008881Y015613D01*
X008843Y015582D01*
X008684Y016400D02*
X008487Y016400D01*
X007975Y015889D01*
X007975Y013645D01*
X007897Y013605D01*
X008841Y013605D01*
X008843Y013582D01*
X008881Y013605D01*
X010416Y013605D01*
X012385Y015613D02*
X016125Y011873D01*
X016125Y013566D02*
X016086Y013605D01*
X015298Y013605D01*
X008841Y016558D02*
X008843Y016582D01*
X008841Y016558D02*
X008684Y016400D01*
X005141Y016873D02*
X005141Y011361D01*
X007030Y009471D01*
X008526Y010613D02*
X008841Y010613D01*
X008843Y010582D01*
X008526Y010613D02*
X006952Y012188D01*
X005141Y016873D02*
X009255Y020991D01*
X008456Y021318D02*
X011282Y021755D01*
X014038Y024511D01*
X013487Y024743D02*
X013456Y028121D01*
X009330Y028129D01*
X008920Y028763D02*
X013038Y028727D01*
X013771Y028420D01*
X013853Y027786D01*
X014550Y028251D02*
X014589Y030574D01*
X011475Y030574D01*
X011503Y030582D01*
X014956Y026349D02*
X017503Y029471D01*
X017818Y026912D02*
X015180Y024274D01*
X013487Y024743D02*
X011133Y022046D01*
X007680Y021676D01*
X010963Y020058D02*
X012109Y021086D01*
X017188Y021086D01*
X019156Y022660D02*
X022463Y022660D01*
X023290Y021834D01*
X021243Y020849D02*
X020652Y020259D01*
X020416Y020259D01*
X020101Y019944D02*
X022030Y019944D01*
X022070Y019983D01*
X020731Y018841D02*
X020534Y019038D01*
X019156Y019038D01*
X018960Y018723D02*
X020298Y018723D01*
X020613Y018408D01*
X019790Y020345D02*
X019806Y020723D01*
X019928Y021054D01*
X023054Y016991D02*
X023251Y016794D01*
X026873Y015574D02*
X030141Y015574D01*
X030534Y015180D01*
X029865Y015180D02*
X027857Y015180D01*
X027843Y015182D01*
X027818Y015180D01*
X027109Y015180D01*
X026873Y014944D01*
X029865Y015180D02*
X030534Y014511D01*
X029826Y018960D02*
X029589Y019196D01*
X027857Y019196D01*
X027843Y019182D01*
X028999Y021164D02*
X028369Y021794D01*
X027420Y021963D01*
X028802Y022109D02*
X030771Y022109D01*
X032857Y020023D01*
X032778Y020534D02*
X037030Y020534D01*
X037188Y020377D01*
X037700Y020889D02*
X037621Y020967D01*
X032778Y020967D01*
X032778Y021440D02*
X036755Y021440D01*
X036794Y021479D01*
X035810Y022306D02*
X032778Y022306D01*
X032385Y022542D02*
X033251Y023408D01*
X035810Y022306D02*
X036912Y023408D01*
X036282Y019511D02*
X031715Y019511D01*
X028802Y022109D02*
X025692Y023723D01*
X028211Y023448D02*
X029038Y022621D01*
X025337Y025810D02*
X027857Y028330D01*
X028763Y028841D02*
X029278Y028841D01*
X028763Y028841D02*
X028133Y029471D01*
X026637Y027542D02*
X025456Y026361D01*
X025337Y025810D02*
X017424Y025810D01*
X017385Y025849D01*
X017700Y026164D02*
X018290Y026164D01*
X018330Y026125D01*
X022660Y026519D02*
X022660Y027149D01*
X036282Y019511D02*
X036794Y018999D01*
X024078Y012385D02*
X023448Y012385D01*
X025849Y003802D02*
X026322Y003330D01*
X026440Y003330D01*
X009668Y005967D02*
X008843Y006582D01*
X036794Y030692D02*
X038192Y030696D01*
D20*
X038192Y030696D03*
X036794Y030692D03*
X029278Y028841D03*
X028133Y029471D03*
X027857Y028330D03*
X026637Y027542D03*
X025456Y026361D03*
X022660Y026519D03*
X022660Y027149D03*
X018330Y026125D03*
X017700Y026164D03*
X017385Y025849D03*
X017818Y026912D03*
X014956Y026349D03*
X014550Y028251D03*
X017503Y029471D03*
X014038Y024511D03*
X015180Y024274D03*
X019156Y022660D03*
X019928Y021054D03*
X019790Y020345D03*
X020101Y019944D03*
X020416Y020259D03*
X021243Y020849D03*
X022070Y019983D03*
X023448Y019786D03*
X023960Y020101D03*
X025023Y020692D03*
X025456Y019353D03*
X025456Y018684D03*
X025889Y018251D03*
X025062Y017463D03*
X024393Y018093D03*
X023645Y018408D03*
X023330Y018723D03*
X023763Y019156D03*
X023054Y016991D03*
X024393Y016794D03*
X025416Y016204D03*
X026873Y015574D03*
X026873Y014944D03*
X025141Y014314D03*
X024589Y014117D03*
X023763Y014511D03*
X023448Y013763D03*
X023448Y012385D03*
X024078Y012385D03*
X020771Y009353D03*
X017778Y008566D03*
X016204Y010574D03*
X015495Y010849D03*
X016125Y011873D03*
X016125Y013566D03*
X015298Y013605D03*
X016125Y014708D03*
X016125Y015141D03*
X015298Y015180D03*
X012897Y016873D03*
X012463Y016873D03*
X010416Y018133D03*
X010404Y018818D03*
X009196Y018723D03*
X010963Y020058D03*
X011991Y019314D03*
X012503Y019747D03*
X013330Y018920D03*
X013054Y018566D03*
X015731Y017188D03*
X018211Y018093D03*
X017656Y018999D03*
X017192Y019593D03*
X019156Y019038D03*
X020613Y018408D03*
X020731Y018841D03*
X017188Y021086D03*
X023290Y021834D03*
X025692Y023723D03*
X027420Y021963D03*
X029038Y022621D03*
X028211Y023448D03*
X028999Y021164D03*
X031715Y019511D03*
X032778Y020534D03*
X032778Y020967D03*
X032778Y021440D03*
X032778Y022306D03*
X032385Y022542D03*
X033251Y023408D03*
X036794Y021479D03*
X037700Y020889D03*
X037188Y020377D03*
X036912Y019668D03*
X036794Y018999D03*
X036125Y019196D03*
X036125Y018763D03*
X034314Y018684D03*
X035574Y016692D03*
X036086Y014708D03*
X033369Y014196D03*
X033054Y014511D03*
X032621Y014511D03*
X030534Y014511D03*
X030534Y015180D03*
X029826Y018960D03*
X022641Y015845D03*
X032070Y008763D03*
X032897Y009235D03*
X030967Y006873D03*
X026873Y007582D03*
X025849Y003802D03*
X026440Y003330D03*
X010416Y013605D03*
X007897Y013605D03*
X006952Y012188D03*
X005141Y011361D03*
X007030Y009471D03*
X009668Y005967D03*
X009255Y020991D03*
X008456Y021318D03*
X036912Y023408D03*
X040692Y017385D03*
D21*
X026141Y003176D02*
X004665Y003176D01*
X004507Y003335D02*
X008265Y003335D01*
X008244Y003356D02*
X008357Y003243D01*
X008504Y003182D01*
X009183Y003182D01*
X009330Y003243D01*
X009442Y003356D01*
X009503Y003503D01*
X009503Y003662D01*
X009442Y003809D01*
X009330Y003921D01*
X009183Y003982D01*
X008504Y003982D01*
X008357Y003921D01*
X008244Y003809D01*
X008183Y003662D01*
X008183Y003503D01*
X008244Y003356D01*
X008187Y003493D02*
X004348Y003493D01*
X004190Y003652D02*
X008183Y003652D01*
X008246Y003810D02*
X004031Y003810D01*
X003873Y003969D02*
X008471Y003969D01*
X008504Y004182D02*
X008357Y004243D01*
X008244Y004356D01*
X008183Y004503D01*
X008183Y004662D01*
X008244Y004809D01*
X008357Y004921D01*
X008504Y004982D01*
X009183Y004982D01*
X009330Y004921D01*
X009442Y004809D01*
X009503Y004662D01*
X009503Y004503D01*
X009442Y004356D01*
X009330Y004243D01*
X009183Y004182D01*
X008504Y004182D01*
X008314Y004286D02*
X003863Y004286D01*
X003863Y004444D02*
X008208Y004444D01*
X008183Y004603D02*
X003863Y004603D01*
X003863Y004761D02*
X008224Y004761D01*
X008355Y004920D02*
X003863Y004920D01*
X003863Y005078D02*
X048859Y005078D01*
X048859Y004920D02*
X028331Y004920D01*
X028330Y004921D02*
X028183Y004982D01*
X027504Y004982D01*
X027357Y004921D01*
X027244Y004809D01*
X027183Y004662D01*
X027183Y004503D01*
X027244Y004356D01*
X027357Y004243D01*
X027504Y004182D01*
X028183Y004182D01*
X028330Y004243D01*
X028442Y004356D01*
X028503Y004503D01*
X028503Y004662D01*
X028442Y004809D01*
X028330Y004921D01*
X028462Y004761D02*
X048859Y004761D01*
X048859Y004603D02*
X028503Y004603D01*
X028479Y004444D02*
X048859Y004444D01*
X048859Y004286D02*
X028372Y004286D01*
X028215Y003969D02*
X048849Y003969D01*
X048859Y003978D02*
X047563Y002682D01*
X005159Y002682D01*
X003863Y003978D01*
X003863Y021584D01*
X003887Y021569D01*
X003909Y021547D01*
X003911Y021543D01*
X003914Y021542D01*
X003917Y021540D01*
X003921Y021540D01*
X003951Y021529D01*
X003977Y021513D01*
X003980Y021509D01*
X003984Y021509D01*
X003987Y021507D01*
X003991Y021508D01*
X004022Y021504D01*
X004037Y021499D01*
X004039Y021497D01*
X004044Y021497D01*
X004062Y021490D01*
X004075Y021497D01*
X004089Y021497D01*
X004139Y021491D01*
X004146Y021497D01*
X004403Y021497D01*
X004410Y021491D01*
X004460Y021497D01*
X004474Y021497D01*
X004487Y021490D01*
X004505Y021497D01*
X004510Y021497D01*
X004512Y021499D01*
X004527Y021504D01*
X004558Y021508D01*
X004562Y021507D01*
X004565Y021509D01*
X004569Y021509D01*
X004572Y021513D01*
X004598Y021529D01*
X004628Y021540D01*
X004632Y021540D01*
X004635Y021542D01*
X004638Y021543D01*
X004640Y021547D01*
X004662Y021569D01*
X004689Y021586D01*
X004693Y021587D01*
X004695Y021590D01*
X004698Y021592D01*
X004699Y021596D01*
X004716Y021623D01*
X004738Y021645D01*
X004742Y021647D01*
X004743Y021650D01*
X004746Y021653D01*
X004746Y021657D01*
X004756Y021687D01*
X004773Y021714D01*
X004776Y021716D01*
X004777Y021720D01*
X004778Y021723D01*
X004777Y021727D01*
X004781Y021758D01*
X004786Y021773D01*
X004789Y021776D01*
X004789Y021780D01*
X004795Y021798D01*
X004789Y021811D01*
X004789Y021826D01*
X004794Y021875D01*
X004789Y021883D01*
X004789Y022403D01*
X004706Y022485D01*
X003863Y022485D01*
X003863Y024016D01*
X004706Y024016D01*
X004789Y024098D01*
X004789Y024619D01*
X004794Y024626D01*
X004789Y024676D01*
X004789Y024690D01*
X004795Y024703D01*
X004789Y024722D01*
X004789Y024726D01*
X004786Y024729D01*
X004781Y024743D01*
X004777Y024775D01*
X004778Y024779D01*
X004777Y024782D01*
X004776Y024785D01*
X004773Y024788D01*
X004756Y024815D01*
X004746Y024844D01*
X004746Y024849D01*
X004743Y024851D01*
X004742Y024855D01*
X004738Y024857D01*
X004716Y024879D01*
X004699Y024905D01*
X004698Y024910D01*
X004695Y024912D01*
X004693Y024915D01*
X004689Y024916D01*
X004662Y024932D01*
X004640Y024954D01*
X004638Y024959D01*
X004635Y024960D01*
X004632Y024962D01*
X004628Y024962D01*
X004598Y024972D01*
X004572Y024989D01*
X004569Y024993D01*
X004565Y024993D01*
X004562Y024995D01*
X004558Y024994D01*
X004527Y024997D01*
X004512Y025003D01*
X004510Y025005D01*
X004505Y025005D01*
X004487Y025011D01*
X004474Y025005D01*
X004460Y025005D01*
X004410Y025011D01*
X004403Y025005D01*
X004146Y025005D01*
X004139Y025011D01*
X004089Y025005D01*
X004075Y025005D01*
X004062Y025011D01*
X004044Y025005D01*
X004039Y025005D01*
X004037Y025003D01*
X004022Y024997D01*
X003991Y024994D01*
X003987Y024995D01*
X003984Y024993D01*
X003980Y024993D01*
X003977Y024989D01*
X003951Y024972D01*
X003921Y024962D01*
X003917Y024962D01*
X003914Y024960D01*
X003911Y024959D01*
X003909Y024954D01*
X003887Y024932D01*
X003863Y024918D01*
X003863Y032602D01*
X005159Y033898D01*
X047563Y033898D01*
X048859Y032602D01*
X048859Y003978D01*
X048859Y004127D02*
X025940Y004127D01*
X025916Y004137D02*
X025783Y004137D01*
X025660Y004086D01*
X025565Y003992D01*
X025514Y003869D01*
X025514Y003735D01*
X025565Y003612D01*
X025660Y003518D01*
X025783Y003467D01*
X025916Y003467D01*
X026105Y003278D01*
X026105Y003263D01*
X026156Y003140D01*
X026250Y003046D01*
X026373Y002995D01*
X026506Y002995D01*
X026630Y003046D01*
X026724Y003140D01*
X026775Y003263D01*
X026775Y003396D01*
X026724Y003519D01*
X026630Y003614D01*
X026506Y003665D01*
X026373Y003665D01*
X026290Y003630D01*
X026184Y003736D01*
X026184Y003869D01*
X026133Y003992D01*
X026039Y004086D01*
X025916Y004137D01*
X025759Y004127D02*
X003863Y004127D01*
X003863Y005237D02*
X008372Y005237D01*
X008357Y005243D02*
X008504Y005182D01*
X009183Y005182D01*
X009330Y005243D01*
X009442Y005356D01*
X009503Y005503D01*
X009503Y005662D01*
X009498Y005675D01*
X009602Y005632D01*
X009735Y005632D01*
X009858Y005683D01*
X009952Y005778D01*
X010003Y005901D01*
X010003Y006034D01*
X009952Y006157D01*
X009858Y006251D01*
X009735Y006302D01*
X009602Y006302D01*
X009560Y006285D01*
X009448Y006369D01*
X009503Y006503D01*
X009503Y006662D01*
X009442Y006809D01*
X009330Y006921D01*
X009183Y006982D01*
X008504Y006982D01*
X008357Y006921D01*
X008244Y006809D01*
X008183Y006662D01*
X008183Y006503D01*
X008244Y006356D01*
X008357Y006243D01*
X008504Y006182D01*
X009062Y006182D01*
X009333Y005980D01*
X009333Y005918D01*
X009330Y005921D01*
X009183Y005982D01*
X008504Y005982D01*
X008357Y005921D01*
X008244Y005809D01*
X008183Y005662D01*
X008183Y005503D01*
X008244Y005356D01*
X008357Y005243D01*
X008228Y005395D02*
X003863Y005395D01*
X003863Y005554D02*
X008183Y005554D01*
X008204Y005712D02*
X003863Y005712D01*
X003863Y005871D02*
X008306Y005871D01*
X008490Y006188D02*
X003863Y006188D01*
X003863Y006346D02*
X008254Y006346D01*
X008183Y006505D02*
X003863Y006505D01*
X003863Y006663D02*
X008184Y006663D01*
X008257Y006822D02*
X003863Y006822D01*
X003863Y006980D02*
X008499Y006980D01*
X008504Y007182D02*
X008357Y007243D01*
X008244Y007356D01*
X008183Y007503D01*
X008183Y007662D01*
X008244Y007809D01*
X008357Y007921D01*
X008504Y007982D01*
X009183Y007982D01*
X009330Y007921D01*
X009442Y007809D01*
X009503Y007662D01*
X009503Y007503D01*
X009442Y007356D01*
X009330Y007243D01*
X009183Y007182D01*
X008504Y007182D01*
X008303Y007297D02*
X003863Y007297D01*
X003863Y007139D02*
X022716Y007139D01*
X022558Y007297D02*
X009384Y007297D01*
X009484Y007456D02*
X022399Y007456D01*
X022241Y007614D02*
X009503Y007614D01*
X009457Y007773D02*
X022082Y007773D01*
X021924Y007931D02*
X009306Y007931D01*
X009183Y008182D02*
X009330Y008243D01*
X009442Y008356D01*
X009503Y008503D01*
X009503Y008662D01*
X009442Y008809D01*
X009330Y008921D01*
X009183Y008982D01*
X008504Y008982D01*
X008357Y008921D01*
X008244Y008809D01*
X008183Y008662D01*
X008183Y008503D01*
X008244Y008356D01*
X008357Y008243D01*
X008504Y008182D01*
X009183Y008182D01*
X009335Y008248D02*
X017670Y008248D01*
X017712Y008231D02*
X017845Y008231D01*
X017968Y008282D01*
X018062Y008376D01*
X018113Y008499D01*
X018113Y008632D01*
X018062Y008756D01*
X017968Y008850D01*
X017845Y008901D01*
X017712Y008901D01*
X016344Y010269D01*
X016393Y010290D01*
X016488Y010384D01*
X016539Y010507D01*
X016539Y010640D01*
X022109Y016210D01*
X024511Y016210D01*
X024622Y016322D01*
X024668Y016368D01*
X025122Y016368D01*
X025081Y016270D01*
X025081Y016137D01*
X025093Y016109D01*
X023829Y014846D01*
X023696Y014846D01*
X023645Y014824D01*
X023647Y014839D01*
X023638Y014850D01*
X023638Y014865D01*
X023591Y014912D01*
X022960Y015740D01*
X022976Y015779D01*
X022976Y015912D01*
X022925Y016035D01*
X022830Y016129D01*
X022707Y016180D01*
X022574Y016180D01*
X022451Y016129D01*
X022357Y016035D01*
X022306Y015912D01*
X022306Y015779D01*
X022357Y015656D01*
X022451Y015561D01*
X022574Y015510D01*
X022657Y015510D01*
X023258Y014722D01*
X023258Y014046D01*
X023164Y013952D01*
X023113Y013829D01*
X023113Y013696D01*
X023164Y013573D01*
X023258Y013479D01*
X019377Y013479D01*
X019219Y013320D02*
X023621Y013320D01*
X023514Y013428D02*
X027212Y009730D01*
X027183Y009662D01*
X027183Y009503D01*
X027244Y009356D01*
X027357Y009243D01*
X027504Y009182D01*
X028183Y009182D01*
X028330Y009243D01*
X028442Y009356D01*
X028503Y009503D01*
X028503Y009662D01*
X028442Y009809D01*
X028330Y009921D01*
X028183Y009982D01*
X027504Y009982D01*
X027499Y009980D01*
X023783Y013696D01*
X023783Y013829D01*
X023759Y013888D01*
X024117Y013888D01*
X026762Y011243D01*
X026873Y011132D01*
X027149Y011132D01*
X027358Y010922D01*
X027357Y010921D01*
X027244Y010809D01*
X027183Y010662D01*
X027183Y010503D01*
X027244Y010356D01*
X027357Y010243D01*
X027504Y010182D01*
X028183Y010182D01*
X028330Y010243D01*
X028442Y010356D01*
X028503Y010503D01*
X028503Y010662D01*
X028442Y010809D01*
X028330Y010921D01*
X028183Y010982D01*
X027835Y010982D01*
X027306Y011512D01*
X027030Y011512D01*
X024733Y013809D01*
X026715Y013809D01*
X027207Y013318D01*
X027183Y013262D01*
X027183Y013103D01*
X027244Y012956D01*
X027357Y012843D01*
X027504Y012782D01*
X028183Y012782D01*
X028330Y012843D01*
X028442Y012956D01*
X028453Y012982D01*
X032424Y012982D01*
X032535Y013093D01*
X033303Y013861D01*
X033436Y013861D01*
X033559Y013912D01*
X033653Y014006D01*
X033704Y014129D01*
X033704Y014262D01*
X033653Y014386D01*
X033559Y014480D01*
X033436Y014531D01*
X033389Y014531D01*
X033389Y014577D01*
X033338Y014700D01*
X033244Y014795D01*
X033121Y014846D01*
X032987Y014846D01*
X032864Y014795D01*
X032837Y014768D01*
X032811Y014795D01*
X032688Y014846D01*
X032555Y014846D01*
X031157Y016243D01*
X031046Y016354D01*
X028465Y016354D01*
X028459Y016368D01*
X034286Y016368D01*
X034296Y016361D01*
X034364Y016368D01*
X034432Y016368D01*
X034440Y016376D01*
X035319Y016473D01*
X035384Y016408D01*
X035507Y016357D01*
X035640Y016357D01*
X035763Y016408D01*
X035858Y016502D01*
X035909Y016625D01*
X035909Y016758D01*
X035858Y016882D01*
X035763Y016976D01*
X035640Y017027D01*
X035507Y017027D01*
X035384Y016976D01*
X035290Y016882D01*
X035277Y016850D01*
X034343Y016748D01*
X024728Y016748D01*
X024728Y016861D01*
X024677Y016984D01*
X024582Y017078D01*
X024459Y017129D01*
X024326Y017129D01*
X024203Y017078D01*
X024109Y016984D01*
X023389Y016984D01*
X023389Y017058D01*
X023338Y017181D01*
X023244Y017275D01*
X023121Y017326D01*
X022987Y017326D01*
X022864Y017275D01*
X022770Y017181D01*
X022719Y017058D01*
X022719Y016924D01*
X022770Y016801D01*
X022864Y016707D01*
X022987Y016656D01*
X023120Y016656D01*
X023172Y016604D01*
X024109Y016604D01*
X024123Y016590D01*
X021952Y016590D01*
X016270Y010909D01*
X016137Y010909D01*
X016014Y010858D01*
X015920Y010763D01*
X015899Y010714D01*
X015830Y010783D01*
X015830Y010916D01*
X015779Y011039D01*
X015685Y011133D01*
X015562Y011184D01*
X015428Y011184D01*
X015305Y011133D01*
X015211Y011039D01*
X015160Y010916D01*
X015160Y010783D01*
X015211Y010660D01*
X015305Y010565D01*
X015428Y010514D01*
X015561Y010514D01*
X017443Y008632D01*
X017443Y008499D01*
X017494Y008376D01*
X017589Y008282D01*
X017712Y008231D01*
X017887Y008248D02*
X021607Y008248D01*
X021765Y008090D02*
X003863Y008090D01*
X003863Y008248D02*
X008352Y008248D01*
X008223Y008407D02*
X003863Y008407D01*
X003863Y008565D02*
X008183Y008565D01*
X008209Y008724D02*
X003863Y008724D01*
X003863Y008882D02*
X008318Y008882D01*
X008381Y007931D02*
X003863Y007931D01*
X003863Y007773D02*
X008229Y007773D01*
X008183Y007614D02*
X003863Y007614D01*
X003863Y007456D02*
X008203Y007456D01*
X009188Y006980D02*
X022875Y006980D01*
X022897Y006959D02*
X027188Y006959D01*
X027291Y006855D01*
X027244Y006809D01*
X027183Y006662D01*
X027183Y006503D01*
X027244Y006356D01*
X027357Y006243D01*
X027504Y006182D01*
X028183Y006182D01*
X028330Y006243D01*
X028442Y006356D01*
X028503Y006503D01*
X028503Y006662D01*
X028442Y006809D01*
X028330Y006921D01*
X028183Y006982D01*
X027702Y006982D01*
X027500Y007184D01*
X027504Y007182D01*
X028183Y007182D01*
X028330Y007243D01*
X028442Y007356D01*
X028503Y007503D01*
X028503Y007662D01*
X028442Y007809D01*
X028330Y007921D01*
X028183Y007982D01*
X027504Y007982D01*
X027357Y007921D01*
X027244Y007809D01*
X027229Y007772D01*
X027157Y007772D01*
X027063Y007866D01*
X026940Y007917D01*
X026806Y007917D01*
X026683Y007866D01*
X026589Y007771D01*
X026538Y007648D01*
X026538Y007515D01*
X026589Y007392D01*
X026642Y007339D01*
X023054Y007339D01*
X021106Y009287D01*
X021106Y009420D01*
X021055Y009543D01*
X020960Y009637D01*
X020837Y009688D01*
X020704Y009688D01*
X020581Y009637D01*
X020487Y009543D01*
X020436Y009420D01*
X020436Y009287D01*
X020487Y009163D01*
X020581Y009069D01*
X020704Y009018D01*
X020837Y009018D01*
X022897Y006959D01*
X022937Y007456D02*
X026562Y007456D01*
X026538Y007614D02*
X022778Y007614D01*
X022620Y007773D02*
X026590Y007773D01*
X027156Y007773D02*
X027229Y007773D01*
X027381Y007931D02*
X022461Y007931D01*
X022303Y008090D02*
X031916Y008090D01*
X032074Y008248D02*
X028335Y008248D01*
X028330Y008243D02*
X028442Y008356D01*
X028503Y008503D01*
X028503Y008662D01*
X028442Y008809D01*
X028330Y008921D01*
X028183Y008982D01*
X027504Y008982D01*
X027357Y008921D01*
X027244Y008809D01*
X027183Y008662D01*
X027183Y008503D01*
X027244Y008356D01*
X027357Y008243D01*
X027504Y008182D01*
X028183Y008182D01*
X028330Y008243D01*
X028464Y008407D02*
X032233Y008407D01*
X032260Y008479D02*
X032354Y008573D01*
X032398Y008573D01*
X031034Y007208D01*
X030901Y007208D01*
X030778Y007157D01*
X030683Y007063D01*
X030632Y006940D01*
X030632Y006806D01*
X030683Y006683D01*
X030778Y006589D01*
X030901Y006538D01*
X031034Y006538D01*
X031157Y006589D01*
X031251Y006683D01*
X031302Y006806D01*
X031302Y006939D01*
X036164Y011801D01*
X036276Y011912D01*
X036276Y014424D01*
X036370Y014518D01*
X036421Y014641D01*
X036421Y014774D01*
X036370Y014897D01*
X036275Y014992D01*
X036152Y015043D01*
X036019Y015043D01*
X035896Y014992D01*
X035802Y014897D01*
X035751Y014774D01*
X035751Y014641D01*
X035802Y014518D01*
X035896Y014424D01*
X035896Y012070D01*
X033201Y009375D01*
X033181Y009425D01*
X033086Y009519D01*
X032963Y009570D01*
X032830Y009570D01*
X032707Y009519D01*
X032613Y009425D01*
X032562Y009302D01*
X032562Y009169D01*
X032349Y008957D01*
X032260Y009047D01*
X032136Y009098D01*
X032003Y009098D01*
X031976Y009086D01*
X028835Y012227D01*
X028723Y012339D01*
X028472Y012339D01*
X028442Y012409D01*
X028330Y012521D01*
X028183Y012582D01*
X027504Y012582D01*
X027357Y012521D01*
X027244Y012409D01*
X027183Y012262D01*
X027183Y012103D01*
X027244Y011956D01*
X027357Y011843D01*
X027504Y011782D01*
X028183Y011782D01*
X028330Y011843D01*
X028442Y011956D01*
X028444Y011959D01*
X028566Y011959D01*
X031735Y008790D01*
X031735Y008696D01*
X031786Y008573D01*
X031880Y008479D01*
X032003Y008428D01*
X032136Y008428D01*
X032260Y008479D01*
X032346Y008565D02*
X032391Y008565D01*
X032611Y008248D02*
X048859Y008248D01*
X048859Y008090D02*
X032453Y008090D01*
X032294Y007931D02*
X048859Y007931D01*
X048859Y007773D02*
X032136Y007773D01*
X031977Y007614D02*
X048859Y007614D01*
X048859Y007456D02*
X031819Y007456D01*
X031660Y007297D02*
X048859Y007297D01*
X048859Y007139D02*
X031502Y007139D01*
X031343Y006980D02*
X048859Y006980D01*
X048859Y006822D02*
X031302Y006822D01*
X031231Y006663D02*
X048859Y006663D01*
X048859Y006505D02*
X043371Y006505D01*
X043374Y006503D02*
X043343Y006518D01*
X043315Y006537D01*
X043305Y006536D01*
X043302Y006537D01*
X043297Y006546D01*
X043264Y006555D01*
X043233Y006569D01*
X043223Y006565D01*
X043221Y006566D01*
X043214Y006574D01*
X043180Y006577D01*
X043147Y006586D01*
X043138Y006581D01*
X043136Y006581D01*
X043128Y006588D01*
X043093Y006585D01*
X043059Y006588D01*
X043051Y006581D01*
X043049Y006581D01*
X043040Y006586D01*
X043007Y006577D01*
X042973Y006574D01*
X042966Y006566D01*
X042964Y006565D01*
X042954Y006569D01*
X042923Y006555D01*
X042890Y006546D01*
X042884Y006537D01*
X042882Y006536D01*
X042872Y006537D01*
X042844Y006518D01*
X042813Y006503D01*
X042809Y006493D01*
X042807Y006492D01*
X042797Y006492D01*
X042773Y006468D01*
X042744Y006448D01*
X042743Y006438D01*
X042741Y006436D01*
X042731Y006434D01*
X042711Y006406D01*
X042687Y006382D01*
X042687Y006372D01*
X042685Y006370D01*
X042676Y006366D01*
X042661Y006335D01*
X042641Y006307D01*
X042643Y006297D01*
X042642Y006295D01*
X042633Y006289D01*
X042624Y006256D01*
X042610Y006225D01*
X042613Y006215D01*
X042613Y006213D01*
X042605Y006206D01*
X042602Y006172D01*
X042593Y006139D01*
X042598Y006130D01*
X042598Y006128D01*
X042591Y006120D01*
X042594Y006086D01*
X042591Y006051D01*
X042598Y006043D01*
X042598Y006041D01*
X042593Y006032D01*
X042602Y005999D01*
X042605Y005965D01*
X042613Y005958D01*
X042613Y005956D01*
X042610Y005946D01*
X042624Y005915D01*
X042633Y005882D01*
X042642Y005876D01*
X042643Y005874D01*
X042641Y005864D01*
X042661Y005836D01*
X042676Y005805D01*
X042685Y005801D01*
X042687Y005799D01*
X042687Y005789D01*
X042711Y005765D01*
X042731Y005737D01*
X042741Y005735D01*
X042743Y005733D01*
X042744Y005723D01*
X042773Y005703D01*
X042797Y005679D01*
X042807Y005679D01*
X042809Y005678D01*
X042813Y005668D01*
X042844Y005653D01*
X042872Y005634D01*
X042882Y005635D01*
X042884Y005634D01*
X042890Y005625D01*
X042923Y005617D01*
X042954Y005602D01*
X042964Y005606D01*
X042966Y005605D01*
X042973Y005597D01*
X043007Y005594D01*
X043040Y005585D01*
X043049Y005590D01*
X043051Y005590D01*
X043059Y005583D01*
X043093Y005586D01*
X043128Y005583D01*
X043136Y005590D01*
X043138Y005590D01*
X043147Y005585D01*
X043180Y005594D01*
X043214Y005597D01*
X043221Y005605D01*
X043223Y005606D01*
X043233Y005602D01*
X043264Y005617D01*
X043297Y005625D01*
X043302Y005634D01*
X043305Y005635D01*
X043315Y005634D01*
X043343Y005653D01*
X043374Y005668D01*
X043378Y005678D01*
X043380Y005679D01*
X043390Y005679D01*
X043414Y005703D01*
X043442Y005723D01*
X043444Y005733D01*
X043446Y005735D01*
X043456Y005737D01*
X043476Y005765D01*
X043500Y005789D01*
X043500Y005799D01*
X043501Y005801D01*
X043511Y005805D01*
X043526Y005836D01*
X043545Y005864D01*
X043543Y005874D01*
X043545Y005876D01*
X043554Y005882D01*
X043562Y005915D01*
X043577Y005946D01*
X043573Y005956D01*
X043574Y005958D01*
X043582Y005965D01*
X043585Y005999D01*
X043594Y006032D01*
X043589Y006041D01*
X043589Y006043D01*
X043595Y006051D01*
X043592Y006086D01*
X043595Y006120D01*
X043589Y006128D01*
X043589Y006130D01*
X043594Y006139D01*
X043585Y006172D01*
X043582Y006206D01*
X043574Y006213D01*
X043573Y006215D01*
X043577Y006225D01*
X043562Y006256D01*
X043554Y006289D01*
X043545Y006295D01*
X043543Y006297D01*
X043545Y006307D01*
X043526Y006335D01*
X043511Y006366D01*
X043501Y006370D01*
X043500Y006372D01*
X043500Y006382D01*
X043476Y006406D01*
X043456Y006434D01*
X043446Y006436D01*
X043444Y006438D01*
X043442Y006448D01*
X043414Y006468D01*
X043390Y006492D01*
X043380Y006492D01*
X043378Y006493D01*
X043374Y006503D01*
X043520Y006346D02*
X048859Y006346D01*
X048859Y006188D02*
X043584Y006188D01*
X043593Y006029D02*
X048859Y006029D01*
X048859Y005871D02*
X043544Y005871D01*
X043427Y005712D02*
X048859Y005712D01*
X048859Y005554D02*
X028503Y005554D01*
X028503Y005503D02*
X028503Y005662D01*
X028442Y005809D01*
X028330Y005921D01*
X028183Y005982D01*
X027504Y005982D01*
X027357Y005921D01*
X027244Y005809D01*
X027183Y005662D01*
X027183Y005503D01*
X027244Y005356D01*
X027357Y005243D01*
X027504Y005182D01*
X028183Y005182D01*
X028330Y005243D01*
X028442Y005356D01*
X028503Y005503D01*
X028459Y005395D02*
X048859Y005395D01*
X048859Y005237D02*
X028314Y005237D01*
X028482Y005712D02*
X042760Y005712D01*
X042643Y005871D02*
X028380Y005871D01*
X028196Y006188D02*
X042603Y006188D01*
X042594Y006029D02*
X010003Y006029D01*
X009991Y005871D02*
X027306Y005871D01*
X027204Y005712D02*
X009887Y005712D01*
X009503Y005554D02*
X027183Y005554D01*
X027228Y005395D02*
X009459Y005395D01*
X009314Y005237D02*
X027372Y005237D01*
X027355Y004920D02*
X009331Y004920D01*
X009462Y004761D02*
X027224Y004761D01*
X027183Y004603D02*
X009503Y004603D01*
X009479Y004444D02*
X027208Y004444D01*
X027314Y004286D02*
X009372Y004286D01*
X009215Y003969D02*
X025556Y003969D01*
X025514Y003810D02*
X009441Y003810D01*
X009503Y003652D02*
X025549Y003652D01*
X025720Y003493D02*
X009499Y003493D01*
X009421Y003335D02*
X026048Y003335D01*
X026268Y003652D02*
X026342Y003652D01*
X026538Y003652D02*
X027183Y003652D01*
X027183Y003662D02*
X027183Y003503D01*
X027244Y003356D01*
X027357Y003243D01*
X027504Y003182D01*
X028183Y003182D01*
X028330Y003243D01*
X028442Y003356D01*
X028503Y003503D01*
X028503Y003662D01*
X028442Y003809D01*
X028330Y003921D01*
X028183Y003982D01*
X027504Y003982D01*
X027357Y003921D01*
X027244Y003809D01*
X027183Y003662D01*
X027246Y003810D02*
X026184Y003810D01*
X026143Y003969D02*
X027471Y003969D01*
X027187Y003493D02*
X026735Y003493D01*
X026775Y003335D02*
X027265Y003335D01*
X026739Y003176D02*
X048057Y003176D01*
X047898Y003018D02*
X026562Y003018D01*
X026317Y003018D02*
X004824Y003018D01*
X004982Y002859D02*
X047740Y002859D01*
X047581Y002701D02*
X005141Y002701D01*
X003863Y006029D02*
X009267Y006029D01*
X009478Y006346D02*
X027254Y006346D01*
X027183Y006505D02*
X009503Y006505D01*
X009503Y006663D02*
X027184Y006663D01*
X027257Y006822D02*
X009429Y006822D01*
X009922Y006188D02*
X027490Y006188D01*
X027545Y007139D02*
X030759Y007139D01*
X030649Y006980D02*
X028188Y006980D01*
X028429Y006822D02*
X030632Y006822D01*
X030703Y006663D02*
X028503Y006663D01*
X028503Y006505D02*
X042816Y006505D01*
X042666Y006346D02*
X028433Y006346D01*
X028384Y007297D02*
X031123Y007297D01*
X031282Y007456D02*
X028484Y007456D01*
X028503Y007614D02*
X031440Y007614D01*
X031599Y007773D02*
X028457Y007773D01*
X028306Y007931D02*
X031757Y007931D01*
X031793Y008565D02*
X028503Y008565D01*
X028478Y008724D02*
X031735Y008724D01*
X031642Y008882D02*
X028369Y008882D01*
X028224Y009199D02*
X031325Y009199D01*
X031484Y009041D02*
X021352Y009041D01*
X021193Y009199D02*
X027463Y009199D01*
X027243Y009358D02*
X021106Y009358D01*
X021066Y009516D02*
X027183Y009516D01*
X027189Y009675D02*
X020870Y009675D01*
X020671Y009675D02*
X016938Y009675D01*
X016780Y009833D02*
X027108Y009833D01*
X026950Y009992D02*
X016621Y009992D01*
X016463Y010150D02*
X026791Y010150D01*
X026633Y010309D02*
X016412Y010309D01*
X016522Y010467D02*
X026474Y010467D01*
X026316Y010626D02*
X016539Y010626D01*
X016683Y010784D02*
X026157Y010784D01*
X025999Y010943D02*
X016841Y010943D01*
X017000Y011101D02*
X025840Y011101D01*
X025682Y011260D02*
X017158Y011260D01*
X017317Y011418D02*
X025523Y011418D01*
X025365Y011577D02*
X017475Y011577D01*
X017634Y011735D02*
X025206Y011735D01*
X025048Y011894D02*
X017792Y011894D01*
X017951Y012052D02*
X023375Y012052D01*
X023381Y012050D02*
X023514Y012050D01*
X023637Y012101D01*
X023731Y012195D01*
X023794Y012195D01*
X023888Y012101D01*
X024011Y012050D01*
X024144Y012050D01*
X024267Y012101D01*
X024362Y012195D01*
X024413Y012318D01*
X024413Y012451D01*
X024362Y012574D01*
X024267Y012669D01*
X024144Y012720D01*
X024011Y012720D01*
X023888Y012669D01*
X023794Y012575D01*
X023731Y012575D01*
X023637Y012669D01*
X023514Y012720D01*
X023381Y012720D01*
X023258Y012669D01*
X023164Y012574D01*
X023113Y012451D01*
X023113Y012318D01*
X023164Y012195D01*
X023258Y012101D01*
X023381Y012050D01*
X023520Y012052D02*
X024005Y012052D01*
X024150Y012052D02*
X024889Y012052D01*
X024731Y012211D02*
X024368Y012211D01*
X024413Y012369D02*
X024572Y012369D01*
X024414Y012528D02*
X024381Y012528D01*
X024255Y012686D02*
X024225Y012686D01*
X024097Y012845D02*
X018743Y012845D01*
X018585Y012686D02*
X023300Y012686D01*
X023144Y012528D02*
X018426Y012528D01*
X018268Y012369D02*
X023113Y012369D01*
X023157Y012211D02*
X018109Y012211D01*
X017889Y012528D02*
X015739Y012528D01*
X015580Y012686D02*
X018047Y012686D01*
X018206Y012845D02*
X015422Y012845D01*
X015263Y013003D02*
X018364Y013003D01*
X018523Y013162D02*
X015105Y013162D01*
X015111Y013320D02*
X014946Y013320D01*
X015014Y013415D02*
X015108Y013321D01*
X015231Y013270D01*
X015365Y013270D01*
X015488Y013321D01*
X015582Y013415D01*
X015825Y013415D01*
X015841Y013376D01*
X015935Y013282D01*
X016058Y013231D01*
X016192Y013231D01*
X016315Y013282D01*
X016409Y013376D01*
X016460Y013499D01*
X016460Y013632D01*
X016409Y013756D01*
X016315Y013850D01*
X016192Y013901D01*
X016058Y013901D01*
X015935Y013850D01*
X015880Y013795D01*
X015582Y013795D01*
X015488Y013889D01*
X015365Y013940D01*
X015231Y013940D01*
X015108Y013889D01*
X015014Y013795D01*
X014963Y013672D01*
X014963Y013539D01*
X015014Y013415D01*
X014988Y013479D02*
X014788Y013479D01*
X014629Y013637D02*
X014963Y013637D01*
X015015Y013796D02*
X014471Y013796D01*
X014312Y013954D02*
X019315Y013954D01*
X019157Y013796D02*
X016369Y013796D01*
X016458Y013637D02*
X018998Y013637D01*
X018840Y013479D02*
X016451Y013479D01*
X016353Y013320D02*
X018681Y013320D01*
X018902Y013003D02*
X023938Y013003D01*
X023780Y013162D02*
X019060Y013162D01*
X019536Y013637D02*
X023137Y013637D01*
X023113Y013796D02*
X019694Y013796D01*
X019853Y013954D02*
X023166Y013954D01*
X023258Y014113D02*
X020011Y014113D01*
X020170Y014271D02*
X023258Y014271D01*
X023258Y014430D02*
X020328Y014430D01*
X020487Y014588D02*
X023258Y014588D01*
X023239Y014747D02*
X020645Y014747D01*
X020804Y014905D02*
X023118Y014905D01*
X022997Y015064D02*
X020962Y015064D01*
X021121Y015222D02*
X022877Y015222D01*
X022756Y015381D02*
X021279Y015381D01*
X021438Y015539D02*
X022504Y015539D01*
X022339Y015698D02*
X021596Y015698D01*
X021755Y015856D02*
X022306Y015856D01*
X022348Y016015D02*
X021913Y016015D01*
X022072Y016173D02*
X022557Y016173D01*
X022724Y016173D02*
X025081Y016173D01*
X025107Y016332D02*
X024632Y016332D01*
X024998Y016015D02*
X022933Y016015D01*
X022976Y015856D02*
X024839Y015856D01*
X024681Y015698D02*
X022992Y015698D01*
X023113Y015539D02*
X024522Y015539D01*
X024364Y015381D02*
X023234Y015381D01*
X023354Y015222D02*
X024205Y015222D01*
X024047Y015064D02*
X023475Y015064D01*
X023597Y014905D02*
X023888Y014905D01*
X023783Y013796D02*
X024209Y013796D01*
X024367Y013637D02*
X023842Y013637D01*
X024000Y013479D02*
X024526Y013479D01*
X024684Y013320D02*
X024159Y013320D01*
X024317Y013162D02*
X024843Y013162D01*
X025001Y013003D02*
X024476Y013003D01*
X024634Y012845D02*
X025160Y012845D01*
X025318Y012686D02*
X024793Y012686D01*
X024951Y012528D02*
X025477Y012528D01*
X025635Y012369D02*
X025110Y012369D01*
X025268Y012211D02*
X025794Y012211D01*
X025952Y012052D02*
X025427Y012052D01*
X025585Y011894D02*
X026111Y011894D01*
X026269Y011735D02*
X025744Y011735D01*
X025902Y011577D02*
X026428Y011577D01*
X026586Y011418D02*
X026061Y011418D01*
X026219Y011260D02*
X026745Y011260D01*
X026536Y010943D02*
X027338Y010943D01*
X027234Y010784D02*
X026695Y010784D01*
X026853Y010626D02*
X027183Y010626D01*
X027198Y010467D02*
X027012Y010467D01*
X027170Y010309D02*
X027291Y010309D01*
X027329Y010150D02*
X030374Y010150D01*
X030533Y009992D02*
X027487Y009992D01*
X028418Y009833D02*
X030691Y009833D01*
X030850Y009675D02*
X028498Y009675D01*
X028503Y009516D02*
X031008Y009516D01*
X031167Y009358D02*
X028443Y009358D01*
X028396Y010309D02*
X030216Y010309D01*
X030057Y010467D02*
X028489Y010467D01*
X028503Y010626D02*
X029899Y010626D01*
X029740Y010784D02*
X028453Y010784D01*
X028278Y010943D02*
X029582Y010943D01*
X029423Y011101D02*
X027716Y011101D01*
X027558Y011260D02*
X029265Y011260D01*
X029106Y011418D02*
X027399Y011418D01*
X027179Y011101D02*
X026378Y011101D01*
X026965Y011577D02*
X028948Y011577D01*
X028789Y011735D02*
X026807Y011735D01*
X026648Y011894D02*
X027306Y011894D01*
X027204Y012052D02*
X026490Y012052D01*
X026331Y012211D02*
X027183Y012211D01*
X027228Y012369D02*
X026173Y012369D01*
X026014Y012528D02*
X027372Y012528D01*
X027355Y012845D02*
X025697Y012845D01*
X025539Y013003D02*
X027224Y013003D01*
X027183Y013162D02*
X025380Y013162D01*
X025222Y013320D02*
X027204Y013320D01*
X027046Y013479D02*
X025063Y013479D01*
X024905Y013637D02*
X026887Y013637D01*
X026729Y013796D02*
X024746Y013796D01*
X023514Y013428D02*
X023381Y013428D01*
X023258Y013479D01*
X023595Y012686D02*
X023930Y012686D01*
X025856Y012686D02*
X035896Y012686D01*
X035896Y012528D02*
X028314Y012528D01*
X028459Y012369D02*
X035896Y012369D01*
X035896Y012211D02*
X028851Y012211D01*
X029010Y012052D02*
X035878Y012052D01*
X035720Y011894D02*
X029168Y011894D01*
X029327Y011735D02*
X035561Y011735D01*
X035403Y011577D02*
X029485Y011577D01*
X029644Y011418D02*
X035244Y011418D01*
X035086Y011260D02*
X029802Y011260D01*
X029961Y011101D02*
X034927Y011101D01*
X034769Y010943D02*
X030119Y010943D01*
X030278Y010784D02*
X034610Y010784D01*
X034452Y010626D02*
X030436Y010626D01*
X030595Y010467D02*
X034293Y010467D01*
X034135Y010309D02*
X030753Y010309D01*
X030912Y010150D02*
X033976Y010150D01*
X033818Y009992D02*
X031070Y009992D01*
X031229Y009833D02*
X033659Y009833D01*
X033501Y009675D02*
X031387Y009675D01*
X031546Y009516D02*
X032704Y009516D01*
X032585Y009358D02*
X031704Y009358D01*
X031863Y009199D02*
X032562Y009199D01*
X032433Y009041D02*
X032265Y009041D01*
X033087Y008724D02*
X048859Y008724D01*
X048859Y008882D02*
X033245Y008882D01*
X033404Y009041D02*
X048859Y009041D01*
X048859Y009199D02*
X033562Y009199D01*
X033721Y009358D02*
X048859Y009358D01*
X048859Y009516D02*
X033879Y009516D01*
X034038Y009675D02*
X048859Y009675D01*
X048859Y009833D02*
X034196Y009833D01*
X034355Y009992D02*
X048859Y009992D01*
X048859Y010150D02*
X034513Y010150D01*
X034672Y010309D02*
X048859Y010309D01*
X048859Y010467D02*
X034830Y010467D01*
X034989Y010626D02*
X048859Y010626D01*
X048859Y010784D02*
X035147Y010784D01*
X035306Y010943D02*
X048859Y010943D01*
X048859Y011101D02*
X035464Y011101D01*
X035623Y011260D02*
X048859Y011260D01*
X048859Y011418D02*
X035781Y011418D01*
X035940Y011577D02*
X048859Y011577D01*
X048859Y011735D02*
X036098Y011735D01*
X036257Y011894D02*
X048859Y011894D01*
X048859Y012052D02*
X036276Y012052D01*
X036276Y012211D02*
X048859Y012211D01*
X048859Y012369D02*
X036276Y012369D01*
X036276Y012528D02*
X048859Y012528D01*
X048859Y012686D02*
X036276Y012686D01*
X036276Y012845D02*
X048859Y012845D01*
X048859Y013003D02*
X036276Y013003D01*
X036276Y013162D02*
X048859Y013162D01*
X048859Y013320D02*
X036276Y013320D01*
X036276Y013479D02*
X048859Y013479D01*
X048859Y013637D02*
X036276Y013637D01*
X036276Y013796D02*
X048859Y013796D01*
X048859Y013954D02*
X036276Y013954D01*
X036276Y014113D02*
X048859Y014113D01*
X048859Y014271D02*
X036276Y014271D01*
X036281Y014430D02*
X048859Y014430D01*
X048859Y014588D02*
X036399Y014588D01*
X036421Y014747D02*
X048859Y014747D01*
X048859Y014905D02*
X047860Y014905D01*
X047806Y014883D02*
X048074Y014994D01*
X048280Y015199D01*
X048391Y015468D01*
X048391Y015758D01*
X048280Y016027D01*
X048074Y016232D01*
X047806Y016344D01*
X047515Y016344D01*
X047246Y016232D01*
X047041Y016027D01*
X046930Y015758D01*
X046930Y015468D01*
X047041Y015199D01*
X047246Y014994D01*
X047515Y014883D01*
X047806Y014883D01*
X047460Y014905D02*
X036362Y014905D01*
X035890Y014430D02*
X033609Y014430D01*
X033700Y014271D02*
X035896Y014271D01*
X035896Y014113D02*
X033697Y014113D01*
X033601Y013954D02*
X035896Y013954D01*
X035896Y013796D02*
X033238Y013796D01*
X033079Y013637D02*
X035896Y013637D01*
X035896Y013479D02*
X032921Y013479D01*
X032762Y013320D02*
X035896Y013320D01*
X035896Y013162D02*
X032604Y013162D01*
X032445Y013003D02*
X035896Y013003D01*
X035896Y012845D02*
X028332Y012845D01*
X028381Y011894D02*
X028631Y011894D01*
X032495Y014905D02*
X035809Y014905D01*
X035751Y014747D02*
X033292Y014747D01*
X033385Y014588D02*
X035772Y014588D01*
X035846Y016490D02*
X043628Y016490D01*
X043611Y016508D02*
X043673Y016445D01*
X043743Y016392D01*
X043819Y016348D01*
X043900Y016314D01*
X043986Y016291D01*
X044040Y016284D01*
X044040Y016874D01*
X044194Y016874D01*
X044194Y016379D01*
X044113Y016346D01*
X043935Y016168D01*
X043839Y015936D01*
X043839Y015684D01*
X043935Y015452D01*
X044113Y015274D01*
X044346Y015178D01*
X044597Y015178D01*
X044829Y015274D01*
X045007Y015452D01*
X045103Y015684D01*
X045103Y015936D01*
X045007Y016168D01*
X044829Y016346D01*
X044597Y016442D01*
X044557Y016442D01*
X044561Y016445D01*
X044623Y016508D01*
X044677Y016577D01*
X044721Y016654D01*
X044755Y016735D01*
X044778Y016820D01*
X044785Y016874D01*
X044194Y016874D01*
X044194Y017029D01*
X044040Y017029D01*
X044040Y017619D01*
X043986Y017612D01*
X043900Y017589D01*
X043819Y017556D01*
X043743Y017512D01*
X043673Y017458D01*
X043611Y017396D01*
X043557Y017326D01*
X043513Y017250D01*
X043479Y017168D01*
X043456Y017083D01*
X043449Y017029D01*
X044040Y017029D01*
X044040Y016874D01*
X043449Y016874D01*
X043456Y016820D01*
X043479Y016735D01*
X043513Y016654D01*
X043557Y016577D01*
X043611Y016508D01*
X043516Y016649D02*
X035909Y016649D01*
X035888Y016807D02*
X043460Y016807D01*
X043467Y017124D02*
X040905Y017124D01*
X040882Y017101D02*
X040976Y017195D01*
X041027Y017318D01*
X041027Y017451D01*
X040976Y017574D01*
X040882Y017669D01*
X040758Y017720D01*
X040626Y017720D01*
X038133Y020213D01*
X037482Y020213D01*
X037523Y020310D01*
X037523Y020443D01*
X037472Y020567D01*
X037378Y020661D01*
X037255Y020712D01*
X037122Y020712D01*
X037109Y020724D01*
X033062Y020724D01*
X033036Y020751D01*
X033062Y020777D01*
X037383Y020777D01*
X037416Y020699D01*
X037510Y020605D01*
X037633Y020554D01*
X037766Y020554D01*
X037889Y020605D01*
X037984Y020699D01*
X038035Y020822D01*
X038035Y020955D01*
X037984Y021078D01*
X037889Y021173D01*
X037766Y021224D01*
X037633Y021224D01*
X037510Y021173D01*
X037495Y021157D01*
X036893Y021157D01*
X036984Y021195D01*
X037078Y021289D01*
X037129Y021413D01*
X037129Y021546D01*
X037078Y021669D01*
X036984Y021763D01*
X036861Y021814D01*
X036728Y021814D01*
X036604Y021763D01*
X036510Y021669D01*
X036494Y021630D01*
X033062Y021630D01*
X032968Y021724D01*
X032845Y021775D01*
X032712Y021775D01*
X032589Y021724D01*
X032494Y021630D01*
X032443Y021506D01*
X032443Y021373D01*
X032494Y021250D01*
X032541Y021204D01*
X032494Y021157D01*
X032443Y021034D01*
X032443Y020901D01*
X032494Y020778D01*
X032521Y020751D01*
X032494Y020724D01*
X032474Y020674D01*
X030849Y022299D01*
X029137Y022299D01*
X029228Y022337D01*
X029322Y022431D01*
X029373Y022554D01*
X029373Y022688D01*
X029322Y022811D01*
X029228Y022905D01*
X029105Y022956D01*
X028972Y022956D01*
X028546Y023381D01*
X028546Y023514D01*
X028495Y023637D01*
X028401Y023732D01*
X028278Y023783D01*
X028145Y023783D01*
X028022Y023732D01*
X027927Y023637D01*
X027876Y023514D01*
X027876Y023381D01*
X027927Y023258D01*
X028022Y023164D01*
X028145Y023113D01*
X028278Y023113D01*
X028703Y022687D01*
X028703Y022554D01*
X028754Y022431D01*
X028849Y022337D01*
X028940Y022299D01*
X028848Y022299D01*
X026027Y023764D01*
X026027Y023790D01*
X025976Y023913D01*
X025882Y024007D01*
X025758Y024058D01*
X025625Y024058D01*
X025502Y024007D01*
X025408Y023913D01*
X025357Y023790D01*
X025357Y023657D01*
X025408Y023534D01*
X025502Y023439D01*
X025625Y023388D01*
X025758Y023388D01*
X025851Y023427D01*
X028688Y021954D01*
X028723Y021919D01*
X028756Y021919D01*
X028784Y021904D01*
X028831Y021919D01*
X030692Y021919D01*
X032595Y020016D01*
X028526Y020016D01*
X028487Y019976D01*
X028451Y019976D01*
X028503Y020103D01*
X028503Y020262D01*
X028442Y020409D01*
X028330Y020521D01*
X028183Y020582D01*
X027504Y020582D01*
X027357Y020521D01*
X027244Y020409D01*
X027228Y020370D01*
X025613Y020370D01*
X025358Y020626D01*
X025358Y020758D01*
X025317Y020856D01*
X027344Y020856D01*
X027357Y020843D01*
X027504Y020782D01*
X028183Y020782D01*
X028330Y020843D01*
X028442Y020956D01*
X028503Y021103D01*
X028503Y021262D01*
X028442Y021409D01*
X028330Y021521D01*
X028183Y021582D01*
X027504Y021582D01*
X027357Y021521D01*
X027244Y021409D01*
X027183Y021262D01*
X027183Y021236D01*
X024826Y021236D01*
X024714Y021125D01*
X024026Y020436D01*
X023893Y020436D01*
X023872Y020428D01*
X022529Y021837D01*
X022529Y021843D01*
X022475Y021894D01*
X022425Y021947D01*
X022419Y021947D01*
X022414Y021951D01*
X022341Y021949D01*
X022267Y021951D01*
X022263Y021946D01*
X011414Y021613D01*
X011427Y021631D01*
X013972Y024176D01*
X014105Y024176D01*
X014228Y024227D01*
X014322Y024321D01*
X014373Y024444D01*
X014373Y024577D01*
X014322Y024700D01*
X014228Y024795D01*
X014105Y024846D01*
X013972Y024846D01*
X013849Y024795D01*
X013754Y024700D01*
X013703Y024577D01*
X013703Y024444D01*
X011935Y022676D01*
X013627Y024614D01*
X013678Y024666D01*
X013678Y024672D01*
X013682Y024677D01*
X013677Y024750D01*
X013651Y027510D01*
X013662Y027499D01*
X013786Y027448D01*
X013921Y027448D01*
X014045Y027499D01*
X014140Y027595D01*
X014192Y027719D01*
X014192Y027854D01*
X014140Y027978D01*
X014045Y028073D01*
X014005Y028090D01*
X013966Y028394D01*
X013976Y028419D01*
X013956Y028469D01*
X013949Y028523D01*
X013927Y028540D01*
X013917Y028565D01*
X013867Y028586D01*
X013824Y028619D01*
X013797Y028615D01*
X013150Y028886D01*
X013282Y028886D01*
X013551Y028998D01*
X013756Y029203D01*
X013867Y029472D01*
X013867Y029762D01*
X013756Y030031D01*
X013551Y030236D01*
X013282Y030348D01*
X012991Y030348D01*
X012723Y030236D01*
X012517Y030031D01*
X012406Y029762D01*
X012406Y029472D01*
X012517Y029203D01*
X012723Y028998D01*
X012914Y028918D01*
X009209Y028950D01*
X009207Y028954D01*
X009112Y029050D01*
X008987Y029101D01*
X008853Y029101D01*
X008728Y029050D01*
X008633Y028954D01*
X008582Y028830D01*
X008582Y028695D01*
X003863Y028695D01*
X003863Y028853D02*
X008591Y028853D01*
X008582Y028695D02*
X008633Y028571D01*
X008728Y028476D01*
X008853Y028424D01*
X008987Y028424D01*
X009112Y028476D01*
X009206Y028570D01*
X012999Y028538D01*
X013596Y028287D01*
X013602Y028243D01*
X013589Y028256D01*
X013535Y028311D01*
X013533Y028311D01*
X013533Y028312D01*
X013455Y028311D01*
X009617Y028318D01*
X009617Y028321D01*
X009521Y028416D01*
X009397Y028467D01*
X009262Y028467D01*
X009138Y028416D01*
X009043Y028321D01*
X008991Y028196D01*
X008991Y028062D01*
X009043Y027937D01*
X009138Y027842D01*
X009262Y027790D01*
X009397Y027790D01*
X009521Y027842D01*
X009617Y027937D01*
X009617Y027938D01*
X013267Y027931D01*
X013296Y024813D01*
X011039Y022227D01*
X007940Y021895D01*
X007872Y021963D01*
X007747Y022014D01*
X007613Y022014D01*
X007488Y021963D01*
X007393Y021868D01*
X007342Y021743D01*
X007342Y021609D01*
X007393Y021484D01*
X007488Y021389D01*
X007613Y021338D01*
X007747Y021338D01*
X007872Y021389D01*
X007967Y021484D01*
X007980Y021517D01*
X008205Y021541D01*
X008172Y021508D01*
X008121Y021384D01*
X008121Y021251D01*
X008172Y021128D01*
X008266Y021034D01*
X008389Y020983D01*
X008522Y020983D01*
X008645Y021034D01*
X008740Y021128D01*
X008758Y021172D01*
X009000Y021210D01*
X008971Y021181D01*
X008920Y021058D01*
X008920Y020925D01*
X005005Y017006D01*
X004951Y016952D01*
X004951Y016952D01*
X004951Y016952D01*
X004951Y016873D01*
X004951Y011645D01*
X004857Y011551D01*
X004806Y011428D01*
X004806Y011294D01*
X004857Y011171D01*
X004951Y011077D01*
X005074Y011026D01*
X005207Y011026D01*
X006695Y009538D01*
X006695Y009405D01*
X006746Y009282D01*
X006841Y009187D01*
X006964Y009136D01*
X007097Y009136D01*
X007220Y009187D01*
X007314Y009282D01*
X007365Y009405D01*
X007365Y009538D01*
X007314Y009661D01*
X007220Y009755D01*
X007097Y009806D01*
X006964Y009806D01*
X005476Y011295D01*
X005476Y011428D01*
X005425Y011551D01*
X005331Y011645D01*
X005331Y016794D01*
X009189Y020656D01*
X009321Y020656D01*
X009445Y020707D01*
X009539Y020801D01*
X009590Y020924D01*
X009590Y021058D01*
X009539Y021181D01*
X009445Y021275D01*
X009439Y021278D01*
X010497Y021441D01*
X009165Y019058D01*
X009129Y019058D01*
X009006Y019007D01*
X008912Y018913D01*
X008861Y018790D01*
X008861Y018657D01*
X008912Y018534D01*
X009006Y018439D01*
X009129Y018388D01*
X009262Y018388D01*
X009386Y018439D01*
X009480Y018534D01*
X009531Y018657D01*
X009531Y018790D01*
X009497Y018872D01*
X010805Y021214D01*
X012006Y021251D01*
X011978Y021224D01*
X011045Y020387D01*
X011030Y020393D01*
X010897Y020393D01*
X010774Y020342D01*
X010679Y020248D01*
X010628Y020125D01*
X010628Y019991D01*
X010679Y019868D01*
X010774Y019774D01*
X010897Y019723D01*
X011030Y019723D01*
X011153Y019774D01*
X011247Y019868D01*
X011298Y019991D01*
X011298Y020103D01*
X012182Y020896D01*
X016904Y020896D01*
X016998Y020802D01*
X017121Y020751D01*
X017255Y020751D01*
X017378Y020802D01*
X017472Y020896D01*
X017523Y021019D01*
X017523Y021152D01*
X017472Y021275D01*
X017378Y021370D01*
X017273Y021413D01*
X022262Y021566D01*
X023625Y020136D01*
X023625Y020076D01*
X023514Y020121D01*
X023381Y020121D01*
X023258Y020070D01*
X023164Y019976D01*
X023113Y019853D01*
X023113Y019819D01*
X022364Y019819D01*
X022405Y019917D01*
X022405Y020050D01*
X022354Y020173D01*
X022260Y020267D01*
X022136Y020318D01*
X022003Y020318D01*
X021880Y020267D01*
X021786Y020173D01*
X021770Y020134D01*
X020796Y020134D01*
X020842Y020180D01*
X021177Y020514D01*
X021310Y020514D01*
X021433Y020565D01*
X021527Y020660D01*
X021578Y020783D01*
X021578Y020916D01*
X021527Y021039D01*
X021433Y021133D01*
X021310Y021184D01*
X021176Y021184D01*
X021053Y021133D01*
X020959Y021039D01*
X020908Y020916D01*
X020908Y020783D01*
X020637Y020512D01*
X020606Y020543D01*
X020483Y020594D01*
X020350Y020594D01*
X020226Y020543D01*
X020132Y020449D01*
X020121Y020422D01*
X020074Y020535D01*
X019992Y020618D01*
X019995Y020686D01*
X020009Y020725D01*
X020118Y020770D01*
X020212Y020864D01*
X020263Y020987D01*
X020263Y021121D01*
X020212Y021244D01*
X020118Y021338D01*
X019995Y021389D01*
X019861Y021389D01*
X019738Y021338D01*
X019644Y021244D01*
X019593Y021121D01*
X019593Y020987D01*
X019644Y020864D01*
X019652Y020856D01*
X019644Y020832D01*
X019619Y020810D01*
X019617Y020761D01*
X019600Y020715D01*
X019614Y020685D01*
X019612Y020634D01*
X019600Y020629D01*
X019506Y020535D01*
X019455Y020412D01*
X019455Y020279D01*
X019506Y020156D01*
X019600Y020061D01*
X019724Y020010D01*
X019766Y020010D01*
X019766Y019877D01*
X019790Y019819D01*
X019268Y019819D01*
X019268Y020180D01*
X019268Y020180D01*
X019268Y020259D01*
X019268Y020337D01*
X019267Y020338D01*
X019212Y020393D01*
X019156Y020449D01*
X019077Y020449D01*
X018999Y020449D01*
X018999Y020449D01*
X014854Y020441D01*
X014011Y020448D01*
X014011Y020449D01*
X013933Y020449D01*
X013855Y020449D01*
X013854Y020449D01*
X012407Y020449D01*
X012352Y020462D01*
X012331Y020449D01*
X012306Y020449D01*
X012266Y020409D01*
X011312Y019818D01*
X011271Y019810D01*
X011248Y019778D01*
X011214Y019757D01*
X011204Y019716D01*
X010771Y019100D01*
X010629Y019067D01*
X010594Y019102D01*
X010471Y019153D01*
X010338Y019153D01*
X010215Y019102D01*
X010120Y019008D01*
X010069Y018884D01*
X010069Y018751D01*
X010120Y018628D01*
X010215Y018534D01*
X010338Y018483D01*
X010471Y018483D01*
X010594Y018534D01*
X010688Y018628D01*
X010717Y018697D01*
X010923Y018746D01*
X010995Y018758D01*
X010999Y018764D01*
X011005Y018765D01*
X011043Y018827D01*
X011514Y019496D01*
X012216Y019931D01*
X012168Y019814D01*
X012168Y019680D01*
X012217Y019562D01*
X012181Y019598D01*
X012058Y019649D01*
X011924Y019649D01*
X011801Y019598D01*
X011707Y019504D01*
X011656Y019380D01*
X011656Y019247D01*
X011680Y019190D01*
X011102Y018323D01*
X010700Y018323D01*
X010606Y018417D01*
X010483Y018468D01*
X010350Y018468D01*
X010226Y018417D01*
X010132Y018323D01*
X010081Y018199D01*
X010081Y018066D01*
X010132Y017943D01*
X010226Y017849D01*
X010350Y017798D01*
X010483Y017798D01*
X010606Y017849D01*
X010700Y017943D01*
X011146Y017943D01*
X011164Y017931D01*
X011222Y017943D01*
X011282Y017943D01*
X011297Y017958D01*
X011318Y017962D01*
X011351Y018012D01*
X011394Y018054D01*
X011394Y018075D01*
X013276Y018075D01*
X013120Y018231D02*
X013651Y017700D01*
X013763Y017588D01*
X024751Y017588D01*
X024727Y017530D01*
X024727Y017397D01*
X024778Y017274D01*
X024872Y017179D01*
X024995Y017128D01*
X025129Y017128D01*
X025252Y017179D01*
X025306Y017234D01*
X027070Y017234D01*
X027183Y017121D01*
X027183Y017103D01*
X027244Y016956D01*
X027357Y016843D01*
X027504Y016782D01*
X028183Y016782D01*
X028330Y016843D01*
X028442Y016956D01*
X028460Y016998D01*
X034629Y016998D01*
X034740Y017109D01*
X036059Y018428D01*
X036192Y018428D01*
X036315Y018479D01*
X036409Y018573D01*
X036460Y018696D01*
X036460Y018829D01*
X036409Y018952D01*
X036382Y018979D01*
X036409Y019006D01*
X036441Y019083D01*
X036459Y019065D01*
X036459Y018932D01*
X036510Y018809D01*
X036604Y018715D01*
X036728Y018664D01*
X036861Y018664D01*
X036984Y018715D01*
X037078Y018809D01*
X037129Y018932D01*
X037129Y019066D01*
X037078Y019189D01*
X036984Y019283D01*
X036863Y019333D01*
X036979Y019333D01*
X037102Y019384D01*
X037196Y019478D01*
X037247Y019602D01*
X037247Y019735D01*
X037207Y019833D01*
X037975Y019833D01*
X040357Y017451D01*
X040357Y017318D01*
X040408Y017195D01*
X040502Y017101D01*
X040625Y017050D01*
X040758Y017050D01*
X040882Y017101D01*
X041012Y017283D02*
X043532Y017283D01*
X043656Y017441D02*
X041027Y017441D01*
X040951Y017600D02*
X043939Y017600D01*
X044040Y017600D02*
X044071Y017600D01*
X044113Y017557D02*
X044194Y017524D01*
X044194Y017029D01*
X044785Y017029D01*
X044778Y017083D01*
X044755Y017168D01*
X044721Y017250D01*
X044677Y017326D01*
X044623Y017396D01*
X044561Y017458D01*
X044557Y017461D01*
X044597Y017461D01*
X044829Y017557D01*
X045007Y017735D01*
X045103Y017968D01*
X045103Y018219D01*
X045007Y018451D01*
X044829Y018629D01*
X044597Y018726D01*
X044346Y018726D01*
X044113Y018629D01*
X043935Y018451D01*
X043839Y018219D01*
X043839Y017968D01*
X043935Y017735D01*
X044113Y017557D01*
X044040Y017441D02*
X044194Y017441D01*
X044194Y017283D02*
X044040Y017283D01*
X044040Y017124D02*
X044194Y017124D01*
X044194Y016966D02*
X045060Y016966D01*
X045060Y017030D02*
X045060Y016873D01*
X045120Y016727D01*
X045231Y016616D01*
X045377Y016556D01*
X045534Y016556D01*
X045680Y016616D01*
X045791Y016727D01*
X045851Y016873D01*
X045851Y017030D01*
X045791Y017176D01*
X045680Y017287D01*
X045534Y017348D01*
X045377Y017348D01*
X045231Y017287D01*
X045120Y017176D01*
X045060Y017030D01*
X045099Y017124D02*
X044767Y017124D01*
X044702Y017283D02*
X045227Y017283D01*
X045684Y017283D02*
X047983Y017283D01*
X047987Y017287D02*
X047876Y017176D01*
X047816Y017030D01*
X047816Y016873D01*
X047876Y016727D01*
X047987Y016616D01*
X048133Y016556D01*
X048290Y016556D01*
X048436Y016616D01*
X048547Y016727D01*
X048607Y016873D01*
X048607Y017030D01*
X048547Y017176D01*
X048436Y017287D01*
X048290Y017348D01*
X048133Y017348D01*
X047987Y017287D01*
X047854Y017124D02*
X045813Y017124D01*
X045851Y016966D02*
X047816Y016966D01*
X047843Y016807D02*
X045824Y016807D01*
X045713Y016649D02*
X047955Y016649D01*
X047834Y016332D02*
X048859Y016332D01*
X048859Y016490D02*
X044606Y016490D01*
X044718Y016649D02*
X045199Y016649D01*
X045087Y016807D02*
X044774Y016807D01*
X044843Y016332D02*
X047486Y016332D01*
X047187Y016173D02*
X045002Y016173D01*
X045071Y016015D02*
X047036Y016015D01*
X046970Y015856D02*
X045103Y015856D01*
X045103Y015698D02*
X046930Y015698D01*
X046930Y015539D02*
X045043Y015539D01*
X044936Y015381D02*
X046966Y015381D01*
X047031Y015222D02*
X044704Y015222D01*
X044238Y015222D02*
X032178Y015222D01*
X032337Y015064D02*
X047177Y015064D01*
X048144Y015064D02*
X048859Y015064D01*
X048859Y015222D02*
X048289Y015222D01*
X048355Y015381D02*
X048859Y015381D01*
X048859Y015539D02*
X048391Y015539D01*
X048391Y015698D02*
X048859Y015698D01*
X048859Y015856D02*
X048350Y015856D01*
X048285Y016015D02*
X048859Y016015D01*
X048859Y016173D02*
X048133Y016173D01*
X048468Y016649D02*
X048859Y016649D01*
X048859Y016807D02*
X048580Y016807D01*
X048607Y016966D02*
X048859Y016966D01*
X048859Y017124D02*
X048569Y017124D01*
X048440Y017283D02*
X048859Y017283D01*
X048859Y017441D02*
X044578Y017441D01*
X044872Y017600D02*
X047418Y017600D01*
X047515Y017560D02*
X047806Y017560D01*
X048074Y017671D01*
X048280Y017876D01*
X048391Y018145D01*
X048391Y018436D01*
X048280Y018704D01*
X048074Y018910D01*
X047806Y019021D01*
X047515Y019021D01*
X047246Y018910D01*
X047041Y018704D01*
X046930Y018436D01*
X046930Y018145D01*
X047041Y017876D01*
X047246Y017671D01*
X047515Y017560D01*
X047902Y017600D02*
X048859Y017600D01*
X048859Y017758D02*
X048161Y017758D01*
X048296Y017917D02*
X048859Y017917D01*
X048859Y018075D02*
X048362Y018075D01*
X048391Y018234D02*
X048859Y018234D01*
X048859Y018392D02*
X048391Y018392D01*
X048343Y018551D02*
X048859Y018551D01*
X048859Y018709D02*
X048274Y018709D01*
X048116Y018868D02*
X048859Y018868D01*
X048859Y019026D02*
X039319Y019026D01*
X039478Y018868D02*
X047205Y018868D01*
X047046Y018709D02*
X044636Y018709D01*
X044908Y018551D02*
X046977Y018551D01*
X046930Y018392D02*
X045032Y018392D01*
X045097Y018234D02*
X046930Y018234D01*
X046959Y018075D02*
X045103Y018075D01*
X045082Y017917D02*
X047024Y017917D01*
X047159Y017758D02*
X045017Y017758D01*
X043926Y017758D02*
X040587Y017758D01*
X040429Y017917D02*
X043860Y017917D01*
X043839Y018075D02*
X040270Y018075D01*
X040112Y018234D02*
X043845Y018234D01*
X043911Y018392D02*
X039953Y018392D01*
X039795Y018551D02*
X044035Y018551D01*
X044306Y018709D02*
X039636Y018709D01*
X039416Y018392D02*
X036023Y018392D01*
X035865Y018234D02*
X039574Y018234D01*
X039733Y018075D02*
X035706Y018075D01*
X035548Y017917D02*
X039891Y017917D01*
X040050Y017758D02*
X035389Y017758D01*
X035231Y017600D02*
X040208Y017600D01*
X040357Y017441D02*
X035072Y017441D01*
X034914Y017283D02*
X040371Y017283D01*
X040479Y017124D02*
X034755Y017124D01*
X034883Y016807D02*
X028243Y016807D01*
X028447Y016966D02*
X035374Y016966D01*
X035774Y016966D02*
X044040Y016966D01*
X044040Y016807D02*
X044194Y016807D01*
X044194Y016649D02*
X044040Y016649D01*
X044040Y016490D02*
X044194Y016490D01*
X044099Y016332D02*
X044040Y016332D01*
X043857Y016332D02*
X031069Y016332D01*
X031227Y016173D02*
X043941Y016173D01*
X043872Y016015D02*
X031386Y016015D01*
X031544Y015856D02*
X043839Y015856D01*
X043839Y015698D02*
X031703Y015698D01*
X031861Y015539D02*
X043899Y015539D01*
X044007Y015381D02*
X032020Y015381D01*
X034471Y017378D02*
X028455Y017378D01*
X028442Y017409D01*
X028330Y017521D01*
X028183Y017582D01*
X027504Y017582D01*
X027357Y017521D01*
X027338Y017503D01*
X027227Y017614D01*
X025521Y017614D01*
X025822Y017916D01*
X025955Y017916D01*
X026078Y017967D01*
X026173Y018061D01*
X026224Y018184D01*
X026224Y018318D01*
X026173Y018441D01*
X026119Y018494D01*
X026322Y018494D01*
X026433Y018605D01*
X027424Y019596D01*
X028645Y019596D01*
X028684Y019636D01*
X031405Y019636D01*
X031380Y019577D01*
X031380Y019444D01*
X031431Y019321D01*
X031526Y019227D01*
X031649Y019176D01*
X031782Y019176D01*
X031905Y019227D01*
X031999Y019321D01*
X035814Y019321D01*
X035790Y019262D01*
X035790Y019129D01*
X035534Y018874D01*
X034598Y018874D01*
X034504Y018968D01*
X034380Y019019D01*
X034247Y019019D01*
X034124Y018968D01*
X034030Y018874D01*
X033979Y018751D01*
X033979Y018617D01*
X034030Y018494D01*
X034124Y018400D01*
X034247Y018349D01*
X034380Y018349D01*
X034504Y018400D01*
X034598Y018494D01*
X035587Y018494D01*
X034471Y017378D01*
X034535Y017441D02*
X028410Y017441D01*
X028272Y017774D02*
X028334Y017806D01*
X028390Y017847D01*
X028439Y017896D01*
X028480Y017952D01*
X028511Y018013D01*
X028532Y018079D01*
X028543Y018148D01*
X028543Y018182D01*
X027843Y018182D01*
X027143Y018182D01*
X027143Y018148D01*
X027154Y018079D01*
X027176Y018013D01*
X027207Y017952D01*
X027248Y017896D01*
X027297Y017847D01*
X027353Y017806D01*
X027414Y017774D01*
X027480Y017753D01*
X027549Y017742D01*
X027843Y017742D01*
X027843Y018182D01*
X027843Y018182D01*
X027843Y018182D01*
X027143Y018182D01*
X027143Y018217D01*
X027154Y018285D01*
X027176Y018351D01*
X027207Y018413D01*
X027248Y018469D01*
X027297Y018518D01*
X027353Y018559D01*
X027414Y018590D01*
X027480Y018611D01*
X027549Y018622D01*
X027843Y018622D01*
X027843Y018182D01*
X027843Y017742D01*
X028138Y017742D01*
X028206Y017753D01*
X028272Y017774D01*
X028222Y017758D02*
X034852Y017758D01*
X035010Y017917D02*
X028454Y017917D01*
X028531Y018075D02*
X035169Y018075D01*
X035327Y018234D02*
X028541Y018234D01*
X028543Y018217D02*
X028532Y018285D01*
X028511Y018351D01*
X028480Y018413D01*
X028439Y018469D01*
X028390Y018518D01*
X028334Y018559D01*
X028272Y018590D01*
X028206Y018611D01*
X028138Y018622D01*
X027843Y018622D01*
X027843Y018182D01*
X027843Y018182D01*
X027843Y018182D01*
X028543Y018182D01*
X028543Y018217D01*
X028490Y018392D02*
X034143Y018392D01*
X034006Y018551D02*
X028345Y018551D01*
X028183Y018782D02*
X028330Y018843D01*
X028442Y018956D01*
X028463Y019006D01*
X029491Y019006D01*
X029491Y018893D01*
X029542Y018770D01*
X029636Y018676D01*
X029759Y018625D01*
X029892Y018625D01*
X030015Y018676D01*
X030110Y018770D01*
X030161Y018893D01*
X030161Y019026D01*
X030110Y019149D01*
X030015Y019244D01*
X029892Y019295D01*
X029759Y019295D01*
X029668Y019386D01*
X028452Y019386D01*
X028442Y019409D01*
X028330Y019521D01*
X028183Y019582D01*
X027504Y019582D01*
X027357Y019521D01*
X027244Y019409D01*
X027183Y019262D01*
X027183Y019103D01*
X027244Y018956D01*
X027357Y018843D01*
X027504Y018782D01*
X028183Y018782D01*
X028355Y018868D02*
X029501Y018868D01*
X029602Y018709D02*
X026537Y018709D01*
X026378Y018551D02*
X027342Y018551D01*
X027196Y018392D02*
X026193Y018392D01*
X026224Y018234D02*
X027146Y018234D01*
X027155Y018075D02*
X026179Y018075D01*
X025957Y017917D02*
X027232Y017917D01*
X027464Y017758D02*
X025665Y017758D01*
X024727Y017441D02*
X015952Y017441D01*
X015921Y017472D02*
X015798Y017523D01*
X015665Y017523D01*
X015541Y017472D01*
X015447Y017378D01*
X012700Y017378D01*
X012588Y017267D01*
X012530Y017208D01*
X012397Y017208D01*
X012274Y017157D01*
X012179Y017063D01*
X012128Y016940D01*
X012128Y016806D01*
X012179Y016683D01*
X012274Y016589D01*
X012397Y016538D01*
X012530Y016538D01*
X012653Y016589D01*
X012680Y016616D01*
X012707Y016589D01*
X012830Y016538D01*
X012963Y016538D01*
X014872Y014629D01*
X014983Y014518D01*
X015841Y014518D01*
X015935Y014424D01*
X016058Y014373D01*
X016192Y014373D01*
X016315Y014424D01*
X016409Y014518D01*
X016460Y014641D01*
X016460Y014774D01*
X016409Y014897D01*
X016382Y014924D01*
X016409Y014951D01*
X016460Y015074D01*
X016460Y015207D01*
X016409Y015330D01*
X016315Y015425D01*
X016192Y015476D01*
X016058Y015476D01*
X015935Y015425D01*
X015880Y015370D01*
X015582Y015370D01*
X015488Y015464D01*
X015365Y015515D01*
X015231Y015515D01*
X015108Y015464D01*
X015014Y015370D01*
X014963Y015247D01*
X014963Y015113D01*
X014990Y015048D01*
X013232Y016807D01*
X022768Y016807D01*
X022719Y016966D02*
X015983Y016966D01*
X016015Y016998D02*
X016066Y017121D01*
X016066Y017255D01*
X016015Y017378D01*
X015921Y017472D01*
X016054Y017283D02*
X022883Y017283D01*
X022747Y017124D02*
X016066Y017124D01*
X016015Y016998D02*
X015921Y016904D01*
X015798Y016853D01*
X015665Y016853D01*
X015541Y016904D01*
X015447Y016998D01*
X013207Y016998D01*
X013232Y016940D01*
X013232Y016807D01*
X013221Y016966D02*
X015480Y016966D01*
X015511Y017441D02*
X009478Y017441D01*
X009503Y017503D02*
X009503Y017662D01*
X009442Y017809D01*
X009330Y017921D01*
X009183Y017982D01*
X008504Y017982D01*
X008357Y017921D01*
X008244Y017809D01*
X008183Y017662D01*
X008183Y017503D01*
X008244Y017356D01*
X008357Y017243D01*
X008504Y017182D01*
X009183Y017182D01*
X009330Y017243D01*
X009442Y017356D01*
X009503Y017503D01*
X009503Y017600D02*
X013751Y017600D01*
X013593Y017758D02*
X009463Y017758D01*
X009334Y017917D02*
X010158Y017917D01*
X010081Y018075D02*
X006610Y018075D01*
X006452Y017917D02*
X008352Y017917D01*
X008223Y017758D02*
X006294Y017758D01*
X006135Y017600D02*
X008183Y017600D01*
X008209Y017441D02*
X005977Y017441D01*
X005819Y017283D02*
X008317Y017283D01*
X008464Y016966D02*
X005502Y016966D01*
X005660Y017124D02*
X012241Y017124D01*
X012139Y016966D02*
X009223Y016966D01*
X009183Y016982D02*
X008504Y016982D01*
X008357Y016921D01*
X008244Y016809D01*
X008183Y016662D01*
X008183Y016503D01*
X008224Y016406D01*
X007897Y016079D01*
X007785Y015967D01*
X007785Y013922D01*
X007707Y013889D01*
X007613Y013795D01*
X007562Y013672D01*
X007562Y013539D01*
X007613Y013415D01*
X007707Y013321D01*
X007830Y013270D01*
X007963Y013270D01*
X008086Y013321D01*
X008180Y013415D01*
X008220Y013415D01*
X008244Y013356D01*
X008357Y013243D01*
X008504Y013182D01*
X009183Y013182D01*
X009330Y013243D01*
X009442Y013356D01*
X009467Y013415D01*
X010132Y013415D01*
X010226Y013321D01*
X010350Y013270D01*
X010483Y013270D01*
X010606Y013321D01*
X010700Y013415D01*
X010751Y013539D01*
X010751Y013672D01*
X010700Y013795D01*
X010606Y013889D01*
X010483Y013940D01*
X010350Y013940D01*
X010226Y013889D01*
X010132Y013795D01*
X009448Y013795D01*
X009442Y013809D01*
X009330Y013921D01*
X009183Y013982D01*
X008504Y013982D01*
X008357Y013921D01*
X008244Y013809D01*
X008239Y013795D01*
X008180Y013795D01*
X008165Y013810D01*
X008165Y015810D01*
X008538Y016182D01*
X009183Y016182D01*
X009330Y016243D01*
X009442Y016356D01*
X009503Y016503D01*
X009503Y016662D01*
X009442Y016809D01*
X009330Y016921D01*
X009183Y016982D01*
X009443Y016807D02*
X012128Y016807D01*
X012214Y016649D02*
X009503Y016649D01*
X009498Y016490D02*
X013011Y016490D01*
X013169Y016332D02*
X009419Y016332D01*
X009330Y015921D02*
X009183Y015982D01*
X008504Y015982D01*
X008357Y015921D01*
X008244Y015809D01*
X008183Y015662D01*
X008183Y015503D01*
X008244Y015356D01*
X008357Y015243D01*
X008504Y015182D01*
X009183Y015182D01*
X009330Y015243D01*
X009442Y015356D01*
X009470Y015423D01*
X012306Y015423D01*
X015790Y011939D01*
X015790Y011806D01*
X015841Y011683D01*
X015935Y011589D01*
X016058Y011538D01*
X016192Y011538D01*
X016315Y011589D01*
X016409Y011683D01*
X016460Y011806D01*
X016460Y011940D01*
X016409Y012063D01*
X016315Y012157D01*
X016192Y012208D01*
X016059Y012208D01*
X012575Y015692D01*
X012463Y015803D01*
X009445Y015803D01*
X009442Y015809D01*
X009330Y015921D01*
X009395Y015856D02*
X013645Y015856D01*
X013803Y015698D02*
X012569Y015698D01*
X012727Y015539D02*
X013962Y015539D01*
X014120Y015381D02*
X012886Y015381D01*
X013044Y015222D02*
X014279Y015222D01*
X014437Y015064D02*
X013203Y015064D01*
X013361Y014905D02*
X014596Y014905D01*
X014754Y014747D02*
X013520Y014747D01*
X013678Y014588D02*
X014913Y014588D01*
X014154Y014113D02*
X019474Y014113D01*
X019632Y014271D02*
X013995Y014271D01*
X013837Y014430D02*
X015929Y014430D01*
X016321Y014430D02*
X019791Y014430D01*
X019949Y014588D02*
X016438Y014588D01*
X016460Y014747D02*
X020108Y014747D01*
X020266Y014905D02*
X016401Y014905D01*
X016456Y015064D02*
X020425Y015064D01*
X020583Y015222D02*
X016454Y015222D01*
X016359Y015381D02*
X020742Y015381D01*
X020900Y015539D02*
X014499Y015539D01*
X014657Y015381D02*
X015025Y015381D01*
X014963Y015222D02*
X014816Y015222D01*
X014974Y015064D02*
X014984Y015064D01*
X015571Y015381D02*
X015891Y015381D01*
X014340Y015698D02*
X021059Y015698D01*
X021217Y015856D02*
X014182Y015856D01*
X014023Y016015D02*
X021376Y016015D01*
X021534Y016173D02*
X013865Y016173D01*
X013706Y016332D02*
X021693Y016332D01*
X021851Y016490D02*
X013548Y016490D01*
X013389Y016649D02*
X023128Y016649D01*
X023361Y017124D02*
X024314Y017124D01*
X024471Y017124D02*
X027180Y017124D01*
X027240Y016966D02*
X024684Y016966D01*
X024728Y016807D02*
X027443Y016807D01*
X027242Y017600D02*
X034693Y017600D01*
X034485Y018392D02*
X035486Y018392D01*
X035687Y019026D02*
X030161Y019026D01*
X030150Y018868D02*
X034027Y018868D01*
X033979Y018709D02*
X030049Y018709D01*
X030074Y019185D02*
X031627Y019185D01*
X031804Y019185D02*
X035790Y019185D01*
X036417Y019026D02*
X036459Y019026D01*
X036444Y018868D02*
X036486Y018868D01*
X036460Y018709D02*
X036618Y018709D01*
X036387Y018551D02*
X039257Y018551D01*
X039099Y018709D02*
X036970Y018709D01*
X037102Y018868D02*
X038940Y018868D01*
X038782Y019026D02*
X037129Y019026D01*
X037080Y019185D02*
X038623Y019185D01*
X038465Y019343D02*
X037003Y019343D01*
X037206Y019502D02*
X038306Y019502D01*
X038148Y019660D02*
X037247Y019660D01*
X037213Y019819D02*
X037989Y019819D01*
X038210Y020136D02*
X048859Y020136D01*
X048859Y020294D02*
X037516Y020294D01*
X037519Y020453D02*
X048859Y020453D01*
X048859Y020611D02*
X037896Y020611D01*
X038013Y020770D02*
X048859Y020770D01*
X048859Y020928D02*
X048103Y020928D01*
X048074Y020899D02*
X048280Y021105D01*
X048391Y021373D01*
X048391Y021664D01*
X048280Y021932D01*
X048074Y022138D01*
X047806Y022249D01*
X047515Y022249D01*
X047246Y022138D01*
X047041Y021932D01*
X046930Y021664D01*
X046930Y021373D01*
X047041Y021105D01*
X047246Y020899D01*
X047515Y020788D01*
X047806Y020788D01*
X048074Y020899D01*
X048262Y021087D02*
X048859Y021087D01*
X048859Y021245D02*
X048338Y021245D01*
X048391Y021404D02*
X048859Y021404D01*
X048859Y021562D02*
X048391Y021562D01*
X048367Y021721D02*
X048859Y021721D01*
X048859Y021879D02*
X048302Y021879D01*
X048174Y022038D02*
X048859Y022038D01*
X048859Y022196D02*
X047933Y022196D01*
X048007Y022513D02*
X045660Y022513D01*
X045680Y022522D02*
X045791Y022633D01*
X045851Y022778D01*
X045851Y022936D01*
X045791Y023081D01*
X045680Y023193D01*
X045534Y023253D01*
X045377Y023253D01*
X045231Y023193D01*
X045120Y023081D01*
X045060Y022936D01*
X045060Y022778D01*
X045120Y022633D01*
X045231Y022522D01*
X045377Y022461D01*
X045534Y022461D01*
X045680Y022522D01*
X045807Y022672D02*
X047860Y022672D01*
X047876Y022633D02*
X047987Y022522D01*
X048133Y022461D01*
X048290Y022461D01*
X048436Y022522D01*
X048547Y022633D01*
X048607Y022778D01*
X048607Y022936D01*
X048547Y023081D01*
X048436Y023193D01*
X048290Y023253D01*
X048133Y023253D01*
X047987Y023193D01*
X047876Y023081D01*
X047816Y022936D01*
X047816Y022778D01*
X047876Y022633D01*
X047816Y022830D02*
X045851Y022830D01*
X045830Y022989D02*
X047837Y022989D01*
X047942Y023147D02*
X045725Y023147D01*
X045186Y023147D02*
X044724Y023147D01*
X044721Y023155D02*
X044677Y023231D01*
X044623Y023301D01*
X044561Y023364D01*
X044557Y023367D01*
X044597Y023367D01*
X044829Y023463D01*
X045007Y023641D01*
X045103Y023873D01*
X045103Y024125D01*
X045007Y024357D01*
X044829Y024535D01*
X044597Y024631D01*
X044346Y024631D01*
X044113Y024535D01*
X043935Y024357D01*
X043839Y024125D01*
X043839Y023873D01*
X043935Y023641D01*
X044113Y023463D01*
X044194Y023429D01*
X044194Y022935D01*
X044040Y022935D01*
X044040Y023525D01*
X043986Y023518D01*
X043900Y023495D01*
X043819Y023461D01*
X043743Y023417D01*
X043673Y023364D01*
X043611Y023301D01*
X043557Y023231D01*
X043513Y023155D01*
X043479Y023074D01*
X043456Y022989D01*
X036761Y022989D01*
X036846Y023073D02*
X036979Y023073D01*
X037102Y023124D01*
X037196Y023219D01*
X037247Y023342D01*
X037247Y023475D01*
X037196Y023598D01*
X037102Y023692D01*
X036979Y023743D01*
X036846Y023743D01*
X036723Y023692D01*
X036628Y023598D01*
X036577Y023475D01*
X036577Y023342D01*
X035731Y022496D01*
X033062Y022496D01*
X032968Y022590D01*
X032845Y022641D01*
X032752Y022641D01*
X033185Y023073D01*
X033318Y023073D01*
X033441Y023124D01*
X033535Y023219D01*
X033586Y023342D01*
X033586Y023475D01*
X033535Y023598D01*
X033441Y023692D01*
X033318Y023743D01*
X033184Y023743D01*
X033061Y023692D01*
X032967Y023598D01*
X032916Y023475D01*
X032916Y023342D01*
X032451Y022877D01*
X032318Y022877D01*
X032195Y022826D01*
X032101Y022732D01*
X032050Y022609D01*
X032050Y022476D01*
X032101Y022352D01*
X032195Y022258D01*
X032318Y022207D01*
X032451Y022207D01*
X032456Y022209D01*
X032494Y022116D01*
X032589Y022022D01*
X032712Y021971D01*
X032845Y021971D01*
X032968Y022022D01*
X033062Y022116D01*
X035889Y022116D01*
X036846Y023073D01*
X037125Y023147D02*
X043510Y023147D01*
X043456Y022989D02*
X043449Y022935D01*
X044040Y022935D01*
X044040Y022780D01*
X044194Y022780D01*
X044194Y022285D01*
X044113Y022251D01*
X043935Y022074D01*
X043839Y021841D01*
X043839Y021590D01*
X043935Y021357D01*
X044113Y021180D01*
X044346Y021083D01*
X044597Y021083D01*
X044829Y021180D01*
X045007Y021357D01*
X045103Y021590D01*
X045103Y021841D01*
X045007Y022074D01*
X044829Y022251D01*
X044597Y022348D01*
X044557Y022348D01*
X044561Y022351D01*
X044623Y022413D01*
X044677Y022483D01*
X044721Y022559D01*
X044755Y022641D01*
X044778Y022726D01*
X044785Y022780D01*
X044194Y022780D01*
X044194Y022935D01*
X044785Y022935D01*
X044778Y022989D01*
X045082Y022989D01*
X045060Y022830D02*
X044194Y022830D01*
X044040Y022830D02*
X036603Y022830D01*
X036444Y022672D02*
X043471Y022672D01*
X043479Y022641D02*
X043513Y022559D01*
X043557Y022483D01*
X043611Y022413D01*
X043673Y022351D01*
X043743Y022297D01*
X043819Y022253D01*
X043900Y022219D01*
X043986Y022197D01*
X044040Y022189D01*
X044040Y022780D01*
X043449Y022780D01*
X043456Y022726D01*
X043479Y022641D01*
X043539Y022513D02*
X036286Y022513D01*
X036127Y022355D02*
X043669Y022355D01*
X043988Y022196D02*
X035969Y022196D01*
X035748Y022513D02*
X033045Y022513D01*
X032783Y022672D02*
X035907Y022672D01*
X036065Y022830D02*
X032941Y022830D01*
X033100Y022989D02*
X036224Y022989D01*
X036382Y023147D02*
X033464Y023147D01*
X033571Y023306D02*
X036541Y023306D01*
X036577Y023464D02*
X033586Y023464D01*
X033510Y023623D02*
X036653Y023623D01*
X037172Y023623D02*
X043954Y023623D01*
X043877Y023781D02*
X028282Y023781D01*
X028141Y023781D02*
X026027Y023781D01*
X025949Y023940D02*
X043839Y023940D01*
X043839Y024098D02*
X015470Y024098D01*
X015464Y024085D02*
X015515Y024208D01*
X015515Y024341D01*
X017050Y025876D01*
X017050Y025783D01*
X017101Y025660D01*
X017195Y025565D01*
X017318Y025514D01*
X017451Y025514D01*
X017574Y025565D01*
X017629Y025620D01*
X025259Y025620D01*
X025416Y025620D01*
X027791Y027995D01*
X027924Y027995D01*
X028047Y028046D01*
X028141Y028140D01*
X028192Y028263D01*
X028192Y028396D01*
X028141Y028519D01*
X028047Y028614D01*
X027924Y028665D01*
X027791Y028665D01*
X027667Y028614D01*
X027573Y028519D01*
X027522Y028396D01*
X027522Y028263D01*
X026941Y027682D01*
X026921Y027732D01*
X026826Y027826D01*
X026703Y027877D01*
X026570Y027877D01*
X026447Y027826D01*
X026353Y027732D01*
X026302Y027609D01*
X026302Y027476D01*
X025522Y026696D01*
X025389Y026696D01*
X025266Y026645D01*
X025172Y026551D01*
X025121Y026428D01*
X025121Y026294D01*
X025172Y026171D01*
X025266Y026077D01*
X025315Y026057D01*
X025259Y026000D01*
X018640Y026000D01*
X018665Y026058D01*
X018665Y026192D01*
X018614Y026315D01*
X018519Y026409D01*
X018396Y026460D01*
X018263Y026460D01*
X018140Y026409D01*
X018085Y026354D01*
X017983Y026354D01*
X017889Y026448D01*
X017766Y026499D01*
X017673Y026499D01*
X017751Y026577D01*
X017884Y026577D01*
X018008Y026628D01*
X018102Y026723D01*
X018153Y026846D01*
X018153Y026979D01*
X018102Y027102D01*
X018008Y027196D01*
X017884Y027247D01*
X017751Y027247D01*
X017628Y027196D01*
X017534Y027102D01*
X017483Y026979D01*
X017483Y026846D01*
X015246Y024609D01*
X015113Y024609D01*
X014990Y024558D01*
X014896Y024464D01*
X014845Y024341D01*
X014845Y024208D01*
X014896Y024085D01*
X014990Y023990D01*
X015113Y023939D01*
X015247Y023939D01*
X015370Y023990D01*
X015464Y024085D01*
X015515Y024257D02*
X043894Y024257D01*
X043994Y024415D02*
X015589Y024415D01*
X015748Y024574D02*
X044207Y024574D01*
X044735Y024574D02*
X047026Y024574D01*
X047041Y024610D02*
X046930Y024341D01*
X046930Y024050D01*
X047041Y023782D01*
X047246Y023576D01*
X047515Y023465D01*
X047806Y023465D01*
X048074Y023576D01*
X048280Y023782D01*
X048391Y024050D01*
X048391Y024341D01*
X048280Y024610D01*
X048074Y024815D01*
X047806Y024926D01*
X047515Y024926D01*
X047246Y024815D01*
X047041Y024610D01*
X047164Y024732D02*
X015906Y024732D01*
X016065Y024891D02*
X047429Y024891D01*
X047891Y024891D02*
X048859Y024891D01*
X048859Y025049D02*
X016223Y025049D01*
X016382Y025208D02*
X048859Y025208D01*
X048859Y025366D02*
X016540Y025366D01*
X016699Y025525D02*
X017293Y025525D01*
X017477Y025525D02*
X048859Y025525D01*
X048859Y025683D02*
X025479Y025683D01*
X025638Y025842D02*
X048859Y025842D01*
X048859Y026000D02*
X025796Y026000D01*
X025955Y026159D02*
X048859Y026159D01*
X048859Y026317D02*
X047848Y026317D01*
X047806Y026300D02*
X048074Y026411D01*
X048280Y026617D01*
X048391Y026885D01*
X048391Y027176D01*
X048280Y027444D01*
X048074Y027650D01*
X047806Y027761D01*
X047515Y027761D01*
X047246Y027650D01*
X047041Y027444D01*
X046930Y027176D01*
X046930Y026885D01*
X047041Y026617D01*
X047246Y026411D01*
X047515Y026300D01*
X047806Y026300D01*
X047473Y026317D02*
X026114Y026317D01*
X026272Y026476D02*
X047182Y026476D01*
X047034Y026634D02*
X044692Y026634D01*
X044597Y026595D02*
X044829Y026691D01*
X045007Y026869D01*
X045103Y027102D01*
X045103Y027353D01*
X045007Y027585D01*
X047182Y027585D01*
X047034Y027427D02*
X045073Y027427D01*
X045103Y027268D02*
X046968Y027268D01*
X046930Y027110D02*
X045103Y027110D01*
X045041Y026951D02*
X046930Y026951D01*
X046968Y026793D02*
X044931Y026793D01*
X044597Y026595D02*
X044346Y026595D01*
X044113Y026691D01*
X043935Y026869D01*
X043839Y027102D01*
X043839Y027353D01*
X043935Y027585D01*
X027382Y027585D01*
X027540Y027744D02*
X043870Y027744D01*
X043900Y027731D02*
X043986Y027708D01*
X044040Y027701D01*
X044040Y028291D01*
X044194Y028291D01*
X044194Y027797D01*
X044113Y027763D01*
X043935Y027585D01*
X043900Y027731D02*
X043819Y027765D01*
X043743Y027809D01*
X043673Y027863D01*
X043611Y027925D01*
X043557Y027995D01*
X043513Y028071D01*
X043479Y028152D01*
X043456Y028238D01*
X043449Y028291D01*
X044040Y028291D01*
X044040Y028446D01*
X043449Y028446D01*
X043456Y028500D01*
X043479Y028585D01*
X043513Y028667D01*
X043557Y028743D01*
X043611Y028813D01*
X043673Y028875D01*
X043743Y028929D01*
X043819Y028973D01*
X043900Y029007D01*
X043986Y029030D01*
X044040Y029037D01*
X044040Y028446D01*
X044194Y028446D01*
X044194Y028941D01*
X044113Y028975D01*
X043935Y029153D01*
X043839Y029385D01*
X043839Y029636D01*
X043935Y029869D01*
X044113Y030047D01*
X044346Y030143D01*
X044597Y030143D01*
X044829Y030047D01*
X045007Y029869D01*
X045103Y029636D01*
X045103Y029385D01*
X045007Y029153D01*
X044829Y028975D01*
X044597Y028879D01*
X044557Y028879D01*
X044561Y028875D01*
X044623Y028813D01*
X044677Y028743D01*
X044721Y028667D01*
X044755Y028585D01*
X044778Y028500D01*
X044785Y028446D01*
X044194Y028446D01*
X044194Y028291D01*
X044785Y028291D01*
X044778Y028238D01*
X044755Y028152D01*
X044721Y028071D01*
X044677Y027995D01*
X044623Y027925D01*
X044561Y027863D01*
X044557Y027859D01*
X044597Y027859D01*
X044829Y027763D01*
X045007Y027585D01*
X044849Y027744D02*
X047473Y027744D01*
X047847Y027744D02*
X048859Y027744D01*
X048859Y027902D02*
X044601Y027902D01*
X044715Y028061D02*
X045204Y028061D01*
X045231Y028033D02*
X045377Y027973D01*
X045534Y027973D01*
X045680Y028033D01*
X045791Y028145D01*
X045851Y028290D01*
X045851Y028448D01*
X045791Y028593D01*
X045680Y028705D01*
X045534Y028765D01*
X045377Y028765D01*
X045231Y028705D01*
X045120Y028593D01*
X045060Y028448D01*
X045060Y028290D01*
X045120Y028145D01*
X045231Y028033D01*
X045089Y028219D02*
X044773Y028219D01*
X044768Y028536D02*
X045096Y028536D01*
X045060Y028378D02*
X044194Y028378D01*
X044040Y028378D02*
X028192Y028378D01*
X028174Y028219D02*
X043461Y028219D01*
X043519Y028061D02*
X028062Y028061D01*
X027699Y027902D02*
X043633Y027902D01*
X044040Y027902D02*
X044194Y027902D01*
X044194Y028061D02*
X044040Y028061D01*
X044040Y028219D02*
X044194Y028219D01*
X044194Y028536D02*
X044040Y028536D01*
X044040Y028695D02*
X044194Y028695D01*
X044194Y028853D02*
X044040Y028853D01*
X044040Y029012D02*
X044076Y029012D01*
X043919Y029012D02*
X033328Y029012D01*
X033314Y028998D02*
X033520Y029203D01*
X033631Y029472D01*
X033631Y029762D01*
X033520Y030031D01*
X033314Y030236D01*
X033046Y030348D01*
X032755Y030348D01*
X032487Y030236D01*
X032281Y030031D01*
X032170Y029762D01*
X032170Y029472D01*
X032281Y029203D01*
X032487Y028998D01*
X032755Y028886D01*
X033046Y028886D01*
X033314Y028998D01*
X033487Y029170D02*
X040251Y029170D01*
X040266Y029155D02*
X040535Y029044D01*
X040825Y029044D01*
X041094Y029155D01*
X041299Y029361D01*
X041411Y029629D01*
X041411Y029920D01*
X041299Y030188D01*
X041094Y030394D01*
X040825Y030505D01*
X040535Y030505D01*
X040266Y030394D01*
X040061Y030188D01*
X039949Y029920D01*
X039949Y029629D01*
X040061Y029361D01*
X040266Y029155D01*
X040093Y029329D02*
X033572Y029329D01*
X033631Y029487D02*
X040008Y029487D01*
X039949Y029646D02*
X033631Y029646D01*
X033614Y029804D02*
X039949Y029804D01*
X039967Y029963D02*
X033548Y029963D01*
X033429Y030121D02*
X040033Y030121D01*
X040152Y030280D02*
X033209Y030280D01*
X032591Y030280D02*
X014774Y030280D01*
X014777Y030438D02*
X036574Y030438D01*
X036604Y030408D02*
X036510Y030502D01*
X036459Y030625D01*
X036459Y030758D01*
X036510Y030882D01*
X036604Y030976D01*
X036728Y031027D01*
X036861Y031027D01*
X036984Y030976D01*
X037077Y030883D01*
X037908Y030885D01*
X037908Y030886D01*
X038002Y030980D01*
X038125Y031031D01*
X038258Y031031D01*
X038382Y030980D01*
X038476Y030886D01*
X038527Y030762D01*
X038527Y030629D01*
X038476Y030506D01*
X038382Y030412D01*
X038258Y030361D01*
X038125Y030361D01*
X038002Y030412D01*
X037909Y030505D01*
X037078Y030503D01*
X037078Y030502D01*
X036984Y030408D01*
X036861Y030357D01*
X036728Y030357D01*
X036604Y030408D01*
X036471Y030597D02*
X014780Y030597D01*
X014779Y030572D02*
X014781Y030649D01*
X014779Y030651D01*
X014779Y030652D01*
X014725Y030707D01*
X014671Y030762D01*
X014669Y030762D01*
X014668Y030764D01*
X014591Y030764D01*
X014514Y030765D01*
X014513Y030764D01*
X012026Y030764D01*
X011972Y030895D01*
X011816Y031051D01*
X011613Y031135D01*
X011393Y031135D01*
X011189Y031051D01*
X011034Y030895D01*
X010949Y030692D01*
X010949Y030471D01*
X011034Y030268D01*
X011189Y030112D01*
X011393Y030028D01*
X011613Y030028D01*
X011816Y030112D01*
X011972Y030268D01*
X012020Y030384D01*
X014396Y030384D01*
X014365Y028537D01*
X014360Y028535D01*
X014266Y028441D01*
X014215Y028318D01*
X014215Y028184D01*
X014266Y028061D01*
X014360Y027967D01*
X014483Y027916D01*
X014617Y027916D01*
X014740Y027967D01*
X014834Y028061D01*
X014885Y028184D01*
X014885Y028318D01*
X014834Y028441D01*
X014745Y028530D01*
X014778Y030494D01*
X014779Y030495D01*
X014779Y030572D01*
X014678Y030755D02*
X036459Y030755D01*
X036542Y030914D02*
X011953Y030914D01*
X011764Y031072D02*
X048859Y031072D01*
X048859Y030914D02*
X038448Y030914D01*
X038527Y030755D02*
X048859Y030755D01*
X048859Y030597D02*
X038513Y030597D01*
X038408Y030438D02*
X040373Y030438D01*
X040987Y030438D02*
X048859Y030438D01*
X048859Y030280D02*
X048121Y030280D01*
X048074Y030327D02*
X047806Y030438D01*
X047515Y030438D01*
X047246Y030327D01*
X047041Y030121D01*
X044649Y030121D01*
X044913Y029963D02*
X046975Y029963D01*
X046930Y029853D02*
X046930Y029562D01*
X047041Y029294D01*
X047246Y029088D01*
X047515Y028977D01*
X047806Y028977D01*
X048074Y029088D01*
X048280Y029294D01*
X048391Y029562D01*
X048391Y029853D01*
X048280Y030121D01*
X048859Y030121D01*
X048859Y029963D02*
X048345Y029963D01*
X048391Y029804D02*
X048859Y029804D01*
X048859Y029646D02*
X048391Y029646D01*
X048360Y029487D02*
X048859Y029487D01*
X048859Y029329D02*
X048294Y029329D01*
X048156Y029170D02*
X048859Y029170D01*
X048859Y029012D02*
X047889Y029012D01*
X047987Y028705D02*
X047876Y028593D01*
X047816Y028448D01*
X047816Y028290D01*
X047876Y028145D01*
X047987Y028033D01*
X048133Y027973D01*
X048290Y027973D01*
X048436Y028033D01*
X048547Y028145D01*
X048607Y028290D01*
X048607Y028448D01*
X048547Y028593D01*
X048436Y028705D01*
X048290Y028765D01*
X048133Y028765D01*
X047987Y028705D01*
X047977Y028695D02*
X045690Y028695D01*
X045815Y028536D02*
X047852Y028536D01*
X047816Y028378D02*
X045851Y028378D01*
X045822Y028219D02*
X047845Y028219D01*
X047960Y028061D02*
X045707Y028061D01*
X045221Y028695D02*
X044705Y028695D01*
X044583Y028853D02*
X048859Y028853D01*
X048859Y028695D02*
X048446Y028695D01*
X048571Y028536D02*
X048859Y028536D01*
X048859Y028378D02*
X048607Y028378D01*
X048578Y028219D02*
X048859Y028219D01*
X048859Y028061D02*
X048463Y028061D01*
X048139Y027585D02*
X048859Y027585D01*
X048859Y027427D02*
X048287Y027427D01*
X048353Y027268D02*
X048859Y027268D01*
X048859Y027110D02*
X048391Y027110D01*
X048391Y026951D02*
X048859Y026951D01*
X048859Y026793D02*
X048353Y026793D01*
X048287Y026634D02*
X048859Y026634D01*
X048859Y026476D02*
X048139Y026476D01*
X048157Y024732D02*
X048859Y024732D01*
X048859Y024574D02*
X048294Y024574D01*
X048360Y024415D02*
X048859Y024415D01*
X048859Y024257D02*
X048391Y024257D01*
X048391Y024098D02*
X048859Y024098D01*
X048859Y023940D02*
X048345Y023940D01*
X048279Y023781D02*
X048859Y023781D01*
X048859Y023623D02*
X048120Y023623D01*
X048481Y023147D02*
X048859Y023147D01*
X048859Y022989D02*
X048586Y022989D01*
X048607Y022830D02*
X048859Y022830D01*
X048859Y022672D02*
X048563Y022672D01*
X048416Y022513D02*
X048859Y022513D01*
X048859Y022355D02*
X044565Y022355D01*
X044695Y022513D02*
X045251Y022513D01*
X045104Y022672D02*
X044763Y022672D01*
X044778Y022989D02*
X044755Y023074D01*
X044721Y023155D01*
X044619Y023306D02*
X048859Y023306D01*
X048859Y023464D02*
X044831Y023464D01*
X044989Y023623D02*
X047200Y023623D01*
X047042Y023781D02*
X045065Y023781D01*
X045103Y023940D02*
X046976Y023940D01*
X046930Y024098D02*
X045103Y024098D01*
X045049Y024257D02*
X046930Y024257D01*
X046960Y024415D02*
X044949Y024415D01*
X044112Y023464D02*
X044040Y023464D01*
X044040Y023306D02*
X044194Y023306D01*
X044194Y023147D02*
X044040Y023147D01*
X044040Y022989D02*
X044194Y022989D01*
X044194Y022672D02*
X044040Y022672D01*
X044040Y022513D02*
X044194Y022513D01*
X044194Y022355D02*
X044040Y022355D01*
X044040Y022196D02*
X044058Y022196D01*
X043921Y022038D02*
X032984Y022038D01*
X032971Y021721D02*
X036562Y021721D01*
X037026Y021721D02*
X043839Y021721D01*
X043855Y021879D02*
X031269Y021879D01*
X031428Y021721D02*
X032586Y021721D01*
X032467Y021562D02*
X031586Y021562D01*
X031745Y021404D02*
X032443Y021404D01*
X032499Y021245D02*
X031903Y021245D01*
X032062Y021087D02*
X032465Y021087D01*
X032443Y020928D02*
X032220Y020928D01*
X032379Y020770D02*
X032502Y020770D01*
X032158Y020453D02*
X028398Y020453D01*
X028490Y020294D02*
X032317Y020294D01*
X032475Y020136D02*
X028503Y020136D01*
X028488Y019977D02*
X028451Y019977D01*
X028349Y019502D02*
X031380Y019502D01*
X031422Y019343D02*
X029711Y019343D01*
X029066Y020829D02*
X029189Y020880D01*
X029283Y020974D01*
X029334Y021098D01*
X029334Y021231D01*
X029283Y021354D01*
X029189Y021448D01*
X029066Y021499D01*
X028933Y021499D01*
X028515Y021917D01*
X028480Y021967D01*
X028461Y021971D01*
X028448Y021984D01*
X028386Y021984D01*
X027725Y022102D01*
X027704Y022153D01*
X027610Y022247D01*
X027487Y022298D01*
X027354Y022298D01*
X027230Y022247D01*
X027136Y022153D01*
X027085Y022030D01*
X027085Y021897D01*
X027136Y021774D01*
X027230Y021679D01*
X027354Y021628D01*
X027487Y021628D01*
X027610Y021679D01*
X027658Y021728D01*
X028277Y021618D01*
X028664Y021231D01*
X028664Y021098D01*
X028715Y020974D01*
X028809Y020880D01*
X028932Y020829D01*
X029066Y020829D01*
X029237Y020928D02*
X031683Y020928D01*
X031841Y020770D02*
X025353Y020770D01*
X025372Y020611D02*
X032000Y020611D01*
X031524Y021087D02*
X029329Y021087D01*
X029328Y021245D02*
X031366Y021245D01*
X031207Y021404D02*
X029233Y021404D01*
X028870Y021562D02*
X031049Y021562D01*
X030890Y021721D02*
X028711Y021721D01*
X028553Y021879D02*
X030732Y021879D01*
X030952Y022196D02*
X032461Y022196D01*
X032573Y022038D02*
X031111Y022038D01*
X032100Y022355D02*
X029246Y022355D01*
X029356Y022513D02*
X032050Y022513D01*
X032076Y022672D02*
X029373Y022672D01*
X029303Y022830D02*
X032205Y022830D01*
X032563Y022989D02*
X028939Y022989D01*
X028781Y023147D02*
X032721Y023147D01*
X032880Y023306D02*
X028622Y023306D01*
X028546Y023464D02*
X032916Y023464D01*
X032991Y023623D02*
X028502Y023623D01*
X027921Y023623D02*
X026298Y023623D01*
X026603Y023464D02*
X027876Y023464D01*
X027908Y023306D02*
X026909Y023306D01*
X027214Y023147D02*
X028062Y023147D01*
X028402Y022989D02*
X027520Y022989D01*
X027825Y022830D02*
X028560Y022830D01*
X028703Y022672D02*
X028130Y022672D01*
X028436Y022513D02*
X028720Y022513D01*
X028741Y022355D02*
X028831Y022355D01*
X028527Y022038D02*
X028086Y022038D01*
X028222Y022196D02*
X027661Y022196D01*
X027916Y022355D02*
X023038Y022355D01*
X022879Y022513D02*
X027611Y022513D01*
X027306Y022672D02*
X022721Y022672D01*
X022653Y022739D02*
X023224Y022169D01*
X023357Y022169D01*
X023480Y022118D01*
X023574Y022023D01*
X023625Y021900D01*
X023625Y021767D01*
X023574Y021644D01*
X023480Y021550D01*
X023357Y021499D01*
X023224Y021499D01*
X023100Y021550D01*
X023006Y021644D01*
X022955Y021767D01*
X022955Y021900D01*
X022385Y022470D01*
X019440Y022470D01*
X019346Y022376D01*
X019223Y022325D01*
X019090Y022325D01*
X018967Y022376D01*
X018872Y022471D01*
X018821Y022594D01*
X018821Y022727D01*
X018872Y022850D01*
X018967Y022944D01*
X019090Y022995D01*
X019223Y022995D01*
X019346Y022944D01*
X019440Y022850D01*
X022542Y022850D01*
X022653Y022739D01*
X022562Y022830D02*
X027000Y022830D01*
X026695Y022989D02*
X019239Y022989D01*
X019074Y022989D02*
X012785Y022989D01*
X012943Y023147D02*
X026389Y023147D01*
X026084Y023306D02*
X013102Y023306D01*
X013260Y023464D02*
X025477Y023464D01*
X025371Y023623D02*
X013419Y023623D01*
X013577Y023781D02*
X025357Y023781D01*
X025434Y023940D02*
X015247Y023940D01*
X015113Y023940D02*
X013736Y023940D01*
X013894Y024098D02*
X014890Y024098D01*
X014845Y024257D02*
X014258Y024257D01*
X014361Y024415D02*
X014876Y024415D01*
X015027Y024574D02*
X014373Y024574D01*
X014290Y024732D02*
X015369Y024732D01*
X015528Y024891D02*
X013676Y024891D01*
X013674Y025049D02*
X015686Y025049D01*
X015845Y025208D02*
X013673Y025208D01*
X013671Y025366D02*
X016003Y025366D01*
X016162Y025525D02*
X013670Y025525D01*
X013668Y025683D02*
X016320Y025683D01*
X016479Y025842D02*
X013667Y025842D01*
X013665Y026000D02*
X016637Y026000D01*
X016796Y026159D02*
X015239Y026159D01*
X015240Y026160D02*
X015291Y026283D01*
X015291Y026416D01*
X015279Y026445D01*
X017475Y029136D01*
X017569Y029136D01*
X017693Y029187D01*
X017787Y029282D01*
X017838Y029405D01*
X017838Y029538D01*
X017787Y029661D01*
X017693Y029755D01*
X017569Y029806D01*
X017436Y029806D01*
X017313Y029755D01*
X017219Y029661D01*
X017168Y029538D01*
X017168Y029405D01*
X017180Y029376D01*
X014984Y026684D01*
X014889Y026684D01*
X014766Y026633D01*
X014672Y026539D01*
X014621Y026416D01*
X014621Y026283D01*
X014672Y026160D01*
X014766Y026065D01*
X014889Y026014D01*
X015022Y026014D01*
X015145Y026065D01*
X015240Y026160D01*
X015291Y026317D02*
X016954Y026317D01*
X017113Y026476D02*
X015304Y026476D01*
X015433Y026634D02*
X017271Y026634D01*
X017430Y026793D02*
X015563Y026793D01*
X015692Y026951D02*
X017483Y026951D01*
X017541Y027110D02*
X015821Y027110D01*
X015951Y027268D02*
X022347Y027268D01*
X022325Y027215D02*
X022376Y027338D01*
X022471Y027433D01*
X022594Y027484D01*
X022727Y027484D01*
X022850Y027433D01*
X022944Y027338D01*
X022995Y027215D01*
X022995Y027082D01*
X022944Y026959D01*
X022850Y026865D01*
X022850Y026802D01*
X022944Y026708D01*
X022995Y026585D01*
X022995Y026452D01*
X022944Y026329D01*
X022850Y026235D01*
X022727Y026184D01*
X022594Y026184D01*
X022471Y026235D01*
X022376Y026329D01*
X022325Y026452D01*
X022325Y026585D01*
X022376Y026708D01*
X022470Y026802D01*
X022470Y026865D01*
X022376Y026959D01*
X022325Y027082D01*
X022325Y027215D01*
X022325Y027110D02*
X018094Y027110D01*
X018153Y026951D02*
X022384Y026951D01*
X022461Y026793D02*
X018131Y026793D01*
X018014Y026634D02*
X022346Y026634D01*
X022325Y026476D02*
X017823Y026476D01*
X018611Y026317D02*
X022388Y026317D01*
X022933Y026317D02*
X025121Y026317D01*
X025140Y026476D02*
X022995Y026476D01*
X022975Y026634D02*
X025255Y026634D01*
X025619Y026793D02*
X022860Y026793D01*
X022937Y026951D02*
X025777Y026951D01*
X025936Y027110D02*
X022995Y027110D01*
X022973Y027268D02*
X026094Y027268D01*
X026253Y027427D02*
X022856Y027427D01*
X022465Y027427D02*
X016080Y027427D01*
X016209Y027585D02*
X026302Y027585D01*
X026364Y027744D02*
X016339Y027744D01*
X016468Y027902D02*
X027161Y027902D01*
X027003Y027744D02*
X026909Y027744D01*
X027223Y027427D02*
X043870Y027427D01*
X043839Y027268D02*
X027065Y027268D01*
X026906Y027110D02*
X043839Y027110D01*
X043901Y026951D02*
X026748Y026951D01*
X026589Y026793D02*
X044012Y026793D01*
X044251Y026634D02*
X026431Y026634D01*
X025259Y026000D02*
X018641Y026000D01*
X018665Y026159D02*
X025184Y026159D01*
X027320Y028061D02*
X016597Y028061D01*
X016726Y028219D02*
X027478Y028219D01*
X027522Y028378D02*
X016856Y028378D01*
X016985Y028536D02*
X027590Y028536D01*
X028124Y028536D02*
X029140Y028536D01*
X029089Y028557D02*
X029212Y028506D01*
X029345Y028506D01*
X029468Y028557D01*
X029562Y028652D01*
X029613Y028775D01*
X029613Y028908D01*
X029562Y029031D01*
X029468Y029125D01*
X029345Y029176D01*
X029212Y029176D01*
X029089Y029125D01*
X028995Y029031D01*
X028841Y029031D01*
X028468Y029405D01*
X028468Y029538D01*
X028417Y029661D01*
X028323Y029755D01*
X028199Y029806D01*
X028066Y029806D01*
X027943Y029755D01*
X027849Y029661D01*
X027798Y029538D01*
X027798Y029405D01*
X027849Y029282D01*
X027943Y029187D01*
X028066Y029136D01*
X028199Y029136D01*
X028573Y028763D01*
X028573Y028763D01*
X028684Y028651D01*
X028995Y028651D01*
X029089Y028557D01*
X029417Y028536D02*
X043466Y028536D01*
X043529Y028695D02*
X029580Y028695D01*
X029613Y028853D02*
X043651Y028853D01*
X043928Y029170D02*
X041109Y029170D01*
X041267Y029329D02*
X043863Y029329D01*
X043839Y029487D02*
X041352Y029487D01*
X041411Y029646D02*
X043843Y029646D01*
X043909Y029804D02*
X041411Y029804D01*
X041393Y029963D02*
X044029Y029963D01*
X044293Y030121D02*
X041327Y030121D01*
X041208Y030280D02*
X047199Y030280D01*
X047041Y030121D02*
X046930Y029853D01*
X046930Y029804D02*
X045034Y029804D01*
X045100Y029646D02*
X046930Y029646D01*
X046961Y029487D02*
X045103Y029487D01*
X045080Y029329D02*
X047026Y029329D01*
X047164Y029170D02*
X045015Y029170D01*
X044866Y029012D02*
X047431Y029012D01*
X048280Y030121D02*
X048074Y030327D01*
X048859Y031231D02*
X041461Y031231D01*
X041448Y031218D02*
X041587Y031357D01*
X041663Y031538D01*
X041663Y031735D01*
X041587Y031917D01*
X041448Y032056D01*
X041267Y032131D01*
X041070Y032131D01*
X040888Y032056D01*
X040749Y031917D01*
X040696Y031789D01*
X040679Y031842D01*
X040641Y031917D01*
X040592Y031985D01*
X040532Y032044D01*
X040464Y032094D01*
X040389Y032132D01*
X040309Y032158D01*
X040226Y032171D01*
X040202Y032171D01*
X040202Y031655D01*
X040166Y031655D01*
X040166Y032171D01*
X040142Y032171D01*
X040059Y032158D01*
X039979Y032132D01*
X039904Y032094D01*
X039836Y032044D01*
X039776Y031985D01*
X039727Y031917D01*
X039689Y031842D01*
X039663Y031762D01*
X039650Y031679D01*
X039650Y031655D01*
X040166Y031655D01*
X040166Y031618D01*
X040202Y031618D01*
X040202Y031102D01*
X040226Y031102D01*
X040309Y031116D01*
X040389Y031142D01*
X040464Y031180D01*
X040532Y031229D01*
X040592Y031289D01*
X040641Y031357D01*
X040679Y031432D01*
X040696Y031484D01*
X040749Y031357D01*
X040888Y031218D01*
X041070Y031142D01*
X041267Y031142D01*
X041448Y031218D01*
X041601Y031389D02*
X048859Y031389D01*
X048859Y031548D02*
X041663Y031548D01*
X041663Y031706D02*
X048859Y031706D01*
X048859Y031865D02*
X041609Y031865D01*
X041481Y032023D02*
X048859Y032023D01*
X048859Y032182D02*
X035086Y032182D01*
X035084Y032187D02*
X035042Y032271D01*
X034987Y032346D01*
X034921Y032412D01*
X034845Y032467D01*
X034762Y032509D01*
X034673Y032538D01*
X034592Y032551D01*
X034592Y032017D01*
X035126Y032017D01*
X035113Y032098D01*
X035084Y032187D01*
X035125Y032023D02*
X039815Y032023D01*
X039700Y031865D02*
X035120Y031865D01*
X035126Y031902D02*
X034592Y031902D01*
X034592Y032017D01*
X034477Y032017D01*
X034477Y032551D01*
X034395Y032538D01*
X034307Y032509D01*
X034223Y032467D01*
X034148Y032412D01*
X034082Y032346D01*
X034027Y032271D01*
X033984Y032187D01*
X033956Y032098D01*
X033943Y032017D01*
X034477Y032017D01*
X034477Y031902D01*
X034592Y031902D01*
X034592Y031368D01*
X034673Y031381D01*
X034762Y031410D01*
X034845Y031452D01*
X034921Y031507D01*
X034987Y031573D01*
X035042Y031649D01*
X035084Y031732D01*
X035113Y031821D01*
X035126Y031902D01*
X035071Y031706D02*
X039654Y031706D01*
X039650Y031618D02*
X039650Y031595D01*
X039663Y031512D01*
X039689Y031432D01*
X039727Y031357D01*
X039776Y031289D01*
X039836Y031229D01*
X039904Y031180D01*
X039979Y031142D01*
X040059Y031116D01*
X040142Y031102D01*
X040166Y031102D01*
X040166Y031618D01*
X039650Y031618D01*
X039657Y031548D02*
X034962Y031548D01*
X034699Y031389D02*
X039710Y031389D01*
X039834Y031231D02*
X007634Y031231D01*
X007629Y031238D02*
X007619Y031239D01*
X007617Y031241D01*
X007616Y031251D01*
X007587Y031271D01*
X007563Y031295D01*
X007553Y031295D01*
X007551Y031297D01*
X007547Y031306D01*
X007516Y031321D01*
X007488Y031341D01*
X007478Y031339D01*
X007476Y031340D01*
X007470Y031349D01*
X007437Y031358D01*
X007406Y031372D01*
X007396Y031369D01*
X007394Y031369D01*
X007387Y031377D01*
X007353Y031380D01*
X007320Y031389D01*
X007311Y031384D01*
X007309Y031384D01*
X007301Y031391D01*
X007267Y031388D01*
X007232Y031391D01*
X007224Y031384D01*
X007222Y031384D01*
X007213Y031389D01*
X007180Y031380D01*
X007146Y031377D01*
X007139Y031369D01*
X007137Y031369D01*
X007127Y031372D01*
X007096Y031358D01*
X007063Y031349D01*
X007058Y031340D01*
X007055Y031339D01*
X007045Y031341D01*
X007017Y031321D01*
X006986Y031306D01*
X006982Y031297D01*
X006980Y031295D01*
X006970Y031295D01*
X006946Y031271D01*
X006918Y031251D01*
X006916Y031241D01*
X006914Y031239D01*
X006904Y031238D01*
X006884Y031209D01*
X006860Y031185D01*
X006860Y031175D01*
X006859Y031173D01*
X006849Y031169D01*
X006834Y031138D01*
X006815Y031110D01*
X006817Y031100D01*
X006815Y031098D01*
X006806Y031092D01*
X006798Y031059D01*
X006783Y031028D01*
X006787Y031019D01*
X006786Y031016D01*
X006778Y031010D01*
X006775Y030975D01*
X006766Y030942D01*
X006771Y030933D01*
X006771Y030931D01*
X006765Y030923D01*
X006768Y030889D01*
X006765Y030854D01*
X006771Y030847D01*
X006771Y030844D01*
X006766Y030835D01*
X006775Y030802D01*
X006778Y030768D01*
X006786Y030761D01*
X006787Y030759D01*
X006783Y030749D01*
X006798Y030718D01*
X006806Y030685D01*
X006815Y030680D01*
X006817Y030677D01*
X006815Y030667D01*
X006834Y030639D01*
X006849Y030608D01*
X006859Y030604D01*
X006860Y030602D01*
X006860Y030592D01*
X006884Y030568D01*
X006904Y030540D01*
X006914Y030538D01*
X006916Y030536D01*
X006918Y030526D01*
X006946Y030506D01*
X006970Y030482D01*
X006980Y030482D01*
X006982Y030481D01*
X006986Y030471D01*
X007017Y030456D01*
X007045Y030437D01*
X007055Y030439D01*
X007058Y030438D01*
X007063Y030429D01*
X007096Y030420D01*
X007127Y030405D01*
X007137Y030409D01*
X007139Y030408D01*
X007146Y030400D01*
X007180Y030397D01*
X007213Y030388D01*
X007222Y030393D01*
X007224Y030393D01*
X007232Y030387D01*
X007267Y030390D01*
X007301Y030387D01*
X007309Y030393D01*
X007311Y030393D01*
X007320Y030388D01*
X007353Y030397D01*
X007387Y030400D01*
X007394Y030408D01*
X007396Y030409D01*
X007406Y030405D01*
X007437Y030420D01*
X007470Y030429D01*
X007476Y030438D01*
X007478Y030439D01*
X007488Y030437D01*
X007516Y030456D01*
X007547Y030471D01*
X007551Y030481D01*
X007553Y030482D01*
X007563Y030482D01*
X007587Y030506D01*
X007616Y030526D01*
X007617Y030536D01*
X007619Y030538D01*
X007629Y030540D01*
X007649Y030568D01*
X007673Y030592D01*
X007673Y030602D01*
X007675Y030604D01*
X007684Y030608D01*
X007699Y030639D01*
X007719Y030667D01*
X007717Y030677D01*
X007718Y030680D01*
X007727Y030685D01*
X007736Y030718D01*
X007750Y030749D01*
X007747Y030759D01*
X007747Y030761D01*
X007755Y030768D01*
X007758Y030802D01*
X007767Y030835D01*
X007762Y030844D01*
X007762Y030847D01*
X007769Y030854D01*
X007766Y030889D01*
X007769Y030923D01*
X007762Y030931D01*
X007762Y030933D01*
X007767Y030942D01*
X007758Y030975D01*
X007755Y031010D01*
X007747Y031016D01*
X007747Y031019D01*
X007750Y031028D01*
X007736Y031059D01*
X007727Y031092D01*
X007718Y031098D01*
X007717Y031100D01*
X007719Y031110D01*
X007699Y031138D01*
X007684Y031169D01*
X007675Y031173D01*
X007673Y031175D01*
X007673Y031185D01*
X007649Y031209D01*
X007629Y031238D01*
X007732Y031072D02*
X011241Y031072D01*
X011052Y030914D02*
X007768Y030914D01*
X007748Y030755D02*
X010976Y030755D01*
X010949Y030597D02*
X007673Y030597D01*
X007490Y030438D02*
X010963Y030438D01*
X011029Y030280D02*
X003863Y030280D01*
X003863Y030438D02*
X007043Y030438D01*
X007054Y030438D02*
X007056Y030438D01*
X006860Y030597D02*
X003863Y030597D01*
X003863Y030755D02*
X006785Y030755D01*
X006765Y030914D02*
X003863Y030914D01*
X003863Y031072D02*
X006801Y031072D01*
X006899Y031231D02*
X003863Y031231D01*
X003863Y031389D02*
X007231Y031389D01*
X007250Y031389D02*
X007284Y031389D01*
X007303Y031389D02*
X034369Y031389D01*
X034395Y031381D02*
X034477Y031368D01*
X034477Y031902D01*
X033943Y031902D01*
X033956Y031821D01*
X033984Y031732D01*
X034027Y031649D01*
X034082Y031573D01*
X034148Y031507D01*
X034223Y031452D01*
X034307Y031410D01*
X034395Y031381D01*
X034477Y031389D02*
X034592Y031389D01*
X034592Y031548D02*
X034477Y031548D01*
X034477Y031706D02*
X034592Y031706D01*
X034592Y031865D02*
X034477Y031865D01*
X034477Y032023D02*
X034592Y032023D01*
X034592Y032182D02*
X034477Y032182D01*
X034477Y032340D02*
X034592Y032340D01*
X034592Y032499D02*
X034477Y032499D01*
X034286Y032499D02*
X033036Y032499D01*
X033047Y032510D02*
X033159Y032779D01*
X033159Y033069D01*
X033047Y033338D01*
X032842Y033543D01*
X032573Y033655D01*
X032283Y033655D01*
X032014Y033543D01*
X031809Y033338D01*
X031697Y033069D01*
X031697Y032779D01*
X031809Y032510D01*
X032014Y032305D01*
X032283Y032194D01*
X032573Y032194D01*
X032842Y032305D01*
X033047Y032510D01*
X033108Y032657D02*
X048804Y032657D01*
X048859Y032499D02*
X034783Y032499D01*
X034991Y032340D02*
X048859Y032340D01*
X048645Y032816D02*
X033159Y032816D01*
X033159Y032974D02*
X048487Y032974D01*
X048328Y033133D02*
X033132Y033133D01*
X033067Y033291D02*
X048170Y033291D01*
X048011Y033450D02*
X032936Y033450D01*
X032685Y033608D02*
X047853Y033608D01*
X047694Y033767D02*
X005028Y033767D01*
X004869Y033608D02*
X013352Y033608D01*
X013464Y033655D02*
X013195Y033543D01*
X012990Y033338D01*
X012879Y033069D01*
X012879Y032779D01*
X012990Y032510D01*
X013195Y032305D01*
X013464Y032194D01*
X013754Y032194D01*
X014023Y032305D01*
X014228Y032510D01*
X014340Y032779D01*
X014340Y033069D01*
X014228Y033338D01*
X014023Y033543D01*
X013754Y033655D01*
X013464Y033655D01*
X013866Y033608D02*
X032171Y033608D01*
X031921Y033450D02*
X014117Y033450D01*
X014248Y033291D02*
X031789Y033291D01*
X031724Y033133D02*
X014313Y033133D01*
X014340Y032974D02*
X031697Y032974D01*
X031697Y032816D02*
X014340Y032816D01*
X014289Y032657D02*
X031748Y032657D01*
X031820Y032499D02*
X014217Y032499D01*
X014058Y032340D02*
X031979Y032340D01*
X032877Y032340D02*
X034077Y032340D01*
X033983Y032182D02*
X012010Y032182D01*
X011972Y032273D02*
X012056Y032070D01*
X012056Y031849D01*
X011972Y031646D01*
X011816Y031490D01*
X011613Y031406D01*
X011393Y031406D01*
X011189Y031490D01*
X011034Y031646D01*
X010949Y031849D01*
X010949Y032070D01*
X011034Y032273D01*
X011189Y032429D01*
X011393Y032513D01*
X011613Y032513D01*
X011816Y032429D01*
X011972Y032273D01*
X011905Y032340D02*
X013160Y032340D01*
X013001Y032499D02*
X011647Y032499D01*
X011359Y032499D02*
X003863Y032499D01*
X003863Y032340D02*
X011101Y032340D01*
X010996Y032182D02*
X003863Y032182D01*
X003863Y032023D02*
X010949Y032023D01*
X010949Y031865D02*
X003863Y031865D01*
X003863Y031706D02*
X011009Y031706D01*
X011132Y031548D02*
X003863Y031548D01*
X003918Y032657D02*
X012929Y032657D01*
X012879Y032816D02*
X004077Y032816D01*
X004235Y032974D02*
X012879Y032974D01*
X012905Y033133D02*
X004394Y033133D01*
X004552Y033291D02*
X012970Y033291D01*
X013102Y033450D02*
X004711Y033450D01*
X007477Y030438D02*
X007480Y030438D01*
X008691Y029012D02*
X003863Y029012D01*
X003863Y029170D02*
X012550Y029170D01*
X012465Y029329D02*
X003863Y029329D01*
X003863Y029487D02*
X012406Y029487D01*
X012406Y029646D02*
X003863Y029646D01*
X003863Y029804D02*
X012424Y029804D01*
X012489Y029963D02*
X003863Y029963D01*
X003863Y030121D02*
X011181Y030121D01*
X011825Y030121D02*
X012608Y030121D01*
X012828Y030280D02*
X011977Y030280D01*
X013446Y030280D02*
X014394Y030280D01*
X014392Y030121D02*
X013666Y030121D01*
X013784Y029963D02*
X014389Y029963D01*
X014386Y029804D02*
X013850Y029804D01*
X013867Y029646D02*
X014384Y029646D01*
X014381Y029487D02*
X013867Y029487D01*
X013808Y029329D02*
X014378Y029329D01*
X014376Y029170D02*
X013723Y029170D01*
X013565Y029012D02*
X014373Y029012D01*
X014370Y028853D02*
X013229Y028853D01*
X013002Y028536D02*
X009172Y028536D01*
X009100Y028378D02*
X003863Y028378D01*
X003863Y028536D02*
X008668Y028536D01*
X009001Y028219D02*
X003863Y028219D01*
X003863Y028061D02*
X008991Y028061D01*
X009078Y027902D02*
X003863Y027902D01*
X003863Y027744D02*
X013269Y027744D01*
X013268Y027902D02*
X009582Y027902D01*
X009559Y028378D02*
X013380Y028378D01*
X013607Y028695D02*
X014368Y028695D01*
X014364Y028536D02*
X013931Y028536D01*
X013968Y028378D02*
X014240Y028378D01*
X014215Y028219D02*
X013988Y028219D01*
X014057Y028061D02*
X014266Y028061D01*
X014172Y027902D02*
X015977Y027902D01*
X015848Y027744D02*
X014192Y027744D01*
X014131Y027585D02*
X015719Y027585D01*
X015589Y027427D02*
X013652Y027427D01*
X013654Y027268D02*
X015460Y027268D01*
X015331Y027110D02*
X013655Y027110D01*
X013657Y026951D02*
X015202Y026951D01*
X015072Y026793D02*
X013658Y026793D01*
X013659Y026634D02*
X014768Y026634D01*
X014645Y026476D02*
X013661Y026476D01*
X013662Y026317D02*
X014621Y026317D01*
X014672Y026159D02*
X013664Y026159D01*
X013284Y026159D02*
X003863Y026159D01*
X003863Y026317D02*
X013282Y026317D01*
X013281Y026476D02*
X003863Y026476D01*
X003863Y026634D02*
X013279Y026634D01*
X013278Y026793D02*
X003863Y026793D01*
X003863Y026951D02*
X013276Y026951D01*
X013275Y027110D02*
X003863Y027110D01*
X003863Y027268D02*
X013274Y027268D01*
X013272Y027427D02*
X003863Y027427D01*
X003863Y027585D02*
X013271Y027585D01*
X014834Y028061D02*
X016107Y028061D01*
X016236Y028219D02*
X014885Y028219D01*
X014860Y028378D02*
X016365Y028378D01*
X016495Y028536D02*
X014745Y028536D01*
X014748Y028695D02*
X016624Y028695D01*
X016753Y028853D02*
X014750Y028853D01*
X014753Y029012D02*
X016883Y029012D01*
X017012Y029170D02*
X014756Y029170D01*
X014758Y029329D02*
X017141Y029329D01*
X017168Y029487D02*
X014761Y029487D01*
X014764Y029646D02*
X017212Y029646D01*
X017431Y029804D02*
X014766Y029804D01*
X014769Y029963D02*
X032253Y029963D01*
X032187Y029804D02*
X028204Y029804D01*
X028061Y029804D02*
X017575Y029804D01*
X017793Y029646D02*
X027842Y029646D01*
X027798Y029487D02*
X017838Y029487D01*
X017806Y029329D02*
X027829Y029329D01*
X027984Y029170D02*
X017651Y029170D01*
X017373Y029012D02*
X028324Y029012D01*
X028482Y028853D02*
X017244Y028853D01*
X017114Y028695D02*
X028641Y028695D01*
X028703Y029170D02*
X029197Y029170D01*
X029360Y029170D02*
X032314Y029170D01*
X032229Y029329D02*
X028544Y029329D01*
X028468Y029487D02*
X032170Y029487D01*
X032170Y029646D02*
X028423Y029646D01*
X029570Y029012D02*
X032473Y029012D01*
X032372Y030121D02*
X014772Y030121D01*
X012709Y029012D02*
X009150Y029012D01*
X011874Y031548D02*
X034107Y031548D01*
X033997Y031706D02*
X011997Y031706D01*
X012056Y031865D02*
X033949Y031865D01*
X033944Y032023D02*
X012056Y032023D01*
X013285Y026000D02*
X003863Y026000D01*
X003863Y025842D02*
X013287Y025842D01*
X013288Y025683D02*
X003863Y025683D01*
X003863Y025525D02*
X013290Y025525D01*
X013291Y025366D02*
X003863Y025366D01*
X003863Y025208D02*
X013293Y025208D01*
X013294Y025049D02*
X003863Y025049D01*
X004708Y024891D02*
X013296Y024891D01*
X013225Y024732D02*
X004785Y024732D01*
X004789Y024574D02*
X005074Y024574D01*
X005096Y024596D02*
X004977Y024476D01*
X004912Y024320D01*
X004912Y024150D01*
X004977Y023994D01*
X005096Y023874D01*
X005253Y023810D01*
X005422Y023810D01*
X005578Y023874D01*
X005698Y023994D01*
X005763Y024150D01*
X005763Y024320D01*
X005698Y024476D01*
X005578Y024596D01*
X005422Y024661D01*
X005253Y024661D01*
X005096Y024596D01*
X004952Y024415D02*
X004789Y024415D01*
X004789Y024257D02*
X004912Y024257D01*
X004934Y024098D02*
X004788Y024098D01*
X005031Y023940D02*
X003863Y023940D01*
X003863Y023781D02*
X012395Y023781D01*
X012257Y023623D02*
X003863Y023623D01*
X003863Y023464D02*
X012119Y023464D01*
X011980Y023306D02*
X003863Y023306D01*
X003863Y023147D02*
X011842Y023147D01*
X011703Y022989D02*
X003863Y022989D01*
X003863Y022830D02*
X011565Y022830D01*
X011427Y022672D02*
X005471Y022672D01*
X005422Y022692D02*
X005253Y022692D01*
X005096Y022627D01*
X004977Y022508D01*
X004912Y022351D01*
X004912Y022182D01*
X004977Y022026D01*
X005096Y021906D01*
X005253Y021841D01*
X005422Y021841D01*
X005578Y021906D01*
X005698Y022026D01*
X005763Y022182D01*
X005763Y022351D01*
X005698Y022508D01*
X005578Y022627D01*
X005422Y022692D01*
X005204Y022672D02*
X003863Y022672D01*
X003863Y022513D02*
X004982Y022513D01*
X004913Y022355D02*
X004789Y022355D01*
X004789Y022196D02*
X004912Y022196D01*
X004972Y022038D02*
X004789Y022038D01*
X004791Y021879D02*
X005161Y021879D01*
X005514Y021879D02*
X007405Y021879D01*
X007342Y021721D02*
X004777Y021721D01*
X004655Y021562D02*
X007361Y021562D01*
X007474Y021404D02*
X003863Y021404D01*
X003863Y021562D02*
X003894Y021562D01*
X003863Y021245D02*
X008123Y021245D01*
X008129Y021404D02*
X007886Y021404D01*
X008213Y021087D02*
X003863Y021087D01*
X003863Y020928D02*
X008920Y020928D01*
X008932Y021087D02*
X008698Y021087D01*
X008765Y020770D02*
X003863Y020770D01*
X003863Y020611D02*
X008607Y020611D01*
X008448Y020453D02*
X003863Y020453D01*
X003863Y020294D02*
X008290Y020294D01*
X008132Y020136D02*
X003863Y020136D01*
X003863Y019977D02*
X007973Y019977D01*
X007815Y019819D02*
X003863Y019819D01*
X003863Y019660D02*
X007657Y019660D01*
X007498Y019502D02*
X003863Y019502D01*
X003863Y019343D02*
X007340Y019343D01*
X007182Y019185D02*
X003863Y019185D01*
X003863Y019026D02*
X007023Y019026D01*
X006865Y018868D02*
X003863Y018868D01*
X003863Y018709D02*
X006707Y018709D01*
X006548Y018551D02*
X003863Y018551D01*
X003863Y018392D02*
X006390Y018392D01*
X006232Y018234D02*
X003863Y018234D01*
X003863Y018075D02*
X006073Y018075D01*
X005915Y017917D02*
X003863Y017917D01*
X003863Y017758D02*
X005757Y017758D01*
X005598Y017600D02*
X003863Y017600D01*
X003863Y017441D02*
X005440Y017441D01*
X005281Y017283D02*
X003863Y017283D01*
X003863Y017124D02*
X005123Y017124D01*
X004965Y016966D02*
X003863Y016966D01*
X003863Y016807D02*
X004951Y016807D01*
X004951Y016649D02*
X003863Y016649D01*
X003863Y016490D02*
X004951Y016490D01*
X004951Y016332D02*
X003863Y016332D01*
X003863Y016173D02*
X004951Y016173D01*
X004951Y016015D02*
X003863Y016015D01*
X003863Y015856D02*
X004951Y015856D01*
X004951Y015698D02*
X003863Y015698D01*
X003863Y015539D02*
X004951Y015539D01*
X004951Y015381D02*
X003863Y015381D01*
X003863Y015222D02*
X004951Y015222D01*
X004951Y015064D02*
X003863Y015064D01*
X003863Y014905D02*
X004951Y014905D01*
X004951Y014747D02*
X003863Y014747D01*
X003863Y014588D02*
X004951Y014588D01*
X004951Y014430D02*
X003863Y014430D01*
X003863Y014271D02*
X004951Y014271D01*
X004951Y014113D02*
X003863Y014113D01*
X003863Y013954D02*
X004951Y013954D01*
X004951Y013796D02*
X003863Y013796D01*
X003863Y013637D02*
X004951Y013637D01*
X004951Y013479D02*
X003863Y013479D01*
X003863Y013320D02*
X004951Y013320D01*
X004951Y013162D02*
X003863Y013162D01*
X003863Y013003D02*
X004951Y013003D01*
X004951Y012845D02*
X003863Y012845D01*
X003863Y012686D02*
X004951Y012686D01*
X004951Y012528D02*
X003863Y012528D01*
X003863Y012369D02*
X004951Y012369D01*
X004951Y012211D02*
X003863Y012211D01*
X003863Y012052D02*
X004951Y012052D01*
X004951Y011894D02*
X003863Y011894D01*
X003863Y011735D02*
X004951Y011735D01*
X004882Y011577D02*
X003863Y011577D01*
X003863Y011418D02*
X004806Y011418D01*
X004820Y011260D02*
X003863Y011260D01*
X003863Y011101D02*
X004927Y011101D01*
X005290Y010943D02*
X003863Y010943D01*
X003863Y010784D02*
X005449Y010784D01*
X005607Y010626D02*
X003863Y010626D01*
X003863Y010467D02*
X005766Y010467D01*
X005924Y010309D02*
X003863Y010309D01*
X003863Y010150D02*
X006083Y010150D01*
X006241Y009992D02*
X003863Y009992D01*
X003863Y009833D02*
X006400Y009833D01*
X006558Y009675D02*
X003863Y009675D01*
X003863Y009516D02*
X006695Y009516D01*
X006715Y009358D02*
X003863Y009358D01*
X003863Y009199D02*
X006829Y009199D01*
X007232Y009199D02*
X016876Y009199D01*
X016718Y009358D02*
X007346Y009358D01*
X007365Y009516D02*
X016559Y009516D01*
X016401Y009675D02*
X007301Y009675D01*
X006937Y009833D02*
X016242Y009833D01*
X016084Y009992D02*
X006779Y009992D01*
X006620Y010150D02*
X015925Y010150D01*
X015767Y010309D02*
X009396Y010309D01*
X009442Y010356D02*
X009503Y010503D01*
X009503Y010662D01*
X009442Y010809D01*
X009330Y010921D01*
X009183Y010982D01*
X008504Y010982D01*
X008449Y010959D01*
X007287Y012122D01*
X007287Y012255D01*
X007236Y012378D01*
X007141Y012472D01*
X007018Y012523D01*
X006885Y012523D01*
X006762Y012472D01*
X006668Y012378D01*
X006617Y012255D01*
X006617Y012121D01*
X006668Y011998D01*
X006762Y011904D01*
X006885Y011853D01*
X007018Y011853D01*
X008191Y010680D01*
X008183Y010662D01*
X008183Y010503D01*
X008244Y010356D01*
X008357Y010243D01*
X008504Y010182D01*
X009183Y010182D01*
X009330Y010243D01*
X009442Y010356D01*
X009489Y010467D02*
X015608Y010467D01*
X015830Y010784D02*
X015940Y010784D01*
X015819Y010943D02*
X016304Y010943D01*
X016462Y011101D02*
X015717Y011101D01*
X015273Y011101D02*
X008307Y011101D01*
X008353Y011206D02*
X008297Y011247D01*
X008248Y011296D01*
X008207Y011352D01*
X008176Y011413D01*
X008154Y011479D01*
X008143Y011548D01*
X008143Y011582D01*
X008843Y011582D01*
X008843Y011582D01*
X008843Y011582D01*
X008843Y011142D01*
X008549Y011142D01*
X008480Y011153D01*
X008414Y011174D01*
X008353Y011206D01*
X008284Y011260D02*
X008149Y011260D01*
X008174Y011418D02*
X007990Y011418D01*
X008143Y011577D02*
X007832Y011577D01*
X007673Y011735D02*
X008170Y011735D01*
X008176Y011751D02*
X008154Y011685D01*
X008143Y011617D01*
X008143Y011582D01*
X008843Y011582D01*
X008843Y011142D01*
X009138Y011142D01*
X009206Y011153D01*
X009272Y011174D01*
X009334Y011206D01*
X009390Y011247D01*
X009439Y011296D01*
X009480Y011352D01*
X009511Y011413D01*
X009532Y011479D01*
X009543Y011548D01*
X009543Y011582D01*
X008843Y011582D01*
X008843Y012022D01*
X008549Y012022D01*
X008480Y012011D01*
X008414Y011990D01*
X008353Y011959D01*
X008297Y011918D01*
X008248Y011869D01*
X008207Y011813D01*
X008176Y011751D01*
X008273Y011894D02*
X007515Y011894D01*
X007356Y012052D02*
X015677Y012052D01*
X015790Y011894D02*
X009414Y011894D01*
X009390Y011918D02*
X009334Y011959D01*
X009272Y011990D01*
X009206Y012011D01*
X009138Y012022D01*
X008843Y012022D01*
X008843Y011582D01*
X008843Y011582D01*
X008843Y011582D01*
X009543Y011582D01*
X009543Y011617D01*
X009532Y011685D01*
X009511Y011751D01*
X009480Y011813D01*
X009439Y011869D01*
X009390Y011918D01*
X009516Y011735D02*
X015819Y011735D01*
X015965Y011577D02*
X009543Y011577D01*
X009513Y011418D02*
X016779Y011418D01*
X016621Y011260D02*
X009403Y011260D01*
X009278Y010943D02*
X015171Y010943D01*
X015160Y010784D02*
X009453Y010784D01*
X009503Y010626D02*
X015245Y010626D01*
X016285Y011577D02*
X016938Y011577D01*
X017096Y011735D02*
X016430Y011735D01*
X016460Y011894D02*
X017255Y011894D01*
X017413Y012052D02*
X016413Y012052D01*
X016056Y012211D02*
X017572Y012211D01*
X017730Y012369D02*
X015897Y012369D01*
X015518Y012211D02*
X009341Y012211D01*
X009334Y012206D02*
X009390Y012247D01*
X009439Y012296D01*
X009480Y012352D01*
X009511Y012413D01*
X009532Y012479D01*
X009543Y012548D01*
X009543Y012582D01*
X008843Y012582D01*
X008143Y012582D01*
X008143Y012548D01*
X008154Y012479D01*
X008176Y012413D01*
X008207Y012352D01*
X008248Y012296D01*
X008297Y012247D01*
X008353Y012206D01*
X008414Y012174D01*
X008480Y012153D01*
X008549Y012142D01*
X008843Y012142D01*
X008843Y012582D01*
X008843Y012582D01*
X008843Y012582D01*
X008143Y012582D01*
X008143Y012617D01*
X008154Y012685D01*
X008176Y012751D01*
X008207Y012813D01*
X008248Y012869D01*
X008297Y012918D01*
X008353Y012959D01*
X008414Y012990D01*
X008480Y013011D01*
X008549Y013022D01*
X008843Y013022D01*
X008843Y012582D01*
X008843Y012142D01*
X009138Y012142D01*
X009206Y012153D01*
X009272Y012174D01*
X009334Y012206D01*
X009489Y012369D02*
X015360Y012369D01*
X015201Y012528D02*
X009540Y012528D01*
X009543Y012582D02*
X009543Y012617D01*
X009532Y012685D01*
X009511Y012751D01*
X009480Y012813D01*
X009439Y012869D01*
X009390Y012918D01*
X009334Y012959D01*
X009272Y012990D01*
X009206Y013011D01*
X009138Y013022D01*
X008843Y013022D01*
X008843Y012582D01*
X008843Y012582D01*
X008843Y012582D01*
X009543Y012582D01*
X009532Y012686D02*
X015043Y012686D01*
X014884Y012845D02*
X009456Y012845D01*
X009231Y013003D02*
X014726Y013003D01*
X014567Y013162D02*
X005331Y013162D01*
X005331Y013320D02*
X007709Y013320D01*
X007586Y013479D02*
X005331Y013479D01*
X005331Y013637D02*
X007562Y013637D01*
X007613Y013796D02*
X005331Y013796D01*
X005331Y013954D02*
X007785Y013954D01*
X007785Y014113D02*
X005331Y014113D01*
X005331Y014271D02*
X007785Y014271D01*
X007785Y014430D02*
X005331Y014430D01*
X005331Y014588D02*
X007785Y014588D01*
X007785Y014747D02*
X005331Y014747D01*
X005331Y014905D02*
X007785Y014905D01*
X007785Y015064D02*
X005331Y015064D01*
X005331Y015222D02*
X007785Y015222D01*
X007785Y015381D02*
X005331Y015381D01*
X005331Y015539D02*
X007785Y015539D01*
X007785Y015698D02*
X005331Y015698D01*
X005331Y015856D02*
X007785Y015856D01*
X007833Y016015D02*
X005331Y016015D01*
X005331Y016173D02*
X007991Y016173D01*
X008150Y016332D02*
X005331Y016332D01*
X005331Y016490D02*
X008188Y016490D01*
X008183Y016649D02*
X005331Y016649D01*
X005344Y016807D02*
X008244Y016807D01*
X008529Y016173D02*
X013328Y016173D01*
X013486Y016015D02*
X008370Y016015D01*
X008292Y015856D02*
X008212Y015856D01*
X008198Y015698D02*
X008165Y015698D01*
X008165Y015539D02*
X008183Y015539D01*
X008165Y015381D02*
X008234Y015381D01*
X008165Y015222D02*
X008407Y015222D01*
X008504Y014982D02*
X008357Y014921D01*
X008244Y014809D01*
X008183Y014662D01*
X008183Y014503D01*
X008244Y014356D01*
X008357Y014243D01*
X008504Y014182D01*
X009183Y014182D01*
X009330Y014243D01*
X009442Y014356D01*
X009503Y014503D01*
X009503Y014662D01*
X009442Y014809D01*
X009330Y014921D01*
X009183Y014982D01*
X008504Y014982D01*
X008341Y014905D02*
X008165Y014905D01*
X008165Y014747D02*
X008218Y014747D01*
X008183Y014588D02*
X008165Y014588D01*
X008165Y014430D02*
X008214Y014430D01*
X008165Y014271D02*
X008329Y014271D01*
X008165Y014113D02*
X013616Y014113D01*
X013458Y014271D02*
X009358Y014271D01*
X009473Y014430D02*
X013299Y014430D01*
X013141Y014588D02*
X009503Y014588D01*
X009468Y014747D02*
X012982Y014747D01*
X012824Y014905D02*
X009346Y014905D01*
X009279Y015222D02*
X012507Y015222D01*
X012665Y015064D02*
X008165Y015064D01*
X009453Y015381D02*
X012348Y015381D01*
X013775Y013954D02*
X009250Y013954D01*
X009448Y013796D02*
X010133Y013796D01*
X010229Y013320D02*
X009407Y013320D01*
X008843Y013003D02*
X008843Y013003D01*
X008843Y012845D02*
X008843Y012845D01*
X008843Y012686D02*
X008843Y012686D01*
X008843Y012528D02*
X008843Y012528D01*
X008843Y012369D02*
X008843Y012369D01*
X008843Y012211D02*
X008843Y012211D01*
X008843Y011894D02*
X008843Y011894D01*
X008843Y011735D02*
X008843Y011735D01*
X008843Y011577D02*
X008843Y011577D01*
X008843Y011418D02*
X008843Y011418D01*
X008843Y011260D02*
X008843Y011260D01*
X008087Y010784D02*
X005986Y010784D01*
X006145Y010626D02*
X008183Y010626D01*
X008198Y010467D02*
X006303Y010467D01*
X006462Y010309D02*
X008291Y010309D01*
X007928Y010943D02*
X005828Y010943D01*
X005669Y011101D02*
X007770Y011101D01*
X007611Y011260D02*
X005511Y011260D01*
X005476Y011418D02*
X007453Y011418D01*
X007294Y011577D02*
X005399Y011577D01*
X005331Y011735D02*
X007136Y011735D01*
X006786Y011894D02*
X005331Y011894D01*
X005331Y012052D02*
X006645Y012052D01*
X006617Y012211D02*
X005331Y012211D01*
X005331Y012369D02*
X006664Y012369D01*
X007239Y012369D02*
X008198Y012369D01*
X008146Y012528D02*
X005331Y012528D01*
X005331Y012686D02*
X008154Y012686D01*
X008230Y012845D02*
X005331Y012845D01*
X005331Y013003D02*
X008455Y013003D01*
X008280Y013320D02*
X008084Y013320D01*
X008180Y013796D02*
X008239Y013796D01*
X008165Y013954D02*
X008436Y013954D01*
X008346Y012211D02*
X007287Y012211D01*
X010604Y013320D02*
X014409Y013320D01*
X014250Y013479D02*
X010726Y013479D01*
X010751Y013637D02*
X014092Y013637D01*
X013933Y013796D02*
X010699Y013796D01*
X015486Y013320D02*
X015897Y013320D01*
X015881Y013796D02*
X015581Y013796D01*
X012588Y017267D02*
X012588Y017267D01*
X012605Y017283D02*
X009370Y017283D01*
X010095Y018234D02*
X006769Y018234D01*
X006927Y018392D02*
X009120Y018392D01*
X009272Y018392D02*
X010202Y018392D01*
X010198Y018551D02*
X009487Y018551D01*
X009531Y018709D02*
X010087Y018709D01*
X010069Y018868D02*
X009499Y018868D01*
X009583Y019026D02*
X010139Y019026D01*
X009671Y019185D02*
X010830Y019185D01*
X010942Y019343D02*
X009760Y019343D01*
X009848Y019502D02*
X011053Y019502D01*
X011165Y019660D02*
X009937Y019660D01*
X010026Y019819D02*
X010729Y019819D01*
X010634Y019977D02*
X010114Y019977D01*
X010203Y020136D02*
X010633Y020136D01*
X010726Y020294D02*
X010291Y020294D01*
X010380Y020453D02*
X011119Y020453D01*
X011296Y020611D02*
X010468Y020611D01*
X010557Y020770D02*
X011472Y020770D01*
X011649Y020928D02*
X010646Y020928D01*
X010734Y021087D02*
X011826Y021087D01*
X011825Y021245D02*
X012000Y021245D01*
X012042Y020770D02*
X017075Y020770D01*
X017301Y020770D02*
X019618Y020770D01*
X019618Y020928D02*
X017485Y020928D01*
X017523Y021087D02*
X019593Y021087D01*
X019645Y021245D02*
X017484Y021245D01*
X017295Y021404D02*
X022417Y021404D01*
X022266Y021562D02*
X022133Y021562D01*
X022491Y021879D02*
X022955Y021879D01*
X022974Y021721D02*
X022640Y021721D01*
X022791Y021562D02*
X023088Y021562D01*
X022942Y021404D02*
X027242Y021404D01*
X027183Y021245D02*
X023093Y021245D01*
X023244Y021087D02*
X024676Y021087D01*
X024518Y020928D02*
X023395Y020928D01*
X023546Y020770D02*
X024359Y020770D01*
X024201Y020611D02*
X023697Y020611D01*
X023848Y020453D02*
X024042Y020453D01*
X023625Y020136D02*
X022369Y020136D01*
X022405Y019977D02*
X023165Y019977D01*
X023474Y020294D02*
X022194Y020294D01*
X021945Y020294D02*
X020957Y020294D01*
X021115Y020453D02*
X023323Y020453D01*
X023172Y020611D02*
X021479Y020611D01*
X021573Y020770D02*
X023021Y020770D01*
X022870Y020928D02*
X021573Y020928D01*
X021479Y021087D02*
X022719Y021087D01*
X022568Y021245D02*
X020211Y021245D01*
X020263Y021087D02*
X021007Y021087D01*
X020913Y020928D02*
X020239Y020928D01*
X020117Y020770D02*
X020895Y020770D01*
X020736Y020611D02*
X019998Y020611D01*
X020108Y020453D02*
X020136Y020453D01*
X019582Y020611D02*
X011865Y020611D01*
X011688Y020453D02*
X012337Y020453D01*
X012390Y020453D02*
X019472Y020453D01*
X019455Y020294D02*
X019268Y020294D01*
X019267Y020338D02*
X019267Y020338D01*
X019156Y020449D02*
X019156Y020449D01*
X019156Y020449D01*
X019268Y020136D02*
X019526Y020136D01*
X019766Y019977D02*
X019268Y019977D01*
X020798Y020136D02*
X021770Y020136D01*
X023493Y021562D02*
X027456Y021562D01*
X027651Y021721D02*
X027699Y021721D01*
X027189Y021721D02*
X023606Y021721D01*
X023625Y021879D02*
X027092Y021879D01*
X027088Y022038D02*
X023560Y022038D01*
X023196Y022196D02*
X027179Y022196D01*
X028231Y021562D02*
X028332Y021562D01*
X028445Y021404D02*
X028491Y021404D01*
X028503Y021245D02*
X028649Y021245D01*
X028668Y021087D02*
X028497Y021087D01*
X028415Y020928D02*
X028761Y020928D01*
X027288Y020453D02*
X025530Y020453D01*
X025310Y020136D02*
X024775Y020136D01*
X024933Y020294D02*
X025151Y020294D01*
X025089Y020357D02*
X025344Y020101D01*
X025456Y019990D01*
X027230Y019990D01*
X027244Y019956D01*
X027245Y019955D01*
X026164Y018874D01*
X025739Y018874D01*
X025645Y018968D01*
X025523Y019019D01*
X025645Y019069D01*
X025740Y019163D01*
X025791Y019287D01*
X025791Y019420D01*
X025740Y019543D01*
X025645Y019637D01*
X025522Y019688D01*
X025389Y019688D01*
X025266Y019637D01*
X025172Y019543D01*
X025121Y019420D01*
X025121Y019403D01*
X024619Y019162D01*
X024613Y019164D01*
X024549Y019128D01*
X024483Y019097D01*
X024481Y019091D01*
X023794Y018709D01*
X023711Y018743D01*
X023665Y018743D01*
X023665Y018790D01*
X023696Y018821D01*
X023829Y018821D01*
X023952Y018872D01*
X024047Y018967D01*
X024098Y019090D01*
X024098Y019223D01*
X024047Y019346D01*
X024016Y019377D01*
X024031Y019393D01*
X024996Y020357D01*
X025089Y020357D01*
X024616Y019977D02*
X027235Y019977D01*
X027109Y019819D02*
X024458Y019819D01*
X024299Y019660D02*
X025321Y019660D01*
X025155Y019502D02*
X024141Y019502D01*
X024048Y019343D02*
X024996Y019343D01*
X024667Y019185D02*
X024098Y019185D01*
X024071Y019026D02*
X024366Y019026D01*
X024080Y018868D02*
X023941Y018868D01*
X023795Y018709D02*
X023794Y018709D01*
X023225Y017283D02*
X024774Y017283D01*
X026695Y018868D02*
X027332Y018868D01*
X027215Y019026D02*
X026854Y019026D01*
X027012Y019185D02*
X027183Y019185D01*
X027171Y019343D02*
X027217Y019343D01*
X027329Y019502D02*
X027337Y019502D01*
X026951Y019660D02*
X025590Y019660D01*
X025757Y019502D02*
X026792Y019502D01*
X026634Y019343D02*
X025791Y019343D01*
X025748Y019185D02*
X026475Y019185D01*
X026317Y019026D02*
X025542Y019026D01*
X027843Y018551D02*
X027843Y018551D01*
X027843Y018392D02*
X027843Y018392D01*
X027843Y018234D02*
X027843Y018234D01*
X027843Y018075D02*
X027843Y018075D01*
X027843Y017917D02*
X027843Y017917D01*
X027843Y017758D02*
X027843Y017758D01*
X033055Y020770D02*
X037386Y020770D01*
X037427Y020611D02*
X037503Y020611D01*
X038035Y020928D02*
X047218Y020928D01*
X047059Y021087D02*
X044605Y021087D01*
X044337Y021087D02*
X037975Y021087D01*
X037126Y021404D02*
X043916Y021404D01*
X043851Y021562D02*
X037122Y021562D01*
X037034Y021245D02*
X044048Y021245D01*
X044895Y021245D02*
X046983Y021245D01*
X046930Y021404D02*
X045026Y021404D01*
X045092Y021562D02*
X046930Y021562D01*
X046953Y021721D02*
X045103Y021721D01*
X045088Y021879D02*
X047019Y021879D01*
X047146Y022038D02*
X045022Y022038D01*
X044884Y022196D02*
X047387Y022196D01*
X048859Y019977D02*
X038368Y019977D01*
X038527Y019819D02*
X048859Y019819D01*
X048859Y019660D02*
X038685Y019660D01*
X038844Y019502D02*
X048859Y019502D01*
X048859Y019343D02*
X039002Y019343D01*
X039161Y019185D02*
X048859Y019185D01*
X043826Y023464D02*
X037247Y023464D01*
X037232Y023306D02*
X043615Y023306D01*
X044040Y027744D02*
X044094Y027744D01*
X040875Y031231D02*
X040534Y031231D01*
X040658Y031389D02*
X040736Y031389D01*
X040202Y031389D02*
X040166Y031389D01*
X040166Y031231D02*
X040202Y031231D01*
X040202Y031548D02*
X040166Y031548D01*
X040166Y031706D02*
X040202Y031706D01*
X040202Y031865D02*
X040166Y031865D01*
X040166Y032023D02*
X040202Y032023D01*
X040553Y032023D02*
X040856Y032023D01*
X040728Y031865D02*
X040667Y031865D01*
X037936Y030914D02*
X037046Y030914D01*
X037014Y030438D02*
X037976Y030438D01*
X022817Y022038D02*
X011834Y022038D01*
X011992Y022196D02*
X022659Y022196D01*
X022500Y022355D02*
X019294Y022355D01*
X019019Y022355D02*
X012151Y022355D01*
X012309Y022513D02*
X018855Y022513D01*
X018821Y022672D02*
X012468Y022672D01*
X012626Y022830D02*
X018864Y022830D01*
X020078Y021879D02*
X011675Y021879D01*
X011517Y021721D02*
X014925Y021721D01*
X012882Y023623D02*
X012761Y023623D01*
X012723Y023464D02*
X012623Y023464D01*
X012565Y023306D02*
X012485Y023306D01*
X012406Y023147D02*
X012346Y023147D01*
X012248Y022989D02*
X012208Y022989D01*
X012089Y022830D02*
X012069Y022830D01*
X011288Y022513D02*
X005693Y022513D01*
X005761Y022355D02*
X011150Y022355D01*
X010750Y022196D02*
X005763Y022196D01*
X005703Y022038D02*
X009272Y022038D01*
X009474Y021245D02*
X010387Y021245D01*
X010299Y021087D02*
X009578Y021087D01*
X009590Y020928D02*
X010210Y020928D01*
X010122Y020770D02*
X009507Y020770D01*
X009144Y020611D02*
X010033Y020611D01*
X009945Y020453D02*
X008986Y020453D01*
X008827Y020294D02*
X009856Y020294D01*
X009767Y020136D02*
X008669Y020136D01*
X008511Y019977D02*
X009679Y019977D01*
X009590Y019819D02*
X008352Y019819D01*
X008194Y019660D02*
X009502Y019660D01*
X009413Y019502D02*
X008036Y019502D01*
X007877Y019343D02*
X009325Y019343D01*
X009236Y019185D02*
X007719Y019185D01*
X007560Y019026D02*
X009052Y019026D01*
X008893Y018868D02*
X007402Y018868D01*
X007244Y018709D02*
X008861Y018709D01*
X008905Y018551D02*
X007085Y018551D01*
X010611Y018551D02*
X011254Y018551D01*
X011360Y018709D02*
X010769Y018709D01*
X011072Y018868D02*
X011465Y018868D01*
X011571Y019026D02*
X011183Y019026D01*
X011295Y019185D02*
X011677Y019185D01*
X011656Y019343D02*
X011407Y019343D01*
X011524Y019502D02*
X011706Y019502D01*
X011780Y019660D02*
X012176Y019660D01*
X012170Y019819D02*
X012035Y019819D01*
X011825Y020136D02*
X011335Y020136D01*
X011293Y019977D02*
X011570Y019977D01*
X011314Y019819D02*
X011198Y019819D01*
X011511Y020294D02*
X012081Y020294D01*
X012277Y019499D02*
X012313Y019463D01*
X012436Y019412D01*
X012569Y019412D01*
X012995Y018986D01*
X012995Y018901D01*
X012987Y018901D01*
X012864Y018850D01*
X012770Y018756D01*
X012719Y018632D01*
X012719Y018499D01*
X012770Y018376D01*
X012864Y018282D01*
X012987Y018231D01*
X013120Y018231D01*
X012980Y018234D02*
X011499Y018234D01*
X011605Y018392D02*
X012763Y018392D01*
X012719Y018551D02*
X011711Y018551D01*
X011816Y018709D02*
X012751Y018709D01*
X012907Y018868D02*
X011922Y018868D01*
X011996Y018979D02*
X012058Y018979D01*
X012181Y019030D01*
X012275Y019124D01*
X012326Y019247D01*
X012326Y019380D01*
X012277Y019499D01*
X012326Y019343D02*
X012638Y019343D01*
X012796Y019185D02*
X012300Y019185D01*
X012172Y019026D02*
X012955Y019026D01*
X011996Y018979D02*
X011394Y018075D01*
X011148Y018392D02*
X010631Y018392D01*
X010674Y017917D02*
X013434Y017917D01*
X010476Y021404D02*
X010255Y021404D01*
X012534Y023940D02*
X005644Y023940D01*
X005741Y024098D02*
X012672Y024098D01*
X012810Y024257D02*
X005763Y024257D01*
X005723Y024415D02*
X012949Y024415D01*
X013087Y024574D02*
X005601Y024574D01*
X012900Y023781D02*
X013040Y023781D01*
X013038Y023940D02*
X013199Y023940D01*
X013176Y024098D02*
X013357Y024098D01*
X013315Y024257D02*
X013516Y024257D01*
X013453Y024415D02*
X013674Y024415D01*
X013703Y024574D02*
X013592Y024574D01*
X013678Y024732D02*
X013786Y024732D01*
X016857Y025683D02*
X017091Y025683D01*
X017050Y025842D02*
X017016Y025842D01*
X017097Y009516D02*
X020475Y009516D01*
X020436Y009358D02*
X017255Y009358D01*
X017414Y009199D02*
X020472Y009199D01*
X020650Y009041D02*
X017572Y009041D01*
X017890Y008882D02*
X020973Y008882D01*
X021131Y008724D02*
X018076Y008724D01*
X018113Y008565D02*
X021290Y008565D01*
X021448Y008407D02*
X018075Y008407D01*
X017482Y008407D02*
X009464Y008407D01*
X009503Y008565D02*
X017443Y008565D01*
X017352Y008724D02*
X009478Y008724D01*
X009369Y008882D02*
X017193Y008882D01*
X017035Y009041D02*
X003863Y009041D01*
X021510Y008882D02*
X027318Y008882D01*
X027209Y008724D02*
X021669Y008724D01*
X021827Y008565D02*
X027183Y008565D01*
X027223Y008407D02*
X021986Y008407D01*
X022144Y008248D02*
X027352Y008248D01*
X032770Y008407D02*
X048859Y008407D01*
X048859Y008565D02*
X032928Y008565D01*
X033089Y009516D02*
X033342Y009516D01*
X028441Y003810D02*
X048691Y003810D01*
X048532Y003652D02*
X028503Y003652D01*
X028499Y003493D02*
X048374Y003493D01*
X048215Y003335D02*
X028421Y003335D01*
D22*
X047424Y004117D03*
X047424Y032463D03*
X005298Y032463D03*
X005298Y004117D03*
D23*
X012739Y008841D03*
X010983Y009771D03*
X018645Y006873D03*
X019038Y008841D03*
X023408Y009629D03*
X023267Y013058D03*
X020613Y013172D03*
X024444Y016054D03*
X026814Y016869D03*
X026826Y018436D03*
X026802Y019806D03*
X026841Y020570D03*
X024282Y019334D03*
X022684Y020109D03*
X021078Y016987D03*
X018802Y016786D03*
X013711Y016723D03*
X009601Y020542D03*
X007680Y021676D03*
X006038Y022326D03*
X008054Y025247D03*
X009330Y028129D03*
X008920Y028763D03*
X012845Y027247D03*
X013853Y027786D03*
X014475Y026672D03*
X017759Y023570D03*
X017731Y022011D03*
X013463Y023152D03*
X008054Y018684D03*
X019806Y027015D03*
X024369Y025231D03*
X026593Y028723D03*
X030050Y028357D03*
X030987Y028546D03*
X036074Y029050D03*
X038727Y028881D03*
X042538Y029089D03*
X044286Y025727D03*
X042168Y022782D03*
X038759Y021282D03*
X044393Y019987D03*
X030589Y018192D03*
X029460Y023676D03*
X030727Y008463D03*
X016676Y004117D03*
M02*
