G75*
%MOIN*%
%OFA0B0*%
%FSLAX24Y24*%
%IPPOS*%
%LPD*%
%AMOC8*
5,1,8,0,0,1.08239X$1,22.5*
%
%ADD10C,0.1261*%
%ADD11C,0.0600*%
%ADD12C,0.0651*%
%ADD13C,0.0000*%
%ADD14C,0.0001*%
%ADD15C,0.1064*%
%ADD16C,0.0592*%
%ADD17C,0.0907*%
%ADD18C,0.0789*%
%ADD19C,0.0050*%
%ADD20C,0.1740*%
D10*
X013137Y029617D03*
X013609Y032924D03*
X032428Y032924D03*
X032900Y029617D03*
X040680Y029774D03*
X047660Y029708D03*
X047660Y027030D03*
X047660Y024196D03*
X047660Y021519D03*
X047660Y018290D03*
X047660Y015613D03*
D11*
X028103Y015182D02*
X027583Y015182D01*
X027583Y014182D02*
X028103Y014182D01*
X028103Y013182D02*
X027583Y013182D01*
X027583Y012182D02*
X028103Y012182D01*
X028103Y010582D02*
X027583Y010582D01*
X027583Y009582D02*
X028103Y009582D01*
X028103Y008582D02*
X027583Y008582D01*
X027583Y007582D02*
X028103Y007582D01*
X028103Y006582D02*
X027583Y006582D01*
X027583Y005582D02*
X028103Y005582D01*
X028103Y004582D02*
X027583Y004582D01*
X027583Y003582D02*
X028103Y003582D01*
X028103Y016182D02*
X027583Y016182D01*
X027583Y017182D02*
X028103Y017182D01*
X028103Y018182D02*
X027583Y018182D01*
X027583Y019182D02*
X028103Y019182D01*
X028103Y020182D02*
X027583Y020182D01*
X027583Y021182D02*
X028103Y021182D01*
X009103Y017582D02*
X008583Y017582D01*
X008583Y016582D02*
X009103Y016582D01*
X009103Y015582D02*
X008583Y015582D01*
X008583Y014582D02*
X009103Y014582D01*
X009103Y013582D02*
X008583Y013582D01*
X008583Y012582D02*
X009103Y012582D01*
X009103Y011582D02*
X008583Y011582D01*
X008583Y010582D02*
X009103Y010582D01*
X009103Y008582D02*
X008583Y008582D01*
X008583Y007582D02*
X009103Y007582D01*
X009103Y006582D02*
X008583Y006582D01*
X008583Y005582D02*
X009103Y005582D01*
X009103Y004582D02*
X008583Y004582D01*
X008583Y003582D02*
X009103Y003582D01*
D12*
X005337Y022267D03*
X005337Y024235D03*
D13*
X004649Y024156D02*
X004649Y024668D01*
X004644Y024712D01*
X004629Y024754D01*
X004606Y024791D01*
X004574Y024822D01*
X004537Y024846D01*
X004495Y024860D01*
X004452Y024865D01*
X004097Y024865D01*
X004054Y024860D01*
X004012Y024846D01*
X003975Y024822D01*
X003943Y024791D01*
X003920Y024754D01*
X003905Y024712D01*
X003900Y024668D01*
X003900Y024156D01*
X004649Y024156D01*
X004649Y022345D02*
X003900Y022345D01*
X003900Y021834D01*
X003905Y021790D01*
X003920Y021748D01*
X003943Y021711D01*
X003975Y021680D01*
X004012Y021656D01*
X004054Y021642D01*
X004097Y021637D01*
X004452Y021637D01*
X004495Y021642D01*
X004537Y021656D01*
X004574Y021680D01*
X004606Y021711D01*
X004629Y021748D01*
X004644Y021790D01*
X004649Y021834D01*
X004649Y022345D01*
D14*
X003900Y022345D01*
X003900Y022344D02*
X004649Y022344D01*
X004649Y022343D02*
X003900Y022343D01*
X003900Y022342D02*
X004649Y022342D01*
X004649Y022341D02*
X003900Y022341D01*
X003900Y022340D02*
X004649Y022340D01*
X004649Y022339D02*
X003900Y022339D01*
X003900Y022338D02*
X004649Y022338D01*
X004649Y022337D02*
X003900Y022337D01*
X003900Y022336D02*
X004649Y022336D01*
X004649Y022335D02*
X003900Y022335D01*
X003900Y022334D02*
X004649Y022334D01*
X004649Y022333D02*
X003900Y022333D01*
X003900Y022332D02*
X004649Y022332D01*
X004649Y022331D02*
X003900Y022331D01*
X003900Y022330D02*
X004649Y022330D01*
X004649Y022329D02*
X003900Y022329D01*
X003900Y022328D02*
X004649Y022328D01*
X004649Y022327D02*
X003900Y022327D01*
X003900Y022326D02*
X004649Y022326D01*
X004649Y022325D02*
X003900Y022325D01*
X003900Y022324D02*
X004649Y022324D01*
X004649Y022323D02*
X003900Y022323D01*
X003900Y022322D02*
X004649Y022322D01*
X004649Y022321D02*
X003900Y022321D01*
X003900Y022320D02*
X004649Y022320D01*
X004649Y022319D02*
X003900Y022319D01*
X003900Y022318D02*
X004649Y022318D01*
X004649Y022317D02*
X003900Y022317D01*
X003900Y022316D02*
X004649Y022316D01*
X004649Y022315D02*
X003900Y022315D01*
X003900Y022314D02*
X004649Y022314D01*
X004649Y022313D02*
X003900Y022313D01*
X003900Y022312D02*
X004649Y022312D01*
X004649Y022311D02*
X003900Y022311D01*
X003900Y022310D02*
X004649Y022310D01*
X004649Y022309D02*
X003900Y022309D01*
X003900Y022308D02*
X004649Y022308D01*
X004649Y022307D02*
X003900Y022307D01*
X003900Y022306D02*
X004649Y022306D01*
X004649Y022305D02*
X003900Y022305D01*
X003900Y022304D02*
X004649Y022304D01*
X004649Y022303D02*
X003900Y022303D01*
X003900Y022302D02*
X004649Y022302D01*
X004649Y022301D02*
X003900Y022301D01*
X003900Y022300D02*
X004649Y022300D01*
X004649Y022299D02*
X003900Y022299D01*
X003900Y022298D02*
X004649Y022298D01*
X004649Y022297D02*
X003900Y022297D01*
X003900Y022296D02*
X004649Y022296D01*
X004649Y022295D02*
X003900Y022295D01*
X003900Y022294D02*
X004649Y022294D01*
X004649Y022293D02*
X003900Y022293D01*
X003900Y022292D02*
X004649Y022292D01*
X004649Y022291D02*
X003900Y022291D01*
X003900Y022290D02*
X004649Y022290D01*
X004649Y022289D02*
X003900Y022289D01*
X003900Y022288D02*
X004649Y022288D01*
X004649Y022287D02*
X003900Y022287D01*
X003900Y022286D02*
X004649Y022286D01*
X004649Y022285D02*
X003900Y022285D01*
X003900Y022284D02*
X004649Y022284D01*
X004649Y022283D02*
X003900Y022283D01*
X003900Y022282D02*
X004649Y022282D01*
X004649Y022281D02*
X003900Y022281D01*
X003900Y022280D02*
X004649Y022280D01*
X004649Y022279D02*
X003900Y022279D01*
X003900Y022278D02*
X004649Y022278D01*
X004649Y022277D02*
X003900Y022277D01*
X003900Y022276D02*
X004649Y022276D01*
X004649Y022275D02*
X003900Y022275D01*
X003900Y022274D02*
X004649Y022274D01*
X004649Y022273D02*
X003900Y022273D01*
X003900Y022272D02*
X004649Y022272D01*
X004649Y022271D02*
X003900Y022271D01*
X003900Y022270D02*
X004649Y022270D01*
X004649Y022269D02*
X003900Y022269D01*
X003900Y022268D02*
X004649Y022268D01*
X004649Y022267D02*
X003900Y022267D01*
X003900Y022266D02*
X004649Y022266D01*
X004649Y022265D02*
X003900Y022265D01*
X003900Y022264D02*
X004649Y022264D01*
X004649Y022263D02*
X003900Y022263D01*
X003900Y022262D02*
X004649Y022262D01*
X004649Y022261D02*
X003900Y022261D01*
X003900Y022260D02*
X004649Y022260D01*
X004649Y022259D02*
X003900Y022259D01*
X003900Y022258D02*
X004649Y022258D01*
X004649Y022257D02*
X003900Y022257D01*
X003900Y022256D02*
X004649Y022256D01*
X004649Y022255D02*
X003900Y022255D01*
X003900Y022254D02*
X004649Y022254D01*
X004649Y022253D02*
X003900Y022253D01*
X003900Y022252D02*
X004649Y022252D01*
X004649Y022251D02*
X003900Y022251D01*
X003900Y022250D02*
X004649Y022250D01*
X004649Y022249D02*
X003900Y022249D01*
X003900Y022248D02*
X004649Y022248D01*
X004649Y022247D02*
X003900Y022247D01*
X003900Y022246D02*
X004649Y022246D01*
X004649Y022245D02*
X003900Y022245D01*
X003900Y022244D02*
X004649Y022244D01*
X004649Y022243D02*
X003900Y022243D01*
X003900Y022242D02*
X004649Y022242D01*
X004649Y022241D02*
X003900Y022241D01*
X003900Y022240D02*
X004649Y022240D01*
X004649Y022239D02*
X003900Y022239D01*
X003900Y022238D02*
X004649Y022238D01*
X004649Y022237D02*
X003900Y022237D01*
X003900Y022236D02*
X004649Y022236D01*
X004649Y022235D02*
X003900Y022235D01*
X003900Y022234D02*
X004649Y022234D01*
X004649Y022233D02*
X003900Y022233D01*
X003900Y022232D02*
X004649Y022232D01*
X004649Y022231D02*
X003900Y022231D01*
X003900Y022230D02*
X004649Y022230D01*
X004649Y022229D02*
X003900Y022229D01*
X003900Y022228D02*
X004649Y022228D01*
X004649Y022227D02*
X003900Y022227D01*
X003900Y022226D02*
X004649Y022226D01*
X004649Y022225D02*
X003900Y022225D01*
X003900Y022224D02*
X004649Y022224D01*
X004649Y022223D02*
X003900Y022223D01*
X003900Y022222D02*
X004649Y022222D01*
X004649Y022221D02*
X003900Y022221D01*
X003900Y022220D02*
X004649Y022220D01*
X004649Y022219D02*
X003900Y022219D01*
X003900Y022218D02*
X004649Y022218D01*
X004649Y022217D02*
X003900Y022217D01*
X003900Y022216D02*
X004649Y022216D01*
X004649Y022215D02*
X003900Y022215D01*
X003900Y022214D02*
X004649Y022214D01*
X004649Y022213D02*
X003900Y022213D01*
X003900Y022212D02*
X004649Y022212D01*
X004649Y022211D02*
X003900Y022211D01*
X003900Y022210D02*
X004649Y022210D01*
X004649Y022209D02*
X003900Y022209D01*
X003900Y022208D02*
X004649Y022208D01*
X004649Y022207D02*
X003900Y022207D01*
X003900Y022206D02*
X004649Y022206D01*
X004649Y022205D02*
X003900Y022205D01*
X003900Y022204D02*
X004649Y022204D01*
X004649Y022203D02*
X003900Y022203D01*
X003900Y022202D02*
X004649Y022202D01*
X004649Y022201D02*
X003900Y022201D01*
X003900Y022200D02*
X004649Y022200D01*
X004649Y022199D02*
X003900Y022199D01*
X003900Y022198D02*
X004649Y022198D01*
X004649Y022197D02*
X003900Y022197D01*
X003900Y022196D02*
X004649Y022196D01*
X004649Y022195D02*
X003900Y022195D01*
X003900Y022194D02*
X004649Y022194D01*
X004649Y022193D02*
X003900Y022193D01*
X003900Y022192D02*
X004649Y022192D01*
X004649Y022191D02*
X003900Y022191D01*
X003900Y022190D02*
X004649Y022190D01*
X004649Y022189D02*
X003900Y022189D01*
X003900Y022188D02*
X004649Y022188D01*
X004649Y022187D02*
X003900Y022187D01*
X003900Y022186D02*
X004649Y022186D01*
X004649Y022185D02*
X003900Y022185D01*
X003900Y022184D02*
X004649Y022184D01*
X004649Y022183D02*
X003900Y022183D01*
X003900Y022182D02*
X004649Y022182D01*
X004649Y022181D02*
X003900Y022181D01*
X003900Y022180D02*
X004649Y022180D01*
X004649Y022179D02*
X003900Y022179D01*
X003900Y022178D02*
X004649Y022178D01*
X004649Y022177D02*
X003900Y022177D01*
X003900Y022176D02*
X004649Y022176D01*
X004649Y022175D02*
X003900Y022175D01*
X003900Y022174D02*
X004649Y022174D01*
X004649Y022173D02*
X003900Y022173D01*
X003900Y022172D02*
X004649Y022172D01*
X004649Y022171D02*
X003900Y022171D01*
X003900Y022170D02*
X004649Y022170D01*
X004649Y022169D02*
X003900Y022169D01*
X003900Y022168D02*
X004649Y022168D01*
X004649Y022167D02*
X003900Y022167D01*
X003900Y022166D02*
X004649Y022166D01*
X004649Y022165D02*
X003900Y022165D01*
X003900Y022164D02*
X004649Y022164D01*
X004649Y022163D02*
X003900Y022163D01*
X003900Y022162D02*
X004649Y022162D01*
X004649Y022161D02*
X003900Y022161D01*
X003900Y022160D02*
X004649Y022160D01*
X004649Y022159D02*
X003900Y022159D01*
X003900Y022158D02*
X004649Y022158D01*
X004649Y022157D02*
X003900Y022157D01*
X003900Y022156D02*
X004649Y022156D01*
X004649Y022155D02*
X003900Y022155D01*
X003900Y022154D02*
X004649Y022154D01*
X004649Y022153D02*
X003900Y022153D01*
X003900Y022152D02*
X004649Y022152D01*
X004649Y022151D02*
X003900Y022151D01*
X003900Y022150D02*
X004649Y022150D01*
X004649Y022149D02*
X003900Y022149D01*
X003900Y022148D02*
X004649Y022148D01*
X004649Y022147D02*
X003900Y022147D01*
X003900Y022146D02*
X004649Y022146D01*
X004649Y022145D02*
X003900Y022145D01*
X003900Y022144D02*
X004649Y022144D01*
X004649Y022143D02*
X003900Y022143D01*
X003900Y022142D02*
X004649Y022142D01*
X004649Y022141D02*
X003900Y022141D01*
X003900Y022140D02*
X004649Y022140D01*
X004649Y022139D02*
X003900Y022139D01*
X003900Y022138D02*
X004649Y022138D01*
X004649Y022137D02*
X003900Y022137D01*
X003900Y022136D02*
X004649Y022136D01*
X004649Y022135D02*
X003900Y022135D01*
X003900Y022134D02*
X004649Y022134D01*
X004649Y022133D02*
X003900Y022133D01*
X003900Y022132D02*
X004649Y022132D01*
X004649Y022131D02*
X003900Y022131D01*
X003900Y022130D02*
X004649Y022130D01*
X004649Y022129D02*
X003900Y022129D01*
X003900Y022128D02*
X004649Y022128D01*
X004649Y022127D02*
X003900Y022127D01*
X003900Y022126D02*
X004649Y022126D01*
X004649Y022125D02*
X003900Y022125D01*
X003900Y022124D02*
X004649Y022124D01*
X004649Y022123D02*
X003900Y022123D01*
X003900Y022122D02*
X004649Y022122D01*
X004649Y022121D02*
X003900Y022121D01*
X003900Y022120D02*
X004649Y022120D01*
X004649Y022119D02*
X003900Y022119D01*
X003900Y022118D02*
X004649Y022118D01*
X004649Y022117D02*
X003900Y022117D01*
X003900Y022116D02*
X004649Y022116D01*
X004649Y022115D02*
X003900Y022115D01*
X003900Y022114D02*
X004649Y022114D01*
X004649Y022113D02*
X003900Y022113D01*
X003900Y022112D02*
X004649Y022112D01*
X004649Y022111D02*
X003900Y022111D01*
X003900Y022110D02*
X004649Y022110D01*
X004649Y022109D02*
X003900Y022109D01*
X003900Y022108D02*
X004649Y022108D01*
X004649Y022107D02*
X003900Y022107D01*
X003900Y022106D02*
X004649Y022106D01*
X004649Y022105D02*
X003900Y022105D01*
X003900Y022104D02*
X004649Y022104D01*
X004649Y022103D02*
X003900Y022103D01*
X003900Y022102D02*
X004649Y022102D01*
X004649Y022101D02*
X003900Y022101D01*
X003900Y022100D02*
X004649Y022100D01*
X004649Y022099D02*
X003900Y022099D01*
X003900Y022098D02*
X004649Y022098D01*
X004649Y022097D02*
X003900Y022097D01*
X003900Y022096D02*
X004649Y022096D01*
X004649Y022095D02*
X003900Y022095D01*
X003900Y022094D02*
X004649Y022094D01*
X004649Y022093D02*
X003900Y022093D01*
X003900Y022092D02*
X004649Y022092D01*
X004649Y022091D02*
X003900Y022091D01*
X003900Y022090D02*
X004649Y022090D01*
X004649Y022089D02*
X003900Y022089D01*
X003900Y022088D02*
X004649Y022088D01*
X004649Y022087D02*
X003900Y022087D01*
X003900Y022086D02*
X004649Y022086D01*
X004649Y022085D02*
X003900Y022085D01*
X003900Y022084D02*
X004649Y022084D01*
X004649Y022083D02*
X003900Y022083D01*
X003900Y022082D02*
X004649Y022082D01*
X004649Y022081D02*
X003900Y022081D01*
X003900Y022080D02*
X004649Y022080D01*
X004649Y022079D02*
X003900Y022079D01*
X003900Y022078D02*
X004649Y022078D01*
X004649Y022077D02*
X003900Y022077D01*
X003900Y022076D02*
X004649Y022076D01*
X004649Y022075D02*
X003900Y022075D01*
X003900Y022074D02*
X004649Y022074D01*
X004649Y022073D02*
X003900Y022073D01*
X003900Y022072D02*
X004649Y022072D01*
X004649Y022071D02*
X003900Y022071D01*
X003900Y022070D02*
X004649Y022070D01*
X004649Y022069D02*
X003900Y022069D01*
X003900Y022068D02*
X004649Y022068D01*
X004649Y022067D02*
X003900Y022067D01*
X003900Y022066D02*
X004649Y022066D01*
X004649Y022065D02*
X003900Y022065D01*
X003900Y022064D02*
X004649Y022064D01*
X004649Y022063D02*
X003900Y022063D01*
X003900Y022062D02*
X004649Y022062D01*
X004649Y022061D02*
X003900Y022061D01*
X003900Y022060D02*
X004649Y022060D01*
X004649Y022059D02*
X003900Y022059D01*
X003900Y022058D02*
X004649Y022058D01*
X004649Y022057D02*
X003900Y022057D01*
X003900Y022056D02*
X004649Y022056D01*
X004649Y022055D02*
X003900Y022055D01*
X003900Y022054D02*
X004649Y022054D01*
X004649Y022053D02*
X003900Y022053D01*
X003900Y022052D02*
X004649Y022052D01*
X004649Y022051D02*
X003900Y022051D01*
X003900Y022050D02*
X004649Y022050D01*
X004649Y022049D02*
X003900Y022049D01*
X003900Y022048D02*
X004649Y022048D01*
X004649Y022047D02*
X003900Y022047D01*
X003900Y022046D02*
X004649Y022046D01*
X004649Y022045D02*
X003900Y022045D01*
X003900Y022044D02*
X004649Y022044D01*
X004649Y022043D02*
X003900Y022043D01*
X003900Y022042D02*
X004649Y022042D01*
X004649Y022041D02*
X003900Y022041D01*
X003900Y022040D02*
X004649Y022040D01*
X004649Y022039D02*
X003900Y022039D01*
X003900Y022038D02*
X004649Y022038D01*
X004649Y022037D02*
X003900Y022037D01*
X003900Y022036D02*
X004649Y022036D01*
X004649Y022035D02*
X003900Y022035D01*
X003900Y022034D02*
X004649Y022034D01*
X004649Y022033D02*
X003900Y022033D01*
X003900Y022032D02*
X004649Y022032D01*
X004649Y022031D02*
X003900Y022031D01*
X003900Y022030D02*
X004649Y022030D01*
X004649Y022029D02*
X003900Y022029D01*
X003900Y022028D02*
X004649Y022028D01*
X004649Y022027D02*
X003900Y022027D01*
X003900Y022026D02*
X004649Y022026D01*
X004649Y022025D02*
X003900Y022025D01*
X003900Y022024D02*
X004649Y022024D01*
X004649Y022023D02*
X003900Y022023D01*
X003900Y022022D02*
X004649Y022022D01*
X004649Y022021D02*
X003900Y022021D01*
X003900Y022020D02*
X004649Y022020D01*
X004649Y022019D02*
X003900Y022019D01*
X003900Y022018D02*
X004649Y022018D01*
X004649Y022017D02*
X003900Y022017D01*
X003900Y022016D02*
X004649Y022016D01*
X004649Y022015D02*
X003900Y022015D01*
X003900Y022014D02*
X004649Y022014D01*
X004649Y022013D02*
X003900Y022013D01*
X003900Y022012D02*
X004649Y022012D01*
X004649Y022011D02*
X003900Y022011D01*
X003900Y022010D02*
X004649Y022010D01*
X004649Y022009D02*
X003900Y022009D01*
X003900Y022008D02*
X004649Y022008D01*
X004649Y022007D02*
X003900Y022007D01*
X003900Y022006D02*
X004649Y022006D01*
X004649Y022005D02*
X003900Y022005D01*
X003900Y022004D02*
X004649Y022004D01*
X004649Y022003D02*
X003900Y022003D01*
X003900Y022002D02*
X004649Y022002D01*
X004649Y022001D02*
X003900Y022001D01*
X003900Y022000D02*
X004649Y022000D01*
X004649Y021999D02*
X003900Y021999D01*
X003900Y021998D02*
X004649Y021998D01*
X004649Y021997D02*
X003900Y021997D01*
X003900Y021996D02*
X004649Y021996D01*
X004649Y021995D02*
X003900Y021995D01*
X003900Y021994D02*
X004649Y021994D01*
X004649Y021993D02*
X003900Y021993D01*
X003900Y021992D02*
X004649Y021992D01*
X004649Y021991D02*
X003900Y021991D01*
X003900Y021990D02*
X004649Y021990D01*
X004649Y021989D02*
X003900Y021989D01*
X003900Y021988D02*
X004649Y021988D01*
X004649Y021987D02*
X003900Y021987D01*
X003900Y021986D02*
X004649Y021986D01*
X004649Y021985D02*
X003900Y021985D01*
X003900Y021984D02*
X004649Y021984D01*
X004649Y021983D02*
X003900Y021983D01*
X003900Y021982D02*
X004649Y021982D01*
X004649Y021981D02*
X003900Y021981D01*
X003900Y021980D02*
X004649Y021980D01*
X004649Y021979D02*
X003900Y021979D01*
X003900Y021978D02*
X004649Y021978D01*
X004649Y021977D02*
X003900Y021977D01*
X003900Y021976D02*
X004649Y021976D01*
X004649Y021975D02*
X003900Y021975D01*
X003900Y021974D02*
X004649Y021974D01*
X004649Y021973D02*
X003900Y021973D01*
X003900Y021972D02*
X004649Y021972D01*
X004649Y021971D02*
X003900Y021971D01*
X003900Y021970D02*
X004649Y021970D01*
X004649Y021969D02*
X003900Y021969D01*
X003900Y021968D02*
X004649Y021968D01*
X004649Y021967D02*
X003900Y021967D01*
X003900Y021966D02*
X004649Y021966D01*
X004649Y021965D02*
X003900Y021965D01*
X003900Y021964D02*
X004649Y021964D01*
X004649Y021963D02*
X003900Y021963D01*
X003900Y021962D02*
X004649Y021962D01*
X004649Y021961D02*
X003900Y021961D01*
X003900Y021960D02*
X004649Y021960D01*
X004649Y021959D02*
X003900Y021959D01*
X003900Y021958D02*
X004649Y021958D01*
X004649Y021957D02*
X003900Y021957D01*
X003900Y021956D02*
X004649Y021956D01*
X004649Y021955D02*
X003900Y021955D01*
X003900Y021954D02*
X004649Y021954D01*
X004649Y021953D02*
X003900Y021953D01*
X003900Y021952D02*
X004649Y021952D01*
X004649Y021951D02*
X003900Y021951D01*
X003900Y021950D02*
X004649Y021950D01*
X004649Y021949D02*
X003900Y021949D01*
X003900Y021948D02*
X004649Y021948D01*
X004649Y021947D02*
X003900Y021947D01*
X003900Y021946D02*
X004649Y021946D01*
X004649Y021945D02*
X003900Y021945D01*
X003900Y021944D02*
X004649Y021944D01*
X004649Y021943D02*
X003900Y021943D01*
X003900Y021942D02*
X004649Y021942D01*
X004649Y021941D02*
X003900Y021941D01*
X003900Y021940D02*
X004649Y021940D01*
X004649Y021939D02*
X003900Y021939D01*
X003900Y021938D02*
X004649Y021938D01*
X004649Y021937D02*
X003900Y021937D01*
X003900Y021936D02*
X004649Y021936D01*
X004649Y021935D02*
X003900Y021935D01*
X003900Y021934D02*
X004649Y021934D01*
X004649Y021933D02*
X003900Y021933D01*
X003900Y021932D02*
X004649Y021932D01*
X004649Y021931D02*
X003900Y021931D01*
X003900Y021930D02*
X004649Y021930D01*
X004649Y021929D02*
X003900Y021929D01*
X003900Y021928D02*
X004649Y021928D01*
X004649Y021927D02*
X003900Y021927D01*
X003900Y021926D02*
X004649Y021926D01*
X004649Y021925D02*
X003900Y021925D01*
X003900Y021924D02*
X004649Y021924D01*
X004649Y021923D02*
X003900Y021923D01*
X003900Y021922D02*
X004649Y021922D01*
X004649Y021921D02*
X003900Y021921D01*
X003900Y021920D02*
X004649Y021920D01*
X004649Y021919D02*
X003900Y021919D01*
X003900Y021918D02*
X004649Y021918D01*
X004649Y021917D02*
X003900Y021917D01*
X003900Y021916D02*
X004649Y021916D01*
X004649Y021915D02*
X003900Y021915D01*
X003900Y021914D02*
X004649Y021914D01*
X004649Y021913D02*
X003900Y021913D01*
X003900Y021912D02*
X004649Y021912D01*
X004649Y021911D02*
X003900Y021911D01*
X003900Y021910D02*
X004649Y021910D01*
X004649Y021909D02*
X003900Y021909D01*
X003900Y021908D02*
X004649Y021908D01*
X004649Y021907D02*
X003900Y021907D01*
X003900Y021906D02*
X004649Y021906D01*
X004649Y021905D02*
X003900Y021905D01*
X003900Y021904D02*
X004649Y021904D01*
X004649Y021903D02*
X003900Y021903D01*
X003900Y021902D02*
X004649Y021902D01*
X004649Y021901D02*
X003900Y021901D01*
X003900Y021900D02*
X004649Y021900D01*
X004649Y021899D02*
X003900Y021899D01*
X003900Y021898D02*
X004649Y021898D01*
X004649Y021897D02*
X003900Y021897D01*
X003900Y021896D02*
X004649Y021896D01*
X004649Y021895D02*
X003900Y021895D01*
X003900Y021894D02*
X004649Y021894D01*
X004649Y021893D02*
X003900Y021893D01*
X003900Y021892D02*
X004649Y021892D01*
X004649Y021891D02*
X003900Y021891D01*
X003900Y021890D02*
X004649Y021890D01*
X004649Y021889D02*
X003900Y021889D01*
X003900Y021888D02*
X004649Y021888D01*
X004649Y021887D02*
X003900Y021887D01*
X003900Y021886D02*
X004649Y021886D01*
X004649Y021885D02*
X003900Y021885D01*
X003900Y021884D02*
X004649Y021884D01*
X004649Y021883D02*
X003900Y021883D01*
X003900Y021882D02*
X004649Y021882D01*
X004649Y021881D02*
X003900Y021881D01*
X003900Y021880D02*
X004649Y021880D01*
X004649Y021879D02*
X003900Y021879D01*
X003900Y021878D02*
X004649Y021878D01*
X004649Y021877D02*
X003900Y021877D01*
X003900Y021876D02*
X004649Y021876D01*
X004649Y021875D02*
X003900Y021875D01*
X003900Y021874D02*
X004649Y021874D01*
X004649Y021873D02*
X003900Y021873D01*
X003900Y021872D02*
X004649Y021872D01*
X004649Y021871D02*
X003900Y021871D01*
X003900Y021870D02*
X004649Y021870D01*
X004649Y021869D02*
X003900Y021869D01*
X003900Y021868D02*
X004649Y021868D01*
X004649Y021867D02*
X003900Y021867D01*
X003900Y021866D02*
X004649Y021866D01*
X004649Y021865D02*
X003900Y021865D01*
X003900Y021864D02*
X004649Y021864D01*
X004649Y021863D02*
X003900Y021863D01*
X003900Y021862D02*
X004649Y021862D01*
X004649Y021861D02*
X003900Y021861D01*
X003900Y021860D02*
X004649Y021860D01*
X004649Y021859D02*
X003900Y021859D01*
X003900Y021858D02*
X004649Y021858D01*
X004649Y021857D02*
X003900Y021857D01*
X003900Y021856D02*
X004649Y021856D01*
X004649Y021855D02*
X003900Y021855D01*
X003900Y021854D02*
X004649Y021854D01*
X004649Y021853D02*
X003900Y021853D01*
X003900Y021852D02*
X004649Y021852D01*
X004649Y021851D02*
X003900Y021851D01*
X003900Y021850D02*
X004649Y021850D01*
X004649Y021849D02*
X003900Y021849D01*
X003900Y021848D02*
X004649Y021848D01*
X004649Y021847D02*
X003900Y021847D01*
X003900Y021846D02*
X004649Y021846D01*
X004649Y021845D02*
X003900Y021845D01*
X003900Y021844D02*
X004649Y021844D01*
X004649Y021843D02*
X003900Y021843D01*
X003900Y021842D02*
X004649Y021842D01*
X004649Y021841D02*
X003900Y021841D01*
X003900Y021840D02*
X004649Y021840D01*
X004649Y021839D02*
X003900Y021839D01*
X003900Y021838D02*
X004649Y021838D01*
X004649Y021837D02*
X003900Y021837D01*
X003900Y021836D02*
X004649Y021836D01*
X004649Y021835D02*
X003900Y021835D01*
X003900Y021834D02*
X004649Y021834D01*
X004648Y021833D02*
X003901Y021833D01*
X003901Y021832D02*
X004648Y021832D01*
X004648Y021831D02*
X003901Y021831D01*
X003901Y021830D02*
X004648Y021830D01*
X004648Y021829D02*
X003901Y021829D01*
X003901Y021828D02*
X004648Y021828D01*
X004648Y021827D02*
X003901Y021827D01*
X003901Y021826D02*
X004648Y021826D01*
X004648Y021825D02*
X003901Y021825D01*
X003902Y021824D02*
X004647Y021824D01*
X004647Y021823D02*
X003902Y021823D01*
X003902Y021822D02*
X004647Y021822D01*
X004647Y021821D02*
X003902Y021821D01*
X003902Y021820D02*
X004647Y021820D01*
X004647Y021819D02*
X003902Y021819D01*
X003902Y021818D02*
X004647Y021818D01*
X004647Y021817D02*
X003902Y021817D01*
X003902Y021816D02*
X004647Y021816D01*
X004646Y021815D02*
X003903Y021815D01*
X003903Y021814D02*
X004646Y021814D01*
X004646Y021813D02*
X003903Y021813D01*
X003903Y021812D02*
X004646Y021812D01*
X004646Y021811D02*
X003903Y021811D01*
X003903Y021810D02*
X004646Y021810D01*
X004646Y021809D02*
X003903Y021809D01*
X003903Y021808D02*
X004646Y021808D01*
X004646Y021807D02*
X003903Y021807D01*
X003904Y021806D02*
X004645Y021806D01*
X004645Y021805D02*
X003904Y021805D01*
X003904Y021804D02*
X004645Y021804D01*
X004645Y021803D02*
X003904Y021803D01*
X003904Y021802D02*
X004645Y021802D01*
X004645Y021801D02*
X003904Y021801D01*
X003904Y021800D02*
X004645Y021800D01*
X004645Y021799D02*
X003904Y021799D01*
X003904Y021798D02*
X004645Y021798D01*
X004644Y021797D02*
X003905Y021797D01*
X003905Y021796D02*
X004644Y021796D01*
X004644Y021795D02*
X003905Y021795D01*
X003905Y021794D02*
X004644Y021794D01*
X004644Y021793D02*
X003905Y021793D01*
X003905Y021792D02*
X004644Y021792D01*
X004644Y021791D02*
X003905Y021791D01*
X003905Y021790D02*
X004644Y021790D01*
X004643Y021789D02*
X003906Y021789D01*
X003906Y021788D02*
X004643Y021788D01*
X004643Y021787D02*
X003906Y021787D01*
X003907Y021786D02*
X004642Y021786D01*
X004642Y021785D02*
X003907Y021785D01*
X003907Y021784D02*
X004642Y021784D01*
X004641Y021783D02*
X003908Y021783D01*
X003908Y021782D02*
X004641Y021782D01*
X004641Y021781D02*
X003908Y021781D01*
X003909Y021780D02*
X004640Y021780D01*
X004640Y021779D02*
X003909Y021779D01*
X003909Y021778D02*
X004640Y021778D01*
X004639Y021777D02*
X003910Y021777D01*
X003910Y021776D02*
X004639Y021776D01*
X004639Y021775D02*
X003910Y021775D01*
X003911Y021774D02*
X004638Y021774D01*
X004638Y021773D02*
X003911Y021773D01*
X003912Y021772D02*
X004637Y021772D01*
X004637Y021771D02*
X003912Y021771D01*
X003912Y021770D02*
X004637Y021770D01*
X004636Y021769D02*
X003913Y021769D01*
X003913Y021768D02*
X004636Y021768D01*
X004636Y021767D02*
X003913Y021767D01*
X003914Y021766D02*
X004635Y021766D01*
X004635Y021765D02*
X003914Y021765D01*
X003914Y021764D02*
X004635Y021764D01*
X004634Y021763D02*
X003915Y021763D01*
X003915Y021762D02*
X004634Y021762D01*
X004634Y021761D02*
X003915Y021761D01*
X003916Y021760D02*
X004633Y021760D01*
X004633Y021759D02*
X003916Y021759D01*
X003916Y021758D02*
X004633Y021758D01*
X004632Y021757D02*
X003917Y021757D01*
X003917Y021756D02*
X004632Y021756D01*
X004632Y021755D02*
X003917Y021755D01*
X003918Y021754D02*
X004631Y021754D01*
X004631Y021753D02*
X003918Y021753D01*
X003919Y021752D02*
X004630Y021752D01*
X004630Y021751D02*
X003919Y021751D01*
X003919Y021750D02*
X004630Y021750D01*
X004629Y021749D02*
X003920Y021749D01*
X003920Y021748D02*
X004629Y021748D01*
X004628Y021747D02*
X003921Y021747D01*
X003921Y021746D02*
X004628Y021746D01*
X004627Y021745D02*
X003922Y021745D01*
X003922Y021744D02*
X004627Y021744D01*
X004626Y021743D02*
X003923Y021743D01*
X003924Y021742D02*
X004625Y021742D01*
X004625Y021741D02*
X003924Y021741D01*
X003925Y021740D02*
X004624Y021740D01*
X004623Y021739D02*
X003926Y021739D01*
X003926Y021738D02*
X004623Y021738D01*
X004622Y021737D02*
X003927Y021737D01*
X003927Y021736D02*
X004622Y021736D01*
X004621Y021735D02*
X003928Y021735D01*
X003929Y021734D02*
X004620Y021734D01*
X004620Y021733D02*
X003929Y021733D01*
X003930Y021732D02*
X004619Y021732D01*
X004618Y021731D02*
X003931Y021731D01*
X003931Y021730D02*
X004618Y021730D01*
X004617Y021729D02*
X003932Y021729D01*
X003932Y021728D02*
X004617Y021728D01*
X004616Y021727D02*
X003933Y021727D01*
X003934Y021726D02*
X004615Y021726D01*
X004615Y021725D02*
X003934Y021725D01*
X003935Y021724D02*
X004614Y021724D01*
X004613Y021723D02*
X003936Y021723D01*
X003936Y021722D02*
X004613Y021722D01*
X004612Y021721D02*
X003937Y021721D01*
X003937Y021720D02*
X004612Y021720D01*
X004611Y021719D02*
X003938Y021719D01*
X003939Y021718D02*
X004610Y021718D01*
X004610Y021717D02*
X003939Y021717D01*
X003940Y021716D02*
X004609Y021716D01*
X004608Y021715D02*
X003941Y021715D01*
X003941Y021714D02*
X004608Y021714D01*
X004607Y021713D02*
X003942Y021713D01*
X003942Y021712D02*
X004607Y021712D01*
X004606Y021711D02*
X003943Y021711D01*
X003944Y021710D02*
X004605Y021710D01*
X004604Y021709D02*
X003945Y021709D01*
X003946Y021708D02*
X004603Y021708D01*
X004602Y021707D02*
X003947Y021707D01*
X003948Y021706D02*
X004601Y021706D01*
X004600Y021705D02*
X003949Y021705D01*
X003950Y021704D02*
X004599Y021704D01*
X004598Y021703D02*
X003951Y021703D01*
X003952Y021702D02*
X004597Y021702D01*
X004596Y021701D02*
X003953Y021701D01*
X003954Y021700D02*
X004595Y021700D01*
X004594Y021699D02*
X003955Y021699D01*
X003956Y021698D02*
X004593Y021698D01*
X004592Y021697D02*
X003957Y021697D01*
X003958Y021696D02*
X004591Y021696D01*
X004590Y021695D02*
X003959Y021695D01*
X003960Y021694D02*
X004589Y021694D01*
X004588Y021693D02*
X003961Y021693D01*
X003962Y021692D02*
X004587Y021692D01*
X004586Y021691D02*
X003963Y021691D01*
X003964Y021690D02*
X004585Y021690D01*
X004584Y021689D02*
X003965Y021689D01*
X003966Y021688D02*
X004583Y021688D01*
X004582Y021687D02*
X003967Y021687D01*
X003968Y021686D02*
X004581Y021686D01*
X004580Y021685D02*
X003969Y021685D01*
X003970Y021684D02*
X004579Y021684D01*
X004578Y021683D02*
X003971Y021683D01*
X003972Y021682D02*
X004577Y021682D01*
X004576Y021681D02*
X003973Y021681D01*
X003974Y021680D02*
X004575Y021680D01*
X004574Y021679D02*
X003975Y021679D01*
X003977Y021678D02*
X004572Y021678D01*
X004571Y021677D02*
X003978Y021677D01*
X003980Y021676D02*
X004569Y021676D01*
X004568Y021675D02*
X003981Y021675D01*
X003983Y021674D02*
X004566Y021674D01*
X004564Y021673D02*
X003985Y021673D01*
X003986Y021672D02*
X004563Y021672D01*
X004561Y021671D02*
X003988Y021671D01*
X003989Y021670D02*
X004560Y021670D01*
X004558Y021669D02*
X003991Y021669D01*
X003993Y021668D02*
X004556Y021668D01*
X004555Y021667D02*
X003994Y021667D01*
X003996Y021666D02*
X004553Y021666D01*
X004552Y021665D02*
X003997Y021665D01*
X003999Y021664D02*
X004550Y021664D01*
X004548Y021663D02*
X004000Y021663D01*
X004002Y021662D02*
X004547Y021662D01*
X004545Y021661D02*
X004004Y021661D01*
X004005Y021660D02*
X004544Y021660D01*
X004542Y021659D02*
X004007Y021659D01*
X004008Y021658D02*
X004541Y021658D01*
X004539Y021657D02*
X004010Y021657D01*
X004012Y021656D02*
X004537Y021656D01*
X004535Y021655D02*
X004014Y021655D01*
X004017Y021654D02*
X004532Y021654D01*
X004529Y021653D02*
X004020Y021653D01*
X004023Y021652D02*
X004526Y021652D01*
X004523Y021651D02*
X004026Y021651D01*
X004029Y021650D02*
X004520Y021650D01*
X004518Y021649D02*
X004031Y021649D01*
X004034Y021648D02*
X004515Y021648D01*
X004512Y021647D02*
X004037Y021647D01*
X004040Y021646D02*
X004509Y021646D01*
X004506Y021645D02*
X004043Y021645D01*
X004046Y021644D02*
X004503Y021644D01*
X004500Y021643D02*
X004048Y021643D01*
X004051Y021642D02*
X004498Y021642D01*
X004493Y021641D02*
X004056Y021641D01*
X004065Y021640D02*
X004484Y021640D01*
X004476Y021639D02*
X004073Y021639D01*
X004082Y021638D02*
X004467Y021638D01*
X004458Y021637D02*
X004091Y021637D01*
X003900Y024157D02*
X004649Y024157D01*
X004649Y024158D02*
X003900Y024158D01*
X003900Y024159D02*
X004649Y024159D01*
X004649Y024160D02*
X003900Y024160D01*
X003900Y024161D02*
X004649Y024161D01*
X004649Y024162D02*
X003900Y024162D01*
X003900Y024163D02*
X004649Y024163D01*
X004649Y024164D02*
X003900Y024164D01*
X003900Y024165D02*
X004649Y024165D01*
X004649Y024166D02*
X003900Y024166D01*
X003900Y024167D02*
X004649Y024167D01*
X004649Y024168D02*
X003900Y024168D01*
X003900Y024169D02*
X004649Y024169D01*
X004649Y024170D02*
X003900Y024170D01*
X003900Y024171D02*
X004649Y024171D01*
X004649Y024172D02*
X003900Y024172D01*
X003900Y024173D02*
X004649Y024173D01*
X004649Y024174D02*
X003900Y024174D01*
X003900Y024175D02*
X004649Y024175D01*
X004649Y024176D02*
X003900Y024176D01*
X003900Y024177D02*
X004649Y024177D01*
X004649Y024178D02*
X003900Y024178D01*
X003900Y024179D02*
X004649Y024179D01*
X004649Y024180D02*
X003900Y024180D01*
X003900Y024181D02*
X004649Y024181D01*
X004649Y024182D02*
X003900Y024182D01*
X003900Y024183D02*
X004649Y024183D01*
X004649Y024184D02*
X003900Y024184D01*
X003900Y024185D02*
X004649Y024185D01*
X004649Y024186D02*
X003900Y024186D01*
X003900Y024187D02*
X004649Y024187D01*
X004649Y024188D02*
X003900Y024188D01*
X003900Y024189D02*
X004649Y024189D01*
X004649Y024190D02*
X003900Y024190D01*
X003900Y024191D02*
X004649Y024191D01*
X004649Y024192D02*
X003900Y024192D01*
X003900Y024193D02*
X004649Y024193D01*
X004649Y024194D02*
X003900Y024194D01*
X003900Y024195D02*
X004649Y024195D01*
X004649Y024196D02*
X003900Y024196D01*
X003900Y024197D02*
X004649Y024197D01*
X004649Y024198D02*
X003900Y024198D01*
X003900Y024199D02*
X004649Y024199D01*
X004649Y024200D02*
X003900Y024200D01*
X003900Y024201D02*
X004649Y024201D01*
X004649Y024202D02*
X003900Y024202D01*
X003900Y024203D02*
X004649Y024203D01*
X004649Y024204D02*
X003900Y024204D01*
X003900Y024205D02*
X004649Y024205D01*
X004649Y024206D02*
X003900Y024206D01*
X003900Y024207D02*
X004649Y024207D01*
X004649Y024208D02*
X003900Y024208D01*
X003900Y024209D02*
X004649Y024209D01*
X004649Y024210D02*
X003900Y024210D01*
X003900Y024211D02*
X004649Y024211D01*
X004649Y024212D02*
X003900Y024212D01*
X003900Y024213D02*
X004649Y024213D01*
X004649Y024214D02*
X003900Y024214D01*
X003900Y024215D02*
X004649Y024215D01*
X004649Y024216D02*
X003900Y024216D01*
X003900Y024217D02*
X004649Y024217D01*
X004649Y024218D02*
X003900Y024218D01*
X003900Y024219D02*
X004649Y024219D01*
X004649Y024220D02*
X003900Y024220D01*
X003900Y024221D02*
X004649Y024221D01*
X004649Y024222D02*
X003900Y024222D01*
X003900Y024223D02*
X004649Y024223D01*
X004649Y024224D02*
X003900Y024224D01*
X003900Y024225D02*
X004649Y024225D01*
X004649Y024226D02*
X003900Y024226D01*
X003900Y024227D02*
X004649Y024227D01*
X004649Y024228D02*
X003900Y024228D01*
X003900Y024229D02*
X004649Y024229D01*
X004649Y024230D02*
X003900Y024230D01*
X003900Y024231D02*
X004649Y024231D01*
X004649Y024232D02*
X003900Y024232D01*
X003900Y024233D02*
X004649Y024233D01*
X004649Y024234D02*
X003900Y024234D01*
X003900Y024235D02*
X004649Y024235D01*
X004649Y024236D02*
X003900Y024236D01*
X003900Y024237D02*
X004649Y024237D01*
X004649Y024238D02*
X003900Y024238D01*
X003900Y024239D02*
X004649Y024239D01*
X004649Y024240D02*
X003900Y024240D01*
X003900Y024241D02*
X004649Y024241D01*
X004649Y024242D02*
X003900Y024242D01*
X003900Y024243D02*
X004649Y024243D01*
X004649Y024244D02*
X003900Y024244D01*
X003900Y024245D02*
X004649Y024245D01*
X004649Y024246D02*
X003900Y024246D01*
X003900Y024247D02*
X004649Y024247D01*
X004649Y024248D02*
X003900Y024248D01*
X003900Y024249D02*
X004649Y024249D01*
X004649Y024250D02*
X003900Y024250D01*
X003900Y024251D02*
X004649Y024251D01*
X004649Y024252D02*
X003900Y024252D01*
X003900Y024253D02*
X004649Y024253D01*
X004649Y024254D02*
X003900Y024254D01*
X003900Y024255D02*
X004649Y024255D01*
X004649Y024256D02*
X003900Y024256D01*
X003900Y024257D02*
X004649Y024257D01*
X004649Y024258D02*
X003900Y024258D01*
X003900Y024259D02*
X004649Y024259D01*
X004649Y024260D02*
X003900Y024260D01*
X003900Y024261D02*
X004649Y024261D01*
X004649Y024262D02*
X003900Y024262D01*
X003900Y024263D02*
X004649Y024263D01*
X004649Y024264D02*
X003900Y024264D01*
X003900Y024265D02*
X004649Y024265D01*
X004649Y024266D02*
X003900Y024266D01*
X003900Y024267D02*
X004649Y024267D01*
X004649Y024268D02*
X003900Y024268D01*
X003900Y024269D02*
X004649Y024269D01*
X004649Y024270D02*
X003900Y024270D01*
X003900Y024271D02*
X004649Y024271D01*
X004649Y024272D02*
X003900Y024272D01*
X003900Y024273D02*
X004649Y024273D01*
X004649Y024274D02*
X003900Y024274D01*
X003900Y024275D02*
X004649Y024275D01*
X004649Y024276D02*
X003900Y024276D01*
X003900Y024277D02*
X004649Y024277D01*
X004649Y024278D02*
X003900Y024278D01*
X003900Y024279D02*
X004649Y024279D01*
X004649Y024280D02*
X003900Y024280D01*
X003900Y024281D02*
X004649Y024281D01*
X004649Y024282D02*
X003900Y024282D01*
X003900Y024283D02*
X004649Y024283D01*
X004649Y024284D02*
X003900Y024284D01*
X003900Y024285D02*
X004649Y024285D01*
X004649Y024286D02*
X003900Y024286D01*
X003900Y024287D02*
X004649Y024287D01*
X004649Y024288D02*
X003900Y024288D01*
X003900Y024289D02*
X004649Y024289D01*
X004649Y024290D02*
X003900Y024290D01*
X003900Y024291D02*
X004649Y024291D01*
X004649Y024292D02*
X003900Y024292D01*
X003900Y024293D02*
X004649Y024293D01*
X004649Y024294D02*
X003900Y024294D01*
X003900Y024295D02*
X004649Y024295D01*
X004649Y024296D02*
X003900Y024296D01*
X003900Y024297D02*
X004649Y024297D01*
X004649Y024298D02*
X003900Y024298D01*
X003900Y024299D02*
X004649Y024299D01*
X004649Y024300D02*
X003900Y024300D01*
X003900Y024301D02*
X004649Y024301D01*
X004649Y024302D02*
X003900Y024302D01*
X003900Y024303D02*
X004649Y024303D01*
X004649Y024304D02*
X003900Y024304D01*
X003900Y024305D02*
X004649Y024305D01*
X004649Y024306D02*
X003900Y024306D01*
X003900Y024307D02*
X004649Y024307D01*
X004649Y024308D02*
X003900Y024308D01*
X003900Y024309D02*
X004649Y024309D01*
X004649Y024310D02*
X003900Y024310D01*
X003900Y024311D02*
X004649Y024311D01*
X004649Y024312D02*
X003900Y024312D01*
X003900Y024313D02*
X004649Y024313D01*
X004649Y024314D02*
X003900Y024314D01*
X003900Y024315D02*
X004649Y024315D01*
X004649Y024316D02*
X003900Y024316D01*
X003900Y024317D02*
X004649Y024317D01*
X004649Y024318D02*
X003900Y024318D01*
X003900Y024319D02*
X004649Y024319D01*
X004649Y024320D02*
X003900Y024320D01*
X003900Y024321D02*
X004649Y024321D01*
X004649Y024322D02*
X003900Y024322D01*
X003900Y024323D02*
X004649Y024323D01*
X004649Y024324D02*
X003900Y024324D01*
X003900Y024325D02*
X004649Y024325D01*
X004649Y024326D02*
X003900Y024326D01*
X003900Y024327D02*
X004649Y024327D01*
X004649Y024328D02*
X003900Y024328D01*
X003900Y024329D02*
X004649Y024329D01*
X004649Y024330D02*
X003900Y024330D01*
X003900Y024331D02*
X004649Y024331D01*
X004649Y024332D02*
X003900Y024332D01*
X003900Y024333D02*
X004649Y024333D01*
X004649Y024334D02*
X003900Y024334D01*
X003900Y024335D02*
X004649Y024335D01*
X004649Y024336D02*
X003900Y024336D01*
X003900Y024337D02*
X004649Y024337D01*
X004649Y024338D02*
X003900Y024338D01*
X003900Y024339D02*
X004649Y024339D01*
X004649Y024340D02*
X003900Y024340D01*
X003900Y024341D02*
X004649Y024341D01*
X004649Y024342D02*
X003900Y024342D01*
X003900Y024343D02*
X004649Y024343D01*
X004649Y024344D02*
X003900Y024344D01*
X003900Y024345D02*
X004649Y024345D01*
X004649Y024346D02*
X003900Y024346D01*
X003900Y024347D02*
X004649Y024347D01*
X004649Y024348D02*
X003900Y024348D01*
X003900Y024349D02*
X004649Y024349D01*
X004649Y024350D02*
X003900Y024350D01*
X003900Y024351D02*
X004649Y024351D01*
X004649Y024352D02*
X003900Y024352D01*
X003900Y024353D02*
X004649Y024353D01*
X004649Y024354D02*
X003900Y024354D01*
X003900Y024355D02*
X004649Y024355D01*
X004649Y024356D02*
X003900Y024356D01*
X003900Y024357D02*
X004649Y024357D01*
X004649Y024358D02*
X003900Y024358D01*
X003900Y024359D02*
X004649Y024359D01*
X004649Y024360D02*
X003900Y024360D01*
X003900Y024361D02*
X004649Y024361D01*
X004649Y024362D02*
X003900Y024362D01*
X003900Y024363D02*
X004649Y024363D01*
X004649Y024364D02*
X003900Y024364D01*
X003900Y024365D02*
X004649Y024365D01*
X004649Y024366D02*
X003900Y024366D01*
X003900Y024367D02*
X004649Y024367D01*
X004649Y024368D02*
X003900Y024368D01*
X003900Y024369D02*
X004649Y024369D01*
X004649Y024370D02*
X003900Y024370D01*
X003900Y024371D02*
X004649Y024371D01*
X004649Y024372D02*
X003900Y024372D01*
X003900Y024373D02*
X004649Y024373D01*
X004649Y024374D02*
X003900Y024374D01*
X003900Y024375D02*
X004649Y024375D01*
X004649Y024376D02*
X003900Y024376D01*
X003900Y024377D02*
X004649Y024377D01*
X004649Y024378D02*
X003900Y024378D01*
X003900Y024379D02*
X004649Y024379D01*
X004649Y024380D02*
X003900Y024380D01*
X003900Y024381D02*
X004649Y024381D01*
X004649Y024382D02*
X003900Y024382D01*
X003900Y024383D02*
X004649Y024383D01*
X004649Y024384D02*
X003900Y024384D01*
X003900Y024385D02*
X004649Y024385D01*
X004649Y024386D02*
X003900Y024386D01*
X003900Y024387D02*
X004649Y024387D01*
X004649Y024388D02*
X003900Y024388D01*
X003900Y024389D02*
X004649Y024389D01*
X004649Y024390D02*
X003900Y024390D01*
X003900Y024391D02*
X004649Y024391D01*
X004649Y024392D02*
X003900Y024392D01*
X003900Y024393D02*
X004649Y024393D01*
X004649Y024394D02*
X003900Y024394D01*
X003900Y024395D02*
X004649Y024395D01*
X004649Y024396D02*
X003900Y024396D01*
X003900Y024397D02*
X004649Y024397D01*
X004649Y024398D02*
X003900Y024398D01*
X003900Y024399D02*
X004649Y024399D01*
X004649Y024400D02*
X003900Y024400D01*
X003900Y024401D02*
X004649Y024401D01*
X004649Y024402D02*
X003900Y024402D01*
X003900Y024403D02*
X004649Y024403D01*
X004649Y024404D02*
X003900Y024404D01*
X003900Y024405D02*
X004649Y024405D01*
X004649Y024406D02*
X003900Y024406D01*
X003900Y024407D02*
X004649Y024407D01*
X004649Y024408D02*
X003900Y024408D01*
X003900Y024409D02*
X004649Y024409D01*
X004649Y024410D02*
X003900Y024410D01*
X003900Y024411D02*
X004649Y024411D01*
X004649Y024412D02*
X003900Y024412D01*
X003900Y024413D02*
X004649Y024413D01*
X004649Y024414D02*
X003900Y024414D01*
X003900Y024415D02*
X004649Y024415D01*
X004649Y024416D02*
X003900Y024416D01*
X003900Y024417D02*
X004649Y024417D01*
X004649Y024418D02*
X003900Y024418D01*
X003900Y024419D02*
X004649Y024419D01*
X004649Y024420D02*
X003900Y024420D01*
X003900Y024421D02*
X004649Y024421D01*
X004649Y024422D02*
X003900Y024422D01*
X003900Y024423D02*
X004649Y024423D01*
X004649Y024424D02*
X003900Y024424D01*
X003900Y024425D02*
X004649Y024425D01*
X004649Y024426D02*
X003900Y024426D01*
X003900Y024427D02*
X004649Y024427D01*
X004649Y024428D02*
X003900Y024428D01*
X003900Y024429D02*
X004649Y024429D01*
X004649Y024430D02*
X003900Y024430D01*
X003900Y024431D02*
X004649Y024431D01*
X004649Y024432D02*
X003900Y024432D01*
X003900Y024433D02*
X004649Y024433D01*
X004649Y024434D02*
X003900Y024434D01*
X003900Y024435D02*
X004649Y024435D01*
X004649Y024436D02*
X003900Y024436D01*
X003900Y024437D02*
X004649Y024437D01*
X004649Y024438D02*
X003900Y024438D01*
X003900Y024439D02*
X004649Y024439D01*
X004649Y024440D02*
X003900Y024440D01*
X003900Y024441D02*
X004649Y024441D01*
X004649Y024442D02*
X003900Y024442D01*
X003900Y024443D02*
X004649Y024443D01*
X004649Y024444D02*
X003900Y024444D01*
X003900Y024445D02*
X004649Y024445D01*
X004649Y024446D02*
X003900Y024446D01*
X003900Y024447D02*
X004649Y024447D01*
X004649Y024448D02*
X003900Y024448D01*
X003900Y024449D02*
X004649Y024449D01*
X004649Y024450D02*
X003900Y024450D01*
X003900Y024451D02*
X004649Y024451D01*
X004649Y024452D02*
X003900Y024452D01*
X003900Y024453D02*
X004649Y024453D01*
X004649Y024454D02*
X003900Y024454D01*
X003900Y024455D02*
X004649Y024455D01*
X004649Y024456D02*
X003900Y024456D01*
X003900Y024457D02*
X004649Y024457D01*
X004649Y024458D02*
X003900Y024458D01*
X003900Y024459D02*
X004649Y024459D01*
X004649Y024460D02*
X003900Y024460D01*
X003900Y024461D02*
X004649Y024461D01*
X004649Y024462D02*
X003900Y024462D01*
X003900Y024463D02*
X004649Y024463D01*
X004649Y024464D02*
X003900Y024464D01*
X003900Y024465D02*
X004649Y024465D01*
X004649Y024466D02*
X003900Y024466D01*
X003900Y024467D02*
X004649Y024467D01*
X004649Y024468D02*
X003900Y024468D01*
X003900Y024469D02*
X004649Y024469D01*
X004649Y024470D02*
X003900Y024470D01*
X003900Y024471D02*
X004649Y024471D01*
X004649Y024472D02*
X003900Y024472D01*
X003900Y024473D02*
X004649Y024473D01*
X004649Y024474D02*
X003900Y024474D01*
X003900Y024475D02*
X004649Y024475D01*
X004649Y024476D02*
X003900Y024476D01*
X003900Y024477D02*
X004649Y024477D01*
X004649Y024478D02*
X003900Y024478D01*
X003900Y024479D02*
X004649Y024479D01*
X004649Y024480D02*
X003900Y024480D01*
X003900Y024481D02*
X004649Y024481D01*
X004649Y024482D02*
X003900Y024482D01*
X003900Y024483D02*
X004649Y024483D01*
X004649Y024484D02*
X003900Y024484D01*
X003900Y024485D02*
X004649Y024485D01*
X004649Y024486D02*
X003900Y024486D01*
X003900Y024487D02*
X004649Y024487D01*
X004649Y024488D02*
X003900Y024488D01*
X003900Y024489D02*
X004649Y024489D01*
X004649Y024490D02*
X003900Y024490D01*
X003900Y024491D02*
X004649Y024491D01*
X004649Y024492D02*
X003900Y024492D01*
X003900Y024493D02*
X004649Y024493D01*
X004649Y024494D02*
X003900Y024494D01*
X003900Y024495D02*
X004649Y024495D01*
X004649Y024496D02*
X003900Y024496D01*
X003900Y024497D02*
X004649Y024497D01*
X004649Y024498D02*
X003900Y024498D01*
X003900Y024499D02*
X004649Y024499D01*
X004649Y024500D02*
X003900Y024500D01*
X003900Y024501D02*
X004649Y024501D01*
X004649Y024502D02*
X003900Y024502D01*
X003900Y024503D02*
X004649Y024503D01*
X004649Y024504D02*
X003900Y024504D01*
X003900Y024505D02*
X004649Y024505D01*
X004649Y024506D02*
X003900Y024506D01*
X003900Y024507D02*
X004649Y024507D01*
X004649Y024508D02*
X003900Y024508D01*
X003900Y024509D02*
X004649Y024509D01*
X004649Y024510D02*
X003900Y024510D01*
X003900Y024511D02*
X004649Y024511D01*
X004649Y024512D02*
X003900Y024512D01*
X003900Y024513D02*
X004649Y024513D01*
X004649Y024514D02*
X003900Y024514D01*
X003900Y024515D02*
X004649Y024515D01*
X004649Y024516D02*
X003900Y024516D01*
X003900Y024517D02*
X004649Y024517D01*
X004649Y024518D02*
X003900Y024518D01*
X003900Y024519D02*
X004649Y024519D01*
X004649Y024520D02*
X003900Y024520D01*
X003900Y024521D02*
X004649Y024521D01*
X004649Y024522D02*
X003900Y024522D01*
X003900Y024523D02*
X004649Y024523D01*
X004649Y024524D02*
X003900Y024524D01*
X003900Y024525D02*
X004649Y024525D01*
X004649Y024526D02*
X003900Y024526D01*
X003900Y024527D02*
X004649Y024527D01*
X004649Y024528D02*
X003900Y024528D01*
X003900Y024529D02*
X004649Y024529D01*
X004649Y024530D02*
X003900Y024530D01*
X003900Y024531D02*
X004649Y024531D01*
X004649Y024532D02*
X003900Y024532D01*
X003900Y024533D02*
X004649Y024533D01*
X004649Y024534D02*
X003900Y024534D01*
X003900Y024535D02*
X004649Y024535D01*
X004649Y024536D02*
X003900Y024536D01*
X003900Y024537D02*
X004649Y024537D01*
X004649Y024538D02*
X003900Y024538D01*
X003900Y024539D02*
X004649Y024539D01*
X004649Y024540D02*
X003900Y024540D01*
X003900Y024541D02*
X004649Y024541D01*
X004649Y024542D02*
X003900Y024542D01*
X003900Y024543D02*
X004649Y024543D01*
X004649Y024544D02*
X003900Y024544D01*
X003900Y024545D02*
X004649Y024545D01*
X004649Y024546D02*
X003900Y024546D01*
X003900Y024547D02*
X004649Y024547D01*
X004649Y024548D02*
X003900Y024548D01*
X003900Y024549D02*
X004649Y024549D01*
X004649Y024550D02*
X003900Y024550D01*
X003900Y024551D02*
X004649Y024551D01*
X004649Y024552D02*
X003900Y024552D01*
X003900Y024553D02*
X004649Y024553D01*
X004649Y024554D02*
X003900Y024554D01*
X003900Y024555D02*
X004649Y024555D01*
X004649Y024556D02*
X003900Y024556D01*
X003900Y024557D02*
X004649Y024557D01*
X004649Y024558D02*
X003900Y024558D01*
X003900Y024559D02*
X004649Y024559D01*
X004649Y024560D02*
X003900Y024560D01*
X003900Y024561D02*
X004649Y024561D01*
X004649Y024562D02*
X003900Y024562D01*
X003900Y024563D02*
X004649Y024563D01*
X004649Y024564D02*
X003900Y024564D01*
X003900Y024565D02*
X004649Y024565D01*
X004649Y024566D02*
X003900Y024566D01*
X003900Y024567D02*
X004649Y024567D01*
X004649Y024568D02*
X003900Y024568D01*
X003900Y024569D02*
X004649Y024569D01*
X004649Y024570D02*
X003900Y024570D01*
X003900Y024571D02*
X004649Y024571D01*
X004649Y024572D02*
X003900Y024572D01*
X003900Y024573D02*
X004649Y024573D01*
X003900Y024573D01*
X003900Y024574D02*
X004649Y024574D01*
X004649Y024575D02*
X003900Y024575D01*
X003900Y024576D02*
X004649Y024576D01*
X004649Y024577D02*
X003900Y024577D01*
X003900Y024578D02*
X004649Y024578D01*
X004649Y024579D02*
X003900Y024579D01*
X003900Y024580D02*
X004649Y024580D01*
X004649Y024581D02*
X003900Y024581D01*
X003900Y024582D02*
X004649Y024582D01*
X004649Y024583D02*
X003900Y024583D01*
X003900Y024584D02*
X004649Y024584D01*
X004649Y024585D02*
X003900Y024585D01*
X003900Y024586D02*
X004649Y024586D01*
X004649Y024587D02*
X003900Y024587D01*
X003900Y024588D02*
X004649Y024588D01*
X004649Y024589D02*
X003900Y024589D01*
X003900Y024590D02*
X004649Y024590D01*
X004649Y024591D02*
X003900Y024591D01*
X003900Y024592D02*
X004649Y024592D01*
X004649Y024593D02*
X003900Y024593D01*
X003900Y024594D02*
X004649Y024594D01*
X004649Y024595D02*
X003900Y024595D01*
X003900Y024596D02*
X004649Y024596D01*
X004649Y024597D02*
X003900Y024597D01*
X003900Y024598D02*
X004649Y024598D01*
X004649Y024599D02*
X003900Y024599D01*
X003900Y024600D02*
X004649Y024600D01*
X004649Y024601D02*
X003900Y024601D01*
X003900Y024602D02*
X004649Y024602D01*
X004649Y024603D02*
X003900Y024603D01*
X003900Y024604D02*
X004649Y024604D01*
X004649Y024605D02*
X003900Y024605D01*
X003900Y024606D02*
X004649Y024606D01*
X004649Y024607D02*
X003900Y024607D01*
X003900Y024608D02*
X004649Y024608D01*
X004649Y024609D02*
X003900Y024609D01*
X003900Y024610D02*
X004649Y024610D01*
X004649Y024611D02*
X003900Y024611D01*
X003900Y024612D02*
X004649Y024612D01*
X004649Y024613D02*
X003900Y024613D01*
X003900Y024614D02*
X004649Y024614D01*
X004649Y024615D02*
X003900Y024615D01*
X003900Y024616D02*
X004649Y024616D01*
X004649Y024617D02*
X003900Y024617D01*
X003900Y024618D02*
X004649Y024618D01*
X004649Y024619D02*
X003900Y024619D01*
X003900Y024620D02*
X004649Y024620D01*
X004649Y024621D02*
X003900Y024621D01*
X003900Y024622D02*
X004649Y024622D01*
X004649Y024623D02*
X003900Y024623D01*
X003900Y024624D02*
X004649Y024624D01*
X004649Y024625D02*
X003900Y024625D01*
X003900Y024626D02*
X004649Y024626D01*
X004649Y024627D02*
X003900Y024627D01*
X003900Y024628D02*
X004649Y024628D01*
X004649Y024629D02*
X003900Y024629D01*
X003900Y024630D02*
X004649Y024630D01*
X004649Y024631D02*
X003900Y024631D01*
X003900Y024632D02*
X004649Y024632D01*
X004649Y024633D02*
X003900Y024633D01*
X003900Y024634D02*
X004649Y024634D01*
X004649Y024635D02*
X003900Y024635D01*
X003900Y024636D02*
X004649Y024636D01*
X004649Y024637D02*
X003900Y024637D01*
X003900Y024638D02*
X004649Y024638D01*
X004649Y024639D02*
X003900Y024639D01*
X003900Y024640D02*
X004649Y024640D01*
X004649Y024641D02*
X003900Y024641D01*
X003900Y024642D02*
X004649Y024642D01*
X004649Y024643D02*
X003900Y024643D01*
X003900Y024644D02*
X004649Y024644D01*
X004649Y024645D02*
X003900Y024645D01*
X003900Y024646D02*
X004649Y024646D01*
X004649Y024647D02*
X003900Y024647D01*
X003900Y024648D02*
X004649Y024648D01*
X004649Y024649D02*
X003900Y024649D01*
X003900Y024650D02*
X004649Y024650D01*
X004649Y024651D02*
X003900Y024651D01*
X003900Y024652D02*
X004649Y024652D01*
X004649Y024653D02*
X003900Y024653D01*
X003900Y024654D02*
X004649Y024654D01*
X004649Y024655D02*
X003900Y024655D01*
X003900Y024656D02*
X004649Y024656D01*
X004649Y024657D02*
X003900Y024657D01*
X003900Y024658D02*
X004649Y024658D01*
X004649Y024659D02*
X003900Y024659D01*
X003900Y024660D02*
X004649Y024660D01*
X004649Y024661D02*
X003900Y024661D01*
X003900Y024662D02*
X004649Y024662D01*
X004649Y024663D02*
X003900Y024663D01*
X003900Y024664D02*
X004649Y024664D01*
X004649Y024665D02*
X003900Y024665D01*
X003900Y024666D02*
X004649Y024666D01*
X004649Y024667D02*
X003900Y024667D01*
X003900Y024668D02*
X004648Y024668D01*
X004648Y024669D02*
X003901Y024669D01*
X003901Y024670D02*
X004648Y024670D01*
X004648Y024671D02*
X003901Y024671D01*
X003901Y024672D02*
X004648Y024672D01*
X004648Y024673D02*
X003901Y024673D01*
X003901Y024674D02*
X004648Y024674D01*
X004648Y024675D02*
X003901Y024675D01*
X003901Y024676D02*
X004648Y024676D01*
X004647Y024677D02*
X003902Y024677D01*
X003902Y024678D02*
X004647Y024678D01*
X004647Y024679D02*
X003902Y024679D01*
X003902Y024680D02*
X004647Y024680D01*
X004647Y024681D02*
X003902Y024681D01*
X003902Y024682D02*
X004647Y024682D01*
X004647Y024683D02*
X003902Y024683D01*
X003902Y024684D02*
X004647Y024684D01*
X004647Y024685D02*
X003902Y024685D01*
X003903Y024686D02*
X004646Y024686D01*
X004646Y024687D02*
X003903Y024687D01*
X003903Y024688D02*
X004646Y024688D01*
X004646Y024689D02*
X003903Y024689D01*
X003903Y024690D02*
X004646Y024690D01*
X004646Y024691D02*
X003903Y024691D01*
X003903Y024692D02*
X004646Y024692D01*
X004646Y024693D02*
X003903Y024693D01*
X003903Y024694D02*
X004646Y024694D01*
X004645Y024695D02*
X003904Y024695D01*
X003904Y024696D02*
X004645Y024696D01*
X004645Y024697D02*
X003904Y024697D01*
X003904Y024698D02*
X004645Y024698D01*
X004645Y024699D02*
X003904Y024699D01*
X003904Y024700D02*
X004645Y024700D01*
X004645Y024701D02*
X003904Y024701D01*
X003904Y024702D02*
X004645Y024702D01*
X004645Y024703D02*
X003904Y024703D01*
X003905Y024704D02*
X004644Y024704D01*
X004644Y024705D02*
X003905Y024705D01*
X003905Y024706D02*
X004644Y024706D01*
X004644Y024707D02*
X003905Y024707D01*
X003905Y024708D02*
X004644Y024708D01*
X004644Y024709D02*
X003905Y024709D01*
X003905Y024710D02*
X004644Y024710D01*
X004644Y024711D02*
X003905Y024711D01*
X003906Y024712D02*
X004643Y024712D01*
X004643Y024713D02*
X003906Y024713D01*
X003906Y024714D02*
X004643Y024714D01*
X004642Y024715D02*
X003907Y024715D01*
X003907Y024716D02*
X004642Y024716D01*
X004642Y024717D02*
X003907Y024717D01*
X003908Y024718D02*
X004641Y024718D01*
X004641Y024719D02*
X003908Y024719D01*
X003908Y024720D02*
X004641Y024720D01*
X004640Y024721D02*
X003909Y024721D01*
X003909Y024722D02*
X004640Y024722D01*
X004640Y024723D02*
X003909Y024723D01*
X003910Y024724D02*
X004639Y024724D01*
X004639Y024725D02*
X003910Y024725D01*
X003910Y024726D02*
X004639Y024726D01*
X004638Y024727D02*
X003911Y024727D01*
X003911Y024728D02*
X004638Y024728D01*
X004637Y024729D02*
X003911Y024729D01*
X003912Y024730D02*
X004637Y024730D01*
X004637Y024731D02*
X003912Y024731D01*
X003913Y024732D02*
X004636Y024732D01*
X004636Y024733D02*
X003913Y024733D01*
X003913Y024734D02*
X004636Y024734D01*
X004635Y024735D02*
X003914Y024735D01*
X003914Y024736D02*
X004635Y024736D01*
X004635Y024737D02*
X003914Y024737D01*
X003915Y024738D02*
X004634Y024738D01*
X004634Y024739D02*
X003915Y024739D01*
X003915Y024740D02*
X004634Y024740D01*
X004633Y024741D02*
X003916Y024741D01*
X003916Y024742D02*
X004633Y024742D01*
X004633Y024743D02*
X003916Y024743D01*
X003917Y024744D02*
X004632Y024744D01*
X004632Y024745D02*
X003917Y024745D01*
X003917Y024746D02*
X004632Y024746D01*
X004631Y024747D02*
X003918Y024747D01*
X003918Y024748D02*
X004631Y024748D01*
X004631Y024749D02*
X003918Y024749D01*
X003919Y024750D02*
X004630Y024750D01*
X004630Y024751D02*
X003919Y024751D01*
X003920Y024752D02*
X004629Y024752D01*
X004629Y024753D02*
X003920Y024753D01*
X003920Y024754D02*
X004629Y024754D01*
X004628Y024755D02*
X003921Y024755D01*
X003922Y024756D02*
X004627Y024756D01*
X004627Y024757D02*
X003922Y024757D01*
X003923Y024758D02*
X004626Y024758D01*
X004625Y024759D02*
X003924Y024759D01*
X003924Y024760D02*
X004625Y024760D01*
X004624Y024761D02*
X003925Y024761D01*
X003925Y024762D02*
X004624Y024762D01*
X004623Y024763D02*
X003926Y024763D01*
X003927Y024764D02*
X004622Y024764D01*
X004622Y024765D02*
X003927Y024765D01*
X003928Y024766D02*
X004621Y024766D01*
X004620Y024767D02*
X003929Y024767D01*
X003929Y024768D02*
X004620Y024768D01*
X004619Y024769D02*
X003930Y024769D01*
X003930Y024770D02*
X004619Y024770D01*
X004618Y024771D02*
X003931Y024771D01*
X003932Y024772D02*
X004617Y024772D01*
X004617Y024773D02*
X003932Y024773D01*
X003933Y024774D02*
X004616Y024774D01*
X004615Y024775D02*
X003934Y024775D01*
X003934Y024776D02*
X004615Y024776D01*
X004614Y024777D02*
X003935Y024777D01*
X003935Y024778D02*
X004613Y024778D01*
X004613Y024779D02*
X003936Y024779D01*
X003937Y024780D02*
X004612Y024780D01*
X004612Y024781D02*
X003937Y024781D01*
X003938Y024782D02*
X004611Y024782D01*
X004610Y024783D02*
X003939Y024783D01*
X003939Y024784D02*
X004610Y024784D01*
X004609Y024785D02*
X003940Y024785D01*
X003941Y024786D02*
X004608Y024786D01*
X004608Y024787D02*
X003941Y024787D01*
X003942Y024788D02*
X004607Y024788D01*
X004607Y024789D02*
X003942Y024789D01*
X003943Y024790D02*
X004606Y024790D01*
X004605Y024791D02*
X003944Y024791D01*
X003945Y024792D02*
X004604Y024792D01*
X004603Y024793D02*
X003946Y024793D01*
X003947Y024794D02*
X004602Y024794D01*
X004601Y024795D02*
X003948Y024795D01*
X003949Y024796D02*
X004600Y024796D01*
X004599Y024797D02*
X003950Y024797D01*
X003951Y024798D02*
X004598Y024798D01*
X004597Y024799D02*
X003952Y024799D01*
X003953Y024800D02*
X004596Y024800D01*
X004595Y024801D02*
X003954Y024801D01*
X003955Y024802D02*
X004594Y024802D01*
X004593Y024803D02*
X003956Y024803D01*
X003957Y024804D02*
X004592Y024804D01*
X004591Y024805D02*
X003958Y024805D01*
X003959Y024806D02*
X004590Y024806D01*
X004589Y024807D02*
X003960Y024807D01*
X003961Y024808D02*
X004588Y024808D01*
X004587Y024809D02*
X003962Y024809D01*
X003963Y024810D02*
X004586Y024810D01*
X004585Y024811D02*
X003964Y024811D01*
X003965Y024812D02*
X004584Y024812D01*
X004583Y024813D02*
X003966Y024813D01*
X003967Y024814D02*
X004582Y024814D01*
X004581Y024815D02*
X003968Y024815D01*
X003969Y024816D02*
X004580Y024816D01*
X004579Y024817D02*
X003970Y024817D01*
X003971Y024818D02*
X004578Y024818D01*
X004577Y024819D02*
X003972Y024819D01*
X003973Y024820D02*
X004576Y024820D01*
X004575Y024821D02*
X003974Y024821D01*
X003975Y024822D02*
X004574Y024822D01*
X004573Y024823D02*
X003976Y024823D01*
X003978Y024824D02*
X004571Y024824D01*
X004569Y024825D02*
X003980Y024825D01*
X003981Y024826D02*
X004568Y024826D01*
X004566Y024827D02*
X003983Y024827D01*
X003984Y024828D02*
X004565Y024828D01*
X004563Y024829D02*
X003986Y024829D01*
X003988Y024830D02*
X004561Y024830D01*
X004560Y024831D02*
X003989Y024831D01*
X003991Y024832D02*
X004558Y024832D01*
X004557Y024833D02*
X003992Y024833D01*
X003994Y024834D02*
X004555Y024834D01*
X004553Y024835D02*
X003996Y024835D01*
X003997Y024836D02*
X004552Y024836D01*
X004550Y024837D02*
X003999Y024837D01*
X004000Y024838D02*
X004549Y024838D01*
X004547Y024839D02*
X004002Y024839D01*
X004003Y024840D02*
X004546Y024840D01*
X004544Y024841D02*
X004005Y024841D01*
X004007Y024842D02*
X004542Y024842D01*
X004541Y024843D02*
X004008Y024843D01*
X004010Y024844D02*
X004539Y024844D01*
X004538Y024845D02*
X004011Y024845D01*
X004014Y024846D02*
X004535Y024846D01*
X004532Y024847D02*
X004017Y024847D01*
X004020Y024848D02*
X004529Y024848D01*
X004527Y024849D02*
X004022Y024849D01*
X004025Y024850D02*
X004524Y024850D01*
X004521Y024851D02*
X004028Y024851D01*
X004031Y024852D02*
X004518Y024852D01*
X004515Y024853D02*
X004034Y024853D01*
X004037Y024854D02*
X004512Y024854D01*
X004509Y024855D02*
X004040Y024855D01*
X004042Y024856D02*
X004507Y024856D01*
X004504Y024857D02*
X004045Y024857D01*
X004048Y024858D02*
X004501Y024858D01*
X004498Y024859D02*
X004051Y024859D01*
X004055Y024860D02*
X004494Y024860D01*
X004486Y024861D02*
X004063Y024861D01*
X004072Y024862D02*
X004477Y024862D01*
X004468Y024863D02*
X004081Y024863D01*
X004090Y024864D02*
X004459Y024864D01*
D15*
X044117Y022857D03*
X044471Y021715D03*
X044471Y023999D03*
X044471Y027227D03*
X044117Y028369D03*
X044471Y029511D03*
X044471Y018093D03*
X044117Y016952D03*
X044471Y015810D03*
D16*
X045456Y016952D03*
X048211Y016952D03*
X048211Y022857D03*
X045456Y022857D03*
X045456Y028369D03*
X048211Y028369D03*
D17*
X034534Y031960D03*
X011503Y031960D03*
X011503Y030582D03*
D18*
X040184Y031637D03*
X041168Y031637D03*
D19*
X007660Y030889D02*
X007654Y030957D01*
X007637Y031023D01*
X007608Y031086D01*
X007568Y031142D01*
X007520Y031190D01*
X007463Y031230D01*
X007401Y031259D01*
X007335Y031276D01*
X007267Y031282D01*
X007198Y031276D01*
X007132Y031259D01*
X007070Y031230D01*
X007014Y031190D01*
X006965Y031142D01*
X006926Y031086D01*
X006897Y031023D01*
X006879Y030957D01*
X006873Y030889D01*
X006879Y030820D01*
X006897Y030754D01*
X006926Y030692D01*
X006965Y030636D01*
X007014Y030587D01*
X007070Y030548D01*
X007132Y030519D01*
X007198Y030501D01*
X007267Y030495D01*
X007335Y030501D01*
X007401Y030519D01*
X007463Y030548D01*
X007520Y030587D01*
X007568Y030636D01*
X007608Y030692D01*
X007637Y030754D01*
X007654Y030820D01*
X007660Y030889D01*
X007658Y030866D02*
X006875Y030866D01*
X006880Y030818D02*
X007654Y030818D01*
X007641Y030769D02*
X006893Y030769D01*
X006912Y030721D02*
X007621Y030721D01*
X007594Y030672D02*
X006939Y030672D01*
X006977Y030624D02*
X007556Y030624D01*
X007503Y030575D02*
X007030Y030575D01*
X007114Y030527D02*
X007419Y030527D01*
X007658Y030915D02*
X006875Y030915D01*
X006881Y030963D02*
X007653Y030963D01*
X007640Y031012D02*
X006894Y031012D01*
X006914Y031060D02*
X007619Y031060D01*
X007591Y031109D02*
X006942Y031109D01*
X006981Y031157D02*
X007553Y031157D01*
X007497Y031206D02*
X007036Y031206D01*
X007123Y031254D02*
X007410Y031254D01*
X042897Y006426D02*
X042959Y006455D01*
X043025Y006473D01*
X043093Y006479D01*
X043162Y006473D01*
X043228Y006455D01*
X043290Y006426D01*
X043346Y006387D01*
X043395Y006339D01*
X043434Y006282D01*
X043463Y006220D01*
X043481Y006154D01*
X043487Y006086D01*
X043481Y006017D01*
X043463Y005951D01*
X043434Y005889D01*
X042752Y005889D01*
X042723Y005951D01*
X042706Y006017D01*
X042700Y006086D01*
X042706Y006154D01*
X042723Y006220D01*
X042752Y006282D01*
X042792Y006339D01*
X042840Y006387D01*
X042897Y006426D01*
X042890Y006422D02*
X043296Y006422D01*
X043360Y006374D02*
X042827Y006374D01*
X042782Y006325D02*
X043404Y006325D01*
X043437Y006277D02*
X042750Y006277D01*
X042727Y006228D02*
X043460Y006228D01*
X043474Y006180D02*
X042713Y006180D01*
X042704Y006131D02*
X043483Y006131D01*
X043487Y006083D02*
X042700Y006083D01*
X042704Y006034D02*
X043483Y006034D01*
X043473Y005986D02*
X042714Y005986D01*
X042730Y005937D02*
X043457Y005937D01*
X043434Y005889D02*
X043395Y005832D01*
X043346Y005784D01*
X043290Y005745D01*
X043228Y005716D01*
X043162Y005698D01*
X043093Y005692D01*
X043025Y005698D01*
X042959Y005716D01*
X042897Y005745D01*
X042840Y005784D01*
X042792Y005832D01*
X042752Y005889D01*
X042786Y005840D02*
X043400Y005840D01*
X043354Y005792D02*
X042833Y005792D01*
X042899Y005743D02*
X043287Y005743D01*
X043127Y005695D02*
X043060Y005695D01*
X043016Y006471D02*
X043171Y006471D01*
D20*
X005298Y004117D03*
X005298Y032463D03*
X047424Y032463D03*
X047424Y004117D03*
M02*
