%
M48
M72
T01C0.01969
T02C0.03200
T03C0.03346
T04C0.03937
T05C0.05118
T06C0.05512
T07C0.06299
T08C0.07874
T09C0.11811
T10C0.12598
%
T01
X136216Y365157
X152633Y358661
X160389Y355078
X168381Y351810
X171846Y347322
X185468Y342479
X196177Y335432
X199996Y340353
X209129Y331102
X206373Y327558
X202358Y309802
X212948Y309133
X233145Y313779
X228814Y293700
X237082Y293306
X237515Y285944
X237082Y277558
X228814Y277952
X237082Y260629
X239326Y249251
X230783Y250393
X253618Y227558
X266216Y230314
X279602Y239369
X309917Y238188
X310310Y265747
X316610Y265747
X308499Y272479
X310310Y279527
X308263Y289054
X313460Y290039
X320271Y302440
X328145Y304251
X319759Y309842
X326452Y316535
X319759Y322834
X330389Y328739
X334720Y324409
X344090Y326259
X343854Y339960
X344248Y347598
X350035Y361535
X366216Y368109
X370429Y378661
X357948Y376377
X336413Y384960
X332751Y379133
X321728Y364172
X308736Y360235
X326059Y348818
X315429Y342913
X310310Y339763
X302673Y342991
X297948Y341850
X288263Y350393
X279996Y344487
X276846Y341338
X273736Y345353
X274169Y355117
X267397Y368503
X253145Y362007
X247712Y352755
X247751Y337834
X252397Y331889
X257948Y322834
X267397Y332283
X281964Y325983
X283145Y330314
X305192Y329133
X310822Y326023
X314208Y333464
X319051Y336141
X330389Y335432
X343933Y311613
X344562Y297637
X344562Y291338
X327240Y285039
X302240Y300353
X306373Y311810
X286610Y311771
X263854Y309763
X281964Y273621
X215429Y226377
X203224Y230314
X185665Y239605
X146137Y232676
X127240Y255511
X145350Y263779
X154799Y277952
X179996Y277952
X188775Y313818
X179996Y323228
X179877Y330078
X167791Y329133
X156373Y328739
X210468Y373424
X223303Y372046
X216216Y387007
X225389Y405393
X220586Y408621
X219956Y425196
X204287Y414369
X169129Y423188
X165035Y429527
X156373Y394369
X249681Y400393
X249326Y405393
X261216Y405275
X273893Y412046
X250862Y436613
X302436Y413385
X302436Y407086
X319523Y394212
X330389Y405511
X344444Y419684
X341767Y429133
X357870Y426928
X357161Y436613
X368618Y430314
X376334Y425472
X385704Y427361
X436570Y432401
X443775Y448818
X457751Y448857
X463106Y430708
X501216Y432794
X518696Y399172
X497515Y369724
X519759Y341771
X488578Y313306
X455586Y331889
X444956Y338582
X437909Y333031
X441807Y324802
X431570Y308818
X436688Y304724
X416295Y317676
X406373Y290944
X409523Y286298
X398106Y290944
X381177Y287007
X381177Y297637
X374090Y331495
X377791Y335629
X385114Y337007
X400429Y345432
X400468Y350472
X400350Y355432
X400153Y360235
X393421Y366850
X408342Y375983
X444956Y375983
X443775Y356692
X452830Y350787
X447712Y345668
X463421Y354724
X365822Y353542
X253421Y377598
X404799Y234251
X396059Y225668
X383106Y226535
X385507Y202755
X344562Y217716
X334326Y179920
X340232Y175196
X262279Y210629
X242594Y183070
T02
X164266Y177722
X164266Y187722
X164266Y197722
X164266Y207722
X164266Y217722
X164266Y227722
X164266Y247722
X164266Y257722
X164266Y267722
X164266Y277722
X164266Y287722
X164266Y297722
X164266Y307722
X164266Y317722
X354266Y353722
X354266Y343722
X354266Y333722
X354266Y323722
X354266Y313722
X354266Y303722
X354266Y293722
X354266Y283722
X354266Y273722
X354266Y263722
X354266Y247722
X354266Y237722
X354266Y227722
X354266Y217722
X354266Y207722
X354266Y197722
X354266Y187722
X354266Y177722
T03
X129208Y364566
X129208Y384251
T04
X477673Y458267
X487515Y458267
T05
X530389Y425590
X557948Y425590
X557948Y370472
X530389Y370472
X530389Y311416
X557948Y311416
T06
X190862Y447716
X190862Y461495
X421177Y461495
T07
X517003Y425590
X520547Y437007
X520547Y414172
X552436Y412204
X552436Y438976
X552436Y383857
X552436Y357086
X520547Y359054
X517003Y370472
X520547Y381889
X552436Y324802
X520547Y322834
X517003Y311416
X520547Y299999
X552436Y298031
T08
X207200Y438070
X211925Y471141
X400114Y471141
X404838Y438070
T09
X482633Y439645
T10
X128814Y466535
X128814Y183070
X550074Y183070
X550074Y466535
M30
