G75*
%MOIN*%
%OFA0B0*%
%FSLAX25Y25*%
%IPPOS*%
%LPD*%
%AMOC8*
5,1,8,0,0,1.08239X$1,22.5*
%
%ADD10C,0.00000*%
D10*
X0076833Y0123900D02*
X0076833Y0131900D01*
X0072833Y0127900D02*
X0080833Y0127900D01*
X0164266Y0198722D02*
X0164266Y0206722D01*
X0160266Y0202722D02*
X0168266Y0202722D01*
X0150452Y0206535D02*
X0142452Y0206535D01*
X0146452Y0202535D02*
X0146452Y0210535D01*
X0132421Y0206708D02*
X0124421Y0206708D01*
X0128421Y0202708D02*
X0128421Y0210708D01*
X0129106Y0241826D02*
X0129106Y0249826D01*
X0125106Y0245826D02*
X0133106Y0245826D01*
X0164266Y0278722D02*
X0164266Y0286722D01*
X0160266Y0282722D02*
X0168266Y0282722D01*
X0148562Y0289369D02*
X0140562Y0289369D01*
X0144562Y0285369D02*
X0144562Y0293369D01*
X0140625Y0308991D02*
X0140625Y0316991D01*
X0136625Y0312991D02*
X0144625Y0312991D01*
X0128877Y0312991D02*
X0120877Y0312991D01*
X0124877Y0308991D02*
X0124877Y0316991D01*
X0159862Y0339813D02*
X0167862Y0339813D01*
X0163862Y0335813D02*
X0163862Y0343813D01*
X0188940Y0351172D02*
X0196940Y0351172D01*
X0192940Y0347172D02*
X0192940Y0355172D01*
X0186688Y0377889D02*
X0186688Y0385889D01*
X0182688Y0381889D02*
X0190688Y0381889D01*
X0187870Y0399542D02*
X0187870Y0407542D01*
X0183870Y0403542D02*
X0191870Y0403542D01*
X0178814Y0419228D02*
X0178814Y0427228D01*
X0174814Y0423228D02*
X0182814Y0423228D01*
X0161555Y0410629D02*
X0153555Y0410629D01*
X0148956Y0411416D02*
X0140956Y0411416D01*
X0144956Y0407416D02*
X0144956Y0415416D01*
X0135964Y0418503D02*
X0127964Y0418503D01*
X0125728Y0418897D02*
X0117728Y0418897D01*
X0121728Y0414897D02*
X0121728Y0422897D01*
X0131964Y0422503D02*
X0131964Y0414503D01*
X0131964Y0402818D02*
X0131964Y0394818D01*
X0127964Y0398818D02*
X0135964Y0398818D01*
X0141413Y0396913D02*
X0141413Y0388913D01*
X0137413Y0392913D02*
X0145413Y0392913D01*
X0133208Y0384251D02*
X0125208Y0384251D01*
X0129208Y0380251D02*
X0129208Y0388251D01*
X0118578Y0396393D02*
X0118578Y0404393D01*
X0114578Y0400393D02*
X0122578Y0400393D01*
X0139838Y0379793D02*
X0139838Y0372173D01*
X0136028Y0375983D02*
X0143648Y0375983D01*
X0145681Y0374015D02*
X0153681Y0374015D01*
X0149681Y0370015D02*
X0149681Y0378015D01*
X0165744Y0391590D02*
X0165744Y0399590D01*
X0161744Y0395590D02*
X0169744Y0395590D01*
X0157555Y0406629D02*
X0157555Y0414629D01*
X0148499Y0447995D02*
X0148499Y0453578D01*
X0145708Y0450787D02*
X0151291Y0450787D01*
X0231862Y0405747D02*
X0239862Y0405747D01*
X0235862Y0401747D02*
X0235862Y0409747D01*
X0260484Y0422165D02*
X0268484Y0422165D01*
X0264484Y0418165D02*
X0264484Y0426165D01*
X0290169Y0419291D02*
X0298169Y0419291D01*
X0294169Y0415291D02*
X0294169Y0423291D01*
X0305917Y0423228D02*
X0313917Y0423228D01*
X0309917Y0419228D02*
X0309917Y0427228D01*
X0306019Y0450605D02*
X0306019Y0458605D01*
X0302019Y0454605D02*
X0310019Y0454605D01*
X0336397Y0415771D02*
X0336397Y0407771D01*
X0332397Y0411771D02*
X0340397Y0411771D01*
X0348279Y0411826D02*
X0356279Y0411826D01*
X0352279Y0407826D02*
X0352279Y0415826D01*
X0364358Y0411960D02*
X0372358Y0411960D01*
X0368358Y0407960D02*
X0368358Y0415960D01*
X0387358Y0411960D02*
X0395358Y0411960D01*
X0391358Y0407960D02*
X0391358Y0415960D01*
X0403358Y0411960D02*
X0411358Y0411960D01*
X0407358Y0407960D02*
X0407358Y0415960D01*
X0419358Y0411960D02*
X0427358Y0411960D01*
X0423358Y0407960D02*
X0423358Y0415960D01*
X0435358Y0411960D02*
X0443358Y0411960D01*
X0439358Y0407960D02*
X0439358Y0415960D01*
X0451358Y0411960D02*
X0459358Y0411960D01*
X0455358Y0407960D02*
X0455358Y0415960D01*
X0467358Y0411960D02*
X0475358Y0411960D01*
X0471358Y0407960D02*
X0471358Y0415960D01*
X0483358Y0411960D02*
X0491358Y0411960D01*
X0487358Y0407960D02*
X0487358Y0415960D01*
X0499783Y0411960D02*
X0507783Y0411960D01*
X0503783Y0407960D02*
X0503783Y0415960D01*
X0504594Y0394684D02*
X0504594Y0386684D01*
X0500594Y0390684D02*
X0508594Y0390684D01*
X0490794Y0391284D02*
X0482794Y0391284D01*
X0486794Y0387284D02*
X0486794Y0395284D01*
X0475594Y0390684D02*
X0467594Y0390684D01*
X0471594Y0386684D02*
X0471594Y0394684D01*
X0459594Y0390684D02*
X0451594Y0390684D01*
X0455594Y0386684D02*
X0455594Y0394684D01*
X0443594Y0390684D02*
X0435594Y0390684D01*
X0439594Y0386684D02*
X0439594Y0394684D01*
X0427594Y0390684D02*
X0419594Y0390684D01*
X0423594Y0386684D02*
X0423594Y0394684D01*
X0411594Y0390684D02*
X0403594Y0390684D01*
X0407594Y0386684D02*
X0407594Y0394684D01*
X0395594Y0390684D02*
X0387594Y0390684D01*
X0391594Y0386684D02*
X0391594Y0394684D01*
X0375381Y0391928D02*
X0367381Y0391928D01*
X0371381Y0387928D02*
X0371381Y0395928D01*
X0357207Y0392203D02*
X0349207Y0392203D01*
X0353207Y0388203D02*
X0353207Y0396203D01*
X0340094Y0392003D02*
X0332094Y0392003D01*
X0336094Y0388003D02*
X0336094Y0396003D01*
X0320940Y0377228D02*
X0320940Y0369228D01*
X0316940Y0373228D02*
X0324940Y0373228D01*
X0299744Y0373228D02*
X0291744Y0373228D01*
X0295744Y0369228D02*
X0295744Y0377228D01*
X0270909Y0375787D02*
X0262909Y0375787D01*
X0266909Y0371787D02*
X0266909Y0379787D01*
X0266863Y0366983D02*
X0266863Y0358983D01*
X0262863Y0362983D02*
X0270863Y0362983D01*
X0263326Y0345046D02*
X0263326Y0337046D01*
X0259326Y0341046D02*
X0267326Y0341046D01*
X0263326Y0327023D02*
X0263326Y0319023D01*
X0259326Y0323023D02*
X0267326Y0323023D01*
X0290232Y0301243D02*
X0290232Y0293243D01*
X0286232Y0297243D02*
X0294232Y0297243D01*
X0290232Y0285495D02*
X0290232Y0277495D01*
X0286232Y0281495D02*
X0294232Y0281495D01*
X0290232Y0269747D02*
X0290232Y0261747D01*
X0286232Y0265747D02*
X0294232Y0265747D01*
X0317728Y0277558D02*
X0325728Y0277558D01*
X0321728Y0273558D02*
X0321728Y0281558D01*
X0335759Y0294850D02*
X0335759Y0302850D01*
X0331759Y0298850D02*
X0339759Y0298850D01*
X0335901Y0311353D02*
X0335901Y0319353D01*
X0331901Y0315353D02*
X0339901Y0315353D01*
X0350266Y0308722D02*
X0358266Y0308722D01*
X0354266Y0304722D02*
X0354266Y0312722D01*
X0378326Y0327125D02*
X0386326Y0327125D01*
X0382326Y0323125D02*
X0382326Y0331125D01*
X0403799Y0321598D02*
X0411799Y0321598D01*
X0407799Y0317598D02*
X0407799Y0325598D01*
X0393082Y0305149D02*
X0393082Y0297149D01*
X0389082Y0301149D02*
X0397082Y0301149D01*
X0424027Y0297243D02*
X0432027Y0297243D01*
X0428027Y0293243D02*
X0428027Y0301243D01*
X0447712Y0277621D02*
X0447712Y0269621D01*
X0443712Y0273621D02*
X0451712Y0273621D01*
X0475208Y0265747D02*
X0483208Y0265747D01*
X0479208Y0261747D02*
X0479208Y0269747D01*
X0491295Y0285369D02*
X0491295Y0293369D01*
X0487295Y0289369D02*
X0495295Y0289369D01*
X0501059Y0310330D02*
X0501059Y0318330D01*
X0497059Y0314330D02*
X0505059Y0314330D01*
X0509720Y0332338D02*
X0509720Y0340338D01*
X0505720Y0336338D02*
X0513720Y0336338D01*
X0534307Y0334251D02*
X0542219Y0334251D01*
X0538263Y0330295D02*
X0538263Y0338207D01*
X0538263Y0340487D02*
X0538263Y0348487D01*
X0534263Y0344487D02*
X0542263Y0344487D01*
X0561822Y0324802D02*
X0569822Y0324802D01*
X0565822Y0320802D02*
X0565822Y0328802D01*
X0565822Y0379857D02*
X0565822Y0387857D01*
X0561822Y0383857D02*
X0569822Y0383857D01*
X0542263Y0399605D02*
X0534263Y0399605D01*
X0538263Y0395605D02*
X0538263Y0403605D01*
X0537555Y0394393D02*
X0537555Y0386393D01*
X0533555Y0390393D02*
X0541555Y0390393D01*
X0565822Y0434976D02*
X0565822Y0442976D01*
X0561822Y0438976D02*
X0569822Y0438976D01*
X0516027Y0455125D02*
X0508027Y0455125D01*
X0512027Y0451125D02*
X0512027Y0459125D01*
X0486594Y0450393D02*
X0478594Y0450393D01*
X0482594Y0446393D02*
X0482594Y0454393D01*
X0456145Y0461054D02*
X0448145Y0461054D01*
X0452145Y0457054D02*
X0452145Y0465054D01*
X0439791Y0452369D02*
X0431791Y0452369D01*
X0435791Y0448369D02*
X0435791Y0456369D01*
X0377594Y0375251D02*
X0377594Y0367251D01*
X0373594Y0371251D02*
X0381594Y0371251D01*
X0418279Y0355424D02*
X0426279Y0355424D01*
X0422279Y0351424D02*
X0422279Y0359424D01*
X0475208Y0352361D02*
X0483208Y0352361D01*
X0479208Y0348361D02*
X0479208Y0356361D01*
X0483145Y0324865D02*
X0483145Y0316865D01*
X0479145Y0320865D02*
X0487145Y0320865D01*
X0526452Y0269747D02*
X0526452Y0261747D01*
X0522452Y0265747D02*
X0530452Y0265747D01*
X0546137Y0246125D02*
X0546137Y0238125D01*
X0542137Y0242125D02*
X0550137Y0242125D01*
X0509559Y0202755D02*
X0503976Y0202755D01*
X0506767Y0199964D02*
X0506767Y0205546D01*
X0491019Y0238125D02*
X0491019Y0246125D01*
X0487019Y0242125D02*
X0495019Y0242125D01*
X0451712Y0210629D02*
X0443712Y0210629D01*
X0447712Y0206629D02*
X0447712Y0214629D01*
X0420216Y0218503D02*
X0412216Y0218503D01*
X0416216Y0214503D02*
X0416216Y0222503D01*
X0404405Y0238125D02*
X0404405Y0246125D01*
X0400405Y0242125D02*
X0408405Y0242125D01*
X0392594Y0261747D02*
X0392594Y0269747D01*
X0388594Y0265747D02*
X0396594Y0265747D01*
X0388657Y0222503D02*
X0388657Y0214503D01*
X0384657Y0218503D02*
X0392657Y0218503D01*
X0358266Y0212722D02*
X0350266Y0212722D01*
X0354266Y0208722D02*
X0354266Y0216722D01*
X0308334Y0225007D02*
X0300334Y0225007D01*
X0304334Y0221007D02*
X0304334Y0229007D01*
X0262736Y0226377D02*
X0254736Y0226377D01*
X0258736Y0222377D02*
X0258736Y0230377D01*
X0254586Y0235629D02*
X0254586Y0243629D01*
X0250586Y0239629D02*
X0258586Y0239629D01*
X0244562Y0211755D02*
X0244562Y0203755D01*
X0240562Y0207755D02*
X0248562Y0207755D01*
X0214444Y0197456D02*
X0206444Y0197456D01*
X0210444Y0193456D02*
X0210444Y0201456D01*
X0190303Y0221668D02*
X0182303Y0221668D01*
X0186303Y0217668D02*
X0186303Y0225668D01*
X0215429Y0277495D02*
X0215429Y0285495D01*
X0215429Y0289306D02*
X0215429Y0297306D01*
X0211429Y0293306D02*
X0219429Y0293306D01*
X0219429Y0281495D02*
X0211429Y0281495D01*
X0246862Y0277558D02*
X0254862Y0277558D01*
X0250862Y0273558D02*
X0250862Y0281558D01*
X0250862Y0289306D02*
X0250862Y0297306D01*
X0246862Y0293306D02*
X0254862Y0293306D01*
X0216224Y0321661D02*
X0208224Y0321661D01*
X0212224Y0317661D02*
X0212224Y0325661D01*
X0234862Y0341479D02*
X0234862Y0349479D01*
X0230862Y0345479D02*
X0238862Y0345479D01*
X0304114Y0333826D02*
X0312114Y0333826D01*
X0308114Y0329826D02*
X0308114Y0337826D01*
M02*
